<?xml version="1.0" encoding="UTF-8" standalone="no"?>
<!DOCTYPE svg PUBLIC "-//W3C//DTD SVG 1.1//EN"
 "http://www.w3.org/Graphics/SVG/1.1/DTD/svg11.dtd">
<!-- Generated by graphviz version 14.1.3 (20260303.0454)
 -->
<!-- Title: spectre Pages: 1 -->
<svg width="870pt" height="341pt"
 viewBox="0.00 0.00 870.00 341.00" xmlns="http://www.w3.org/2000/svg" xmlns:xlink="http://www.w3.org/1999/xlink">
<g id="graph0" class="graph" transform="scale(1 1) rotate(0) translate(4 337.43)">
<title>spectre</title>
<polygon fill="white" stroke="none" points="-4,4 -4,-337.43 866.25,-337.43 866.25,4 -4,4"/>
<!-- node0 -->
<g id="node1" class="node">
<title>node0</title>
<polygon fill="#e8e8e8" stroke="black" points="239.57,-22.75 239.57,-54.93 184.65,-77.68 106.97,-77.68 52.05,-54.93 52.05,-22.75 106.97,0 184.65,0 239.57,-22.75"/>
<text xml:space="preserve" text-anchor="middle" x="145.81" y="-48.82" font-family="Helvetica,sans-Serif" font-size="12.00">SDL3&#45;static</text>
<text xml:space="preserve" text-anchor="middle" x="145.81" y="-34.57" font-family="Helvetica,sans-Serif" font-size="12.00">(SDL3::SDL3)</text>
<text xml:space="preserve" text-anchor="middle" x="145.81" y="-20.32" font-family="Helvetica,sans-Serif" font-size="12.00">(SDL3::SDL3&#45;static)</text>
</g>
<!-- node2 -->
<g id="node2" class="node">
<title>node2</title>
<polygon fill="#e8e8e8" stroke="black" points="800.98,-293.92 800.98,-317.06 748.74,-333.43 674.88,-333.43 622.64,-317.06 622.64,-293.92 674.88,-277.56 748.74,-277.56 800.98,-293.92"/>
<text xml:space="preserve" text-anchor="middle" x="711.81" y="-308.34" font-family="Helvetica,sans-Serif" font-size="12.00">SDL3_test</text>
<text xml:space="preserve" text-anchor="middle" x="711.81" y="-294.09" font-family="Helvetica,sans-Serif" font-size="12.00">(SDL3::SDL3_test)</text>
</g>
<!-- node3 -->
<g id="node3" class="node">
<title>node3</title>
<polygon fill="#e8e8e8" stroke="black" points="862.25,-31.39 862.25,-46.3 838.56,-56.84 805.06,-56.84 781.36,-46.3 781.36,-31.39 805.06,-20.84 838.56,-20.84 862.25,-31.39"/>
<text xml:space="preserve" text-anchor="middle" x="821.81" y="-34.57" font-family="Helvetica,sans-Serif" font-size="12.00">freetype</text>
</g>
<!-- node4 -->
<g id="node4" class="node">
<title>node4</title>
<polygon fill="#e8e8e8" stroke="black" points="829.32,-134.16 829.32,-149.08 804.42,-159.62 769.2,-159.62 744.3,-149.08 744.3,-134.16 769.2,-123.62 804.42,-123.62 829.32,-134.16"/>
<text xml:space="preserve" text-anchor="middle" x="786.81" y="-137.35" font-family="Helvetica,sans-Serif" font-size="12.00">harfbuzz</text>
</g>
<!-- node4&#45;&gt;node3 -->
<g id="edge1" class="edge">
<title>node4&#45;&gt;node3</title>
<path fill="none" stroke="#888888" d="M792.75,-123.52C798.05,-108.25 805.92,-85.59 812.14,-67.7"/>
<polygon fill="#888888" stroke="#888888" points="815.37,-69.05 815.35,-58.45 808.76,-66.75 815.37,-69.05"/>
</g>
<!-- node5 -->
<g id="node5" class="node">
<title>node5</title>
<polygon fill="#e8e8e8" stroke="black" points="117.52,-134.16 117.52,-149.08 88.98,-159.62 48.64,-159.62 20.1,-149.08 20.1,-134.16 48.64,-123.62 88.98,-123.62 117.52,-134.16"/>
<text xml:space="preserve" text-anchor="middle" x="68.81" y="-137.35" font-family="Helvetica,sans-Serif" font-size="12.00">mpack_lib</text>
</g>
<!-- node6 -->
<g id="node6" class="node">
<title>node6</title>
<polygon fill="#2d6a9f" stroke="black" points="423.26,-287.54 425.54,-287.64 427.8,-287.79 430.02,-287.98 432.21,-288.23 434.34,-288.52 436.42,-288.86 438.42,-289.24 440.36,-289.67 442.21,-290.14 443.97,-290.65 445.64,-291.21 447.2,-291.8 448.67,-292.43 450.02,-293.1 451.26,-293.8 452.38,-294.53 453.38,-295.29 454.27,-296.08 455.03,-296.9 455.67,-297.74 456.19,-298.6 456.59,-299.48 456.86,-300.38 457.02,-301.29 457.06,-302.21 456.99,-303.14 456.81,-304.08 456.53,-305.02 456.14,-305.96 455.65,-306.91 455.07,-307.84 454.4,-308.77 453.65,-309.7 452.82,-310.61 451.91,-311.5 450.94,-312.38 449.9,-313.24 448.8,-314.08 447.65,-314.9 446.45,-315.69 445.21,-316.45 443.92,-317.19 442.6,-317.89 441.25,-318.55 439.87,-319.18 438.46,-319.78 437.04,-320.33 435.59,-320.85 434.13,-321.32 432.65,-321.74 431.17,-322.13 429.67,-322.47 428.16,-322.76 426.65,-323 425.14,-323.2 423.62,-323.34 422.1,-323.44 420.57,-323.49 419.05,-323.49 417.52,-323.44 416,-323.34 414.48,-323.2 412.97,-323 411.46,-322.76 409.95,-322.47 408.45,-322.13 406.97,-321.74 405.49,-321.32 404.03,-320.85 402.58,-320.33 401.16,-319.78 399.75,-319.18 398.37,-318.55 397.02,-317.89 395.7,-317.19 394.41,-316.45 393.17,-315.69 391.97,-314.9 390.82,-314.08 389.72,-313.24 388.68,-312.38 387.71,-311.5 386.8,-310.61 385.97,-309.7 385.22,-308.77 384.55,-307.84 383.97,-306.91 383.48,-305.96 383.09,-305.02 382.81,-304.08 382.63,-303.14 382.56,-302.21 382.6,-301.29 382.76,-300.38 383.03,-299.48 383.43,-298.6 383.95,-297.74 384.59,-296.9 385.35,-296.08 386.23,-295.29 387.24,-294.53 388.36,-293.8 389.6,-293.1 390.95,-292.43 392.42,-291.8 393.98,-291.21 395.65,-290.65 397.41,-290.14 399.26,-289.67 401.2,-289.24 403.2,-288.86 405.28,-288.52 407.41,-288.23 409.6,-287.98 411.82,-287.79 414.08,-287.64 416.36,-287.54 418.66,-287.49 420.96,-287.49 423.26,-287.54"/>
<text xml:space="preserve" text-anchor="middle" x="419.81" y="-301.22" font-family="Helvetica,sans-Serif" font-size="12.00" fill="white">spectre</text>
</g>
<!-- node7 -->
<g id="node7" class="node">
<title>node7</title>
<polygon fill="#f0a868" stroke="black" points="769.68,-216.1 769.68,-231.01 738.12,-241.56 693.5,-241.56 661.94,-231.01 661.94,-216.1 693.5,-205.56 738.12,-205.56 769.68,-216.1"/>
<text xml:space="preserve" text-anchor="middle" x="715.81" y="-219.28" font-family="Helvetica,sans-Serif" font-size="12.00">spectre&#45;font</text>
</g>
<!-- node6&#45;&gt;node7 -->
<g id="edge5" class="edge">
<title>node6&#45;&gt;node7</title>
<path fill="none" stroke="#888888" stroke-dasharray="1,5" d="M447.16,-291.3C457.8,-286.51 470.21,-281.35 481.81,-277.56 539.72,-258.6 607.84,-244.01 655.61,-234.98"/>
<polygon fill="#888888" stroke="#888888" points="656.01,-238.46 665.2,-233.19 654.73,-231.58 656.01,-238.46"/>
</g>
<!-- node9 -->
<g id="node9" class="node">
<title>node9</title>
<polygon fill="#f0a868" stroke="black" points="610.2,-216.1 610.2,-231.01 578.34,-241.56 533.28,-241.56 501.42,-231.01 501.42,-216.1 533.28,-205.56 578.34,-205.56 610.2,-216.1"/>
<text xml:space="preserve" text-anchor="middle" x="555.81" y="-219.28" font-family="Helvetica,sans-Serif" font-size="12.00">spectre&#45;grid</text>
</g>
<!-- node6&#45;&gt;node9 -->
<g id="edge7" class="edge">
<title>node6&#45;&gt;node9</title>
<path fill="none" stroke="#888888" stroke-dasharray="1,5" d="M444.12,-290.2C464.98,-277.94 495.35,-260.09 519.16,-246.1"/>
<polygon fill="#888888" stroke="#888888" points="520.76,-249.22 527.61,-241.13 517.21,-243.18 520.76,-249.22"/>
</g>
<!-- node10 -->
<g id="node10" class="node">
<title>node10</title>
<polygon fill="#5b8dd9" stroke="black" points="322.81,-216.1 322.81,-231.01 288.83,-241.56 240.79,-241.56 206.81,-231.01 206.81,-216.1 240.79,-205.56 288.83,-205.56 322.81,-216.1"/>
<text xml:space="preserve" text-anchor="middle" x="264.81" y="-219.28" font-family="Helvetica,sans-Serif" font-size="12.00" fill="white">spectre&#45;nvim</text>
</g>
<!-- node6&#45;&gt;node10 -->
<g id="edge11" class="edge">
<title>node6&#45;&gt;node10</title>
<path fill="none" stroke="#888888" stroke-dasharray="1,5" d="M393.52,-290.93C369.31,-278.45 333.05,-259.75 305.18,-245.38"/>
<polygon fill="#888888" stroke="#888888" points="306.79,-242.27 296.3,-240.8 303.58,-248.49 306.79,-242.27"/>
</g>
<!-- node11 -->
<g id="node11" class="node">
<title>node11</title>
<polygon fill="#7ec8a4" stroke="black" points="483.23,-216.1 483.23,-231.01 441.39,-241.56 382.22,-241.56 340.39,-231.01 340.39,-216.1 382.22,-205.56 441.39,-205.56 483.23,-216.1"/>
<text xml:space="preserve" text-anchor="middle" x="411.81" y="-219.28" font-family="Helvetica,sans-Serif" font-size="12.00">spectre&#45;renderer</text>
</g>
<!-- node6&#45;&gt;node11 -->
<g id="edge18" class="edge">
<title>node6&#45;&gt;node11</title>
<path fill="none" stroke="#888888" stroke-dasharray="1,5" d="M418.07,-287.15C417.08,-277.2 415.8,-264.46 414.66,-253.07"/>
<polygon fill="#888888" stroke="#888888" points="418.17,-252.98 413.69,-243.37 411.21,-253.67 418.17,-252.98"/>
</g>
<!-- node7&#45;&gt;node3 -->
<g id="edge2" class="edge">
<title>node7&#45;&gt;node3</title>
<path fill="none" stroke="#888888" d="M765.98,-214.45C792.42,-207.36 822.64,-194.13 838.81,-169.56 858.98,-138.9 846.92,-95.28 835.28,-67.26"/>
<polygon fill="#888888" stroke="#888888" points="838.6,-66.11 831.35,-58.38 832.2,-68.95 838.6,-66.11"/>
</g>
<!-- node7&#45;&gt;node4 -->
<g id="edge3" class="edge">
<title>node7&#45;&gt;node4</title>
<path fill="none" stroke="#888888" d="M731.22,-205.21C740.8,-194.42 753.29,-180.35 764.01,-168.29"/>
<polygon fill="#888888" stroke="#888888" points="766.4,-170.86 770.43,-161.06 761.17,-166.22 766.4,-170.86"/>
</g>
<!-- node8 -->
<g id="node8" class="node">
<title>node8</title>
<polygon fill="#c9a8e0" stroke="black" points="437.88,-31.39 437.88,-46.3 402.69,-56.84 352.93,-56.84 317.74,-46.3 317.74,-31.39 352.93,-20.84 402.69,-20.84 437.88,-31.39"/>
<text xml:space="preserve" text-anchor="middle" x="377.81" y="-34.57" font-family="Helvetica,sans-Serif" font-size="12.00">spectre&#45;types</text>
</g>
<!-- node7&#45;&gt;node8 -->
<g id="edge4" class="edge">
<title>node7&#45;&gt;node8</title>
<path fill="none" stroke="#888888" d="M714.72,-205.07C712.24,-180.93 704.17,-137.66 677.81,-113.68 644.3,-83.2 524.36,-60.79 446.67,-49.08"/>
<polygon fill="#888888" stroke="#888888" points="447.43,-45.65 437.02,-47.65 446.4,-52.57 447.43,-45.65"/>
</g>
<!-- node9&#45;&gt;node8 -->
<g id="edge6" class="edge">
<title>node9&#45;&gt;node8</title>
<path fill="none" stroke="#888888" d="M598.84,-211.98C620.85,-204.16 645.72,-191.02 658.81,-169.56 671.74,-148.36 673.97,-133.35 658.81,-113.68 633.28,-80.58 523.02,-59.39 448.45,-48.56"/>
<polygon fill="#888888" stroke="#888888" points="449.15,-45.13 438.76,-47.19 448.17,-52.06 449.15,-45.13"/>
</g>
<!-- node10&#45;&gt;node0 -->
<g id="edge8" class="edge">
<title>node10&#45;&gt;node0</title>
<path fill="none" stroke="#888888" d="M206.55,-218.72C139.35,-212.93 35,-199.31 10.81,-169.56 -4.85,-150.29 -1.85,-135.05 10.81,-113.68 22.41,-94.12 41.22,-79.41 61.16,-68.48"/>
<polygon fill="#888888" stroke="#888888" points="62.69,-71.63 69.99,-63.95 59.49,-65.4 62.69,-71.63"/>
</g>
<!-- node10&#45;&gt;node5 -->
<g id="edge9" class="edge">
<title>node10&#45;&gt;node5</title>
<path fill="none" stroke="#888888" d="M229.43,-208.73C202.58,-198.18 164.78,-183.17 131.81,-169.56 124.87,-166.69 117.53,-163.6 110.4,-160.58"/>
<polygon fill="#888888" stroke="#888888" points="111.79,-157.36 101.22,-156.66 109.04,-163.8 111.79,-157.36"/>
</g>
<!-- node10&#45;&gt;node8 -->
<g id="edge10" class="edge">
<title>node10&#45;&gt;node8</title>
<path fill="none" stroke="#888888" d="M287.05,-205.17C298.25,-195.57 311.41,-182.91 320.81,-169.56 343.36,-137.53 359.91,-95.15 369.2,-67.7"/>
<polygon fill="#888888" stroke="#888888" points="372.48,-68.95 372.26,-58.35 365.82,-66.77 372.48,-68.95"/>
</g>
<!-- node11&#45;&gt;node0 -->
<g id="edge12" class="edge">
<title>node11&#45;&gt;node0</title>
<path fill="none" stroke="#888888" d="M358.33,-211.18C285.82,-195.74 165.23,-170 164.81,-169.56 145.01,-148.4 140.2,-116.21 140.37,-89.19"/>
<polygon fill="#888888" stroke="#888888" points="143.86,-89.59 140.68,-79.48 136.87,-89.37 143.86,-89.59"/>
</g>
<!-- node11&#45;&gt;node8 -->
<g id="edge13" class="edge">
<title>node11&#45;&gt;node8</title>
<path fill="none" stroke="#888888" d="M406.37,-205.51C403.24,-195.19 399.41,-181.71 396.81,-169.56 389.42,-135.01 384.01,-94.67 380.89,-68.26"/>
<polygon fill="#888888" stroke="#888888" points="384.41,-68.22 379.79,-58.68 377.45,-69.01 384.41,-68.22"/>
</g>
<!-- node12 -->
<g id="node12" class="node">
<title>node12</title>
<polygon fill="#7ec8a4" stroke="black" points="311.65,-134.16 311.65,-149.08 271.33,-159.62 214.29,-159.62 173.97,-149.08 173.97,-134.16 214.29,-123.62 271.33,-123.62 311.65,-134.16"/>
<text xml:space="preserve" text-anchor="middle" x="242.81" y="-137.35" font-family="Helvetica,sans-Serif" font-size="12.00">spectre&#45;window</text>
</g>
<!-- node11&#45;&gt;node12 -->
<g id="edge16" class="edge">
<title>node11&#45;&gt;node12</title>
<path fill="none" stroke="#888888" d="M377.61,-206.38C351.41,-193.99 315.07,-176.8 286.72,-163.39"/>
<polygon fill="#888888" stroke="#888888" points="288.57,-160.4 278.04,-159.28 285.58,-166.72 288.57,-160.4"/>
</g>
<!-- node13 -->
<g id="node13" class="node">
<title>node13</title>
<polygon fill="#e8e8e8" stroke="black" points="650.27,-130.05 650.27,-153.19 578.53,-169.56 477.09,-169.56 405.35,-153.19 405.35,-130.05 477.09,-113.68 578.53,-113.68 650.27,-130.05"/>
<text xml:space="preserve" text-anchor="middle" x="527.81" y="-144.47" font-family="Helvetica,sans-Serif" font-size="12.00">vk&#45;bootstrap</text>
<text xml:space="preserve" text-anchor="middle" x="527.81" y="-130.22" font-family="Helvetica,sans-Serif" font-size="12.00">(vk&#45;bootstrap::vk&#45;bootstrap)</text>
</g>
<!-- node11&#45;&gt;node13 -->
<g id="edge17" class="edge">
<title>node11&#45;&gt;node13</title>
<path fill="none" stroke="#888888" stroke-dasharray="1,5" d="M436.98,-205.21C449.22,-196.77 464.38,-186.33 478.78,-176.41"/>
<polygon fill="#888888" stroke="#888888" points="480.6,-179.41 486.85,-170.85 476.63,-173.64 480.6,-179.41"/>
</g>
<!-- node12&#45;&gt;node0 -->
<g id="edge14" class="edge">
<title>node12&#45;&gt;node0</title>
<path fill="none" stroke="#888888" d="M226.36,-123.52C216.42,-113.2 203.23,-99.5 190.41,-86.18"/>
<polygon fill="#888888" stroke="#888888" points="193.02,-83.84 183.56,-79.06 187.97,-88.69 193.02,-83.84"/>
</g>
<!-- node12&#45;&gt;node8 -->
<g id="edge15" class="edge">
<title>node12&#45;&gt;node8</title>
<path fill="none" stroke="#888888" d="M266.02,-123.3C287.94,-106.93 321.03,-82.23 345.53,-63.94"/>
<polygon fill="#888888" stroke="#888888" points="347.32,-66.97 353.24,-58.18 343.13,-61.36 347.32,-66.97"/>
</g>
<!-- node14 -->
<g id="node14" class="node">
<title>node14</title>
<polygon fill="#f4e04d" stroke="black" points="271.17,-287.54 275.38,-287.64 279.55,-287.79 283.66,-287.98 287.69,-288.23 291.63,-288.52 295.46,-288.86 299.16,-289.24 302.73,-289.67 306.14,-290.14 309.39,-290.65 312.47,-291.21 315.36,-291.8 318.06,-292.43 320.56,-293.1 322.85,-293.8 324.92,-294.53 326.77,-295.29 328.4,-296.08 329.81,-296.9 330.99,-297.74 331.94,-298.6 332.68,-299.48 333.19,-300.38 333.48,-301.29 333.56,-302.21 333.43,-303.14 333.1,-304.08 332.57,-305.02 331.85,-305.96 330.95,-306.91 329.88,-307.84 328.65,-308.77 327.26,-309.7 325.72,-310.61 324.05,-311.5 322.25,-312.38 320.34,-313.24 318.31,-314.08 316.19,-314.9 313.98,-315.69 311.68,-316.45 309.31,-317.19 306.87,-317.89 304.38,-318.55 301.83,-319.18 299.24,-319.78 296.6,-320.33 293.93,-320.85 291.23,-321.32 288.51,-321.74 285.77,-322.13 283,-322.47 280.23,-322.76 277.44,-323 274.64,-323.2 271.84,-323.34 269.03,-323.44 266.22,-323.49 263.4,-323.49 260.59,-323.44 257.78,-323.34 254.98,-323.2 252.18,-323 249.39,-322.76 246.62,-322.47 243.85,-322.13 241.11,-321.74 238.39,-321.32 235.69,-320.85 233.02,-320.33 230.38,-319.78 227.79,-319.18 225.24,-318.55 222.75,-317.89 220.31,-317.19 217.94,-316.45 215.64,-315.69 213.43,-314.9 211.3,-314.08 209.28,-313.24 207.37,-312.38 205.57,-311.5 203.9,-310.61 202.36,-309.7 200.97,-308.77 199.74,-307.84 198.67,-306.91 197.77,-305.96 197.05,-305.02 196.52,-304.08 196.19,-303.14 196.06,-302.21 196.14,-301.29 196.43,-300.38 196.94,-299.48 197.68,-298.6 198.63,-297.74 199.81,-296.9 201.22,-296.08 202.85,-295.29 204.7,-294.53 206.77,-293.8 209.06,-293.1 211.56,-292.43 214.26,-291.8 217.15,-291.21 220.22,-290.65 223.48,-290.14 226.89,-289.67 230.46,-289.24 234.16,-288.86 237.99,-288.52 241.93,-288.23 245.96,-287.98 250.07,-287.79 254.24,-287.64 258.45,-287.54 262.69,-287.49 266.93,-287.49 271.17,-287.54"/>
<text xml:space="preserve" text-anchor="middle" x="264.81" y="-301.22" font-family="Helvetica,sans-Serif" font-size="12.00">spectre&#45;rpc&#45;fake</text>
</g>
<!-- node14&#45;&gt;node10 -->
<g id="edge19" class="edge">
<title>node14&#45;&gt;node10</title>
<path fill="none" stroke="#888888" stroke-dasharray="1,5" d="M264.81,-287.15C264.81,-277.2 264.81,-264.46 264.81,-253.07"/>
<polygon fill="#888888" stroke="#888888" points="268.31,-253.38 264.81,-243.38 261.31,-253.38 268.31,-253.38"/>
</g>
<!-- node15 -->
<g id="node15" class="node">
<title>node15</title>
<polygon fill="#f4e04d" stroke="black" points="553.04,-287.54 556.51,-287.64 559.94,-287.79 563.32,-287.98 566.63,-288.23 569.87,-288.52 573.02,-288.86 576.07,-289.24 579,-289.67 581.81,-290.14 584.49,-290.65 587.02,-291.21 589.4,-291.8 591.62,-292.43 593.67,-293.1 595.55,-293.8 597.26,-294.53 598.78,-295.29 600.12,-296.08 601.28,-296.9 602.25,-297.74 603.04,-298.6 603.64,-299.48 604.06,-300.38 604.3,-301.29 604.37,-302.21 604.26,-303.14 603.99,-304.08 603.55,-305.02 602.96,-305.96 602.22,-306.91 601.34,-307.84 600.33,-308.77 599.18,-309.7 597.92,-310.61 596.55,-311.5 595.07,-312.38 593.49,-313.24 591.83,-314.08 590.08,-314.9 588.26,-315.69 586.37,-316.45 584.42,-317.19 582.41,-317.89 580.36,-318.55 578.26,-319.18 576.13,-319.78 573.96,-320.33 571.77,-320.85 569.55,-321.32 567.31,-321.74 565.05,-322.13 562.78,-322.47 560.49,-322.76 558.2,-323 555.9,-323.2 553.59,-323.34 551.28,-323.44 548.97,-323.49 546.65,-323.49 544.34,-323.44 542.03,-323.34 539.72,-323.2 537.42,-323 535.13,-322.76 532.84,-322.47 530.57,-322.13 528.31,-321.74 526.07,-321.32 523.85,-320.85 521.66,-320.33 519.49,-319.78 517.36,-319.18 515.26,-318.55 513.21,-317.89 511.2,-317.19 509.25,-316.45 507.36,-315.69 505.54,-314.9 503.79,-314.08 502.13,-313.24 500.55,-312.38 499.07,-311.5 497.7,-310.61 496.44,-309.7 495.29,-308.77 494.28,-307.84 493.4,-306.91 492.66,-305.96 492.07,-305.02 491.63,-304.08 491.36,-303.14 491.25,-302.21 491.32,-301.29 491.56,-300.38 491.98,-299.48 492.58,-298.6 493.37,-297.74 494.34,-296.9 495.5,-296.08 496.84,-295.29 498.36,-294.53 500.07,-293.8 501.95,-293.1 504,-292.43 506.22,-291.8 508.6,-291.21 511.13,-290.65 513.81,-290.14 516.62,-289.67 519.55,-289.24 522.6,-288.86 525.75,-288.52 528.99,-288.23 532.3,-287.98 535.68,-287.79 539.11,-287.64 542.58,-287.54 546.06,-287.49 549.56,-287.49 553.04,-287.54"/>
<text xml:space="preserve" text-anchor="middle" x="547.81" y="-301.22" font-family="Helvetica,sans-Serif" font-size="12.00">spectre&#45;tests</text>
</g>
<!-- node15&#45;&gt;node7 -->
<g id="edge20" class="edge">
<title>node15&#45;&gt;node7</title>
<path fill="none" stroke="#888888" stroke-dasharray="1,5" d="M579.41,-289.46C606.41,-276.61 645.45,-258.04 674.85,-244.05"/>
<polygon fill="#888888" stroke="#888888" points="676.31,-247.23 683.84,-239.77 673.3,-240.91 676.31,-247.23"/>
</g>
<!-- node15&#45;&gt;node9 -->
<g id="edge21" class="edge">
<title>node15&#45;&gt;node9</title>
<path fill="none" stroke="#888888" stroke-dasharray="1,5" d="M549.55,-287.15C550.54,-277.2 551.82,-264.46 552.96,-253.07"/>
<polygon fill="#888888" stroke="#888888" points="556.41,-253.67 553.93,-243.37 549.45,-252.98 556.41,-253.67"/>
</g>
<!-- node15&#45;&gt;node10 -->
<g id="edge22" class="edge">
<title>node15&#45;&gt;node10</title>
<path fill="none" stroke="#888888" stroke-dasharray="1,5" d="M508.34,-291C494.9,-286.55 479.75,-281.68 465.81,-277.56 438.62,-269.51 369.1,-251.38 319.44,-238.57"/>
<polygon fill="#888888" stroke="#888888" points="320.57,-235.25 310.01,-236.14 318.82,-242.02 320.57,-235.25"/>
</g>
<!-- node15&#45;&gt;node11 -->
<g id="edge23" class="edge">
<title>node15&#45;&gt;node11</title>
<path fill="none" stroke="#888888" stroke-dasharray="1,5" d="M520.94,-288.7C501.07,-277.02 473.69,-260.93 451.33,-247.79"/>
<polygon fill="#888888" stroke="#888888" points="453.16,-244.8 442.76,-242.75 449.61,-250.83 453.16,-244.8"/>
</g>
</g>
</svg>
