<?xml version="1.0" encoding="UTF-8" standalone="no"?>
<!DOCTYPE svg PUBLIC "-//W3C//DTD SVG 1.1//EN"
 "http://www.w3.org/Graphics/SVG/1.1/DTD/svg11.dtd">
<!-- Generated by graphviz version 14.1.3 (20260303.0454)
 -->
<!-- Title: spectre Pages: 1 -->
<svg width="918pt" height="341pt"
 viewBox="0.00 0.00 918.00 341.00" xmlns="http://www.w3.org/2000/svg" xmlns:xlink="http://www.w3.org/1999/xlink">
<g id="graph0" class="graph" transform="scale(1 1) rotate(0) translate(4 337.43)">
<title>spectre</title>
<polygon fill="white" stroke="none" points="-4,4 -4,-337.43 913.51,-337.43 913.51,4 -4,4"/>
<!-- node0 -->
<g id="node1" class="node">
<title>node0</title>
<polygon fill="#e8e8e8" stroke="black" points="857.27,-22.75 857.27,-54.93 802.35,-77.68 724.67,-77.68 669.75,-54.93 669.75,-22.75 724.67,0 802.35,0 857.27,-22.75"/>
<text xml:space="preserve" text-anchor="middle" x="763.51" y="-48.82" font-family="Helvetica,sans-Serif" font-size="12.00">SDL3&#45;static</text>
<text xml:space="preserve" text-anchor="middle" x="763.51" y="-34.57" font-family="Helvetica,sans-Serif" font-size="12.00">(SDL3::SDL3)</text>
<text xml:space="preserve" text-anchor="middle" x="763.51" y="-20.32" font-family="Helvetica,sans-Serif" font-size="12.00">(SDL3::SDL3&#45;static)</text>
</g>
<!-- node2 -->
<g id="node2" class="node">
<title>node2</title>
<polygon fill="#e8e8e8" stroke="black" points="834.68,-293.92 834.68,-317.06 782.44,-333.43 708.58,-333.43 656.35,-317.06 656.35,-293.92 708.58,-277.56 782.44,-277.56 834.68,-293.92"/>
<text xml:space="preserve" text-anchor="middle" x="745.51" y="-308.34" font-family="Helvetica,sans-Serif" font-size="12.00">SDL3_test</text>
<text xml:space="preserve" text-anchor="middle" x="745.51" y="-294.09" font-family="Helvetica,sans-Serif" font-size="12.00">(SDL3::SDL3_test)</text>
</g>
<!-- node3 -->
<g id="node3" class="node">
<title>node3</title>
<polygon fill="#e8e8e8" stroke="black" points="136.96,-31.39 136.96,-46.3 113.26,-56.84 79.76,-56.84 56.07,-46.3 56.07,-31.39 79.76,-20.84 113.26,-20.84 136.96,-31.39"/>
<text xml:space="preserve" text-anchor="middle" x="96.51" y="-34.57" font-family="Helvetica,sans-Serif" font-size="12.00">freetype</text>
</g>
<!-- node4 -->
<g id="node4" class="node">
<title>node4</title>
<polygon fill="#e8e8e8" stroke="black" points="85.02,-134.16 85.02,-149.08 60.12,-159.62 24.9,-159.62 0,-149.08 0,-134.16 24.9,-123.62 60.12,-123.62 85.02,-134.16"/>
<text xml:space="preserve" text-anchor="middle" x="42.51" y="-137.35" font-family="Helvetica,sans-Serif" font-size="12.00">harfbuzz</text>
</g>
<!-- node4&#45;&gt;node3 -->
<g id="edge1" class="edge">
<title>node4&#45;&gt;node3</title>
<path fill="none" stroke="#888888" d="M51.67,-123.52C59.97,-108.03 72.34,-84.94 81.99,-66.94"/>
<polygon fill="#888888" stroke="#888888" points="84.95,-68.82 86.59,-58.36 78.78,-65.52 84.95,-68.82"/>
</g>
<!-- node5 -->
<g id="node5" class="node">
<title>node5</title>
<polygon fill="#e8e8e8" stroke="black" points="889.22,-134.16 889.22,-149.08 860.69,-159.62 820.34,-159.62 791.8,-149.08 791.8,-134.16 820.34,-123.62 860.69,-123.62 889.22,-134.16"/>
<text xml:space="preserve" text-anchor="middle" x="840.51" y="-137.35" font-family="Helvetica,sans-Serif" font-size="12.00">mpack_lib</text>
</g>
<!-- node6 -->
<g id="node6" class="node">
<title>node6</title>
<polygon fill="#2d6a9f" stroke="black" points="278.96,-287.54 281.24,-287.64 283.5,-287.79 285.72,-287.98 287.91,-288.23 290.04,-288.52 292.12,-288.86 294.12,-289.24 296.06,-289.67 297.91,-290.14 299.67,-290.65 301.34,-291.21 302.9,-291.8 304.37,-292.43 305.72,-293.1 306.96,-293.8 308.08,-294.53 309.09,-295.29 309.97,-296.08 310.73,-296.9 311.37,-297.74 311.89,-298.6 312.29,-299.48 312.56,-300.38 312.72,-301.29 312.76,-302.21 312.69,-303.14 312.51,-304.08 312.23,-305.02 311.84,-305.96 311.35,-306.91 310.77,-307.84 310.1,-308.77 309.35,-309.7 308.52,-310.61 307.61,-311.5 306.64,-312.38 305.6,-313.24 304.5,-314.08 303.35,-314.9 302.15,-315.69 300.91,-316.45 299.62,-317.19 298.3,-317.89 296.95,-318.55 295.57,-319.18 294.16,-319.78 292.74,-320.33 291.29,-320.85 289.83,-321.32 288.35,-321.74 286.87,-322.13 285.37,-322.47 283.86,-322.76 282.35,-323 280.84,-323.2 279.32,-323.34 277.8,-323.44 276.27,-323.49 274.75,-323.49 273.22,-323.44 271.7,-323.34 270.18,-323.2 268.67,-323 267.16,-322.76 265.65,-322.47 264.15,-322.13 262.67,-321.74 261.19,-321.32 259.73,-320.85 258.28,-320.33 256.86,-319.78 255.45,-319.18 254.07,-318.55 252.72,-317.89 251.4,-317.19 250.11,-316.45 248.87,-315.69 247.67,-314.9 246.52,-314.08 245.42,-313.24 244.38,-312.38 243.41,-311.5 242.5,-310.61 241.67,-309.7 240.92,-308.77 240.25,-307.84 239.67,-306.91 239.18,-305.96 238.79,-305.02 238.51,-304.08 238.33,-303.14 238.26,-302.21 238.3,-301.29 238.46,-300.38 238.74,-299.48 239.13,-298.6 239.65,-297.74 240.29,-296.9 241.05,-296.08 241.94,-295.29 242.94,-294.53 244.06,-293.8 245.3,-293.1 246.65,-292.43 248.12,-291.8 249.68,-291.21 251.35,-290.65 253.11,-290.14 254.96,-289.67 256.9,-289.24 258.9,-288.86 260.98,-288.52 263.11,-288.23 265.3,-287.98 267.52,-287.79 269.78,-287.64 272.06,-287.54 274.36,-287.49 276.66,-287.49 278.96,-287.54"/>
<text xml:space="preserve" text-anchor="middle" x="275.51" y="-301.22" font-family="Helvetica,sans-Serif" font-size="12.00" fill="white">spectre</text>
</g>
<!-- node7 -->
<g id="node7" class="node">
<title>node7</title>
<polygon fill="#f0a868" stroke="black" points="165.38,-216.1 165.38,-231.01 133.82,-241.56 89.2,-241.56 57.64,-231.01 57.64,-216.1 89.2,-205.56 133.82,-205.56 165.38,-216.1"/>
<text xml:space="preserve" text-anchor="middle" x="111.51" y="-219.28" font-family="Helvetica,sans-Serif" font-size="12.00">spectre&#45;font</text>
</g>
<!-- node6&#45;&gt;node7 -->
<g id="edge5" class="edge">
<title>node6&#45;&gt;node7</title>
<path fill="none" stroke="#888888" stroke-dasharray="1,5" d="M248.43,-291.29C222.14,-278.48 181.92,-258.88 151.86,-244.23"/>
<polygon fill="#888888" stroke="#888888" points="153.58,-241.17 143.06,-239.93 150.51,-247.46 153.58,-241.17"/>
</g>
<!-- node8 -->
<g id="node8" class="node">
<title>node8</title>
<polygon fill="#c9a8e0" stroke="black" points="308.58,-31.39 308.58,-46.3 273.39,-56.84 223.63,-56.84 188.45,-46.3 188.45,-31.39 223.63,-20.84 273.39,-20.84 308.58,-31.39"/>
<text xml:space="preserve" text-anchor="middle" x="248.51" y="-34.57" font-family="Helvetica,sans-Serif" font-size="12.00">spectre&#45;types</text>
</g>
<!-- node6&#45;&gt;node8 -->
<g id="edge19" class="edge">
<title>node6&#45;&gt;node8</title>
<path fill="none" stroke="#888888" stroke-dasharray="1,5" d="M253.53,-289.75C238.86,-278.5 220.8,-261.55 212.51,-241.56 188.11,-182.68 215.49,-107.42 234.13,-67.54"/>
<polygon fill="#888888" stroke="#888888" points="237.23,-69.16 238.44,-58.64 230.93,-66.11 237.23,-69.16"/>
</g>
<!-- node9 -->
<g id="node9" class="node">
<title>node9</title>
<polygon fill="#f0a868" stroke="black" points="329.9,-216.1 329.9,-231.01 298.04,-241.56 252.98,-241.56 221.12,-231.01 221.12,-216.1 252.98,-205.56 298.04,-205.56 329.9,-216.1"/>
<text xml:space="preserve" text-anchor="middle" x="275.51" y="-219.28" font-family="Helvetica,sans-Serif" font-size="12.00">spectre&#45;grid</text>
</g>
<!-- node6&#45;&gt;node9 -->
<g id="edge7" class="edge">
<title>node6&#45;&gt;node9</title>
<path fill="none" stroke="#888888" stroke-dasharray="1,5" d="M275.51,-287.15C275.51,-277.2 275.51,-264.46 275.51,-253.07"/>
<polygon fill="#888888" stroke="#888888" points="279.01,-253.38 275.51,-243.38 272.01,-253.38 279.01,-253.38"/>
</g>
<!-- node10 -->
<g id="node10" class="node">
<title>node10</title>
<polygon fill="#5b8dd9" stroke="black" points="627.51,-216.1 627.51,-231.01 593.53,-241.56 545.49,-241.56 511.51,-231.01 511.51,-216.1 545.49,-205.56 593.53,-205.56 627.51,-216.1"/>
<text xml:space="preserve" text-anchor="middle" x="569.51" y="-219.28" font-family="Helvetica,sans-Serif" font-size="12.00" fill="white">spectre&#45;nvim</text>
</g>
<!-- node6&#45;&gt;node10 -->
<g id="edge11" class="edge">
<title>node6&#45;&gt;node10</title>
<path fill="none" stroke="#888888" stroke-dasharray="1,5" d="M302.85,-291.27C313.49,-286.48 325.9,-281.33 337.51,-277.56 407.65,-254.76 427.67,-258.26 499.51,-241.56 504.1,-240.49 508.86,-239.37 513.63,-238.23"/>
<polygon fill="#888888" stroke="#888888" points="514.35,-241.66 523.26,-235.92 512.72,-234.85 514.35,-241.66"/>
</g>
<!-- node11 -->
<g id="node11" class="node">
<title>node11</title>
<polygon fill="#7ec8a4" stroke="black" points="490.93,-216.1 490.93,-231.01 449.1,-241.56 389.93,-241.56 348.09,-231.01 348.09,-216.1 389.93,-205.56 449.1,-205.56 490.93,-216.1"/>
<text xml:space="preserve" text-anchor="middle" x="419.51" y="-219.28" font-family="Helvetica,sans-Serif" font-size="12.00">spectre&#45;renderer</text>
</g>
<!-- node6&#45;&gt;node11 -->
<g id="edge18" class="edge">
<title>node6&#45;&gt;node11</title>
<path fill="none" stroke="#888888" stroke-dasharray="1,5" d="M300.59,-290.57C322.12,-278.62 353.57,-261.16 378.71,-247.2"/>
<polygon fill="#888888" stroke="#888888" points="380.34,-250.3 387.38,-242.39 376.94,-244.18 380.34,-250.3"/>
</g>
<!-- node7&#45;&gt;node3 -->
<g id="edge2" class="edge">
<title>node7&#45;&gt;node3</title>
<path fill="none" stroke="#888888" d="M110.1,-205.37C107.52,-173.94 102.02,-106.94 98.86,-68.51"/>
<polygon fill="#888888" stroke="#888888" points="102.36,-68.31 98.05,-58.63 95.38,-68.88 102.36,-68.31"/>
</g>
<!-- node7&#45;&gt;node4 -->
<g id="edge3" class="edge">
<title>node7&#45;&gt;node4</title>
<path fill="none" stroke="#888888" d="M96.54,-205.21C87.32,-194.53 75.32,-180.63 64.97,-168.64"/>
<polygon fill="#888888" stroke="#888888" points="67.63,-166.36 58.44,-161.08 62.33,-170.93 67.63,-166.36"/>
</g>
<!-- node7&#45;&gt;node8 -->
<g id="edge4" class="edge">
<title>node7&#45;&gt;node8</title>
<path fill="none" stroke="#888888" d="M120.91,-205.29C133.23,-183.23 156.03,-144.26 179.51,-113.68 192.61,-96.63 208.98,-78.98 222.49,-65.21"/>
<polygon fill="#888888" stroke="#888888" points="224.84,-67.82 229.41,-58.26 219.87,-62.88 224.84,-67.82"/>
</g>
<!-- node9&#45;&gt;node8 -->
<g id="edge6" class="edge">
<title>node9&#45;&gt;node8</title>
<path fill="none" stroke="#888888" d="M267.45,-205.3C263.1,-195.13 258.1,-181.88 255.51,-169.56 248.34,-135.45 247.27,-95.26 247.56,-68.75"/>
<polygon fill="#888888" stroke="#888888" points="251.05,-68.84 247.74,-58.78 244.06,-68.71 251.05,-68.84"/>
</g>
<!-- node10&#45;&gt;node0 -->
<g id="edge8" class="edge">
<title>node10&#45;&gt;node0</title>
<path fill="none" stroke="#888888" d="M627.88,-221.87C712.9,-219.49 864.42,-209.58 898.51,-169.56 914.61,-150.65 911.17,-135.05 898.51,-113.68 886.91,-94.12 868.1,-79.41 848.16,-68.48"/>
<polygon fill="#888888" stroke="#888888" points="849.83,-65.4 839.33,-63.95 846.63,-71.63 849.83,-65.4"/>
</g>
<!-- node10&#45;&gt;node5 -->
<g id="edge9" class="edge">
<title>node10&#45;&gt;node5</title>
<path fill="none" stroke="#888888" d="M617.62,-212.52C660.18,-203.11 723.69,-187.8 777.51,-169.56 785.01,-167.01 792.88,-163.97 800.41,-160.86"/>
<polygon fill="#888888" stroke="#888888" points="801.53,-164.19 809.36,-157.05 798.79,-157.74 801.53,-164.19"/>
</g>
<!-- node10&#45;&gt;node8 -->
<g id="edge10" class="edge">
<title>node10&#45;&gt;node8</title>
<path fill="none" stroke="#888888" d="M571.79,-205.34C573.91,-181.52 573.84,-138.63 550.51,-113.68 519.55,-80.57 399.18,-59.12 320.07,-48.28"/>
<polygon fill="#888888" stroke="#888888" points="320.59,-44.82 310.22,-46.96 319.66,-51.76 320.59,-44.82"/>
</g>
<!-- node11&#45;&gt;node0 -->
<g id="edge12" class="edge">
<title>node11&#45;&gt;node0</title>
<path fill="none" stroke="#888888" d="M473.01,-211.15C482.8,-209.19 492.95,-207.25 502.51,-205.56 556.05,-196.1 706.11,-208.04 744.51,-169.56 765.05,-148.97 769.82,-116.63 769.45,-89.39"/>
<polygon fill="#888888" stroke="#888888" points="772.95,-89.45 769.06,-79.59 765.96,-89.72 772.95,-89.45"/>
</g>
<!-- node11&#45;&gt;node8 -->
<g id="edge13" class="edge">
<title>node11&#45;&gt;node8</title>
<path fill="none" stroke="#888888" d="M363.75,-211.65C337.7,-203.92 308.17,-190.97 288.51,-169.56 262.85,-141.61 253.64,-97.51 250.35,-68.63"/>
<polygon fill="#888888" stroke="#888888" points="253.84,-68.4 249.41,-58.78 246.87,-69.07 253.84,-68.4"/>
</g>
<!-- node12 -->
<g id="node12" class="node">
<title>node12</title>
<polygon fill="#7ec8a4" stroke="black" points="735.35,-134.16 735.35,-149.08 695.03,-159.62 637.99,-159.62 597.67,-149.08 597.67,-134.16 637.99,-123.62 695.03,-123.62 735.35,-134.16"/>
<text xml:space="preserve" text-anchor="middle" x="666.51" y="-137.35" font-family="Helvetica,sans-Serif" font-size="12.00">spectre&#45;window</text>
</g>
<!-- node11&#45;&gt;node12 -->
<g id="edge16" class="edge">
<title>node11&#45;&gt;node12</title>
<path fill="none" stroke="#888888" d="M462.82,-208.54C504.74,-194.97 568.39,-174.38 613.36,-159.82"/>
<polygon fill="#888888" stroke="#888888" points="614.2,-163.23 622.64,-156.82 612.05,-156.57 614.2,-163.23"/>
</g>
<!-- node13 -->
<g id="node13" class="node">
<title>node13</title>
<polygon fill="#e8e8e8" stroke="black" points="541.97,-130.05 541.97,-153.19 470.23,-169.56 368.79,-169.56 297.05,-153.19 297.05,-130.05 368.79,-113.68 470.23,-113.68 541.97,-130.05"/>
<text xml:space="preserve" text-anchor="middle" x="419.51" y="-144.47" font-family="Helvetica,sans-Serif" font-size="12.00">vk&#45;bootstrap</text>
<text xml:space="preserve" text-anchor="middle" x="419.51" y="-130.22" font-family="Helvetica,sans-Serif" font-size="12.00">(vk&#45;bootstrap::vk&#45;bootstrap)</text>
</g>
<!-- node11&#45;&gt;node13 -->
<g id="edge17" class="edge">
<title>node11&#45;&gt;node13</title>
<path fill="none" stroke="#888888" stroke-dasharray="1,5" d="M419.51,-205.21C419.51,-198.14 419.51,-189.66 419.51,-181.26"/>
<polygon fill="#888888" stroke="#888888" points="423.01,-181.5 419.51,-171.5 416.01,-181.5 423.01,-181.5"/>
</g>
<!-- node12&#45;&gt;node0 -->
<g id="edge14" class="edge">
<title>node12&#45;&gt;node0</title>
<path fill="none" stroke="#888888" d="M682.97,-123.52C692.9,-113.2 706.09,-99.5 718.91,-86.18"/>
<polygon fill="#888888" stroke="#888888" points="721.35,-88.69 725.76,-79.06 716.3,-83.84 721.35,-88.69"/>
</g>
<!-- node12&#45;&gt;node8 -->
<g id="edge15" class="edge">
<title>node12&#45;&gt;node8</title>
<path fill="none" stroke="#888888" d="M625.8,-126.54C612.41,-122.14 597.4,-117.46 583.51,-113.68 489.25,-88.07 378.27,-64.96 310.68,-51.67"/>
<polygon fill="#888888" stroke="#888888" points="311.37,-48.24 300.88,-49.75 310.02,-55.11 311.37,-48.24"/>
</g>
<!-- node14 -->
<g id="node14" class="node">
<title>node14</title>
<polygon fill="#f4e04d" stroke="black" points="575.87,-287.54 580.08,-287.64 584.25,-287.79 588.36,-287.98 592.39,-288.23 596.33,-288.52 600.16,-288.86 603.86,-289.24 607.43,-289.67 610.84,-290.14 614.1,-290.65 617.17,-291.21 620.06,-291.8 622.76,-292.43 625.26,-293.1 627.55,-293.8 629.62,-294.53 631.47,-295.29 633.1,-296.08 634.51,-296.9 635.69,-297.74 636.65,-298.6 637.38,-299.48 637.89,-300.38 638.18,-301.29 638.26,-302.21 638.13,-303.14 637.8,-304.08 637.27,-305.02 636.55,-305.96 635.65,-306.91 634.58,-307.84 633.35,-308.77 631.96,-309.7 630.42,-310.61 628.75,-311.5 626.96,-312.38 625.04,-313.24 623.02,-314.08 620.89,-314.9 618.68,-315.69 616.38,-316.45 614.01,-317.19 611.57,-317.89 609.08,-318.55 606.53,-319.18 603.94,-319.78 601.3,-320.33 598.63,-320.85 595.93,-321.32 593.21,-321.74 590.47,-322.13 587.7,-322.47 584.93,-322.76 582.14,-323 579.34,-323.2 576.54,-323.34 573.73,-323.44 570.92,-323.49 568.1,-323.49 565.29,-323.44 562.48,-323.34 559.68,-323.2 556.88,-323 554.09,-322.76 551.32,-322.47 548.55,-322.13 545.81,-321.74 543.09,-321.32 540.39,-320.85 537.72,-320.33 535.08,-319.78 532.49,-319.18 529.94,-318.55 527.45,-317.89 525.01,-317.19 522.64,-316.45 520.34,-315.69 518.13,-314.9 516.01,-314.08 513.98,-313.24 512.07,-312.38 510.27,-311.5 508.6,-310.61 507.06,-309.7 505.67,-308.77 504.44,-307.84 503.37,-306.91 502.47,-305.96 501.75,-305.02 501.22,-304.08 500.89,-303.14 500.76,-302.21 500.84,-301.29 501.13,-300.38 501.64,-299.48 502.38,-298.6 503.33,-297.74 504.51,-296.9 505.92,-296.08 507.55,-295.29 509.4,-294.53 511.47,-293.8 513.76,-293.1 516.26,-292.43 518.96,-291.8 521.85,-291.21 524.93,-290.65 528.18,-290.14 531.59,-289.67 535.16,-289.24 538.86,-288.86 542.69,-288.52 546.63,-288.23 550.66,-287.98 554.77,-287.79 558.94,-287.64 563.15,-287.54 567.39,-287.49 571.63,-287.49 575.87,-287.54"/>
<text xml:space="preserve" text-anchor="middle" x="569.51" y="-301.22" font-family="Helvetica,sans-Serif" font-size="12.00">spectre&#45;rpc&#45;fake</text>
</g>
<!-- node14&#45;&gt;node10 -->
<g id="edge20" class="edge">
<title>node14&#45;&gt;node10</title>
<path fill="none" stroke="#888888" stroke-dasharray="1,5" d="M569.51,-287.15C569.51,-277.2 569.51,-264.46 569.51,-253.07"/>
<polygon fill="#888888" stroke="#888888" points="573.01,-253.38 569.51,-243.38 566.01,-253.38 573.01,-253.38"/>
</g>
<!-- node15 -->
<g id="node15" class="node">
<title>node15</title>
<polygon fill="#f4e04d" stroke="black" points="408.74,-287.54 412.21,-287.64 415.64,-287.79 419.02,-287.98 422.33,-288.23 425.57,-288.52 428.72,-288.86 431.77,-289.24 434.7,-289.67 437.51,-290.14 440.19,-290.65 442.72,-291.21 445.1,-291.8 447.32,-292.43 449.37,-293.1 451.25,-293.8 452.96,-294.53 454.48,-295.29 455.82,-296.08 456.98,-296.9 457.95,-297.74 458.74,-298.6 459.34,-299.48 459.76,-300.38 460,-301.29 460.07,-302.21 459.96,-303.14 459.69,-304.08 459.25,-305.02 458.66,-305.96 457.92,-306.91 457.04,-307.84 456.03,-308.77 454.88,-309.7 453.62,-310.61 452.25,-311.5 450.77,-312.38 449.19,-313.24 447.53,-314.08 445.78,-314.9 443.96,-315.69 442.07,-316.45 440.12,-317.19 438.11,-317.89 436.06,-318.55 433.96,-319.18 431.83,-319.78 429.66,-320.33 427.47,-320.85 425.25,-321.32 423.01,-321.74 420.75,-322.13 418.48,-322.47 416.19,-322.76 413.9,-323 411.6,-323.2 409.29,-323.34 406.98,-323.44 404.67,-323.49 402.35,-323.49 400.04,-323.44 397.73,-323.34 395.42,-323.2 393.12,-323 390.83,-322.76 388.54,-322.47 386.27,-322.13 384.01,-321.74 381.77,-321.32 379.55,-320.85 377.36,-320.33 375.19,-319.78 373.06,-319.18 370.96,-318.55 368.91,-317.89 366.9,-317.19 364.95,-316.45 363.06,-315.69 361.24,-314.9 359.49,-314.08 357.83,-313.24 356.25,-312.38 354.77,-311.5 353.4,-310.61 352.14,-309.7 350.99,-308.77 349.98,-307.84 349.1,-306.91 348.36,-305.96 347.77,-305.02 347.33,-304.08 347.06,-303.14 346.95,-302.21 347.02,-301.29 347.26,-300.38 347.68,-299.48 348.28,-298.6 349.07,-297.74 350.04,-296.9 351.2,-296.08 352.54,-295.29 354.06,-294.53 355.77,-293.8 357.65,-293.1 359.7,-292.43 361.92,-291.8 364.3,-291.21 366.83,-290.65 369.51,-290.14 372.32,-289.67 375.25,-289.24 378.3,-288.86 381.45,-288.52 384.69,-288.23 388,-287.98 391.38,-287.79 394.81,-287.64 398.28,-287.54 401.76,-287.49 405.26,-287.49 408.74,-287.54"/>
<text xml:space="preserve" text-anchor="middle" x="403.51" y="-301.22" font-family="Helvetica,sans-Serif" font-size="12.00">spectre&#45;tests</text>
</g>
<!-- node15&#45;&gt;node7 -->
<g id="edge21" class="edge">
<title>node15&#45;&gt;node7</title>
<path fill="none" stroke="#888888" stroke-dasharray="1,5" d="M364.06,-290.91C350.62,-286.45 335.47,-281.61 321.51,-277.56 269.3,-262.41 209.08,-247.47 166.55,-237.33"/>
<polygon fill="#888888" stroke="#888888" points="167.6,-233.98 157.07,-235.08 165.99,-240.79 167.6,-233.98"/>
</g>
<!-- node15&#45;&gt;node9 -->
<g id="edge22" class="edge">
<title>node15&#45;&gt;node9</title>
<path fill="none" stroke="#888888" stroke-dasharray="1,5" d="M377.92,-288.51C358.77,-276.55 332.35,-260.05 311.14,-246.8"/>
<polygon fill="#888888" stroke="#888888" points="313.12,-243.92 302.78,-241.59 309.41,-249.85 313.12,-243.92"/>
</g>
<!-- node15&#45;&gt;node10 -->
<g id="edge23" class="edge">
<title>node15&#45;&gt;node10</title>
<path fill="none" stroke="#888888" stroke-dasharray="1,5" d="M435.12,-289.27C461.43,-276.6 499.09,-258.47 527.86,-244.61"/>
<polygon fill="#888888" stroke="#888888" points="529.16,-247.87 536.65,-240.38 526.12,-241.57 529.16,-247.87"/>
</g>
<!-- node15&#45;&gt;node11 -->
<g id="edge24" class="edge">
<title>node15&#45;&gt;node11</title>
<path fill="none" stroke="#888888" stroke-dasharray="1,5" d="M406.98,-287.15C408.97,-277.2 411.52,-264.46 413.8,-253.07"/>
<polygon fill="#888888" stroke="#888888" points="417.22,-253.84 415.75,-243.35 410.35,-252.47 417.22,-253.84"/>
</g>
</g>
</svg>
