<?xml version="1.0" encoding="UTF-8" standalone="no"?>
<!DOCTYPE svg PUBLIC "-//W3C//DTD SVG 1.1//EN"
 "http://www.w3.org/Graphics/SVG/1.1/DTD/svg11.dtd">
<!-- Generated by graphviz version 14.1.3 (20260303.0454)
 -->
<!-- Title: spectre Pages: 1 -->
<svg width="918pt" height="413pt"
 viewBox="0.00 0.00 918.00 413.00" xmlns="http://www.w3.org/2000/svg" xmlns:xlink="http://www.w3.org/1999/xlink">
<g id="graph0" class="graph" transform="scale(1 1) rotate(0) translate(4 409.43)">
<title>spectre</title>
<polygon fill="white" stroke="none" points="-4,4 -4,-409.43 913.51,-409.43 913.51,4 -4,4"/>
<!-- node0 -->
<g id="node1" class="node">
<title>node0</title>
<polygon fill="#e8e8e8" stroke="black" points="857.27,-94.75 857.27,-126.93 802.35,-149.68 724.67,-149.68 669.75,-126.93 669.75,-94.75 724.67,-72 802.35,-72 857.27,-94.75"/>
<text xml:space="preserve" text-anchor="middle" x="763.51" y="-120.82" font-family="Helvetica,sans-Serif" font-size="12.00">SDL3&#45;static</text>
<text xml:space="preserve" text-anchor="middle" x="763.51" y="-106.57" font-family="Helvetica,sans-Serif" font-size="12.00">(SDL3::SDL3)</text>
<text xml:space="preserve" text-anchor="middle" x="763.51" y="-92.32" font-family="Helvetica,sans-Serif" font-size="12.00">(SDL3::SDL3&#45;static)</text>
</g>
<!-- node1 -->
<g id="node2" class="node">
<title>node1</title>
<polygon fill="#e8e8e8" stroke="black" points="817.38,-10.54 817.38,-25.46 785.82,-36 741.2,-36 709.64,-25.46 709.64,-10.54 741.2,0 785.82,0 817.38,-10.54"/>
<text xml:space="preserve" text-anchor="middle" x="763.51" y="-13.72" font-family="Helvetica,sans-Serif" font-size="12.00">SDL_uclibc</text>
</g>
<!-- node0&#45;&gt;node1 -->
<g id="edge1" class="edge">
<title>node0&#45;&gt;node1</title>
<path fill="none" stroke="#888888" d="M763.51,-71.58C763.51,-63.66 763.51,-55.44 763.51,-47.91"/>
<polygon fill="#888888" stroke="#888888" points="767.01,-47.97 763.51,-37.97 760.01,-47.97 767.01,-47.97"/>
</g>
<!-- node2 -->
<g id="node3" class="node">
<title>node2</title>
<polygon fill="#e8e8e8" stroke="black" points="834.68,-365.92 834.68,-389.06 782.44,-405.43 708.58,-405.43 656.35,-389.06 656.35,-365.92 708.58,-349.56 782.44,-349.56 834.68,-365.92"/>
<text xml:space="preserve" text-anchor="middle" x="745.51" y="-380.34" font-family="Helvetica,sans-Serif" font-size="12.00">SDL3_test</text>
<text xml:space="preserve" text-anchor="middle" x="745.51" y="-366.09" font-family="Helvetica,sans-Serif" font-size="12.00">(SDL3::SDL3_test)</text>
</g>
<!-- node3 -->
<g id="node4" class="node">
<title>node3</title>
<polygon fill="#e8e8e8" stroke="black" points="136.96,-103.39 136.96,-118.3 113.26,-128.84 79.76,-128.84 56.07,-118.3 56.07,-103.39 79.76,-92.84 113.26,-92.84 136.96,-103.39"/>
<text xml:space="preserve" text-anchor="middle" x="96.51" y="-106.57" font-family="Helvetica,sans-Serif" font-size="12.00">freetype</text>
</g>
<!-- node4 -->
<g id="node5" class="node">
<title>node4</title>
<polygon fill="#e8e8e8" stroke="black" points="85.02,-206.16 85.02,-221.08 60.12,-231.62 24.9,-231.62 0,-221.08 0,-206.16 24.9,-195.62 60.12,-195.62 85.02,-206.16"/>
<text xml:space="preserve" text-anchor="middle" x="42.51" y="-209.35" font-family="Helvetica,sans-Serif" font-size="12.00">harfbuzz</text>
</g>
<!-- node4&#45;&gt;node3 -->
<g id="edge2" class="edge">
<title>node4&#45;&gt;node3</title>
<path fill="none" stroke="#888888" d="M51.67,-195.52C59.97,-180.03 72.34,-156.94 81.99,-138.94"/>
<polygon fill="#888888" stroke="#888888" points="84.95,-140.82 86.59,-130.36 78.78,-137.52 84.95,-140.82"/>
</g>
<!-- node5 -->
<g id="node6" class="node">
<title>node5</title>
<polygon fill="#e8e8e8" stroke="black" points="889.22,-206.16 889.22,-221.08 860.69,-231.62 820.34,-231.62 791.8,-221.08 791.8,-206.16 820.34,-195.62 860.69,-195.62 889.22,-206.16"/>
<text xml:space="preserve" text-anchor="middle" x="840.51" y="-209.35" font-family="Helvetica,sans-Serif" font-size="12.00">mpack_lib</text>
</g>
<!-- node6 -->
<g id="node7" class="node">
<title>node6</title>
<polygon fill="#2d6a9f" stroke="black" points="278.96,-359.54 281.24,-359.64 283.5,-359.79 285.72,-359.98 287.91,-360.23 290.04,-360.52 292.12,-360.86 294.12,-361.24 296.06,-361.67 297.91,-362.14 299.67,-362.65 301.34,-363.21 302.9,-363.8 304.37,-364.43 305.72,-365.1 306.96,-365.8 308.08,-366.53 309.09,-367.29 309.97,-368.08 310.73,-368.9 311.37,-369.74 311.89,-370.6 312.29,-371.48 312.56,-372.38 312.72,-373.29 312.76,-374.21 312.69,-375.14 312.51,-376.08 312.23,-377.02 311.84,-377.96 311.35,-378.91 310.77,-379.84 310.1,-380.77 309.35,-381.7 308.52,-382.61 307.61,-383.5 306.64,-384.38 305.6,-385.24 304.5,-386.08 303.35,-386.9 302.15,-387.69 300.91,-388.45 299.62,-389.19 298.3,-389.89 296.95,-390.55 295.57,-391.18 294.16,-391.78 292.74,-392.33 291.29,-392.85 289.83,-393.32 288.35,-393.74 286.87,-394.13 285.37,-394.47 283.86,-394.76 282.35,-395 280.84,-395.2 279.32,-395.34 277.8,-395.44 276.27,-395.49 274.75,-395.49 273.22,-395.44 271.7,-395.34 270.18,-395.2 268.67,-395 267.16,-394.76 265.65,-394.47 264.15,-394.13 262.67,-393.74 261.19,-393.32 259.73,-392.85 258.28,-392.33 256.86,-391.78 255.45,-391.18 254.07,-390.55 252.72,-389.89 251.4,-389.19 250.11,-388.45 248.87,-387.69 247.67,-386.9 246.52,-386.08 245.42,-385.24 244.38,-384.38 243.41,-383.5 242.5,-382.61 241.67,-381.7 240.92,-380.77 240.25,-379.84 239.67,-378.91 239.18,-377.96 238.79,-377.02 238.51,-376.08 238.33,-375.14 238.26,-374.21 238.3,-373.29 238.46,-372.38 238.74,-371.48 239.13,-370.6 239.65,-369.74 240.29,-368.9 241.05,-368.08 241.94,-367.29 242.94,-366.53 244.06,-365.8 245.3,-365.1 246.65,-364.43 248.12,-363.8 249.68,-363.21 251.35,-362.65 253.11,-362.14 254.96,-361.67 256.9,-361.24 258.9,-360.86 260.98,-360.52 263.11,-360.23 265.3,-359.98 267.52,-359.79 269.78,-359.64 272.06,-359.54 274.36,-359.49 276.66,-359.49 278.96,-359.54"/>
<text xml:space="preserve" text-anchor="middle" x="275.51" y="-373.22" font-family="Helvetica,sans-Serif" font-size="12.00" fill="white">spectre</text>
</g>
<!-- node7 -->
<g id="node8" class="node">
<title>node7</title>
<polygon fill="#f0a868" stroke="black" points="165.38,-288.1 165.38,-303.01 133.82,-313.56 89.2,-313.56 57.64,-303.01 57.64,-288.1 89.2,-277.56 133.82,-277.56 165.38,-288.1"/>
<text xml:space="preserve" text-anchor="middle" x="111.51" y="-291.28" font-family="Helvetica,sans-Serif" font-size="12.00">spectre&#45;font</text>
</g>
<!-- node6&#45;&gt;node7 -->
<g id="edge6" class="edge">
<title>node6&#45;&gt;node7</title>
<path fill="none" stroke="#888888" stroke-dasharray="1,5" d="M248.43,-363.29C222.14,-350.48 181.92,-330.88 151.86,-316.23"/>
<polygon fill="#888888" stroke="#888888" points="153.58,-313.17 143.06,-311.93 150.51,-319.46 153.58,-313.17"/>
</g>
<!-- node8 -->
<g id="node9" class="node">
<title>node8</title>
<polygon fill="#c9a8e0" stroke="black" points="308.58,-103.39 308.58,-118.3 273.39,-128.84 223.63,-128.84 188.45,-118.3 188.45,-103.39 223.63,-92.84 273.39,-92.84 308.58,-103.39"/>
<text xml:space="preserve" text-anchor="middle" x="248.51" y="-106.57" font-family="Helvetica,sans-Serif" font-size="12.00">spectre&#45;types</text>
</g>
<!-- node6&#45;&gt;node8 -->
<g id="edge20" class="edge">
<title>node6&#45;&gt;node8</title>
<path fill="none" stroke="#888888" stroke-dasharray="1,5" d="M253.53,-361.75C238.86,-350.5 220.8,-333.55 212.51,-313.56 188.11,-254.68 215.49,-179.42 234.13,-139.54"/>
<polygon fill="#888888" stroke="#888888" points="237.23,-141.16 238.44,-130.64 230.93,-138.11 237.23,-141.16"/>
</g>
<!-- node9 -->
<g id="node10" class="node">
<title>node9</title>
<polygon fill="#f0a868" stroke="black" points="329.9,-288.1 329.9,-303.01 298.04,-313.56 252.98,-313.56 221.12,-303.01 221.12,-288.1 252.98,-277.56 298.04,-277.56 329.9,-288.1"/>
<text xml:space="preserve" text-anchor="middle" x="275.51" y="-291.28" font-family="Helvetica,sans-Serif" font-size="12.00">spectre&#45;grid</text>
</g>
<!-- node6&#45;&gt;node9 -->
<g id="edge8" class="edge">
<title>node6&#45;&gt;node9</title>
<path fill="none" stroke="#888888" stroke-dasharray="1,5" d="M275.51,-359.15C275.51,-349.2 275.51,-336.46 275.51,-325.07"/>
<polygon fill="#888888" stroke="#888888" points="279.01,-325.38 275.51,-315.38 272.01,-325.38 279.01,-325.38"/>
</g>
<!-- node10 -->
<g id="node11" class="node">
<title>node10</title>
<polygon fill="#5b8dd9" stroke="black" points="627.51,-288.1 627.51,-303.01 593.53,-313.56 545.49,-313.56 511.51,-303.01 511.51,-288.1 545.49,-277.56 593.53,-277.56 627.51,-288.1"/>
<text xml:space="preserve" text-anchor="middle" x="569.51" y="-291.28" font-family="Helvetica,sans-Serif" font-size="12.00" fill="white">spectre&#45;nvim</text>
</g>
<!-- node6&#45;&gt;node10 -->
<g id="edge12" class="edge">
<title>node6&#45;&gt;node10</title>
<path fill="none" stroke="#888888" stroke-dasharray="1,5" d="M302.85,-363.27C313.49,-358.48 325.9,-353.33 337.51,-349.56 407.65,-326.76 427.67,-330.26 499.51,-313.56 504.1,-312.49 508.86,-311.37 513.63,-310.23"/>
<polygon fill="#888888" stroke="#888888" points="514.35,-313.66 523.26,-307.92 512.72,-306.85 514.35,-313.66"/>
</g>
<!-- node11 -->
<g id="node12" class="node">
<title>node11</title>
<polygon fill="#7ec8a4" stroke="black" points="490.93,-288.1 490.93,-303.01 449.1,-313.56 389.93,-313.56 348.09,-303.01 348.09,-288.1 389.93,-277.56 449.1,-277.56 490.93,-288.1"/>
<text xml:space="preserve" text-anchor="middle" x="419.51" y="-291.28" font-family="Helvetica,sans-Serif" font-size="12.00">spectre&#45;renderer</text>
</g>
<!-- node6&#45;&gt;node11 -->
<g id="edge19" class="edge">
<title>node6&#45;&gt;node11</title>
<path fill="none" stroke="#888888" stroke-dasharray="1,5" d="M300.59,-362.57C322.12,-350.62 353.57,-333.16 378.71,-319.2"/>
<polygon fill="#888888" stroke="#888888" points="380.34,-322.3 387.38,-314.39 376.94,-316.18 380.34,-322.3"/>
</g>
<!-- node7&#45;&gt;node3 -->
<g id="edge3" class="edge">
<title>node7&#45;&gt;node3</title>
<path fill="none" stroke="#888888" d="M110.1,-277.37C107.52,-245.94 102.02,-178.94 98.86,-140.51"/>
<polygon fill="#888888" stroke="#888888" points="102.36,-140.31 98.05,-130.63 95.38,-140.88 102.36,-140.31"/>
</g>
<!-- node7&#45;&gt;node4 -->
<g id="edge4" class="edge">
<title>node7&#45;&gt;node4</title>
<path fill="none" stroke="#888888" d="M96.54,-277.21C87.32,-266.53 75.32,-252.63 64.97,-240.64"/>
<polygon fill="#888888" stroke="#888888" points="67.63,-238.36 58.44,-233.08 62.33,-242.93 67.63,-238.36"/>
</g>
<!-- node7&#45;&gt;node8 -->
<g id="edge5" class="edge">
<title>node7&#45;&gt;node8</title>
<path fill="none" stroke="#888888" d="M120.91,-277.29C133.23,-255.23 156.03,-216.26 179.51,-185.68 192.61,-168.63 208.98,-150.98 222.49,-137.21"/>
<polygon fill="#888888" stroke="#888888" points="224.84,-139.82 229.41,-130.26 219.87,-134.88 224.84,-139.82"/>
</g>
<!-- node9&#45;&gt;node8 -->
<g id="edge7" class="edge">
<title>node9&#45;&gt;node8</title>
<path fill="none" stroke="#888888" d="M267.45,-277.3C263.1,-267.13 258.1,-253.88 255.51,-241.56 248.34,-207.45 247.27,-167.26 247.56,-140.75"/>
<polygon fill="#888888" stroke="#888888" points="251.05,-140.84 247.74,-130.78 244.06,-140.71 251.05,-140.84"/>
</g>
<!-- node10&#45;&gt;node0 -->
<g id="edge9" class="edge">
<title>node10&#45;&gt;node0</title>
<path fill="none" stroke="#888888" d="M627.88,-293.87C712.9,-291.49 864.42,-281.58 898.51,-241.56 914.61,-222.65 911.17,-207.05 898.51,-185.68 886.91,-166.12 868.1,-151.41 848.16,-140.48"/>
<polygon fill="#888888" stroke="#888888" points="849.83,-137.4 839.33,-135.95 846.63,-143.63 849.83,-137.4"/>
</g>
<!-- node10&#45;&gt;node5 -->
<g id="edge10" class="edge">
<title>node10&#45;&gt;node5</title>
<path fill="none" stroke="#888888" d="M617.62,-284.52C660.18,-275.11 723.69,-259.8 777.51,-241.56 785.01,-239.01 792.88,-235.97 800.41,-232.86"/>
<polygon fill="#888888" stroke="#888888" points="801.53,-236.19 809.36,-229.05 798.79,-229.74 801.53,-236.19"/>
</g>
<!-- node10&#45;&gt;node8 -->
<g id="edge11" class="edge">
<title>node10&#45;&gt;node8</title>
<path fill="none" stroke="#888888" d="M571.79,-277.34C573.91,-253.52 573.84,-210.63 550.51,-185.68 519.55,-152.57 399.18,-131.12 320.07,-120.28"/>
<polygon fill="#888888" stroke="#888888" points="320.59,-116.82 310.22,-118.96 319.66,-123.76 320.59,-116.82"/>
</g>
<!-- node11&#45;&gt;node0 -->
<g id="edge13" class="edge">
<title>node11&#45;&gt;node0</title>
<path fill="none" stroke="#888888" d="M473.01,-283.15C482.8,-281.19 492.95,-279.25 502.51,-277.56 556.05,-268.1 706.11,-280.04 744.51,-241.56 765.05,-220.97 769.82,-188.63 769.45,-161.39"/>
<polygon fill="#888888" stroke="#888888" points="772.95,-161.45 769.06,-151.59 765.96,-161.72 772.95,-161.45"/>
</g>
<!-- node11&#45;&gt;node8 -->
<g id="edge14" class="edge">
<title>node11&#45;&gt;node8</title>
<path fill="none" stroke="#888888" d="M363.75,-283.65C337.7,-275.92 308.17,-262.97 288.51,-241.56 262.85,-213.61 253.64,-169.51 250.35,-140.63"/>
<polygon fill="#888888" stroke="#888888" points="253.84,-140.4 249.41,-130.78 246.87,-141.07 253.84,-140.4"/>
</g>
<!-- node12 -->
<g id="node13" class="node">
<title>node12</title>
<polygon fill="#7ec8a4" stroke="black" points="735.35,-206.16 735.35,-221.08 695.03,-231.62 637.99,-231.62 597.67,-221.08 597.67,-206.16 637.99,-195.62 695.03,-195.62 735.35,-206.16"/>
<text xml:space="preserve" text-anchor="middle" x="666.51" y="-209.35" font-family="Helvetica,sans-Serif" font-size="12.00">spectre&#45;window</text>
</g>
<!-- node11&#45;&gt;node12 -->
<g id="edge17" class="edge">
<title>node11&#45;&gt;node12</title>
<path fill="none" stroke="#888888" d="M462.82,-280.54C504.74,-266.97 568.39,-246.38 613.36,-231.82"/>
<polygon fill="#888888" stroke="#888888" points="614.2,-235.23 622.64,-228.82 612.05,-228.57 614.2,-235.23"/>
</g>
<!-- node13 -->
<g id="node14" class="node">
<title>node13</title>
<polygon fill="#e8e8e8" stroke="black" points="541.97,-202.05 541.97,-225.19 470.23,-241.56 368.79,-241.56 297.05,-225.19 297.05,-202.05 368.79,-185.68 470.23,-185.68 541.97,-202.05"/>
<text xml:space="preserve" text-anchor="middle" x="419.51" y="-216.47" font-family="Helvetica,sans-Serif" font-size="12.00">vk&#45;bootstrap</text>
<text xml:space="preserve" text-anchor="middle" x="419.51" y="-202.22" font-family="Helvetica,sans-Serif" font-size="12.00">(vk&#45;bootstrap::vk&#45;bootstrap)</text>
</g>
<!-- node11&#45;&gt;node13 -->
<g id="edge18" class="edge">
<title>node11&#45;&gt;node13</title>
<path fill="none" stroke="#888888" stroke-dasharray="1,5" d="M419.51,-277.21C419.51,-270.14 419.51,-261.66 419.51,-253.26"/>
<polygon fill="#888888" stroke="#888888" points="423.01,-253.5 419.51,-243.5 416.01,-253.5 423.01,-253.5"/>
</g>
<!-- node12&#45;&gt;node0 -->
<g id="edge15" class="edge">
<title>node12&#45;&gt;node0</title>
<path fill="none" stroke="#888888" d="M682.97,-195.52C692.9,-185.2 706.09,-171.5 718.91,-158.18"/>
<polygon fill="#888888" stroke="#888888" points="721.35,-160.69 725.76,-151.06 716.3,-155.84 721.35,-160.69"/>
</g>
<!-- node12&#45;&gt;node8 -->
<g id="edge16" class="edge">
<title>node12&#45;&gt;node8</title>
<path fill="none" stroke="#888888" d="M625.8,-198.54C612.41,-194.14 597.4,-189.46 583.51,-185.68 489.25,-160.07 378.27,-136.96 310.68,-123.67"/>
<polygon fill="#888888" stroke="#888888" points="311.37,-120.24 300.88,-121.75 310.02,-127.11 311.37,-120.24"/>
</g>
<!-- node14 -->
<g id="node15" class="node">
<title>node14</title>
<polygon fill="#f4e04d" stroke="black" points="575.87,-359.54 580.08,-359.64 584.25,-359.79 588.36,-359.98 592.39,-360.23 596.33,-360.52 600.16,-360.86 603.86,-361.24 607.43,-361.67 610.84,-362.14 614.1,-362.65 617.17,-363.21 620.06,-363.8 622.76,-364.43 625.26,-365.1 627.55,-365.8 629.62,-366.53 631.47,-367.29 633.1,-368.08 634.51,-368.9 635.69,-369.74 636.65,-370.6 637.38,-371.48 637.89,-372.38 638.18,-373.29 638.26,-374.21 638.13,-375.14 637.8,-376.08 637.27,-377.02 636.55,-377.96 635.65,-378.91 634.58,-379.84 633.35,-380.77 631.96,-381.7 630.42,-382.61 628.75,-383.5 626.96,-384.38 625.04,-385.24 623.02,-386.08 620.89,-386.9 618.68,-387.69 616.38,-388.45 614.01,-389.19 611.57,-389.89 609.08,-390.55 606.53,-391.18 603.94,-391.78 601.3,-392.33 598.63,-392.85 595.93,-393.32 593.21,-393.74 590.47,-394.13 587.7,-394.47 584.93,-394.76 582.14,-395 579.34,-395.2 576.54,-395.34 573.73,-395.44 570.92,-395.49 568.1,-395.49 565.29,-395.44 562.48,-395.34 559.68,-395.2 556.88,-395 554.09,-394.76 551.32,-394.47 548.55,-394.13 545.81,-393.74 543.09,-393.32 540.39,-392.85 537.72,-392.33 535.08,-391.78 532.49,-391.18 529.94,-390.55 527.45,-389.89 525.01,-389.19 522.64,-388.45 520.34,-387.69 518.13,-386.9 516.01,-386.08 513.98,-385.24 512.07,-384.38 510.27,-383.5 508.6,-382.61 507.06,-381.7 505.67,-380.77 504.44,-379.84 503.37,-378.91 502.47,-377.96 501.75,-377.02 501.22,-376.08 500.89,-375.14 500.76,-374.21 500.84,-373.29 501.13,-372.38 501.64,-371.48 502.38,-370.6 503.33,-369.74 504.51,-368.9 505.92,-368.08 507.55,-367.29 509.4,-366.53 511.47,-365.8 513.76,-365.1 516.26,-364.43 518.96,-363.8 521.85,-363.21 524.93,-362.65 528.18,-362.14 531.59,-361.67 535.16,-361.24 538.86,-360.86 542.69,-360.52 546.63,-360.23 550.66,-359.98 554.77,-359.79 558.94,-359.64 563.15,-359.54 567.39,-359.49 571.63,-359.49 575.87,-359.54"/>
<text xml:space="preserve" text-anchor="middle" x="569.51" y="-373.22" font-family="Helvetica,sans-Serif" font-size="12.00">spectre&#45;rpc&#45;fake</text>
</g>
<!-- node14&#45;&gt;node10 -->
<g id="edge21" class="edge">
<title>node14&#45;&gt;node10</title>
<path fill="none" stroke="#888888" stroke-dasharray="1,5" d="M569.51,-359.15C569.51,-349.2 569.51,-336.46 569.51,-325.07"/>
<polygon fill="#888888" stroke="#888888" points="573.01,-325.38 569.51,-315.38 566.01,-325.38 573.01,-325.38"/>
</g>
<!-- node15 -->
<g id="node16" class="node">
<title>node15</title>
<polygon fill="#f4e04d" stroke="black" points="408.74,-359.54 412.21,-359.64 415.64,-359.79 419.02,-359.98 422.33,-360.23 425.57,-360.52 428.72,-360.86 431.77,-361.24 434.7,-361.67 437.51,-362.14 440.19,-362.65 442.72,-363.21 445.1,-363.8 447.32,-364.43 449.37,-365.1 451.25,-365.8 452.96,-366.53 454.48,-367.29 455.82,-368.08 456.98,-368.9 457.95,-369.74 458.74,-370.6 459.34,-371.48 459.76,-372.38 460,-373.29 460.07,-374.21 459.96,-375.14 459.69,-376.08 459.25,-377.02 458.66,-377.96 457.92,-378.91 457.04,-379.84 456.03,-380.77 454.88,-381.7 453.62,-382.61 452.25,-383.5 450.77,-384.38 449.19,-385.24 447.53,-386.08 445.78,-386.9 443.96,-387.69 442.07,-388.45 440.12,-389.19 438.11,-389.89 436.06,-390.55 433.96,-391.18 431.83,-391.78 429.66,-392.33 427.47,-392.85 425.25,-393.32 423.01,-393.74 420.75,-394.13 418.48,-394.47 416.19,-394.76 413.9,-395 411.6,-395.2 409.29,-395.34 406.98,-395.44 404.67,-395.49 402.35,-395.49 400.04,-395.44 397.73,-395.34 395.42,-395.2 393.12,-395 390.83,-394.76 388.54,-394.47 386.27,-394.13 384.01,-393.74 381.77,-393.32 379.55,-392.85 377.36,-392.33 375.19,-391.78 373.06,-391.18 370.96,-390.55 368.91,-389.89 366.9,-389.19 364.95,-388.45 363.06,-387.69 361.24,-386.9 359.49,-386.08 357.83,-385.24 356.25,-384.38 354.77,-383.5 353.4,-382.61 352.14,-381.7 350.99,-380.77 349.98,-379.84 349.1,-378.91 348.36,-377.96 347.77,-377.02 347.33,-376.08 347.06,-375.14 346.95,-374.21 347.02,-373.29 347.26,-372.38 347.68,-371.48 348.28,-370.6 349.07,-369.74 350.04,-368.9 351.2,-368.08 352.54,-367.29 354.06,-366.53 355.77,-365.8 357.65,-365.1 359.7,-364.43 361.92,-363.8 364.3,-363.21 366.83,-362.65 369.51,-362.14 372.32,-361.67 375.25,-361.24 378.3,-360.86 381.45,-360.52 384.69,-360.23 388,-359.98 391.38,-359.79 394.81,-359.64 398.28,-359.54 401.76,-359.49 405.26,-359.49 408.74,-359.54"/>
<text xml:space="preserve" text-anchor="middle" x="403.51" y="-373.22" font-family="Helvetica,sans-Serif" font-size="12.00">spectre&#45;tests</text>
</g>
<!-- node15&#45;&gt;node7 -->
<g id="edge22" class="edge">
<title>node15&#45;&gt;node7</title>
<path fill="none" stroke="#888888" stroke-dasharray="1,5" d="M364.06,-362.91C350.62,-358.45 335.47,-353.61 321.51,-349.56 269.3,-334.41 209.08,-319.47 166.55,-309.33"/>
<polygon fill="#888888" stroke="#888888" points="167.6,-305.98 157.07,-307.08 165.99,-312.79 167.6,-305.98"/>
</g>
<!-- node15&#45;&gt;node9 -->
<g id="edge23" class="edge">
<title>node15&#45;&gt;node9</title>
<path fill="none" stroke="#888888" stroke-dasharray="1,5" d="M377.92,-360.51C358.77,-348.55 332.35,-332.05 311.14,-318.8"/>
<polygon fill="#888888" stroke="#888888" points="313.12,-315.92 302.78,-313.59 309.41,-321.85 313.12,-315.92"/>
</g>
<!-- node15&#45;&gt;node10 -->
<g id="edge24" class="edge">
<title>node15&#45;&gt;node10</title>
<path fill="none" stroke="#888888" stroke-dasharray="1,5" d="M435.12,-361.27C461.43,-348.6 499.09,-330.47 527.86,-316.61"/>
<polygon fill="#888888" stroke="#888888" points="529.16,-319.87 536.65,-312.38 526.12,-313.57 529.16,-319.87"/>
</g>
<!-- node15&#45;&gt;node11 -->
<g id="edge25" class="edge">
<title>node15&#45;&gt;node11</title>
<path fill="none" stroke="#888888" stroke-dasharray="1,5" d="M406.98,-359.15C408.97,-349.2 411.52,-336.46 413.8,-325.07"/>
<polygon fill="#888888" stroke="#888888" points="417.22,-325.84 415.75,-315.35 410.35,-324.47 417.22,-325.84"/>
</g>
</g>
</svg>
