<?xml version="1.0" encoding="UTF-8" standalone="no"?>
<!DOCTYPE svg PUBLIC "-//W3C//DTD SVG 1.1//EN"
 "http://www.w3.org/Graphics/SVG/1.1/DTD/svg11.dtd">
<!-- Generated by graphviz version 14.1.3 (20260303.0454)
 -->
<!-- Title: megacitycode Pages: 1 -->
<svg width="1014pt" height="413pt"
 viewBox="0.00 0.00 1014.00 413.00" xmlns="http://www.w3.org/2000/svg" xmlns:xlink="http://www.w3.org/1999/xlink">
<g id="graph0" class="graph" transform="scale(1 1) rotate(0) translate(4 409.43)">
<title>megacitycode</title>
<polygon fill="white" stroke="none" points="-4,4 -4,-409.43 1010.46,-409.43 1010.46,4 -4,4"/>
<!-- node0 -->
<g id="node1" class="node">
<title>node0</title>
<polygon fill="#e8e8e8" stroke="black" points="187.51,-94.75 187.51,-126.93 132.59,-149.68 54.92,-149.68 0,-126.93 0,-94.75 54.92,-72 132.59,-72 187.51,-94.75"/>
<text xml:space="preserve" text-anchor="middle" x="93.76" y="-120.82" font-family="Helvetica,sans-Serif" font-size="12.00">SDL3&#45;static</text>
<text xml:space="preserve" text-anchor="middle" x="93.76" y="-106.57" font-family="Helvetica,sans-Serif" font-size="12.00">(SDL3::SDL3)</text>
<text xml:space="preserve" text-anchor="middle" x="93.76" y="-92.32" font-family="Helvetica,sans-Serif" font-size="12.00">(SDL3::SDL3&#45;static)</text>
</g>
<!-- node1 -->
<g id="node2" class="node">
<title>node1</title>
<polygon fill="#e8e8e8" stroke="black" points="147.63,-10.54 147.63,-25.46 116.07,-36 71.44,-36 39.89,-25.46 39.89,-10.54 71.44,0 116.07,0 147.63,-10.54"/>
<text xml:space="preserve" text-anchor="middle" x="93.76" y="-13.72" font-family="Helvetica,sans-Serif" font-size="12.00">SDL_uclibc</text>
</g>
<!-- node0&#45;&gt;node1 -->
<g id="edge1" class="edge">
<title>node0&#45;&gt;node1</title>
<path fill="none" stroke="#888888" d="M93.76,-71.58C93.76,-63.66 93.76,-55.44 93.76,-47.91"/>
<polygon fill="#888888" stroke="#888888" points="97.26,-47.97 93.76,-37.97 90.26,-47.97 97.26,-47.97"/>
</g>
<!-- node2 -->
<g id="node3" class="node">
<title>node2</title>
<polygon fill="#e8e8e8" stroke="black" points="890.92,-365.92 890.92,-389.06 838.69,-405.43 764.82,-405.43 712.59,-389.06 712.59,-365.92 764.82,-349.56 838.69,-349.56 890.92,-365.92"/>
<text xml:space="preserve" text-anchor="middle" x="801.76" y="-380.34" font-family="Helvetica,sans-Serif" font-size="12.00">SDL3_test</text>
<text xml:space="preserve" text-anchor="middle" x="801.76" y="-366.09" font-family="Helvetica,sans-Serif" font-size="12.00">(SDL3::SDL3_test)</text>
</g>
<!-- node3 -->
<g id="node4" class="node">
<title>node3</title>
<polygon fill="#e8e8e8" stroke="black" points="773.2,-103.39 773.2,-118.3 749.51,-128.84 716,-128.84 692.31,-118.3 692.31,-103.39 716,-92.84 749.51,-92.84 773.2,-103.39"/>
<text xml:space="preserve" text-anchor="middle" x="732.76" y="-106.57" font-family="Helvetica,sans-Serif" font-size="12.00">freetype</text>
</g>
<!-- node4 -->
<g id="node5" class="node">
<title>node4</title>
<polygon fill="#e8e8e8" stroke="black" points="813.27,-206.16 813.27,-221.08 788.37,-231.62 753.15,-231.62 728.25,-221.08 728.25,-206.16 753.15,-195.62 788.37,-195.62 813.27,-206.16"/>
<text xml:space="preserve" text-anchor="middle" x="770.76" y="-209.35" font-family="Helvetica,sans-Serif" font-size="12.00">harfbuzz</text>
</g>
<!-- node4&#45;&gt;node3 -->
<g id="edge2" class="edge">
<title>node4&#45;&gt;node3</title>
<path fill="none" stroke="#888888" d="M764.31,-195.52C758.55,-180.25 750.01,-157.59 743.26,-139.7"/>
<polygon fill="#888888" stroke="#888888" points="746.57,-138.56 739.77,-130.44 740.02,-141.03 746.57,-138.56"/>
</g>
<!-- node5 -->
<g id="node6" class="node">
<title>node5</title>
<polygon fill="#2d6a9f" stroke="black" points="459.41,-359.54 463.16,-359.64 466.87,-359.79 470.52,-359.98 474.1,-360.23 477.6,-360.52 481.01,-360.86 484.3,-361.24 487.47,-361.67 490.51,-362.14 493.4,-362.65 496.14,-363.21 498.71,-363.8 501.11,-364.43 503.33,-365.1 505.36,-365.8 507.2,-366.53 508.85,-367.29 510.3,-368.08 511.55,-368.9 512.6,-369.74 513.45,-370.6 514.1,-371.48 514.56,-372.38 514.82,-373.29 514.89,-374.21 514.77,-375.14 514.47,-376.08 514,-377.02 513.37,-377.96 512.57,-378.91 511.62,-379.84 510.52,-380.77 509.28,-381.7 507.92,-382.61 506.43,-383.5 504.84,-384.38 503.13,-385.24 501.33,-386.08 499.44,-386.9 497.48,-387.69 495.43,-388.45 493.33,-389.19 491.16,-389.89 488.94,-390.55 486.67,-391.18 484.37,-391.78 482.03,-392.33 479.65,-392.85 477.25,-393.32 474.83,-393.74 472.39,-394.13 469.93,-394.47 467.47,-394.76 464.99,-395 462.5,-395.2 460.01,-395.34 457.51,-395.44 455.01,-395.49 452.51,-395.49 450.01,-395.44 447.51,-395.34 445.02,-395.2 442.53,-395 440.05,-394.76 437.58,-394.47 435.12,-394.13 432.68,-393.74 430.26,-393.32 427.86,-392.85 425.49,-392.33 423.15,-391.78 420.84,-391.18 418.58,-390.55 416.36,-389.89 414.19,-389.19 412.08,-388.45 410.04,-387.69 408.07,-386.9 406.18,-386.08 404.38,-385.24 402.68,-384.38 401.08,-383.5 399.6,-382.61 398.23,-381.7 397,-380.77 395.9,-379.84 394.95,-378.91 394.15,-377.96 393.51,-377.02 393.04,-376.08 392.74,-375.14 392.63,-374.21 392.7,-373.29 392.96,-372.38 393.41,-371.48 394.06,-370.6 394.91,-369.74 395.96,-368.9 397.21,-368.08 398.66,-367.29 400.31,-366.53 402.15,-365.8 404.19,-365.1 406.41,-364.43 408.81,-363.8 411.38,-363.21 414.11,-362.65 417.01,-362.14 420.04,-361.67 423.21,-361.24 426.51,-360.86 429.91,-360.52 433.41,-360.23 437,-359.98 440.65,-359.79 444.36,-359.64 448.1,-359.54 451.87,-359.49 455.65,-359.49 459.41,-359.54"/>
<text xml:space="preserve" text-anchor="middle" x="453.76" y="-373.22" font-family="Helvetica,sans-Serif" font-size="12.00" fill="white">megacitycode</text>
</g>
<!-- node6 -->
<g id="node7" class="node">
<title>node6</title>
<polygon fill="#f0a868" stroke="black" points="786.89,-288.1 786.89,-303.01 741.12,-313.56 676.39,-313.56 630.62,-303.01 630.62,-288.1 676.39,-277.56 741.12,-277.56 786.89,-288.1"/>
<text xml:space="preserve" text-anchor="middle" x="708.76" y="-291.28" font-family="Helvetica,sans-Serif" font-size="12.00">megacitycode&#45;font</text>
</g>
<!-- node5&#45;&gt;node6 -->
<g id="edge6" class="edge">
<title>node5&#45;&gt;node6</title>
<path fill="none" stroke="#888888" stroke-dasharray="1,5" d="M490.77,-361.79C501.65,-357.65 513.63,-353.26 524.76,-349.56 565.35,-336.04 611.62,-322.72 647.61,-312.81"/>
<polygon fill="#888888" stroke="#888888" points="648.25,-316.27 656.97,-310.25 646.41,-309.51 648.25,-316.27"/>
</g>
<!-- node8 -->
<g id="node9" class="node">
<title>node8</title>
<polygon fill="#f0a868" stroke="black" points="612.41,-288.1 612.41,-303.01 566.34,-313.56 501.18,-313.56 455.1,-303.01 455.1,-288.1 501.18,-277.56 566.34,-277.56 612.41,-288.1"/>
<text xml:space="preserve" text-anchor="middle" x="533.76" y="-291.28" font-family="Helvetica,sans-Serif" font-size="12.00">megacitycode&#45;grid</text>
</g>
<!-- node5&#45;&gt;node8 -->
<g id="edge8" class="edge">
<title>node5&#45;&gt;node8</title>
<path fill="none" stroke="#888888" stroke-dasharray="1,5" d="M470.72,-359.54C481.61,-348.67 495.94,-334.35 508.18,-322.11"/>
<polygon fill="#888888" stroke="#888888" points="510.59,-324.65 515.19,-315.11 505.64,-319.7 510.59,-324.65"/>
</g>
<!-- node9 -->
<g id="node10" class="node">
<title>node9</title>
<polygon fill="#7ec8a4" stroke="black" points="437.45,-288.1 437.45,-303.01 381.39,-313.56 302.12,-313.56 246.07,-303.01 246.07,-288.1 302.12,-277.56 381.39,-277.56 437.45,-288.1"/>
<text xml:space="preserve" text-anchor="middle" x="341.76" y="-291.28" font-family="Helvetica,sans-Serif" font-size="12.00">megacitycode&#45;renderer</text>
</g>
<!-- node5&#45;&gt;node9 -->
<g id="edge15" class="edge">
<title>node5&#45;&gt;node9</title>
<path fill="none" stroke="#888888" stroke-dasharray="1,5" d="M430.82,-360.12C414.8,-348.69 393.15,-333.24 375.21,-320.43"/>
<polygon fill="#888888" stroke="#888888" points="377.62,-317.85 367.45,-314.89 373.55,-323.55 377.62,-317.85"/>
</g>
<!-- node6&#45;&gt;node3 -->
<g id="edge3" class="edge">
<title>node6&#45;&gt;node3</title>
<path fill="none" stroke="#888888" d="M709.84,-277.15C711.3,-255.61 714.24,-217.83 718.76,-185.68 720.88,-170.59 723.98,-153.9 726.72,-140.21"/>
<polygon fill="#888888" stroke="#888888" points="730.12,-141.05 728.7,-130.55 723.26,-139.65 730.12,-141.05"/>
</g>
<!-- node6&#45;&gt;node4 -->
<g id="edge4" class="edge">
<title>node6&#45;&gt;node4</title>
<path fill="none" stroke="#888888" d="M722.21,-277.21C730.42,-266.63 741.07,-252.9 750.3,-240.99"/>
<polygon fill="#888888" stroke="#888888" points="753.04,-243.17 756.4,-233.13 747.51,-238.88 753.04,-243.17"/>
</g>
<!-- node7 -->
<g id="node8" class="node">
<title>node7</title>
<polygon fill="#c9a8e0" stroke="black" points="639.09,-103.39 639.09,-118.3 589.69,-128.84 519.83,-128.84 470.43,-118.3 470.43,-103.39 519.83,-92.84 589.69,-92.84 639.09,-103.39"/>
<text xml:space="preserve" text-anchor="middle" x="554.76" y="-106.57" font-family="Helvetica,sans-Serif" font-size="12.00">megacitycode&#45;types</text>
</g>
<!-- node6&#45;&gt;node7 -->
<g id="edge5" class="edge">
<title>node6&#45;&gt;node7</title>
<path fill="none" stroke="#888888" d="M694.27,-277.37C667.1,-245.13 608.35,-175.43 576.45,-137.57"/>
<polygon fill="#888888" stroke="#888888" points="579.42,-135.67 570.29,-130.28 574.06,-140.18 579.42,-135.67"/>
</g>
<!-- node8&#45;&gt;node7 -->
<g id="edge7" class="edge">
<title>node8&#45;&gt;node7</title>
<path fill="none" stroke="#888888" d="M541.13,-277.24C545.09,-267.05 549.59,-253.8 551.76,-241.56 557.83,-207.28 557.66,-167.12 556.58,-140.67"/>
<polygon fill="#888888" stroke="#888888" points="560.08,-140.54 556.09,-130.72 553.08,-140.88 560.08,-140.54"/>
</g>
<!-- node9&#45;&gt;node0 -->
<g id="edge9" class="edge">
<title>node9&#45;&gt;node0</title>
<path fill="none" stroke="#888888" d="M245.67,-289.93C171.04,-284.08 76.26,-270.94 51.76,-241.56 32.45,-218.4 42.75,-186.18 57.97,-159.65"/>
<polygon fill="#888888" stroke="#888888" points="60.76,-161.81 62.97,-151.45 54.78,-158.16 60.76,-161.81"/>
</g>
<!-- node9&#45;&gt;node7 -->
<g id="edge10" class="edge">
<title>node9&#45;&gt;node7</title>
<path fill="none" stroke="#888888" d="M406.78,-281.96C450.47,-272.25 502.87,-257.77 518.76,-241.56 545.24,-214.54 552.62,-169.82 554.48,-140.6"/>
<polygon fill="#888888" stroke="#888888" points="557.97,-140.77 554.9,-130.63 550.98,-140.47 557.97,-140.77"/>
</g>
<!-- node10 -->
<g id="node11" class="node">
<title>node10</title>
<polygon fill="#7ec8a4" stroke="black" points="246.87,-206.16 246.87,-221.08 192.32,-231.62 115.19,-231.62 60.65,-221.08 60.65,-206.16 115.19,-195.62 192.32,-195.62 246.87,-206.16"/>
<text xml:space="preserve" text-anchor="middle" x="153.76" y="-209.35" font-family="Helvetica,sans-Serif" font-size="12.00">megacitycode&#45;window</text>
</g>
<!-- node9&#45;&gt;node10 -->
<g id="edge13" class="edge">
<title>node9&#45;&gt;node10</title>
<path fill="none" stroke="#888888" d="M301.43,-277.41C273.05,-265.34 234.87,-249.11 204.43,-236.17"/>
<polygon fill="#888888" stroke="#888888" points="205.99,-233.02 195.41,-232.33 203.25,-239.47 205.99,-233.02"/>
</g>
<!-- node11 -->
<g id="node12" class="node">
<title>node11</title>
<polygon fill="#e8e8e8" stroke="black" points="510.22,-202.05 510.22,-225.19 438.48,-241.56 337.03,-241.56 265.3,-225.19 265.3,-202.05 337.03,-185.68 438.48,-185.68 510.22,-202.05"/>
<text xml:space="preserve" text-anchor="middle" x="387.76" y="-216.47" font-family="Helvetica,sans-Serif" font-size="12.00">vk&#45;bootstrap</text>
<text xml:space="preserve" text-anchor="middle" x="387.76" y="-202.22" font-family="Helvetica,sans-Serif" font-size="12.00">(vk&#45;bootstrap::vk&#45;bootstrap)</text>
</g>
<!-- node9&#45;&gt;node11 -->
<g id="edge14" class="edge">
<title>node9&#45;&gt;node11</title>
<path fill="none" stroke="#888888" stroke-dasharray="1,5" d="M351.74,-277.21C356.04,-269.74 361.25,-260.69 366.35,-251.83"/>
<polygon fill="#888888" stroke="#888888" points="369.3,-253.72 371.25,-243.3 363.23,-250.22 369.3,-253.72"/>
</g>
<!-- node10&#45;&gt;node0 -->
<g id="edge11" class="edge">
<title>node10&#45;&gt;node0</title>
<path fill="none" stroke="#888888" d="M143.58,-195.52C137.66,-185.59 129.89,-172.53 122.25,-159.69"/>
<polygon fill="#888888" stroke="#888888" points="125.36,-158.07 117.23,-151.27 119.34,-161.65 125.36,-158.07"/>
</g>
<!-- node10&#45;&gt;node7 -->
<g id="edge12" class="edge">
<title>node10&#45;&gt;node7</title>
<path fill="none" stroke="#888888" d="M208.25,-198.23C223.9,-194.14 241,-189.7 256.76,-185.68 336.75,-165.32 429.01,-142.57 489.43,-127.77"/>
<polygon fill="#888888" stroke="#888888" points="489.98,-131.24 498.86,-125.47 488.31,-124.44 489.98,-131.24"/>
</g>
<!-- node12 -->
<g id="node13" class="node">
<title>node12</title>
<polygon fill="#f4e04d" stroke="black" points="621.2,-359.54 626.13,-359.64 631.01,-359.79 635.81,-359.98 640.53,-360.23 645.13,-360.52 649.61,-360.86 653.95,-361.24 658.12,-361.67 662.12,-362.14 665.92,-362.65 669.52,-363.21 672.9,-363.8 676.06,-364.43 678.98,-365.1 681.66,-365.8 684.08,-366.53 686.25,-367.29 688.16,-368.08 689.8,-368.9 691.18,-369.74 692.3,-370.6 693.16,-371.48 693.76,-372.38 694.1,-373.29 694.19,-374.21 694.04,-375.14 693.65,-376.08 693.03,-377.02 692.19,-377.96 691.14,-378.91 689.89,-379.84 688.44,-380.77 686.82,-381.7 685.02,-382.61 683.07,-383.5 680.96,-384.38 678.72,-385.24 676.36,-386.08 673.87,-386.9 671.28,-387.69 668.59,-388.45 665.82,-389.19 662.97,-389.89 660.05,-390.55 657.07,-391.18 654.03,-391.78 650.95,-392.33 647.83,-392.85 644.67,-393.32 641.49,-393.74 638.28,-394.13 635.04,-394.47 631.79,-394.76 628.53,-395 625.26,-395.2 621.98,-395.34 618.69,-395.44 615.4,-395.49 612.11,-395.49 608.82,-395.44 605.54,-395.34 602.26,-395.2 598.98,-395 595.72,-394.76 592.47,-394.47 589.24,-394.13 586.03,-393.74 582.84,-393.32 579.69,-392.85 576.56,-392.33 573.48,-391.78 570.45,-391.18 567.47,-390.55 564.55,-389.89 561.69,-389.19 558.92,-388.45 556.23,-387.69 553.64,-386.9 551.16,-386.08 548.79,-385.24 546.55,-384.38 544.45,-383.5 542.49,-382.61 540.7,-381.7 539.07,-380.77 537.63,-379.84 536.37,-378.91 535.32,-377.96 534.48,-377.02 533.87,-376.08 533.48,-375.14 533.33,-374.21 533.42,-373.29 533.76,-372.38 534.36,-371.48 535.21,-370.6 536.33,-369.74 537.71,-368.9 539.36,-368.08 541.27,-367.29 543.43,-366.53 545.86,-365.8 548.53,-365.1 551.45,-364.43 554.61,-363.8 557.99,-363.21 561.6,-362.65 565.4,-362.14 569.4,-361.67 573.57,-361.24 577.9,-360.86 582.38,-360.52 586.99,-360.23 591.7,-359.98 596.51,-359.79 601.39,-359.64 606.31,-359.54 611.27,-359.49 616.24,-359.49 621.2,-359.54"/>
<text xml:space="preserve" text-anchor="middle" x="613.76" y="-373.22" font-family="Helvetica,sans-Serif" font-size="12.00">megacitycode&#45;tests</text>
</g>
<!-- node12&#45;&gt;node6 -->
<g id="edge16" class="edge">
<title>node12&#45;&gt;node6</title>
<path fill="none" stroke="#888888" stroke-dasharray="1,5" d="M633.9,-359.54C647.07,-348.46 664.5,-333.79 679.23,-321.41"/>
<polygon fill="#888888" stroke="#888888" points="681.43,-324.13 686.82,-315.01 676.92,-318.77 681.43,-324.13"/>
</g>
<!-- node12&#45;&gt;node8 -->
<g id="edge17" class="edge">
<title>node12&#45;&gt;node8</title>
<path fill="none" stroke="#888888" stroke-dasharray="1,5" d="M596.79,-359.54C585.91,-348.67 571.58,-334.35 559.33,-322.11"/>
<polygon fill="#888888" stroke="#888888" points="561.87,-319.7 552.32,-315.11 556.92,-324.65 561.87,-319.7"/>
</g>
<!-- node12&#45;&gt;node9 -->
<g id="edge18" class="edge">
<title>node12&#45;&gt;node9</title>
<path fill="none" stroke="#888888" stroke-dasharray="1,5" d="M564.73,-361.75C551.44,-357.77 537.05,-353.48 523.76,-349.56 484.31,-337.91 440.01,-325 404.98,-314.84"/>
<polygon fill="#888888" stroke="#888888" points="405.99,-311.49 395.41,-312.07 404.04,-318.21 405.99,-311.49"/>
</g>
<!-- node13 -->
<g id="node14" class="node">
<title>node13</title>
<polygon fill="#e8e8e8" stroke="black" points="1006.46,-370.04 1006.46,-384.95 977.93,-395.49 937.58,-395.49 909.05,-384.95 909.05,-370.04 937.58,-359.49 977.93,-359.49 1006.46,-370.04"/>
<text xml:space="preserve" text-anchor="middle" x="957.76" y="-373.22" font-family="Helvetica,sans-Serif" font-size="12.00">mpack_lib</text>
</g>
</g>
</svg>
