<?xml version="1.0" encoding="UTF-8" standalone="no"?>
<!DOCTYPE svg PUBLIC "-//W3C//DTD SVG 1.1//EN"
 "http://www.w3.org/Graphics/SVG/1.1/DTD/svg11.dtd">
<!-- Generated by graphviz version 14.1.3 (20260303.0454)
 -->
<!-- Title: app/app_config.h Pages: 1 -->
<svg width="412pt" height="196pt"
 viewBox="0.00 0.00 412.00 196.00" xmlns="http://www.w3.org/2000/svg" xmlns:xlink="http://www.w3.org/1999/xlink">
<g id="graph0" class="graph" transform="scale(1 1) rotate(0) translate(4 192)">
<title>app/app_config.h</title>
<!-- Node1 -->
<g id="node1" class="node">
<title>Node1</title>
<g id="a_node1"><a xlink:title=" ">
<polygon fill="#999999" stroke="#666666" points="357.75,-188 267.5,-188 267.5,-168 357.75,-168 357.75,-188"/>
<text xml:space="preserve" text-anchor="middle" x="312.62" y="-174.5" font-family="Helvetica,sans-Serif" font-size="10.00">app/app_config.h</text>
</a>
</g>
</g>
<!-- Node2 -->
<g id="node2" class="node">
<title>Node2</title>
<g id="a_node2"><a xlink:href="text__service_8h.html" target="_top" xlink:title=" ">
<polygon fill="white" stroke="#666666" points="327,-132 214.25,-132 214.25,-112 327,-112 327,-132"/>
<text xml:space="preserve" text-anchor="middle" x="270.62" y="-118.5" font-family="Helvetica,sans-Serif" font-size="10.00">spectre/text_service.h</text>
</a>
</g>
</g>
<!-- Node1&#45;&gt;Node2 -->
<g id="edge1" class="edge">
<title>Node1&#45;&gt;Node2</title>
<path fill="none" stroke="#63b8ff" d="M305.31,-167.59C299.65,-160.32 291.64,-150.02 284.74,-141.15"/>
<polygon fill="#63b8ff" stroke="#63b8ff" points="287.69,-139.24 278.79,-133.49 282.16,-143.54 287.69,-139.24"/>
</g>
<!-- Node8 -->
<g id="node8" class="node">
<title>Node8</title>
<g id="a_node8"><a xlink:title=" ">
<polygon fill="#e0e0e0" stroke="#999999" points="403.62,-76 363.62,-76 363.62,-56 403.62,-56 403.62,-76"/>
<text xml:space="preserve" text-anchor="middle" x="383.62" y="-62.5" font-family="Helvetica,sans-Serif" font-size="10.00">string</text>
</a>
</g>
</g>
<!-- Node1&#45;&gt;Node8 -->
<g id="edge9" class="edge">
<title>Node1&#45;&gt;Node8</title>
<path fill="none" stroke="#63b8ff" d="M318.68,-167.62C330.31,-149.6 355.99,-109.81 371.35,-86.02"/>
<polygon fill="#63b8ff" stroke="#63b8ff" points="374.28,-87.93 376.77,-77.63 368.4,-84.13 374.28,-87.93"/>
</g>
<!-- Node3 -->
<g id="node3" class="node">
<title>Node3</title>
<g id="a_node3"><a xlink:title=" ">
<polygon fill="#e0e0e0" stroke="#999999" points="51.25,-76 0,-76 0,-56 51.25,-56 51.25,-76"/>
<text xml:space="preserve" text-anchor="middle" x="25.62" y="-62.5" font-family="Helvetica,sans-Serif" font-size="10.00">memory</text>
</a>
</g>
</g>
<!-- Node2&#45;&gt;Node3 -->
<g id="edge2" class="edge">
<title>Node2&#45;&gt;Node3</title>
<path fill="none" stroke="#63b8ff" d="M223.13,-111.56C182.69,-103.37 122.81,-90.87 62.45,-76.6"/>
<polygon fill="#63b8ff" stroke="#63b8ff" points="63.59,-73.27 53.05,-74.36 61.97,-80.08 63.59,-73.27"/>
</g>
<!-- Node4 -->
<g id="node4" class="node">
<title>Node4</title>
<g id="a_node4"><a xlink:href="font__metrics_8h.html" target="_top" xlink:title=" ">
<polygon fill="white" stroke="#666666" points="182.38,-76 68.88,-76 68.88,-56 182.38,-56 182.38,-76"/>
<text xml:space="preserve" text-anchor="middle" x="125.62" y="-62.5" font-family="Helvetica,sans-Serif" font-size="10.00">spectre/font_metrics.h</text>
</a>
</g>
</g>
<!-- Node2&#45;&gt;Node4 -->
<g id="edge3" class="edge">
<title>Node2&#45;&gt;Node4</title>
<path fill="none" stroke="#63b8ff" d="M245.37,-111.59C222.22,-102.97 187.7,-90.12 161.66,-80.42"/>
<polygon fill="#63b8ff" stroke="#63b8ff" points="163.09,-77.22 152.5,-77.01 160.65,-83.78 163.09,-77.22"/>
</g>
<!-- Node5 -->
<g id="node5" class="node">
<title>Node5</title>
<g id="a_node5"><a xlink:href="types_8h.html" target="_top" xlink:title=" ">
<polygon fill="white" stroke="#666666" points="284.38,-76 200.88,-76 200.88,-56 284.38,-56 284.38,-76"/>
<text xml:space="preserve" text-anchor="middle" x="242.62" y="-62.5" font-family="Helvetica,sans-Serif" font-size="10.00">spectre/types.h</text>
</a>
</g>
</g>
<!-- Node2&#45;&gt;Node5 -->
<g id="edge4" class="edge">
<title>Node2&#45;&gt;Node5</title>
<path fill="none" stroke="#63b8ff" d="M265.75,-111.59C262.13,-104.63 257.08,-94.89 252.63,-86.29"/>
<polygon fill="#63b8ff" stroke="#63b8ff" points="255.85,-84.91 248.14,-77.64 249.64,-88.13 255.85,-84.91"/>
</g>
<!-- Node2&#45;&gt;Node8 -->
<g id="edge7" class="edge">
<title>Node2&#45;&gt;Node8</title>
<path fill="none" stroke="#63b8ff" d="M290.31,-111.59C307.78,-103.24 333.58,-90.92 353.62,-81.34"/>
<polygon fill="#63b8ff" stroke="#63b8ff" points="354.91,-84.6 362.42,-77.13 351.89,-78.29 354.91,-84.6"/>
</g>
<!-- Node9 -->
<g id="node9" class="node">
<title>Node9</title>
<g id="a_node9"><a xlink:title=" ">
<polygon fill="#e0e0e0" stroke="#999999" points="345.12,-76 302.12,-76 302.12,-56 345.12,-56 345.12,-76"/>
<text xml:space="preserve" text-anchor="middle" x="323.62" y="-62.5" font-family="Helvetica,sans-Serif" font-size="10.00">vector</text>
</a>
</g>
</g>
<!-- Node2&#45;&gt;Node9 -->
<g id="edge8" class="edge">
<title>Node2&#45;&gt;Node9</title>
<path fill="none" stroke="#63b8ff" d="M279.86,-111.59C287.23,-104.08 297.76,-93.35 306.64,-84.3"/>
<polygon fill="#63b8ff" stroke="#63b8ff" points="308.93,-86.97 313.44,-77.38 303.94,-82.06 308.93,-86.97"/>
</g>
<!-- Node6 -->
<g id="node6" class="node">
<title>Node6</title>
<g id="a_node6"><a xlink:title=" ">
<polygon fill="#e0e0e0" stroke="#999999" points="231.5,-20 193.75,-20 193.75,0 231.5,0 231.5,-20"/>
<text xml:space="preserve" text-anchor="middle" x="212.62" y="-6.5" font-family="Helvetica,sans-Serif" font-size="10.00">array</text>
</a>
</g>
</g>
<!-- Node5&#45;&gt;Node6 -->
<g id="edge5" class="edge">
<title>Node5&#45;&gt;Node6</title>
<path fill="none" stroke="#63b8ff" d="M237.4,-55.59C233.53,-48.63 228.12,-38.89 223.34,-30.29"/>
<polygon fill="#63b8ff" stroke="#63b8ff" points="226.44,-28.66 218.53,-21.62 220.32,-32.06 226.44,-28.66"/>
</g>
<!-- Node7 -->
<g id="node7" class="node">
<title>Node7</title>
<g id="a_node7"><a xlink:title=" ">
<polygon fill="#e0e0e0" stroke="#999999" points="295.25,-20 250,-20 250,0 295.25,0 295.25,-20"/>
<text xml:space="preserve" text-anchor="middle" x="272.62" y="-6.5" font-family="Helvetica,sans-Serif" font-size="10.00">cstdint</text>
</a>
</g>
</g>
<!-- Node5&#45;&gt;Node7 -->
<g id="edge6" class="edge">
<title>Node5&#45;&gt;Node7</title>
<path fill="none" stroke="#63b8ff" d="M247.85,-55.59C251.72,-48.63 257.13,-38.89 261.91,-30.29"/>
<polygon fill="#63b8ff" stroke="#63b8ff" points="264.93,-32.06 266.72,-21.62 258.81,-28.66 264.93,-32.06"/>
</g>
</g>
</svg>
