<?xml version="1.0" encoding="UTF-8" standalone="no"?>
<!DOCTYPE svg PUBLIC "-//W3C//DTD SVG 1.1//EN"
 "http://www.w3.org/Graphics/SVG/1.1/DTD/svg11.dtd">
<!-- Generated by graphviz version 14.1.3 (20260303.0454)
 -->
<!-- Title: app/app.h Pages: 1 -->
<!--zoomable 308 -->
<svg id="main" version="1.1" xmlns="http://www.w3.org/2000/svg" xmlns:xlink="http://www.w3.org/1999/xlink" xml:space="preserve" onload="init(evt)">
<style type="text/css"><![CDATA[
.edge:hover path { stroke: red; }
.edge:hover polygon { stroke: red; fill: red; }
]]></style>
<script type="text/javascript"><![CDATA[
var edges = document.getElementsByTagName('g');
if (edges && edges.length) {
  for (var i=0;i<edges.length;i++) {
    if (edges[i].id.substr(0,4)=='edge') {
      edges[i].setAttribute('class','edge');
    }
  }
}
]]></script>
        <defs>
                <circle id="rim" cx="0" cy="0" r="7"/>
                <circle id="rim2" cx="0" cy="0" r="3.5"/>
                <g id="zoomPlus">
                        <use xlink:href="#rim" fill="#404040">
                                <set attributeName="fill" to="#808080" begin="zoomplus.mouseover" end="zoomplus.mouseout"/>
                        </use>
                        <path d="M-4,0h8M0,-4v8" fill="none" stroke="white" stroke-width="1.5" pointer-events="none"/>
                </g>
                <g id="zoomMin">
                        <use xlink:href="#rim" fill="#404040">
                                <set attributeName="fill" to="#808080" begin="zoomminus.mouseover" end="zoomminus.mouseout"/>
                        </use>
                        <path d="M-4,0h8" fill="none" stroke="white" stroke-width="1.5" pointer-events="none"/>
                </g>
                <g id="dirArrow">
                        <path fill="none" stroke="white" stroke-width="1.5" d="M0,-3.0v7 M-2.5,-0.5L0,-3.0L2.5,-0.5"/>
                </g>
               <g id="resetDef">
                       <use xlink:href="#rim2" fill="#404040">
                               <set attributeName="fill" to="#808080" begin="reset.mouseover" end="reset.mouseout"/>
                       </use>
               </g>
        </defs>

<script type="text/javascript">
var viewWidth = 1974;
var viewHeight = 308;
var sectionId = 'dynsection-0';
</script>
<script xlink:href="svgpan.js"/>
<svg id="graph" class="graph">
<g id="viewport">
<title>app/app.h</title>
<!-- Node1 -->
<g id="node1" class="node">
<title>Node1</title>
<g id="a_node1"><a xlink:title=" ">
<polygon fill="#999999" stroke="#666666" points="569.92,-300 511.17,-300 511.17,-280 569.92,-280 569.92,-300"/>
<text xml:space="preserve" text-anchor="middle" x="540.54" y="-286.5" font-family="Helvetica,sans-Serif" font-size="10.00">app/app.h</text>
</a>
</g>
</g>
<!-- Node2 -->
<g id="node2" class="node">
<title>Node2</title>
<g id="a_node2"><a xlink:href="app__config_8h.html" target="_top" xlink:title=" ">
<polygon fill="white" stroke="#666666" points="332.29,-244 260.79,-244 260.79,-224 332.29,-224 332.29,-244"/>
<text xml:space="preserve" text-anchor="middle" x="296.54" y="-230.5" font-family="Helvetica,sans-Serif" font-size="10.00">app_config.h</text>
</a>
</g>
</g>
<!-- Node1&#45;&gt;Node2 -->
<g id="edge1" class="edge">
<title>Node1&#45;&gt;Node2</title>
<path fill="none" stroke="#63b8ff" d="M511.11,-282.49C469.48,-273.27 392.98,-256.34 343.46,-245.38"/>
<polygon fill="#63b8ff" stroke="#63b8ff" points="344.41,-242.01 333.89,-243.27 342.9,-248.84 344.41,-242.01"/>
</g>
<!-- Node3 -->
<g id="node3" class="node">
<title>Node3</title>
<g id="a_node3"><a xlink:href="text__service_8h.html" target="_top" xlink:title=" ">
<polygon fill="white" stroke="#666666" points="293.92,-188 181.17,-188 181.17,-168 293.92,-168 293.92,-188"/>
<text xml:space="preserve" text-anchor="middle" x="237.54" y="-174.5" font-family="Helvetica,sans-Serif" font-size="10.00">spectre/text_service.h</text>
</a>
</g>
</g>
<!-- Node1&#45;&gt;Node3 -->
<g id="edge73" class="edge">
<title>Node1&#45;&gt;Node3</title>
<path fill="none" stroke="#63b8ff" d="M510.9,-288.5C444.87,-286.75 288.56,-278.94 251.54,-244 239.6,-232.72 236.61,-213.9 236.31,-199.4"/>
<polygon fill="#63b8ff" stroke="#63b8ff" points="239.8,-199.67 236.54,-189.59 232.8,-199.5 239.8,-199.67"/>
</g>
<!-- Node4 -->
<g id="node4" class="node">
<title>Node4</title>
<g id="a_node4"><a xlink:title=" ">
<polygon fill="#e0e0e0" stroke="#999999" points="217.17,-132 165.92,-132 165.92,-112 217.17,-112 217.17,-132"/>
<text xml:space="preserve" text-anchor="middle" x="191.54" y="-118.5" font-family="Helvetica,sans-Serif" font-size="10.00">memory</text>
</a>
</g>
</g>
<!-- Node1&#45;&gt;Node4 -->
<g id="edge69" class="edge">
<title>Node1&#45;&gt;Node4</title>
<path fill="none" stroke="#63b8ff" d="M511.11,-286.81C444.51,-281.51 284.29,-266.74 235.54,-244 201.59,-228.16 187.89,-222.18 172.54,-188 165.85,-173.09 172.03,-155.19 179.08,-141.96"/>
<polygon fill="#63b8ff" stroke="#63b8ff" points="182.06,-143.79 184.16,-133.41 176.04,-140.22 182.06,-143.79"/>
</g>
<!-- Node9 -->
<g id="node9" class="node">
<title>Node9</title>
<g id="a_node9"><a xlink:title=" ">
<polygon fill="#e0e0e0" stroke="#999999" points="576.54,-76 536.54,-76 536.54,-56 576.54,-56 576.54,-76"/>
<text xml:space="preserve" text-anchor="middle" x="556.54" y="-62.5" font-family="Helvetica,sans-Serif" font-size="10.00">string</text>
</a>
</g>
</g>
<!-- Node1&#45;&gt;Node9 -->
<g id="edge67" class="edge">
<title>Node1&#45;&gt;Node9</title>
<path fill="none" stroke="#63b8ff" d="M510.84,-288.69C381.78,-286.42 -117.42,-267.59 25.54,-112 59.41,-75.14 415.48,-68.44 524.8,-67.25"/>
<polygon fill="#63b8ff" stroke="#63b8ff" points="524.83,-70.75 534.8,-67.15 524.76,-63.75 524.83,-70.75"/>
</g>
<!-- Node10 -->
<g id="node10" class="node">
<title>Node10</title>
<g id="a_node10"><a xlink:title=" ">
<polygon fill="#e0e0e0" stroke="#999999" points="393.04,-132 350.04,-132 350.04,-112 393.04,-112 393.04,-132"/>
<text xml:space="preserve" text-anchor="middle" x="371.54" y="-118.5" font-family="Helvetica,sans-Serif" font-size="10.00">vector</text>
</a>
</g>
</g>
<!-- Node1&#45;&gt;Node10 -->
<g id="edge68" class="edge">
<title>Node1&#45;&gt;Node10</title>
<path fill="none" stroke="#63b8ff" d="M510.75,-284.82C468.92,-278.29 396.01,-264.28 379.54,-244 356.4,-215.5 361.07,-169.68 366.41,-143.36"/>
<polygon fill="#63b8ff" stroke="#63b8ff" points="369.74,-144.48 368.55,-133.95 362.92,-142.93 369.74,-144.48"/>
</g>
<!-- Node11 -->
<g id="node11" class="node">
<title>Node11</title>
<g id="a_node11"><a xlink:href="grid__rendering__pipeline_8h.html" target="_top" xlink:title=" ">
<polygon fill="white" stroke="#666666" points="512.17,-244 388.92,-244 388.92,-224 512.17,-224 512.17,-244"/>
<text xml:space="preserve" text-anchor="middle" x="450.54" y="-230.5" font-family="Helvetica,sans-Serif" font-size="10.00">grid_rendering_pipeline.h</text>
</a>
</g>
</g>
<!-- Node1&#45;&gt;Node11 -->
<g id="edge11" class="edge">
<title>Node1&#45;&gt;Node11</title>
<path fill="none" stroke="#63b8ff" d="M524.87,-279.59C511.4,-271.51 491.72,-259.71 476,-250.27"/>
<polygon fill="#63b8ff" stroke="#63b8ff" points="478.02,-247.4 467.64,-245.26 474.41,-253.4 478.02,-247.4"/>
</g>
<!-- Node12 -->
<g id="node12" class="node">
<title>Node12</title>
<g id="a_node12"><a xlink:href="grid_8h.html" target="_top" xlink:title=" ">
<polygon fill="white" stroke="#666666" points="671.17,-188 595.92,-188 595.92,-168 671.17,-168 671.17,-188"/>
<text xml:space="preserve" text-anchor="middle" x="633.54" y="-174.5" font-family="Helvetica,sans-Serif" font-size="10.00">spectre/grid.h</text>
</a>
</g>
</g>
<!-- Node1&#45;&gt;Node12 -->
<g id="edge70" class="edge">
<title>Node1&#45;&gt;Node12</title>
<path fill="none" stroke="#63b8ff" d="M553.46,-279.57C564.6,-271.05 580.71,-257.76 592.54,-244 604.64,-229.93 615.69,-211.97 623.27,-198.49"/>
<polygon fill="#63b8ff" stroke="#63b8ff" points="626.32,-200.2 628.03,-189.74 620.17,-196.85 626.32,-200.2"/>
</g>
<!-- Node17 -->
<g id="node17" class="node">
<title>Node17</title>
<g id="a_node17"><a xlink:href="renderer_8h.html" target="_top" xlink:title=" ">
<polygon fill="white" stroke="#666666" points="523.92,-188 429.17,-188 429.17,-168 523.92,-168 523.92,-188"/>
<text xml:space="preserve" text-anchor="middle" x="476.54" y="-174.5" font-family="Helvetica,sans-Serif" font-size="10.00">spectre/renderer.h</text>
</a>
</g>
</g>
<!-- Node1&#45;&gt;Node17 -->
<g id="edge72" class="edge">
<title>Node1&#45;&gt;Node17</title>
<path fill="none" stroke="#63b8ff" d="M539.3,-279.59C537.23,-266.4 532.21,-242 521.54,-224 515.27,-213.42 505.95,-203.53 497.41,-195.73"/>
<polygon fill="#63b8ff" stroke="#63b8ff" points="499.95,-193.31 490.1,-189.41 495.37,-198.6 499.95,-193.31"/>
</g>
<!-- Node18 -->
<g id="node18" class="node">
<title>Node18</title>
<g id="a_node18"><a xlink:title=" ">
<polygon fill="#e0e0e0" stroke="#999999" points="592.42,-132 542.67,-132 542.67,-112 592.42,-112 592.42,-132"/>
<text xml:space="preserve" text-anchor="middle" x="567.54" y="-118.5" font-family="Helvetica,sans-Serif" font-size="10.00">optional</text>
</a>
</g>
</g>
<!-- Node1&#45;&gt;Node18 -->
<g id="edge59" class="edge">
<title>Node1&#45;&gt;Node18</title>
<path fill="none" stroke="#63b8ff" d="M542.07,-279.6C546.32,-253.46 558.36,-179.48 564.23,-143.36"/>
<polygon fill="#63b8ff" stroke="#63b8ff" points="567.64,-144.22 565.79,-133.79 560.73,-143.1 567.64,-144.22"/>
</g>
<!-- Node20 -->
<g id="node20" class="node">
<title>Node20</title>
<g id="a_node20"><a xlink:href="ui__request__worker_8h.html" target="_top" xlink:title=" ">
<polygon fill="white" stroke="#666666" points="1027.42,-244 923.67,-244 923.67,-224 1027.42,-224 1027.42,-244"/>
<text xml:space="preserve" text-anchor="middle" x="975.54" y="-230.5" font-family="Helvetica,sans-Serif" font-size="10.00">ui_request_worker.h</text>
</a>
</g>
</g>
<!-- Node1&#45;&gt;Node20 -->
<g id="edge33" class="edge">
<title>Node1&#45;&gt;Node20</title>
<path fill="none" stroke="#63b8ff" d="M570.1,-285.33C640.02,-276.65 816.85,-254.7 912.23,-242.86"/>
<polygon fill="#63b8ff" stroke="#63b8ff" points="912.45,-246.36 921.94,-241.65 911.59,-239.41 912.45,-246.36"/>
</g>
<!-- Node23 -->
<g id="node23" class="node">
<title>Node23</title>
<g id="a_node23"><a xlink:href="nvim_8h.html" target="_top" xlink:title=" ">
<polygon fill="white" stroke="#666666" points="1296.79,-188 1216.29,-188 1216.29,-168 1296.79,-168 1296.79,-188"/>
<text xml:space="preserve" text-anchor="middle" x="1256.54" y="-174.5" font-family="Helvetica,sans-Serif" font-size="10.00">spectre/nvim.h</text>
</a>
</g>
</g>
<!-- Node1&#45;&gt;Node23 -->
<g id="edge71" class="edge">
<title>Node1&#45;&gt;Node23</title>
<path fill="none" stroke="#63b8ff" d="M570.35,-287.83C663.51,-283.92 948.24,-270.11 1036.54,-244 1054.84,-238.59 1056.7,-230.78 1074.54,-224 1117.28,-207.75 1167.91,-195.78 1204.91,-188.29"/>
<polygon fill="#63b8ff" stroke="#63b8ff" points="1205.31,-191.78 1214.44,-186.41 1203.95,-184.91 1205.31,-191.78"/>
</g>
<!-- Node33 -->
<g id="node33" class="node">
<title>Node33</title>
<g id="a_node33"><a xlink:title=" ">
<polygon fill="#e0e0e0" stroke="#999999" points="1129.17,-244 1083.92,-244 1083.92,-224 1129.17,-224 1129.17,-244"/>
<text xml:space="preserve" text-anchor="middle" x="1106.54" y="-230.5" font-family="Helvetica,sans-Serif" font-size="10.00">chrono</text>
</a>
</g>
</g>
<!-- Node1&#45;&gt;Node33 -->
<g id="edge58" class="edge">
<title>Node1&#45;&gt;Node33</title>
<path fill="none" stroke="#63b8ff" d="M570.28,-288.07C651.03,-285.21 881.01,-274.76 1069.54,-244 1070.54,-243.84 1071.55,-243.66 1072.57,-243.47"/>
<polygon fill="#63b8ff" stroke="#63b8ff" points="1073.01,-246.96 1082.08,-241.48 1071.58,-240.11 1073.01,-246.96"/>
</g>
<!-- Node34 -->
<g id="node34" class="node">
<title>Node34</title>
<g id="a_node34"><a xlink:href="sdl__window_8h.html" target="_top" xlink:title=" ">
<polygon fill="white" stroke="#666666" points="1626.42,-244 1516.67,-244 1516.67,-224 1626.42,-224 1626.42,-244"/>
<text xml:space="preserve" text-anchor="middle" x="1571.54" y="-230.5" font-family="Helvetica,sans-Serif" font-size="10.00">spectre/sdl_window.h</text>
</a>
</g>
</g>
<!-- Node1&#45;&gt;Node34 -->
<g id="edge60" class="edge">
<title>Node1&#45;&gt;Node34</title>
<path fill="none" stroke="#63b8ff" d="M570.29,-287.44C710.2,-280.11 1304.42,-248.99 1505.06,-238.48"/>
<polygon fill="#63b8ff" stroke="#63b8ff" points="1504.98,-241.99 1514.78,-237.97 1504.61,-235 1504.98,-241.99"/>
</g>
<!-- Node2&#45;&gt;Node3 -->
<g id="edge2" class="edge">
<title>Node2&#45;&gt;Node3</title>
<path fill="none" stroke="#63b8ff" d="M286.27,-223.59C277.97,-216.01 266.1,-205.13 256.14,-196.02"/>
<polygon fill="#63b8ff" stroke="#63b8ff" points="258.56,-193.49 248.82,-189.32 253.83,-198.65 258.56,-193.49"/>
</g>
<!-- Node2&#45;&gt;Node9 -->
<g id="edge10" class="edge">
<title>Node2&#45;&gt;Node9</title>
<path fill="none" stroke="#63b8ff" d="M298.74,-223.81C305.03,-198.26 323.79,-127.28 341.54,-112 368.7,-88.64 471.78,-75.33 524.73,-69.9"/>
<polygon fill="#63b8ff" stroke="#63b8ff" points="525.02,-73.39 534.63,-68.92 524.33,-66.42 525.02,-73.39"/>
</g>
<!-- Node3&#45;&gt;Node4 -->
<g id="edge3" class="edge">
<title>Node3&#45;&gt;Node4</title>
<path fill="none" stroke="#63b8ff" d="M229.53,-167.59C223.26,-160.24 214.37,-149.8 206.76,-140.87"/>
<polygon fill="#63b8ff" stroke="#63b8ff" points="209.59,-138.79 200.45,-133.45 204.27,-143.33 209.59,-138.79"/>
</g>
<!-- Node5 -->
<g id="node5" class="node">
<title>Node5</title>
<g id="a_node5"><a xlink:href="font__metrics_8h.html" target="_top" xlink:title=" ">
<polygon fill="white" stroke="#666666" points="148.29,-132 34.79,-132 34.79,-112 148.29,-112 148.29,-132"/>
<text xml:space="preserve" text-anchor="middle" x="91.54" y="-118.5" font-family="Helvetica,sans-Serif" font-size="10.00">spectre/font_metrics.h</text>
</a>
</g>
</g>
<!-- Node3&#45;&gt;Node5 -->
<g id="edge4" class="edge">
<title>Node3&#45;&gt;Node5</title>
<path fill="none" stroke="#63b8ff" d="M212.11,-167.59C188.81,-158.97 154.05,-146.12 127.83,-136.42"/>
<polygon fill="#63b8ff" stroke="#63b8ff" points="129.19,-133.19 118.59,-133 126.76,-139.76 129.19,-133.19"/>
</g>
<!-- Node6 -->
<g id="node6" class="node">
<title>Node6</title>
<g id="a_node6"><a xlink:href="types_8h.html" target="_top" xlink:title=" ">
<polygon fill="white" stroke="#666666" points="678.29,-76 594.79,-76 594.79,-56 678.29,-56 678.29,-76"/>
<text xml:space="preserve" text-anchor="middle" x="636.54" y="-62.5" font-family="Helvetica,sans-Serif" font-size="10.00">spectre/types.h</text>
</a>
</g>
</g>
<!-- Node3&#45;&gt;Node6 -->
<g id="edge5" class="edge">
<title>Node3&#45;&gt;Node6</title>
<path fill="none" stroke="#63b8ff" d="M248.87,-167.68C267.13,-153.19 304.78,-125.53 341.54,-112 441.1,-75.37 475.14,-92.34 583.46,-76.23"/>
<polygon fill="#63b8ff" stroke="#63b8ff" points="583.7,-79.74 593.04,-74.74 582.62,-72.82 583.7,-79.74"/>
</g>
<!-- Node3&#45;&gt;Node9 -->
<g id="edge8" class="edge">
<title>Node3&#45;&gt;Node9</title>
<path fill="none" stroke="#63b8ff" d="M239.29,-167.72C242.53,-153.3 250.9,-125.72 269.54,-112 309.7,-82.45 458.99,-71.7 524.91,-68.34"/>
<polygon fill="#63b8ff" stroke="#63b8ff" points="524.87,-71.85 534.69,-67.87 524.54,-64.86 524.87,-71.85"/>
</g>
<!-- Node3&#45;&gt;Node10 -->
<g id="edge9" class="edge">
<title>Node3&#45;&gt;Node10</title>
<path fill="none" stroke="#63b8ff" d="M260.88,-167.59C282.6,-158.84 315.16,-145.72 339.35,-135.97"/>
<polygon fill="#63b8ff" stroke="#63b8ff" points="340.43,-139.31 348.4,-132.33 337.81,-132.82 340.43,-139.31"/>
</g>
<!-- Node7 -->
<g id="node7" class="node">
<title>Node7</title>
<g id="a_node7"><a xlink:title=" ">
<polygon fill="#e0e0e0" stroke="#999999" points="655.42,-20 617.67,-20 617.67,0 655.42,0 655.42,-20"/>
<text xml:space="preserve" text-anchor="middle" x="636.54" y="-6.5" font-family="Helvetica,sans-Serif" font-size="10.00">array</text>
</a>
</g>
</g>
<!-- Node6&#45;&gt;Node7 -->
<g id="edge6" class="edge">
<title>Node6&#45;&gt;Node7</title>
<path fill="none" stroke="#63b8ff" d="M636.54,-55.59C636.54,-49.01 636.54,-39.96 636.54,-31.73"/>
<polygon fill="#63b8ff" stroke="#63b8ff" points="640.04,-31.81 636.54,-21.81 633.04,-31.81 640.04,-31.81"/>
</g>
<!-- Node8 -->
<g id="node8" class="node">
<title>Node8</title>
<g id="a_node8"><a xlink:title=" ">
<polygon fill="#e0e0e0" stroke="#999999" points="858.17,-20 812.92,-20 812.92,0 858.17,0 858.17,-20"/>
<text xml:space="preserve" text-anchor="middle" x="835.54" y="-6.5" font-family="Helvetica,sans-Serif" font-size="10.00">cstdint</text>
</a>
</g>
</g>
<!-- Node6&#45;&gt;Node8 -->
<g id="edge7" class="edge">
<title>Node6&#45;&gt;Node8</title>
<path fill="none" stroke="#63b8ff" d="M671.21,-55.59C707.78,-45.67 765.06,-30.13 801.43,-20.26"/>
<polygon fill="#63b8ff" stroke="#63b8ff" points="802.25,-23.66 810.99,-17.66 800.42,-16.9 802.25,-23.66"/>
</g>
<!-- Node11&#45;&gt;Node3 -->
<g id="edge31" class="edge">
<title>Node11&#45;&gt;Node3</title>
<path fill="none" stroke="#63b8ff" d="M413.44,-223.59C378.08,-214.63 324.63,-201.08 285.93,-191.27"/>
<polygon fill="#63b8ff" stroke="#63b8ff" points="286.95,-187.92 276.4,-188.85 285.23,-194.7 286.95,-187.92"/>
</g>
<!-- Node11&#45;&gt;Node10 -->
<g id="edge32" class="edge">
<title>Node11&#45;&gt;Node10</title>
<path fill="none" stroke="#63b8ff" d="M443.81,-223.62C430.81,-205.52 402.03,-165.45 384.97,-141.7"/>
<polygon fill="#63b8ff" stroke="#63b8ff" points="387.82,-139.66 379.14,-133.58 382.13,-143.75 387.82,-139.66"/>
</g>
<!-- Node11&#45;&gt;Node12 -->
<g id="edge12" class="edge">
<title>Node11&#45;&gt;Node12</title>
<path fill="none" stroke="#63b8ff" d="M482.42,-223.59C512.41,-214.74 557.54,-201.43 590.68,-191.65"/>
<polygon fill="#63b8ff" stroke="#63b8ff" points="591.37,-195.09 599.97,-188.91 589.38,-188.38 591.37,-195.09"/>
</g>
<!-- Node11&#45;&gt;Node17 -->
<g id="edge24" class="edge">
<title>Node11&#45;&gt;Node17</title>
<path fill="none" stroke="#63b8ff" d="M455.07,-223.59C458.39,-216.7 463.01,-207.1 467.12,-198.57"/>
<polygon fill="#63b8ff" stroke="#63b8ff" points="470.22,-200.19 471.41,-189.66 463.92,-197.15 470.22,-200.19"/>
</g>
<!-- Node12&#45;&gt;Node8 -->
<g id="edge13" class="edge">
<title>Node12&#45;&gt;Node8</title>
<path fill="none" stroke="#63b8ff" d="M644.98,-167.6C677.97,-140.49 773.57,-61.93 815.47,-27.49"/>
<polygon fill="#63b8ff" stroke="#63b8ff" points="817.56,-30.31 823.06,-21.26 813.11,-24.9 817.56,-30.31"/>
</g>
<!-- Node12&#45;&gt;Node9 -->
<g id="edge22" class="edge">
<title>Node12&#45;&gt;Node9</title>
<path fill="none" stroke="#63b8ff" d="M630.07,-167.64C624.96,-154.52 614.58,-130.2 601.54,-112 594.29,-101.87 584.69,-91.93 576.22,-83.97"/>
<polygon fill="#63b8ff" stroke="#63b8ff" points="578.83,-81.62 569.07,-77.5 574.13,-86.81 578.83,-81.62"/>
</g>
<!-- Node12&#45;&gt;Node10 -->
<g id="edge23" class="edge">
<title>Node12&#45;&gt;Node10</title>
<path fill="none" stroke="#63b8ff" d="M595.71,-170.71C551.92,-163.19 477.45,-149.68 404.28,-132.24"/>
<polygon fill="#63b8ff" stroke="#63b8ff" points="405.51,-128.94 394.96,-129.99 403.86,-135.74 405.51,-128.94"/>
</g>
<!-- Node13 -->
<g id="node13" class="node">
<title>Node13</title>
<g id="a_node13"><a xlink:href="grid__sink_8h.html" target="_top" xlink:title=" ">
<polygon fill="white" stroke="#666666" points="822.79,-132 724.29,-132 724.29,-112 822.79,-112 822.79,-132"/>
<text xml:space="preserve" text-anchor="middle" x="773.54" y="-118.5" font-family="Helvetica,sans-Serif" font-size="10.00">spectre/grid_sink.h</text>
</a>
</g>
</g>
<!-- Node12&#45;&gt;Node13 -->
<g id="edge14" class="edge">
<title>Node12&#45;&gt;Node13</title>
<path fill="none" stroke="#63b8ff" d="M657.93,-167.59C680.18,-159.01 713.31,-146.23 738.41,-136.55"/>
<polygon fill="#63b8ff" stroke="#63b8ff" points="739.48,-139.89 747.55,-133.02 736.96,-133.36 739.48,-139.89"/>
</g>
<!-- Node14 -->
<g id="node14" class="node">
<title>Node14</title>
<g id="a_node14"><a xlink:href="highlight_8h.html" target="_top" xlink:title=" ">
<polygon fill="white" stroke="#666666" points="936.29,-132 840.79,-132 840.79,-112 936.29,-112 936.29,-132"/>
<text xml:space="preserve" text-anchor="middle" x="888.54" y="-118.5" font-family="Helvetica,sans-Serif" font-size="10.00">spectre/highlight.h</text>
</a>
</g>
</g>
<!-- Node12&#45;&gt;Node14 -->
<g id="edge17" class="edge">
<title>Node12&#45;&gt;Node14</title>
<path fill="none" stroke="#63b8ff" d="M671.44,-168.97C714.18,-159.92 784.06,-145.13 832.97,-134.77"/>
<polygon fill="#63b8ff" stroke="#63b8ff" points="833.45,-138.24 842.51,-132.75 832,-131.4 833.45,-138.24"/>
</g>
<!-- Node13&#45;&gt;Node8 -->
<g id="edge15" class="edge">
<title>Node13&#45;&gt;Node8</title>
<path fill="none" stroke="#63b8ff" d="M778.83,-111.62C788.94,-93.68 811.21,-54.17 824.64,-30.35"/>
<polygon fill="#63b8ff" stroke="#63b8ff" points="827.67,-32.1 829.53,-21.67 821.57,-28.67 827.67,-32.1"/>
</g>
<!-- Node13&#45;&gt;Node9 -->
<g id="edge16" class="edge">
<title>Node13&#45;&gt;Node9</title>
<path fill="none" stroke="#63b8ff" d="M730.4,-111.53C694.55,-103.46 641.98,-91.2 587.66,-76.45"/>
<polygon fill="#63b8ff" stroke="#63b8ff" points="588.8,-73.13 578.23,-73.87 586.95,-79.88 588.8,-73.13"/>
</g>
<!-- Node14&#45;&gt;Node6 -->
<g id="edge19" class="edge">
<title>Node14&#45;&gt;Node6</title>
<path fill="none" stroke="#63b8ff" d="M844.36,-111.53C801.29,-102.3 735.74,-88.26 689.81,-78.41"/>
<polygon fill="#63b8ff" stroke="#63b8ff" points="690.57,-75 680.06,-76.32 689.1,-81.84 690.57,-75"/>
</g>
<!-- Node14&#45;&gt;Node8 -->
<g id="edge18" class="edge">
<title>Node14&#45;&gt;Node8</title>
<path fill="none" stroke="#63b8ff" d="M886.94,-111.78C884.46,-98.82 878.94,-74.7 869.54,-56 864.73,-46.42 857.81,-36.81 851.48,-28.94"/>
<polygon fill="#63b8ff" stroke="#63b8ff" points="854.31,-26.87 845.19,-21.48 848.96,-31.38 854.31,-26.87"/>
</g>
<!-- Node15 -->
<g id="node15" class="node">
<title>Node15</title>
<g id="a_node15"><a xlink:title=" ">
<polygon fill="#e0e0e0" stroke="#999999" points="1575.92,-76 1493.17,-76 1493.17,-56 1575.92,-56 1575.92,-76"/>
<text xml:space="preserve" text-anchor="middle" x="1534.54" y="-62.5" font-family="Helvetica,sans-Serif" font-size="10.00">unordered_map</text>
</a>
</g>
</g>
<!-- Node14&#45;&gt;Node15 -->
<g id="edge20" class="edge">
<title>Node14&#45;&gt;Node15</title>
<path fill="none" stroke="#63b8ff" d="M936.71,-113.12C939.69,-112.71 942.66,-112.34 945.54,-112 1142.68,-88.94 1378.39,-75.03 1481.67,-69.61"/>
<polygon fill="#63b8ff" stroke="#63b8ff" points="1481.7,-73.11 1491.5,-69.1 1481.34,-66.12 1481.7,-73.11"/>
</g>
<!-- Node16 -->
<g id="node16" class="node">
<title>Node16</title>
<g id="a_node16"><a xlink:title=" ">
<polygon fill="#e0e0e0" stroke="#999999" points="860.17,-76 820.92,-76 820.92,-56 860.17,-56 860.17,-76"/>
<text xml:space="preserve" text-anchor="middle" x="840.54" y="-62.5" font-family="Helvetica,sans-Serif" font-size="10.00">utility</text>
</a>
</g>
</g>
<!-- Node14&#45;&gt;Node16 -->
<g id="edge21" class="edge">
<title>Node14&#45;&gt;Node16</title>
<path fill="none" stroke="#63b8ff" d="M880.18,-111.59C873.64,-104.24 864.36,-93.8 856.42,-84.87"/>
<polygon fill="#63b8ff" stroke="#63b8ff" points="859.07,-82.58 849.81,-77.43 853.84,-87.23 859.07,-82.58"/>
</g>
<!-- Node17&#45;&gt;Node4 -->
<g id="edge25" class="edge">
<title>Node17&#45;&gt;Node4</title>
<path fill="none" stroke="#63b8ff" d="M428.84,-167.96C372.54,-157.29 280.09,-139.78 228.79,-130.06"/>
<polygon fill="#63b8ff" stroke="#63b8ff" points="229.55,-126.64 219.07,-128.22 228.25,-133.52 229.55,-126.64"/>
</g>
<!-- Node17&#45;&gt;Node6 -->
<g id="edge28" class="edge">
<title>Node17&#45;&gt;Node6</title>
<path fill="none" stroke="#63b8ff" d="M477.45,-167.66C479.31,-153.65 484.8,-127.21 500.54,-112 512.87,-100.08 551.39,-87.95 584.3,-79.28"/>
<polygon fill="#63b8ff" stroke="#63b8ff" points="584.91,-82.74 593.73,-76.86 583.17,-75.96 584.91,-82.74"/>
</g>
<!-- Node17&#45;&gt;Node10 -->
<g id="edge30" class="edge">
<title>Node17&#45;&gt;Node10</title>
<path fill="none" stroke="#63b8ff" d="M458.25,-167.59C442.24,-159.36 418.71,-147.26 400.2,-137.74"/>
<polygon fill="#63b8ff" stroke="#63b8ff" points="401.81,-134.63 391.32,-133.17 398.61,-140.86 401.81,-134.63"/>
</g>
<!-- Node17&#45;&gt;Node16 -->
<g id="edge29" class="edge">
<title>Node17&#45;&gt;Node16</title>
<path fill="none" stroke="#63b8ff" d="M481.78,-167.6C490.45,-153 509.28,-125.2 533.54,-112 580.75,-86.32 740.85,-73.33 809.2,-68.85"/>
<polygon fill="#63b8ff" stroke="#63b8ff" points="809.21,-72.36 818.96,-68.23 808.76,-65.38 809.21,-72.36"/>
</g>
<!-- Node17&#45;&gt;Node18 -->
<g id="edge26" class="edge">
<title>Node17&#45;&gt;Node18</title>
<path fill="none" stroke="#63b8ff" d="M492.39,-167.59C506.01,-159.51 525.91,-147.71 541.8,-138.27"/>
<polygon fill="#63b8ff" stroke="#63b8ff" points="543.45,-141.37 550.27,-133.25 539.88,-135.35 543.45,-141.37"/>
</g>
<!-- Node19 -->
<g id="node19" class="node">
<title>Node19</title>
<g id="a_node19"><a xlink:title=" ">
<polygon fill="#e0e0e0" stroke="#999999" points="448.04,-132 411.04,-132 411.04,-112 448.04,-112 448.04,-132"/>
<text xml:space="preserve" text-anchor="middle" x="429.54" y="-118.5" font-family="Helvetica,sans-Serif" font-size="10.00">span</text>
</a>
</g>
</g>
<!-- Node17&#45;&gt;Node19 -->
<g id="edge27" class="edge">
<title>Node17&#45;&gt;Node19</title>
<path fill="none" stroke="#63b8ff" d="M468.36,-167.59C461.95,-160.24 452.87,-149.8 445.09,-140.87"/>
<polygon fill="#63b8ff" stroke="#63b8ff" points="447.83,-138.69 438.63,-133.44 442.55,-143.28 447.83,-138.69"/>
</g>
<!-- Node20&#45;&gt;Node9 -->
<g id="edge56" class="edge">
<title>Node20&#45;&gt;Node9</title>
<path fill="none" stroke="#63b8ff" d="M950.75,-223.54C904.44,-205.82 801.69,-166.34 715.54,-132 670.69,-114.12 618.97,-92.86 587.01,-79.64"/>
<polygon fill="#63b8ff" stroke="#63b8ff" points="588.55,-76.49 577.98,-75.9 585.88,-82.96 588.55,-76.49"/>
</g>
<!-- Node21 -->
<g id="node21" class="node">
<title>Node21</title>
<g id="a_node21"><a xlink:title=" ">
<polygon fill="#e0e0e0" stroke="#999999" points="1109.54,-132 1015.54,-132 1015.54,-112 1109.54,-112 1109.54,-132"/>
<text xml:space="preserve" text-anchor="middle" x="1062.54" y="-118.5" font-family="Helvetica,sans-Serif" font-size="10.00">condition_variable</text>
</a>
</g>
</g>
<!-- Node20&#45;&gt;Node21 -->
<g id="edge34" class="edge">
<title>Node20&#45;&gt;Node21</title>
<path fill="none" stroke="#63b8ff" d="M982.96,-223.62C997.34,-205.44 1029.25,-165.09 1048,-141.38"/>
<polygon fill="#63b8ff" stroke="#63b8ff" points="1050.75,-143.56 1054.21,-133.54 1045.26,-139.21 1050.75,-143.56"/>
</g>
<!-- Node22 -->
<g id="node22" class="node">
<title>Node22</title>
<g id="a_node22"><a xlink:title=" ">
<polygon fill="#e0e0e0" stroke="#999999" points="1171.04,-132 1128.04,-132 1128.04,-112 1171.04,-112 1171.04,-132"/>
<text xml:space="preserve" text-anchor="middle" x="1149.54" y="-118.5" font-family="Helvetica,sans-Serif" font-size="10.00">mutex</text>
</a>
</g>
</g>
<!-- Node20&#45;&gt;Node22 -->
<g id="edge35" class="edge">
<title>Node20&#45;&gt;Node22</title>
<path fill="none" stroke="#63b8ff" d="M990.38,-223.62C1020.43,-204.63 1088.73,-161.45 1125.32,-138.31"/>
<polygon fill="#63b8ff" stroke="#63b8ff" points="1126.88,-141.47 1133.47,-133.16 1123.14,-135.55 1126.88,-141.47"/>
</g>
<!-- Node20&#45;&gt;Node23 -->
<g id="edge36" class="edge">
<title>Node20&#45;&gt;Node23</title>
<path fill="none" stroke="#63b8ff" d="M1024.81,-223.53C1075.3,-213.83 1153.47,-198.81 1204.83,-188.94"/>
<polygon fill="#63b8ff" stroke="#63b8ff" points="1205.35,-192.4 1214.51,-187.08 1204.03,-185.53 1205.35,-192.4"/>
</g>
<!-- Node29 -->
<g id="node29" class="node">
<title>Node29</title>
<g id="a_node29"><a xlink:title=" ">
<polygon fill="#e0e0e0" stroke="#999999" points="997.04,-132 954.04,-132 954.04,-112 997.04,-112 997.04,-132"/>
<text xml:space="preserve" text-anchor="middle" x="975.54" y="-118.5" font-family="Helvetica,sans-Serif" font-size="10.00">thread</text>
</a>
</g>
</g>
<!-- Node20&#45;&gt;Node29 -->
<g id="edge57" class="edge">
<title>Node20&#45;&gt;Node29</title>
<path fill="none" stroke="#63b8ff" d="M975.54,-223.62C975.54,-206.01 975.54,-167.59 975.54,-143.65"/>
<polygon fill="#63b8ff" stroke="#63b8ff" points="979.04,-143.87 975.54,-133.87 972.04,-143.87 979.04,-143.87"/>
</g>
<!-- Node23&#45;&gt;Node6 -->
<g id="edge48" class="edge">
<title>Node23&#45;&gt;Node6</title>
<path fill="none" stroke="#63b8ff" d="M1253.52,-167.94C1248.1,-153.3 1235.23,-124.77 1213.54,-112 1191.15,-98.81 827.95,-77.54 689.54,-69.87"/>
<polygon fill="#63b8ff" stroke="#63b8ff" points="690.1,-66.4 679.92,-69.34 689.72,-73.39 690.1,-66.4"/>
</g>
<!-- Node23&#45;&gt;Node8 -->
<g id="edge39" class="edge">
<title>Node23&#45;&gt;Node8</title>
<path fill="none" stroke="#63b8ff" d="M1256.56,-167.57C1256.06,-153.43 1252.96,-126.84 1237.54,-112 1184.25,-60.71 957.31,-26.66 869.98,-15.24"/>
<polygon fill="#63b8ff" stroke="#63b8ff" points="870.48,-11.78 860.12,-13.97 869.59,-18.72 870.48,-11.78"/>
</g>
<!-- Node23&#45;&gt;Node9 -->
<g id="edge49" class="edge">
<title>Node23&#45;&gt;Node9</title>
<path fill="none" stroke="#63b8ff" d="M1249.32,-167.79C1237.04,-152.93 1210.48,-124.1 1180.54,-112 1060.84,-63.64 733.07,-97.96 587.95,-75.86"/>
<polygon fill="#63b8ff" stroke="#63b8ff" points="588.92,-72.47 578.48,-74.26 587.76,-79.37 588.92,-72.47"/>
</g>
<!-- Node23&#45;&gt;Node10 -->
<g id="edge53" class="edge">
<title>Node23&#45;&gt;Node10</title>
<path fill="none" stroke="#63b8ff" d="M1215.97,-176.1C1071.78,-172.71 583.62,-159.56 404.74,-131.87"/>
<polygon fill="#63b8ff" stroke="#63b8ff" points="405.34,-128.42 394.91,-130.27 404.21,-135.33 405.34,-128.42"/>
</g>
<!-- Node23&#45;&gt;Node13 -->
<g id="edge46" class="edge">
<title>Node23&#45;&gt;Node13</title>
<path fill="none" stroke="#63b8ff" d="M1216.03,-173.37C1142.28,-166.62 980.9,-151.19 834.6,-132.35"/>
<polygon fill="#63b8ff" stroke="#63b8ff" points="835.06,-128.88 824.7,-131.06 834.16,-135.82 835.06,-128.88"/>
</g>
<!-- Node23&#45;&gt;Node14 -->
<g id="edge47" class="edge">
<title>Node23&#45;&gt;Node14</title>
<path fill="none" stroke="#63b8ff" d="M1216.26,-171.34C1159.03,-163.26 1050.61,-147.82 947.94,-132.35"/>
<polygon fill="#63b8ff" stroke="#63b8ff" points="948.65,-128.91 938.23,-130.88 947.6,-135.84 948.65,-128.91"/>
</g>
<!-- Node23&#45;&gt;Node15 -->
<g id="edge51" class="edge">
<title>Node23&#45;&gt;Node15</title>
<path fill="none" stroke="#63b8ff" d="M1297.08,-175.99C1402.55,-172.93 1679.31,-162.09 1706.54,-132 1743.8,-90.83 1651.04,-75.6 1587.73,-70.07"/>
<polygon fill="#63b8ff" stroke="#63b8ff" points="1588.05,-66.58 1577.8,-69.26 1587.49,-73.56 1588.05,-66.58"/>
</g>
<!-- Node23&#45;&gt;Node21 -->
<g id="edge38" class="edge">
<title>Node23&#45;&gt;Node21</title>
<path fill="none" stroke="#63b8ff" d="M1222.75,-167.59C1190.82,-158.71 1142.69,-145.31 1107.52,-135.52"/>
<polygon fill="#63b8ff" stroke="#63b8ff" points="1108.63,-132.2 1098.06,-132.89 1106.75,-138.94 1108.63,-132.2"/>
</g>
<!-- Node23&#45;&gt;Node22 -->
<g id="edge42" class="edge">
<title>Node23&#45;&gt;Node22</title>
<path fill="none" stroke="#63b8ff" d="M1237.9,-167.59C1221.51,-159.32 1197.38,-147.14 1178.48,-137.6"/>
<polygon fill="#63b8ff" stroke="#63b8ff" points="1180.18,-134.54 1169.68,-133.16 1177.03,-140.79 1180.18,-134.54"/>
</g>
<!-- Node24 -->
<g id="node24" class="node">
<title>Node24</title>
<g id="a_node24"><a xlink:title=" ">
<polygon fill="#e0e0e0" stroke="#999999" points="1697.17,-132 1651.92,-132 1651.92,-112 1697.17,-112 1697.17,-132"/>
<text xml:space="preserve" text-anchor="middle" x="1674.54" y="-118.5" font-family="Helvetica,sans-Serif" font-size="10.00">atomic</text>
</a>
</g>
</g>
<!-- Node23&#45;&gt;Node24 -->
<g id="edge37" class="edge">
<title>Node23&#45;&gt;Node24</title>
<path fill="none" stroke="#63b8ff" d="M1297.29,-174.51C1366.27,-169.8 1510.56,-157.87 1640.69,-132.3"/>
<polygon fill="#63b8ff" stroke="#63b8ff" points="1641.02,-135.81 1650.14,-130.41 1639.65,-128.94 1641.02,-135.81"/>
</g>
<!-- Node25 -->
<g id="node25" class="node">
<title>Node25</title>
<g id="a_node25"><a xlink:title=" ">
<polygon fill="#e0e0e0" stroke="#999999" points="1811.54,-132 1753.54,-132 1753.54,-112 1811.54,-112 1811.54,-132"/>
<text xml:space="preserve" text-anchor="middle" x="1782.54" y="-118.5" font-family="Helvetica,sans-Serif" font-size="10.00">functional</text>
</a>
</g>
</g>
<!-- Node23&#45;&gt;Node25 -->
<g id="edge40" class="edge">
<title>Node23&#45;&gt;Node25</title>
<path fill="none" stroke="#63b8ff" d="M1297.12,-174.78C1380.41,-169.88 1576.53,-156.57 1739.54,-132 1740.53,-131.85 1741.53,-131.69 1742.54,-131.53"/>
<polygon fill="#63b8ff" stroke="#63b8ff" points="1742.77,-135.04 1751.99,-129.82 1741.53,-128.16 1742.77,-135.04"/>
</g>
<!-- Node26 -->
<g id="node26" class="node">
<title>Node26</title>
<g id="a_node26"><a xlink:title=" ">
<polygon fill="#e0e0e0" stroke="#999999" points="1357.29,-132 1303.79,-132 1303.79,-112 1357.29,-112 1357.29,-132"/>
<text xml:space="preserve" text-anchor="middle" x="1330.54" y="-118.5" font-family="Helvetica,sans-Serif" font-size="10.00">mpack.h</text>
</a>
</g>
</g>
<!-- Node23&#45;&gt;Node26 -->
<g id="edge41" class="edge">
<title>Node23&#45;&gt;Node26</title>
<path fill="none" stroke="#63b8ff" d="M1269.43,-167.59C1280.26,-159.7 1295.95,-148.24 1308.73,-138.92"/>
<polygon fill="#63b8ff" stroke="#63b8ff" points="1310.56,-141.91 1316.58,-133.19 1306.44,-136.26 1310.56,-141.91"/>
</g>
<!-- Node27 -->
<g id="node27" class="node">
<title>Node27</title>
<g id="a_node27"><a xlink:title=" ">
<polygon fill="#e0e0e0" stroke="#999999" points="1417.67,-132 1375.42,-132 1375.42,-112 1417.67,-112 1417.67,-132"/>
<text xml:space="preserve" text-anchor="middle" x="1396.54" y="-118.5" font-family="Helvetica,sans-Serif" font-size="10.00">queue</text>
</a>
</g>
</g>
<!-- Node23&#45;&gt;Node27 -->
<g id="edge43" class="edge">
<title>Node23&#45;&gt;Node27</title>
<path fill="none" stroke="#63b8ff" d="M1280.93,-167.59C1304.13,-158.64 1339.18,-145.13 1364.6,-135.32"/>
<polygon fill="#63b8ff" stroke="#63b8ff" points="1365.7,-138.65 1373.77,-131.78 1363.18,-132.12 1365.7,-138.65"/>
</g>
<!-- Node28 -->
<g id="node28" class="node">
<title>Node28</title>
<g id="a_node28"><a xlink:href="events_8h.html" target="_top" xlink:title=" ">
<polygon fill="white" stroke="#666666" points="1917.92,-132 1829.17,-132 1829.17,-112 1917.92,-112 1917.92,-132"/>
<text xml:space="preserve" text-anchor="middle" x="1873.54" y="-118.5" font-family="Helvetica,sans-Serif" font-size="10.00">spectre/events.h</text>
</a>
</g>
</g>
<!-- Node23&#45;&gt;Node28 -->
<g id="edge44" class="edge">
<title>Node23&#45;&gt;Node28</title>
<path fill="none" stroke="#63b8ff" d="M1297.02,-175C1388.12,-170.25 1616.42,-156.85 1817.4,-132.3"/>
<polygon fill="#63b8ff" stroke="#63b8ff" points="1817.77,-135.78 1827.26,-131.08 1816.91,-128.83 1817.77,-135.78"/>
</g>
<!-- Node23&#45;&gt;Node29 -->
<g id="edge50" class="edge">
<title>Node23&#45;&gt;Node29</title>
<path fill="none" stroke="#63b8ff" d="M1216.01,-171.04C1168.57,-163.77 1087.45,-150.43 1008.59,-132.27"/>
<polygon fill="#63b8ff" stroke="#63b8ff" points="1009.49,-128.89 998.96,-130.02 1007.9,-135.7 1009.49,-128.89"/>
</g>
<!-- Node30 -->
<g id="node30" class="node">
<title>Node30</title>
<g id="a_node30"><a xlink:title=" ">
<polygon fill="#e0e0e0" stroke="#999999" points="1481.17,-132 1435.92,-132 1435.92,-112 1481.17,-112 1481.17,-132"/>
<text xml:space="preserve" text-anchor="middle" x="1458.54" y="-118.5" font-family="Helvetica,sans-Serif" font-size="10.00">variant</text>
</a>
</g>
</g>
<!-- Node23&#45;&gt;Node30 -->
<g id="edge52" class="edge">
<title>Node23&#45;&gt;Node30</title>
<path fill="none" stroke="#63b8ff" d="M1293.06,-167.51C1325.23,-159.11 1373.63,-146.37 1424.58,-132.51"/>
<polygon fill="#63b8ff" stroke="#63b8ff" points="1425.3,-135.94 1434.02,-129.93 1423.45,-129.19 1425.3,-135.94"/>
</g>
<!-- Node31 -->
<g id="node31" class="node">
<title>Node31</title>
<g id="a_node31"><a xlink:title=" ">
<polygon fill="#e0e0e0" stroke="#999999" points="1549.42,-132 1499.67,-132 1499.67,-112 1549.42,-112 1549.42,-132"/>
<text xml:space="preserve" text-anchor="middle" x="1524.54" y="-118.5" font-family="Helvetica,sans-Serif" font-size="10.00">signal.h</text>
</a>
</g>
</g>
<!-- Node23&#45;&gt;Node31 -->
<g id="edge54" class="edge">
<title>Node23&#45;&gt;Node31</title>
<path fill="none" stroke="#63b8ff" d="M1296.88,-170.11C1341.37,-162.32 1415.32,-148.82 1488.14,-132.43"/>
<polygon fill="#63b8ff" stroke="#63b8ff" points="1488.89,-135.84 1497.86,-130.21 1487.34,-129.02 1488.89,-135.84"/>
</g>
<!-- Node32 -->
<g id="node32" class="node">
<title>Node32</title>
<g id="a_node32"><a xlink:title=" ">
<polygon fill="#e0e0e0" stroke="#999999" points="1634.04,-132 1567.04,-132 1567.04,-112 1634.04,-112 1634.04,-132"/>
<text xml:space="preserve" text-anchor="middle" x="1600.54" y="-118.5" font-family="Helvetica,sans-Serif" font-size="10.00">sys/types.h</text>
</a>
</g>
</g>
<!-- Node23&#45;&gt;Node32 -->
<g id="edge55" class="edge">
<title>Node23&#45;&gt;Node32</title>
<path fill="none" stroke="#63b8ff" d="M1297.22,-171.77C1353.19,-164.39 1457.34,-150.01 1555.35,-132.49"/>
<polygon fill="#63b8ff" stroke="#63b8ff" points="1555.94,-135.94 1565.16,-130.72 1554.7,-129.05 1555.94,-135.94"/>
</g>
<!-- Node28&#45;&gt;Node8 -->
<g id="edge45" class="edge">
<title>Node28&#45;&gt;Node8</title>
<path fill="none" stroke="#63b8ff" d="M1840.05,-111.61C1786.54,-97.04 1678.23,-69.26 1584.54,-56 1311,-17.28 976.65,-11.83 869.97,-11.1"/>
<polygon fill="#63b8ff" stroke="#63b8ff" points="870.2,-7.6 860.18,-11.04 870.16,-14.6 870.2,-7.6"/>
</g>
<!-- Node35 -->
<g id="node35" class="node">
<title>Node35</title>
<g id="a_node35"><a xlink:title=" ">
<polygon fill="#e0e0e0" stroke="#999999" points="1607.29,-188 1535.79,-188 1535.79,-168 1607.29,-168 1607.29,-188"/>
<text xml:space="preserve" text-anchor="middle" x="1571.54" y="-174.5" font-family="Helvetica,sans-Serif" font-size="10.00">SDL3/SDL.h</text>
</a>
</g>
</g>
<!-- Node34&#45;&gt;Node35 -->
<g id="edge61" class="edge">
<title>Node34&#45;&gt;Node35</title>
<path fill="none" stroke="#63b8ff" d="M1571.54,-223.59C1571.54,-217.01 1571.54,-207.96 1571.54,-199.73"/>
<polygon fill="#63b8ff" stroke="#63b8ff" points="1575.04,-199.81 1571.54,-189.81 1568.04,-199.81 1575.04,-199.81"/>
</g>
<!-- Node36 -->
<g id="node36" class="node">
<title>Node36</title>
<g id="a_node36"><a xlink:href="window_8h.html" target="_top" xlink:title=" ">
<polygon fill="white" stroke="#666666" points="1919.42,-188 1827.67,-188 1827.67,-168 1919.42,-168 1919.42,-188"/>
<text xml:space="preserve" text-anchor="middle" x="1873.54" y="-174.5" font-family="Helvetica,sans-Serif" font-size="10.00">spectre/window.h</text>
</a>
</g>
</g>
<!-- Node34&#45;&gt;Node36 -->
<g id="edge62" class="edge">
<title>Node34&#45;&gt;Node36</title>
<path fill="none" stroke="#63b8ff" d="M1624.49,-223.53C1678.3,-213.91 1761.38,-199.06 1816.59,-189.18"/>
<polygon fill="#63b8ff" stroke="#63b8ff" points="1816.86,-192.69 1826.09,-187.48 1815.63,-185.8 1816.86,-192.69"/>
</g>
<!-- Node36&#45;&gt;Node9 -->
<g id="edge65" class="edge">
<title>Node36&#45;&gt;Node9</title>
<path fill="none" stroke="#63b8ff" d="M1890.71,-167.53C1912.3,-154.47 1944.52,-130.47 1926.54,-112 1876.23,-60.32 736.2,-86.34 588.36,-75.33"/>
<polygon fill="#63b8ff" stroke="#63b8ff" points="588.79,-71.85 578.48,-74.26 588.04,-78.81 588.79,-71.85"/>
</g>
<!-- Node36&#45;&gt;Node16 -->
<g id="edge66" class="edge">
<title>Node36&#45;&gt;Node16</title>
<path fill="none" stroke="#63b8ff" d="M1903.89,-167.59C1936.69,-155.96 1981.52,-134.88 1959.54,-112 1940.17,-91.84 1051.63,-71.57 872,-67.67"/>
<polygon fill="#63b8ff" stroke="#63b8ff" points="872.13,-64.17 862.05,-67.46 871.97,-71.17 872.13,-64.17"/>
</g>
<!-- Node36&#45;&gt;Node25 -->
<g id="edge63" class="edge">
<title>Node36&#45;&gt;Node25</title>
<path fill="none" stroke="#63b8ff" d="M1857.69,-167.59C1844.07,-159.51 1824.18,-147.71 1808.28,-138.27"/>
<polygon fill="#63b8ff" stroke="#63b8ff" points="1810.21,-135.35 1799.82,-133.25 1806.63,-141.37 1810.21,-135.35"/>
</g>
<!-- Node36&#45;&gt;Node28 -->
<g id="edge64" class="edge">
<title>Node36&#45;&gt;Node28</title>
<path fill="none" stroke="#63b8ff" d="M1873.54,-167.59C1873.54,-161.01 1873.54,-151.96 1873.54,-143.73"/>
<polygon fill="#63b8ff" stroke="#63b8ff" points="1877.04,-143.81 1873.54,-133.81 1870.04,-143.81 1877.04,-143.81"/>
</g>
</g>
</svg>
        <g id="navigator" transform="translate(0 0)" fill="#404254">
                <rect fill="#f2f5e9" fill-opacity="0.5" stroke="#606060" stroke-width=".5" x="0" y="0" width="60" height="60"/>
                <use id="zoomplus" xlink:href="#zoomPlus" x="17" y="9" onmousedown="handleZoom(evt,'in')"/>
                <use id="zoomminus" xlink:href="#zoomMin" x="42" y="9" onmousedown="handleZoom(evt,'out')"/>
                <use id="reset" xlink:href="#resetDef" x="30" y="36" onmousedown="handleReset()"/>
                <g id="arrowUp" xlink:href="#dirArrow" transform="translate(30 24)" onmousedown="handlePan(0,-1)">
                  <use xlink:href="#rim" fill="#404040">
                        <set attributeName="fill" to="#808080" begin="arrowUp.mouseover" end="arrowUp.mouseout"/>
                  </use>
                  <path fill="none" stroke="white" stroke-width="1.5" d="M0,-3.0v7 M-2.5,-0.5L0,-3.0L2.5,-0.5"/>
                </g>
                <g id="arrowRight" xlink:href="#dirArrow" transform="rotate(90) translate(36 -43)" onmousedown="handlePan(1,0)">
                  <use xlink:href="#rim" fill="#404040">
                        <set attributeName="fill" to="#808080" begin="arrowRight.mouseover" end="arrowRight.mouseout"/>
                  </use>
                  <path fill="none" stroke="white" stroke-width="1.5" d="M0,-3.0v7 M-2.5,-0.5L0,-3.0L2.5,-0.5"/>
                </g>
                <g id="arrowDown" xlink:href="#dirArrow" transform="rotate(180) translate(-30 -48)" onmousedown="handlePan(0,1)">
                  <use xlink:href="#rim" fill="#404040">
                        <set attributeName="fill" to="#808080" begin="arrowDown.mouseover" end="arrowDown.mouseout"/>
                  </use>
                  <path fill="none" stroke="white" stroke-width="1.5" d="M0,-3.0v7 M-2.5,-0.5L0,-3.0L2.5,-0.5"/>
                </g>
                <g id="arrowLeft" xlink:href="#dirArrow" transform="rotate(270) translate(-36 17)" onmousedown="handlePan(-1,0)">
                  <use xlink:href="#rim" fill="#404040">
                        <set attributeName="fill" to="#808080" begin="arrowLeft.mouseover" end="arrowLeft.mouseout"/>
                  </use>
                  <path fill="none" stroke="white" stroke-width="1.5" d="M0,-3.0v7 M-2.5,-0.5L0,-3.0L2.5,-0.5"/>
                </g>
        </g>
        <svg viewBox="0 0 15 15" width="100%" height="30px" preserveAspectRatio="xMaxYMin meet">
         <g id="arrow_out" transform="scale(0.3 0.3)">
          <a xlink:href="app_8h__incl_org.svg" target="_base">
           <rect id="button" ry="5" rx="5" y="6" x="6" height="38" width="38"
                fill="#f2f5e9" fill-opacity="0.5" stroke="#606060" stroke-width="1.0"/>
           <path id="arrow"
             d="M 11.500037,31.436501 C 11.940474,20.09759 22.043105,11.32322 32.158766,21.979434 L 37.068811,17.246167 C 37.068811,17.246167 37.088388,32 37.088388,32 L 22.160133,31.978069 C 22.160133,31.978069 26.997745,27.140456 26.997745,27.140456 C 18.528582,18.264221 13.291696,25.230495 11.500037,31.436501 z"
             style="fill:#404040;"/>
          </a>
         </g>
        </svg>
</svg>
