<?xml version="1.0" encoding="UTF-8" standalone="no"?>
<!DOCTYPE svg PUBLIC "-//W3C//DTD SVG 1.1//EN"
 "http://www.w3.org/Graphics/SVG/1.1/DTD/svg11.dtd">
<!-- Generated by graphviz version 14.1.3 (20260303.0454)
 -->
<!-- Title: libs/spectre&#45;types/include/spectre/events.h Pages: 1 -->
<svg width="393pt" height="300pt"
 viewBox="0.00 0.00 393.00 300.00" xmlns="http://www.w3.org/2000/svg" xmlns:xlink="http://www.w3.org/1999/xlink">
<g id="graph0" class="graph" transform="scale(1 1) rotate(0) translate(4 296)">
<title>libs/spectre&#45;types/include/spectre/events.h</title>
<!-- Node1 -->
<g id="node1" class="node">
<title>Node1</title>
<g id="a_node1"><a xlink:title=" ">
<polygon fill="#999999" stroke="#666666" points="268.46,-292 142.96,-292 142.96,-260 268.46,-260 268.46,-292"/>
<text xml:space="preserve" text-anchor="start" x="150.96" y="-278.5" font-family="Helvetica,sans-Serif" font-size="10.00">libs/spectre&#45;types</text>
<text xml:space="preserve" text-anchor="middle" x="205.71" y="-266.5" font-family="Helvetica,sans-Serif" font-size="10.00">/include/spectre/events.h</text>
</a>
</g>
</g>
<!-- Node2 -->
<g id="node2" class="node">
<title>Node2</title>
<g id="a_node2"><a xlink:href="nvim_8h.html" target="_top" xlink:title=" ">
<polygon fill="white" stroke="#666666" points="195.71,-224 71.71,-224 71.71,-192 195.71,-192 195.71,-224"/>
<text xml:space="preserve" text-anchor="start" x="79.71" y="-210.5" font-family="Helvetica,sans-Serif" font-size="10.00">libs/spectre&#45;nvim/include</text>
<text xml:space="preserve" text-anchor="middle" x="133.71" y="-198.5" font-family="Helvetica,sans-Serif" font-size="10.00">/spectre/nvim.h</text>
</a>
</g>
</g>
<!-- Node1&#45;&gt;Node2 -->
<g id="edge1" class="edge">
<title>Node1&#45;&gt;Node2</title>
<path fill="none" stroke="#63b8ff" d="M180.61,-251.99C170.58,-242.79 159.3,-232.46 150.32,-224.22"/>
<polygon fill="#63b8ff" stroke="#63b8ff" points="178.16,-254.49 187.9,-258.67 182.89,-249.33 178.16,-254.49"/>
</g>
<!-- Node7 -->
<g id="node7" class="node">
<title>Node7</title>
<g id="a_node7"><a xlink:href="window_8h.html" target="_top" xlink:title=" ">
<polygon fill="white" stroke="#666666" points="369.96,-224 241.46,-224 241.46,-192 369.96,-192 369.96,-224"/>
<text xml:space="preserve" text-anchor="start" x="249.46" y="-210.5" font-family="Helvetica,sans-Serif" font-size="10.00">libs/spectre&#45;window</text>
<text xml:space="preserve" text-anchor="middle" x="305.71" y="-198.5" font-family="Helvetica,sans-Serif" font-size="10.00">/include/spectre/window.h</text>
</a>
</g>
</g>
<!-- Node1&#45;&gt;Node7 -->
<g id="edge7" class="edge">
<title>Node1&#45;&gt;Node7</title>
<path fill="none" stroke="#63b8ff" d="M238.66,-253.25C252.97,-243.81 269.4,-232.97 282.41,-224.38"/>
<polygon fill="#63b8ff" stroke="#63b8ff" points="236.84,-250.26 230.42,-258.69 240.69,-256.1 236.84,-250.26"/>
</g>
<!-- Node3 -->
<g id="node3" class="node">
<title>Node3</title>
<g id="a_node3"><a xlink:href="app_8h.html" target="_top" xlink:title=" ">
<polygon fill="white" stroke="#666666" points="107.09,-76 48.34,-76 48.34,-56 107.09,-56 107.09,-76"/>
<text xml:space="preserve" text-anchor="middle" x="77.71" y="-62.5" font-family="Helvetica,sans-Serif" font-size="10.00">app/app.h</text>
</a>
</g>
</g>
<!-- Node2&#45;&gt;Node3 -->
<g id="edge2" class="edge">
<title>Node2&#45;&gt;Node3</title>
<path fill="none" stroke="#63b8ff" d="M60.6,-193.5C40.07,-185.97 20.01,-174.25 7.71,-156 -3.22,-139.78 -1.66,-129.16 7.71,-112 16.99,-95.01 35.73,-83.48 51.49,-76.34"/>
<polygon fill="#63b8ff" stroke="#63b8ff" points="59.31,-196.76 69.9,-196.59 61.51,-190.11 59.31,-196.76"/>
</g>
<!-- Node5 -->
<g id="node5" class="node">
<title>Node5</title>
<g id="a_node5"><a xlink:href="ui__request__worker_8h.html" target="_top" xlink:title=" ">
<polygon fill="white" stroke="#666666" points="138.96,-144 16.46,-144 16.46,-124 138.96,-124 138.96,-144"/>
<text xml:space="preserve" text-anchor="middle" x="77.71" y="-130.5" font-family="Helvetica,sans-Serif" font-size="10.00">app/ui_request_worker.h</text>
</a>
</g>
</g>
<!-- Node2&#45;&gt;Node5 -->
<g id="edge4" class="edge">
<title>Node2&#45;&gt;Node5</title>
<path fill="none" stroke="#63b8ff" d="M114.78,-182.67C104.54,-169.49 92.47,-153.97 84.95,-144.31"/>
<polygon fill="#63b8ff" stroke="#63b8ff" points="112,-184.79 120.9,-190.54 117.53,-180.49 112,-184.79"/>
</g>
<!-- Node6 -->
<g id="node6" class="node">
<title>Node6</title>
<g id="a_node6"><a xlink:href="mpack__codec_8h.html" target="_top" xlink:title=" ">
<polygon fill="white" stroke="#666666" points="264.09,-150 157.34,-150 157.34,-118 264.09,-118 264.09,-150"/>
<text xml:space="preserve" text-anchor="start" x="165.34" y="-136.5" font-family="Helvetica,sans-Serif" font-size="10.00">libs/spectre&#45;nvim/src</text>
<text xml:space="preserve" text-anchor="middle" x="210.71" y="-124.5" font-family="Helvetica,sans-Serif" font-size="10.00">/mpack_codec.h</text>
</a>
</g>
</g>
<!-- Node2&#45;&gt;Node6 -->
<g id="edge6" class="edge">
<title>Node2&#45;&gt;Node6</title>
<path fill="none" stroke="#63b8ff" d="M158.15,-184.14C169.89,-173.17 183.64,-160.31 194.14,-150.5"/>
<polygon fill="#63b8ff" stroke="#63b8ff" points="156.06,-181.31 151.15,-190.7 160.84,-186.42 156.06,-181.31"/>
</g>
<!-- Node4 -->
<g id="node4" class="node">
<title>Node4</title>
<g id="a_node4"><a xlink:href="render__test_8h.html" target="_top" xlink:title=" ">
<polygon fill="white" stroke="#666666" points="123.59,-20 31.84,-20 31.84,0 123.59,0 123.59,-20"/>
<text xml:space="preserve" text-anchor="middle" x="77.71" y="-6.5" font-family="Helvetica,sans-Serif" font-size="10.00">app/render_test.h</text>
</a>
</g>
</g>
<!-- Node3&#45;&gt;Node4 -->
<g id="edge3" class="edge">
<title>Node3&#45;&gt;Node4</title>
<path fill="none" stroke="#63b8ff" d="M77.71,-44.13C77.71,-35.9 77.71,-26.85 77.71,-20.3"/>
<polygon fill="#63b8ff" stroke="#63b8ff" points="74.21,-44.08 77.71,-54.08 81.21,-44.08 74.21,-44.08"/>
</g>
<!-- Node5&#45;&gt;Node3 -->
<g id="edge5" class="edge">
<title>Node5&#45;&gt;Node3</title>
<path fill="none" stroke="#63b8ff" d="M77.71,-112.28C77.71,-100.27 77.71,-85.74 77.71,-76.44"/>
<polygon fill="#63b8ff" stroke="#63b8ff" points="74.21,-112.03 77.71,-122.03 81.21,-112.03 74.21,-112.03"/>
</g>
<!-- Node8 -->
<g id="node8" class="node">
<title>Node8</title>
<g id="a_node8"><a xlink:href="sdl__window_8h.html" target="_top" xlink:title=" ">
<polygon fill="white" stroke="#666666" points="384.84,-156 282.59,-156 282.59,-112 384.84,-112 384.84,-156"/>
<text xml:space="preserve" text-anchor="start" x="290.59" y="-142.5" font-family="Helvetica,sans-Serif" font-size="10.00">libs/spectre&#45;window</text>
<text xml:space="preserve" text-anchor="start" x="290.59" y="-130.5" font-family="Helvetica,sans-Serif" font-size="10.00">/include/spectre/sdl</text>
<text xml:space="preserve" text-anchor="middle" x="333.71" y="-118.5" font-family="Helvetica,sans-Serif" font-size="10.00">_window.h</text>
</a>
</g>
</g>
<!-- Node7&#45;&gt;Node8 -->
<g id="edge8" class="edge">
<title>Node7&#45;&gt;Node8</title>
<path fill="none" stroke="#63b8ff" d="M315.73,-181.22C318.92,-173.04 322.4,-164.08 325.44,-156.26"/>
<polygon fill="#63b8ff" stroke="#63b8ff" points="312.56,-179.73 312.2,-190.32 319.08,-182.27 312.56,-179.73"/>
</g>
<!-- Node8&#45;&gt;Node3 -->
<g id="edge9" class="edge">
<title>Node8&#45;&gt;Node3</title>
<path fill="none" stroke="#63b8ff" d="M271.56,-111.82C207.57,-93.85 143.77,-80.21 107.36,-72.83"/>
<polygon fill="#63b8ff" stroke="#63b8ff" points="270.21,-115.07 280.79,-114.44 272.13,-108.34 270.21,-115.07"/>
</g>
</g>
</svg>
