<?xml version="1.0" encoding="UTF-8" standalone="no"?>
<!DOCTYPE svg PUBLIC "-//W3C//DTD SVG 1.1//EN"
 "http://www.w3.org/Graphics/SVG/1.1/DTD/svg11.dtd">
<!-- Generated by graphviz version 14.1.3 (20260303.0454)
 -->
<!-- Title: libs/spectre&#45;font/src/font_engine.h Pages: 1 -->
<!--zoomable 152 -->
<svg id="main" version="1.1" xmlns="http://www.w3.org/2000/svg" xmlns:xlink="http://www.w3.org/1999/xlink" xml:space="preserve" onload="init(evt)">
<style type="text/css"><![CDATA[
.edge:hover path { stroke: red; }
.edge:hover polygon { stroke: red; fill: red; }
]]></style>
<script type="text/javascript"><![CDATA[
var edges = document.getElementsByTagName('g');
if (edges && edges.length) {
  for (var i=0;i<edges.length;i++) {
    if (edges[i].id.substr(0,4)=='edge') {
      edges[i].setAttribute('class','edge');
    }
  }
}
]]></script>
        <defs>
                <circle id="rim" cx="0" cy="0" r="7"/>
                <circle id="rim2" cx="0" cy="0" r="3.5"/>
                <g id="zoomPlus">
                        <use xlink:href="#rim" fill="#404040">
                                <set attributeName="fill" to="#808080" begin="zoomplus.mouseover" end="zoomplus.mouseout"/>
                        </use>
                        <path d="M-4,0h8M0,-4v8" fill="none" stroke="white" stroke-width="1.5" pointer-events="none"/>
                </g>
                <g id="zoomMin">
                        <use xlink:href="#rim" fill="#404040">
                                <set attributeName="fill" to="#808080" begin="zoomminus.mouseover" end="zoomminus.mouseout"/>
                        </use>
                        <path d="M-4,0h8" fill="none" stroke="white" stroke-width="1.5" pointer-events="none"/>
                </g>
                <g id="dirArrow">
                        <path fill="none" stroke="white" stroke-width="1.5" d="M0,-3.0v7 M-2.5,-0.5L0,-3.0L2.5,-0.5"/>
                </g>
               <g id="resetDef">
                       <use xlink:href="#rim2" fill="#404040">
                               <set attributeName="fill" to="#808080" begin="reset.mouseover" end="reset.mouseout"/>
                       </use>
               </g>
        </defs>

<script type="text/javascript">
var viewWidth = 645;
var viewHeight = 152;
var sectionId = 'dynsection-0';
</script>
<script xlink:href="svgpan.js"/>
<svg id="graph" class="graph">
<g id="viewport">
<title>libs/spectre&#45;font/src/font_engine.h</title>
<!-- Node1 -->
<g id="node1" class="node">
<title>Node1</title>
<g id="a_node1"><a xlink:title=" ">
<polygon fill="#999999" stroke="#666666" points="398.06,-144 295.81,-144 295.81,-112 398.06,-112 398.06,-144"/>
<text xml:space="preserve" text-anchor="start" x="303.81" y="-130.5" font-family="Helvetica,sans-Serif" font-size="10.00">libs/spectre&#45;font/src</text>
<text xml:space="preserve" text-anchor="middle" x="346.93" y="-118.5" font-family="Helvetica,sans-Serif" font-size="10.00">/font_engine.h</text>
</a>
</g>
</g>
<!-- Node2 -->
<g id="node2" class="node">
<title>Node2</title>
<g id="a_node2"><a xlink:title=" ">
<polygon fill="#e0e0e0" stroke="#999999" points="79.56,-20 34.31,-20 34.31,0 79.56,0 79.56,-20"/>
<text xml:space="preserve" text-anchor="middle" x="56.93" y="-6.5" font-family="Helvetica,sans-Serif" font-size="10.00">cstdint</text>
</a>
</g>
</g>
<!-- Node1&#45;&gt;Node2 -->
<g id="edge1" class="edge">
<title>Node1&#45;&gt;Node2</title>
<path fill="none" stroke="#63b8ff" d="M295.5,-127.17C209.39,-126.23 41.83,-118.8 4.93,-76 -9.27,-59.52 11.22,-39.94 30.51,-26.61"/>
<polygon fill="#63b8ff" stroke="#63b8ff" points="32.26,-29.64 38.74,-21.26 28.45,-23.77 32.26,-29.64"/>
</g>
<!-- Node3 -->
<g id="node3" class="node">
<title>Node3</title>
<g id="a_node3"><a xlink:href="font__metrics_8h.html" target="_top" xlink:title=" ">
<polygon fill="white" stroke="#666666" points="127.68,-76 14.18,-76 14.18,-56 127.68,-56 127.68,-76"/>
<text xml:space="preserve" text-anchor="middle" x="70.93" y="-62.5" font-family="Helvetica,sans-Serif" font-size="10.00">spectre/font_metrics.h</text>
</a>
</g>
</g>
<!-- Node1&#45;&gt;Node3 -->
<g id="edge2" class="edge">
<title>Node1&#45;&gt;Node3</title>
<path fill="none" stroke="#63b8ff" d="M295.34,-115.78C247,-105.27 174.98,-89.62 125.64,-78.89"/>
<polygon fill="#63b8ff" stroke="#63b8ff" points="126.54,-75.51 116.03,-76.8 125.06,-82.35 126.54,-75.51"/>
</g>
<!-- Node4 -->
<g id="node4" class="node">
<title>Node4</title>
<g id="a_node4"><a xlink:href="types_8h.html" target="_top" xlink:title=" ">
<polygon fill="white" stroke="#666666" points="229.68,-76 146.18,-76 146.18,-56 229.68,-56 229.68,-76"/>
<text xml:space="preserve" text-anchor="middle" x="187.93" y="-62.5" font-family="Helvetica,sans-Serif" font-size="10.00">spectre/types.h</text>
</a>
</g>
</g>
<!-- Node1&#45;&gt;Node4 -->
<g id="edge3" class="edge">
<title>Node1&#45;&gt;Node4</title>
<path fill="none" stroke="#63b8ff" d="M305.99,-111.55C280.45,-101.91 247.92,-89.64 223.47,-80.41"/>
<polygon fill="#63b8ff" stroke="#63b8ff" points="224.87,-77.2 214.28,-76.94 222.4,-83.75 224.87,-77.2"/>
</g>
<!-- Node6 -->
<g id="node6" class="node">
<title>Node6</title>
<g id="a_node6"><a xlink:title=" ">
<polygon fill="#e0e0e0" stroke="#999999" points="287.93,-76 247.93,-76 247.93,-56 287.93,-56 287.93,-76"/>
<text xml:space="preserve" text-anchor="middle" x="267.93" y="-62.5" font-family="Helvetica,sans-Serif" font-size="10.00">string</text>
</a>
</g>
</g>
<!-- Node1&#45;&gt;Node6 -->
<g id="edge6" class="edge">
<title>Node1&#45;&gt;Node6</title>
<path fill="none" stroke="#63b8ff" d="M326.59,-111.55C315.16,-102.87 300.91,-92.04 289.31,-83.24"/>
<polygon fill="#63b8ff" stroke="#63b8ff" points="291.61,-80.58 281.53,-77.32 287.37,-86.16 291.61,-80.58"/>
</g>
<!-- Node7 -->
<g id="node7" class="node">
<title>Node7</title>
<g id="a_node7"><a xlink:title=" ">
<polygon fill="#e0e0e0" stroke="#999999" points="388.31,-76 305.56,-76 305.56,-56 388.31,-56 388.31,-76"/>
<text xml:space="preserve" text-anchor="middle" x="346.93" y="-62.5" font-family="Helvetica,sans-Serif" font-size="10.00">unordered_map</text>
</a>
</g>
</g>
<!-- Node1&#45;&gt;Node7 -->
<g id="edge7" class="edge">
<title>Node1&#45;&gt;Node7</title>
<path fill="none" stroke="#63b8ff" d="M346.93,-111.55C346.93,-104.34 346.93,-95.66 346.93,-87.88"/>
<polygon fill="#63b8ff" stroke="#63b8ff" points="350.43,-87.92 346.93,-77.92 343.43,-87.92 350.43,-87.92"/>
</g>
<!-- Node8 -->
<g id="node8" class="node">
<title>Node8</title>
<g id="a_node8"><a xlink:title=" ">
<polygon fill="#e0e0e0" stroke="#999999" points="449.43,-76 406.43,-76 406.43,-56 449.43,-56 449.43,-76"/>
<text xml:space="preserve" text-anchor="middle" x="427.93" y="-62.5" font-family="Helvetica,sans-Serif" font-size="10.00">vector</text>
</a>
</g>
</g>
<!-- Node1&#45;&gt;Node8 -->
<g id="edge8" class="edge">
<title>Node1&#45;&gt;Node8</title>
<path fill="none" stroke="#63b8ff" d="M367.79,-111.55C379.51,-102.87 394.13,-92.04 406.01,-83.24"/>
<polygon fill="#63b8ff" stroke="#63b8ff" points="408.07,-86.07 414.02,-77.31 403.9,-80.45 408.07,-86.07"/>
</g>
<!-- Node9 -->
<g id="node9" class="node">
<title>Node9</title>
<g id="a_node9"><a xlink:title=" ">
<polygon fill="#e0e0e0" stroke="#999999" points="522.81,-76 467.06,-76 467.06,-56 522.81,-56 522.81,-76"/>
<text xml:space="preserve" text-anchor="middle" x="494.93" y="-62.5" font-family="Helvetica,sans-Serif" font-size="10.00">ft2build.h</text>
</a>
</g>
</g>
<!-- Node1&#45;&gt;Node9 -->
<g id="edge9" class="edge">
<title>Node1&#45;&gt;Node9</title>
<path fill="none" stroke="#63b8ff" d="M385.05,-111.55C408.6,-102 438.55,-89.86 461.24,-80.66"/>
<polygon fill="#63b8ff" stroke="#63b8ff" points="462.37,-83.98 470.33,-76.98 459.74,-77.49 462.37,-83.98"/>
</g>
<!-- Node10 -->
<g id="node10" class="node">
<title>Node10</title>
<g id="a_node10"><a xlink:title=" ">
<polygon fill="#e0e0e0" stroke="#999999" points="584.81,-76 541.06,-76 541.06,-56 584.81,-56 584.81,-76"/>
<text xml:space="preserve" text-anchor="middle" x="562.93" y="-62.5" font-family="Helvetica,sans-Serif" font-size="10.00">hb&#45;ft.h</text>
</a>
</g>
</g>
<!-- Node1&#45;&gt;Node10 -->
<g id="edge10" class="edge">
<title>Node1&#45;&gt;Node10</title>
<path fill="none" stroke="#63b8ff" d="M398.42,-113.01C433.03,-103.56 479.94,-90.66 529.62,-76.63"/>
<polygon fill="#63b8ff" stroke="#63b8ff" points="530.47,-80.03 539.14,-73.94 528.56,-73.29 530.47,-80.03"/>
</g>
<!-- Node11 -->
<g id="node11" class="node">
<title>Node11</title>
<g id="a_node11"><a xlink:title=" ">
<polygon fill="#e0e0e0" stroke="#999999" points="637.31,-76 602.56,-76 602.56,-56 637.31,-56 637.31,-76"/>
<text xml:space="preserve" text-anchor="middle" x="619.93" y="-62.5" font-family="Helvetica,sans-Serif" font-size="10.00">hb.h</text>
</a>
</g>
</g>
<!-- Node1&#45;&gt;Node11 -->
<g id="edge11" class="edge">
<title>Node1&#45;&gt;Node11</title>
<path fill="none" stroke="#63b8ff" d="M398.49,-118.37C446.32,-109.91 519.63,-95.81 591.13,-76.52"/>
<polygon fill="#63b8ff" stroke="#63b8ff" points="591.95,-79.92 600.67,-73.9 590.1,-73.17 591.95,-79.92"/>
</g>
<!-- Node4&#45;&gt;Node2 -->
<g id="edge5" class="edge">
<title>Node4&#45;&gt;Node2</title>
<path fill="none" stroke="#63b8ff" d="M165.12,-55.59C144.49,-47.09 113.85,-34.46 90.44,-24.81"/>
<polygon fill="#63b8ff" stroke="#63b8ff" points="91.91,-21.63 81.33,-21.06 89.24,-28.1 91.91,-21.63"/>
</g>
<!-- Node5 -->
<g id="node5" class="node">
<title>Node5</title>
<g id="a_node5"><a xlink:title=" ">
<polygon fill="#e0e0e0" stroke="#999999" points="206.81,-20 169.06,-20 169.06,0 206.81,0 206.81,-20"/>
<text xml:space="preserve" text-anchor="middle" x="187.93" y="-6.5" font-family="Helvetica,sans-Serif" font-size="10.00">array</text>
</a>
</g>
</g>
<!-- Node4&#45;&gt;Node5 -->
<g id="edge4" class="edge">
<title>Node4&#45;&gt;Node5</title>
<path fill="none" stroke="#63b8ff" d="M187.93,-55.59C187.93,-49.01 187.93,-39.96 187.93,-31.73"/>
<polygon fill="#63b8ff" stroke="#63b8ff" points="191.43,-31.81 187.93,-21.81 184.43,-31.81 191.43,-31.81"/>
</g>
</g>
</svg>
        <g id="navigator" transform="translate(0 0)" fill="#404254">
                <rect fill="#f2f5e9" fill-opacity="0.5" stroke="#606060" stroke-width=".5" x="0" y="0" width="60" height="60"/>
                <use id="zoomplus" xlink:href="#zoomPlus" x="17" y="9" onmousedown="handleZoom(evt,'in')"/>
                <use id="zoomminus" xlink:href="#zoomMin" x="42" y="9" onmousedown="handleZoom(evt,'out')"/>
                <use id="reset" xlink:href="#resetDef" x="30" y="36" onmousedown="handleReset()"/>
                <g id="arrowUp" xlink:href="#dirArrow" transform="translate(30 24)" onmousedown="handlePan(0,-1)">
                  <use xlink:href="#rim" fill="#404040">
                        <set attributeName="fill" to="#808080" begin="arrowUp.mouseover" end="arrowUp.mouseout"/>
                  </use>
                  <path fill="none" stroke="white" stroke-width="1.5" d="M0,-3.0v7 M-2.5,-0.5L0,-3.0L2.5,-0.5"/>
                </g>
                <g id="arrowRight" xlink:href="#dirArrow" transform="rotate(90) translate(36 -43)" onmousedown="handlePan(1,0)">
                  <use xlink:href="#rim" fill="#404040">
                        <set attributeName="fill" to="#808080" begin="arrowRight.mouseover" end="arrowRight.mouseout"/>
                  </use>
                  <path fill="none" stroke="white" stroke-width="1.5" d="M0,-3.0v7 M-2.5,-0.5L0,-3.0L2.5,-0.5"/>
                </g>
                <g id="arrowDown" xlink:href="#dirArrow" transform="rotate(180) translate(-30 -48)" onmousedown="handlePan(0,1)">
                  <use xlink:href="#rim" fill="#404040">
                        <set attributeName="fill" to="#808080" begin="arrowDown.mouseover" end="arrowDown.mouseout"/>
                  </use>
                  <path fill="none" stroke="white" stroke-width="1.5" d="M0,-3.0v7 M-2.5,-0.5L0,-3.0L2.5,-0.5"/>
                </g>
                <g id="arrowLeft" xlink:href="#dirArrow" transform="rotate(270) translate(-36 17)" onmousedown="handlePan(-1,0)">
                  <use xlink:href="#rim" fill="#404040">
                        <set attributeName="fill" to="#808080" begin="arrowLeft.mouseover" end="arrowLeft.mouseout"/>
                  </use>
                  <path fill="none" stroke="white" stroke-width="1.5" d="M0,-3.0v7 M-2.5,-0.5L0,-3.0L2.5,-0.5"/>
                </g>
        </g>
        <svg viewBox="0 0 15 15" width="100%" height="30px" preserveAspectRatio="xMaxYMin meet">
         <g id="arrow_out" transform="scale(0.3 0.3)">
          <a xlink:href="font__engine_8h__incl_org.svg" target="_base">
           <rect id="button" ry="5" rx="5" y="6" x="6" height="38" width="38"
                fill="#f2f5e9" fill-opacity="0.5" stroke="#606060" stroke-width="1.0"/>
           <path id="arrow"
             d="M 11.500037,31.436501 C 11.940474,20.09759 22.043105,11.32322 32.158766,21.979434 L 37.068811,17.246167 C 37.068811,17.246167 37.088388,32 37.088388,32 L 22.160133,31.978069 C 22.160133,31.978069 26.997745,27.140456 26.997745,27.140456 C 18.528582,18.264221 13.291696,25.230495 11.500037,31.436501 z"
             style="fill:#404040;"/>
          </a>
         </g>
        </svg>
</svg>
