<?xml version="1.0" encoding="UTF-8" standalone="no"?>
<!DOCTYPE svg PUBLIC "-//W3C//DTD SVG 1.1//EN"
 "http://www.w3.org/Graphics/SVG/1.1/DTD/svg11.dtd">
<!-- Generated by graphviz version 14.1.3 (20260303.0454)
 -->
<!-- Title: libs/spectre&#45;font/include/spectre/font.h Pages: 1 -->
<svg width="412pt" height="208pt"
 viewBox="0.00 0.00 412.00 208.00" xmlns="http://www.w3.org/2000/svg" xmlns:xlink="http://www.w3.org/1999/xlink">
<g id="graph0" class="graph" transform="scale(1 1) rotate(0) translate(4 204)">
<title>libs/spectre&#45;font/include/spectre/font.h</title>
<!-- Node1 -->
<g id="node1" class="node">
<title>Node1</title>
<g id="a_node1"><a xlink:title=" ">
<polygon fill="#999999" stroke="#666666" points="302.38,-200 182.88,-200 182.88,-168 302.38,-168 302.38,-200"/>
<text xml:space="preserve" text-anchor="start" x="190.88" y="-186.5" font-family="Helvetica,sans-Serif" font-size="10.00">libs/spectre&#45;font/include</text>
<text xml:space="preserve" text-anchor="middle" x="242.62" y="-174.5" font-family="Helvetica,sans-Serif" font-size="10.00">/spectre/font.h</text>
</a>
</g>
</g>
<!-- Node2 -->
<g id="node2" class="node">
<title>Node2</title>
<g id="a_node2"><a xlink:href="text__service_8h.html" target="_top" xlink:title=" ">
<polygon fill="white" stroke="#666666" points="299,-132 186.25,-132 186.25,-112 299,-112 299,-132"/>
<text xml:space="preserve" text-anchor="middle" x="242.62" y="-118.5" font-family="Helvetica,sans-Serif" font-size="10.00">spectre/text_service.h</text>
</a>
</g>
</g>
<!-- Node1&#45;&gt;Node2 -->
<g id="edge1" class="edge">
<title>Node1&#45;&gt;Node2</title>
<path fill="none" stroke="#63b8ff" d="M242.62,-167.55C242.62,-160.34 242.62,-151.66 242.62,-143.88"/>
<polygon fill="#63b8ff" stroke="#63b8ff" points="246.13,-143.92 242.63,-133.92 239.13,-143.92 246.13,-143.92"/>
</g>
<!-- Node3 -->
<g id="node3" class="node">
<title>Node3</title>
<g id="a_node3"><a xlink:title=" ">
<polygon fill="#e0e0e0" stroke="#999999" points="51.25,-76 0,-76 0,-56 51.25,-56 51.25,-76"/>
<text xml:space="preserve" text-anchor="middle" x="25.62" y="-62.5" font-family="Helvetica,sans-Serif" font-size="10.00">memory</text>
</a>
</g>
</g>
<!-- Node2&#45;&gt;Node3 -->
<g id="edge2" class="edge">
<title>Node2&#45;&gt;Node3</title>
<path fill="none" stroke="#63b8ff" d="M203.31,-111.54C168.61,-103.15 116.36,-90.4 62.71,-76.76"/>
<polygon fill="#63b8ff" stroke="#63b8ff" points="63.62,-73.38 53.07,-74.3 61.89,-80.16 63.62,-73.38"/>
</g>
<!-- Node4 -->
<g id="node4" class="node">
<title>Node4</title>
<g id="a_node4"><a xlink:href="font__metrics_8h.html" target="_top" xlink:title=" ">
<polygon fill="white" stroke="#666666" points="182.38,-76 68.88,-76 68.88,-56 182.38,-56 182.38,-76"/>
<text xml:space="preserve" text-anchor="middle" x="125.62" y="-62.5" font-family="Helvetica,sans-Serif" font-size="10.00">spectre/font_metrics.h</text>
</a>
</g>
</g>
<!-- Node2&#45;&gt;Node4 -->
<g id="edge3" class="edge">
<title>Node2&#45;&gt;Node4</title>
<path fill="none" stroke="#63b8ff" d="M222.25,-111.59C204.07,-103.21 177.2,-90.8 156.41,-81.21"/>
<polygon fill="#63b8ff" stroke="#63b8ff" points="158.08,-78.13 147.54,-77.11 155.15,-84.48 158.08,-78.13"/>
</g>
<!-- Node5 -->
<g id="node5" class="node">
<title>Node5</title>
<g id="a_node5"><a xlink:href="types_8h.html" target="_top" xlink:title=" ">
<polygon fill="white" stroke="#666666" points="284.38,-76 200.88,-76 200.88,-56 284.38,-56 284.38,-76"/>
<text xml:space="preserve" text-anchor="middle" x="242.62" y="-62.5" font-family="Helvetica,sans-Serif" font-size="10.00">spectre/types.h</text>
</a>
</g>
</g>
<!-- Node2&#45;&gt;Node5 -->
<g id="edge4" class="edge">
<title>Node2&#45;&gt;Node5</title>
<path fill="none" stroke="#63b8ff" d="M242.62,-111.59C242.62,-105.01 242.62,-95.96 242.62,-87.73"/>
<polygon fill="#63b8ff" stroke="#63b8ff" points="246.13,-87.81 242.63,-77.81 239.13,-87.81 246.13,-87.81"/>
</g>
<!-- Node8 -->
<g id="node8" class="node">
<title>Node8</title>
<g id="a_node8"><a xlink:title=" ">
<polygon fill="#e0e0e0" stroke="#999999" points="342.62,-76 302.62,-76 302.62,-56 342.62,-56 342.62,-76"/>
<text xml:space="preserve" text-anchor="middle" x="322.62" y="-62.5" font-family="Helvetica,sans-Serif" font-size="10.00">string</text>
</a>
</g>
</g>
<!-- Node2&#45;&gt;Node8 -->
<g id="edge7" class="edge">
<title>Node2&#45;&gt;Node8</title>
<path fill="none" stroke="#63b8ff" d="M256.56,-111.59C268.3,-103.67 285.36,-92.16 299.19,-82.82"/>
<polygon fill="#63b8ff" stroke="#63b8ff" points="301,-85.82 307.33,-77.33 297.08,-80.02 301,-85.82"/>
</g>
<!-- Node9 -->
<g id="node9" class="node">
<title>Node9</title>
<g id="a_node9"><a xlink:title=" ">
<polygon fill="#e0e0e0" stroke="#999999" points="404.12,-76 361.12,-76 361.12,-56 404.12,-56 404.12,-76"/>
<text xml:space="preserve" text-anchor="middle" x="382.62" y="-62.5" font-family="Helvetica,sans-Serif" font-size="10.00">vector</text>
</a>
</g>
</g>
<!-- Node2&#45;&gt;Node9 -->
<g id="edge8" class="edge">
<title>Node2&#45;&gt;Node9</title>
<path fill="none" stroke="#63b8ff" d="M267.01,-111.59C290.08,-102.7 324.85,-89.29 350.23,-79.49"/>
<polygon fill="#63b8ff" stroke="#63b8ff" points="351.33,-82.82 359.41,-75.96 348.82,-76.29 351.33,-82.82"/>
</g>
<!-- Node6 -->
<g id="node6" class="node">
<title>Node6</title>
<g id="a_node6"><a xlink:title=" ">
<polygon fill="#e0e0e0" stroke="#999999" points="231.5,-20 193.75,-20 193.75,0 231.5,0 231.5,-20"/>
<text xml:space="preserve" text-anchor="middle" x="212.62" y="-6.5" font-family="Helvetica,sans-Serif" font-size="10.00">array</text>
</a>
</g>
</g>
<!-- Node5&#45;&gt;Node6 -->
<g id="edge5" class="edge">
<title>Node5&#45;&gt;Node6</title>
<path fill="none" stroke="#63b8ff" d="M237.4,-55.59C233.53,-48.63 228.12,-38.89 223.34,-30.29"/>
<polygon fill="#63b8ff" stroke="#63b8ff" points="226.44,-28.66 218.53,-21.62 220.32,-32.06 226.44,-28.66"/>
</g>
<!-- Node7 -->
<g id="node7" class="node">
<title>Node7</title>
<g id="a_node7"><a xlink:title=" ">
<polygon fill="#e0e0e0" stroke="#999999" points="295.25,-20 250,-20 250,0 295.25,0 295.25,-20"/>
<text xml:space="preserve" text-anchor="middle" x="272.62" y="-6.5" font-family="Helvetica,sans-Serif" font-size="10.00">cstdint</text>
</a>
</g>
</g>
<!-- Node5&#45;&gt;Node7 -->
<g id="edge6" class="edge">
<title>Node5&#45;&gt;Node7</title>
<path fill="none" stroke="#63b8ff" d="M247.85,-55.59C251.72,-48.63 257.13,-38.89 261.91,-30.29"/>
<polygon fill="#63b8ff" stroke="#63b8ff" points="264.93,-32.06 266.72,-21.62 258.81,-28.66 264.93,-32.06"/>
</g>
</g>
</svg>
