<?xml version="1.0" encoding="UTF-8" standalone="no"?>
<!DOCTYPE svg PUBLIC "-//W3C//DTD SVG 1.1//EN"
 "http://www.w3.org/Graphics/SVG/1.1/DTD/svg11.dtd">
<!-- Generated by graphviz version 14.1.3 (20260303.0454)
 -->
<!-- Title: app/grid_rendering_pipeline.h Pages: 1 -->
<svg width="104pt" height="152pt"
 viewBox="0.00 0.00 104.00 152.00" xmlns="http://www.w3.org/2000/svg" xmlns:xlink="http://www.w3.org/1999/xlink">
<g id="graph0" class="graph" transform="scale(1 1) rotate(0) translate(4 148)">
<title>app/grid_rendering_pipeline.h</title>
<!-- Node1 -->
<g id="node1" class="node">
<title>Node1</title>
<g id="a_node1"><a xlink:title=" ">
<polygon fill="#999999" stroke="#666666" points="95.5,-144 0,-144 0,-112 95.5,-112 95.5,-144"/>
<text xml:space="preserve" text-anchor="start" x="8" y="-130.5" font-family="Helvetica,sans-Serif" font-size="10.00">app/grid_rendering</text>
<text xml:space="preserve" text-anchor="middle" x="47.75" y="-118.5" font-family="Helvetica,sans-Serif" font-size="10.00">_pipeline.h</text>
</a>
</g>
</g>
<!-- Node2 -->
<g id="node2" class="node">
<title>Node2</title>
<g id="a_node2"><a xlink:href="app_8h.html" target="_top" xlink:title=" ">
<polygon fill="white" stroke="#666666" points="77.12,-76 18.38,-76 18.38,-56 77.12,-56 77.12,-76"/>
<text xml:space="preserve" text-anchor="middle" x="47.75" y="-62.5" font-family="Helvetica,sans-Serif" font-size="10.00">app/app.h</text>
</a>
</g>
</g>
<!-- Node1&#45;&gt;Node2 -->
<g id="edge1" class="edge">
<title>Node1&#45;&gt;Node2</title>
<path fill="none" stroke="#63b8ff" d="M47.75,-100.08C47.75,-91.6 47.75,-82.8 47.75,-76.41"/>
<polygon fill="#63b8ff" stroke="#63b8ff" points="44.25,-100.03 47.75,-110.03 51.25,-100.03 44.25,-100.03"/>
</g>
<!-- Node3 -->
<g id="node3" class="node">
<title>Node3</title>
<g id="a_node3"><a xlink:href="render__test_8h.html" target="_top" xlink:title=" ">
<polygon fill="white" stroke="#666666" points="93.62,-20 1.88,-20 1.88,0 93.62,0 93.62,-20"/>
<text xml:space="preserve" text-anchor="middle" x="47.75" y="-6.5" font-family="Helvetica,sans-Serif" font-size="10.00">app/render_test.h</text>
</a>
</g>
</g>
<!-- Node2&#45;&gt;Node3 -->
<g id="edge2" class="edge">
<title>Node2&#45;&gt;Node3</title>
<path fill="none" stroke="#63b8ff" d="M47.75,-44.13C47.75,-35.9 47.75,-26.85 47.75,-20.3"/>
<polygon fill="#63b8ff" stroke="#63b8ff" points="44.25,-44.08 47.75,-54.08 51.25,-44.08 44.25,-44.08"/>
</g>
</g>
</svg>
