<?xml version="1.0" encoding="UTF-8" standalone="no"?>
<!DOCTYPE svg PUBLIC "-//W3C//DTD SVG 1.1//EN"
 "http://www.w3.org/Graphics/SVG/1.1/DTD/svg11.dtd">
<!-- Generated by graphviz version 14.1.3 (20260303.0454)
 -->
<!-- Title: libs/spectre&#45;grid/include/spectre/grid.h Pages: 1 -->
<svg width="153pt" height="220pt"
 viewBox="0.00 0.00 153.00 220.00" xmlns="http://www.w3.org/2000/svg" xmlns:xlink="http://www.w3.org/1999/xlink">
<g id="graph0" class="graph" transform="scale(1 1) rotate(0) translate(4 216)">
<title>libs/spectre&#45;grid/include/spectre/grid.h</title>
<!-- Node1 -->
<g id="node1" class="node">
<title>Node1</title>
<g id="a_node1"><a xlink:title=" ">
<polygon fill="#999999" stroke="#666666" points="118.75,-212 0,-212 0,-180 118.75,-180 118.75,-212"/>
<text xml:space="preserve" text-anchor="start" x="8" y="-198.5" font-family="Helvetica,sans-Serif" font-size="10.00">libs/spectre&#45;grid/include</text>
<text xml:space="preserve" text-anchor="middle" x="59.38" y="-186.5" font-family="Helvetica,sans-Serif" font-size="10.00">/spectre/grid.h</text>
</a>
</g>
</g>
<!-- Node2 -->
<g id="node2" class="node">
<title>Node2</title>
<g id="a_node2"><a xlink:href="app_8h.html" target="_top" xlink:title=" ">
<polygon fill="white" stroke="#666666" points="88.75,-76 30,-76 30,-56 88.75,-56 88.75,-76"/>
<text xml:space="preserve" text-anchor="middle" x="59.38" y="-62.5" font-family="Helvetica,sans-Serif" font-size="10.00">app/app.h</text>
</a>
</g>
</g>
<!-- Node1&#45;&gt;Node2 -->
<g id="edge1" class="edge">
<title>Node1&#45;&gt;Node2</title>
<path fill="none" stroke="#63b8ff" d="M47.78,-169.32C44.75,-161.37 41.9,-152.47 40.38,-144 37.85,-130 37.55,-125.94 40.38,-112 43,-99.03 49.48,-85.16 54.14,-76.3"/>
<polygon fill="#63b8ff" stroke="#63b8ff" points="44.46,-170.46 51.5,-178.38 50.94,-167.8 44.46,-170.46"/>
</g>
<!-- Node4 -->
<g id="node4" class="node">
<title>Node4</title>
<g id="a_node4"><a xlink:href="grid__rendering__pipeline_8h.html" target="_top" xlink:title=" ">
<polygon fill="white" stroke="#666666" points="145.12,-144 49.62,-144 49.62,-112 145.12,-112 145.12,-144"/>
<text xml:space="preserve" text-anchor="start" x="57.62" y="-130.5" font-family="Helvetica,sans-Serif" font-size="10.00">app/grid_rendering</text>
<text xml:space="preserve" text-anchor="middle" x="97.38" y="-118.5" font-family="Helvetica,sans-Serif" font-size="10.00">_pipeline.h</text>
</a>
</g>
</g>
<!-- Node1&#45;&gt;Node4 -->
<g id="edge3" class="edge">
<title>Node1&#45;&gt;Node4</title>
<path fill="none" stroke="#63b8ff" d="M73.92,-169.74C78.87,-161.14 84.25,-151.79 88.61,-144.22"/>
<polygon fill="#63b8ff" stroke="#63b8ff" points="70.9,-167.97 68.94,-178.38 76.97,-171.46 70.9,-167.97"/>
</g>
<!-- Node3 -->
<g id="node3" class="node">
<title>Node3</title>
<g id="a_node3"><a xlink:href="render__test_8h.html" target="_top" xlink:title=" ">
<polygon fill="white" stroke="#666666" points="105.25,-20 13.5,-20 13.5,0 105.25,0 105.25,-20"/>
<text xml:space="preserve" text-anchor="middle" x="59.38" y="-6.5" font-family="Helvetica,sans-Serif" font-size="10.00">app/render_test.h</text>
</a>
</g>
</g>
<!-- Node2&#45;&gt;Node3 -->
<g id="edge2" class="edge">
<title>Node2&#45;&gt;Node3</title>
<path fill="none" stroke="#63b8ff" d="M59.38,-44.13C59.38,-35.9 59.38,-26.85 59.38,-20.3"/>
<polygon fill="#63b8ff" stroke="#63b8ff" points="55.88,-44.08 59.38,-54.08 62.88,-44.08 55.88,-44.08"/>
</g>
<!-- Node4&#45;&gt;Node2 -->
<g id="edge4" class="edge">
<title>Node4&#45;&gt;Node2</title>
<path fill="none" stroke="#63b8ff" d="M81.43,-101.82C75.73,-92.83 69.66,-83.24 65.33,-76.41"/>
<polygon fill="#63b8ff" stroke="#63b8ff" points="78.47,-103.69 86.78,-110.27 84.39,-99.95 78.47,-103.69"/>
</g>
</g>
</svg>
