<?xml version="1.0" encoding="UTF-8" standalone="no"?>
<!DOCTYPE svg PUBLIC "-//W3C//DTD SVG 1.1//EN"
 "http://www.w3.org/Graphics/SVG/1.1/DTD/svg11.dtd">
<!-- Generated by graphviz version 14.1.3 (20260303.0454)
 -->
<!-- Title: libs/spectre&#45;types/include/spectre/grid_sink.h Pages: 1 -->
<svg width="113pt" height="108pt"
 viewBox="0.00 0.00 113.00 108.00" xmlns="http://www.w3.org/2000/svg" xmlns:xlink="http://www.w3.org/1999/xlink">
<g id="graph0" class="graph" transform="scale(1 1) rotate(0) translate(4 104)">
<title>libs/spectre&#45;types/include/spectre/grid_sink.h</title>
<!-- Node1 -->
<g id="node1" class="node">
<title>Node1</title>
<g id="a_node1"><a xlink:title=" ">
<polygon fill="#999999" stroke="#666666" points="104.5,-100 0.75,-100 0.75,-56 104.5,-56 104.5,-100"/>
<text xml:space="preserve" text-anchor="start" x="8.75" y="-86.5" font-family="Helvetica,sans-Serif" font-size="10.00">libs/spectre&#45;types</text>
<text xml:space="preserve" text-anchor="start" x="8.75" y="-74.5" font-family="Helvetica,sans-Serif" font-size="10.00">/include/spectre/grid</text>
<text xml:space="preserve" text-anchor="middle" x="52.62" y="-62.5" font-family="Helvetica,sans-Serif" font-size="10.00">_sink.h</text>
</a>
</g>
</g>
<!-- Node2 -->
<g id="node2" class="node">
<title>Node2</title>
<g id="a_node2"><a xlink:title=" ">
<polygon fill="#e0e0e0" stroke="#999999" points="45.25,-20 0,-20 0,0 45.25,0 45.25,-20"/>
<text xml:space="preserve" text-anchor="middle" x="22.62" y="-6.5" font-family="Helvetica,sans-Serif" font-size="10.00">cstdint</text>
</a>
</g>
</g>
<!-- Node1&#45;&gt;Node2 -->
<g id="edge1" class="edge">
<title>Node1&#45;&gt;Node2</title>
<path fill="none" stroke="#63b8ff" d="M42.97,-55.75C39.33,-47.75 35.21,-38.69 31.64,-30.83"/>
<polygon fill="#63b8ff" stroke="#63b8ff" points="34.86,-29.45 27.53,-21.8 28.48,-32.35 34.86,-29.45"/>
</g>
<!-- Node3 -->
<g id="node3" class="node">
<title>Node3</title>
<g id="a_node3"><a xlink:title=" ">
<polygon fill="#e0e0e0" stroke="#999999" points="103.62,-20 63.62,-20 63.62,0 103.62,0 103.62,-20"/>
<text xml:space="preserve" text-anchor="middle" x="83.62" y="-6.5" font-family="Helvetica,sans-Serif" font-size="10.00">string</text>
</a>
</g>
</g>
<!-- Node1&#45;&gt;Node3 -->
<g id="edge2" class="edge">
<title>Node1&#45;&gt;Node3</title>
<path fill="none" stroke="#63b8ff" d="M62.6,-55.75C66.36,-47.75 70.62,-38.69 74.31,-30.83"/>
<polygon fill="#63b8ff" stroke="#63b8ff" points="77.47,-32.33 78.56,-21.79 71.14,-29.35 77.47,-32.33"/>
</g>
</g>
</svg>
