<?xml version="1.0" encoding="UTF-8" standalone="no"?>
<!DOCTYPE svg PUBLIC "-//W3C//DTD SVG 1.1//EN"
 "http://www.w3.org/Graphics/SVG/1.1/DTD/svg11.dtd">
<!-- Generated by graphviz version 14.1.3 (20260303.0454)
 -->
<!-- Title: app/grid_rendering_pipeline.h Pages: 1 -->
<!--zoomable 264 -->
<svg id="main" version="1.1" xmlns="http://www.w3.org/2000/svg" xmlns:xlink="http://www.w3.org/1999/xlink" xml:space="preserve" onload="init(evt)">
<style type="text/css"><![CDATA[
.edge:hover path { stroke: red; }
.edge:hover polygon { stroke: red; fill: red; }
]]></style>
<script type="text/javascript"><![CDATA[
var edges = document.getElementsByTagName('g');
if (edges && edges.length) {
  for (var i=0;i<edges.length;i++) {
    if (edges[i].id.substr(0,4)=='edge') {
      edges[i].setAttribute('class','edge');
    }
  }
}
]]></script>
        <defs>
                <circle id="rim" cx="0" cy="0" r="7"/>
                <circle id="rim2" cx="0" cy="0" r="3.5"/>
                <g id="zoomPlus">
                        <use xlink:href="#rim" fill="#404040">
                                <set attributeName="fill" to="#808080" begin="zoomplus.mouseover" end="zoomplus.mouseout"/>
                        </use>
                        <path d="M-4,0h8M0,-4v8" fill="none" stroke="white" stroke-width="1.5" pointer-events="none"/>
                </g>
                <g id="zoomMin">
                        <use xlink:href="#rim" fill="#404040">
                                <set attributeName="fill" to="#808080" begin="zoomminus.mouseover" end="zoomminus.mouseout"/>
                        </use>
                        <path d="M-4,0h8" fill="none" stroke="white" stroke-width="1.5" pointer-events="none"/>
                </g>
                <g id="dirArrow">
                        <path fill="none" stroke="white" stroke-width="1.5" d="M0,-3.0v7 M-2.5,-0.5L0,-3.0L2.5,-0.5"/>
                </g>
               <g id="resetDef">
                       <use xlink:href="#rim2" fill="#404040">
                               <set attributeName="fill" to="#808080" begin="reset.mouseover" end="reset.mouseout"/>
                       </use>
               </g>
        </defs>

<script type="text/javascript">
var viewWidth = 813;
var viewHeight = 264;
var sectionId = 'dynsection-0';
</script>
<script xlink:href="svgpan.js"/>
<svg id="graph" class="graph">
<g id="viewport">
<title>app/grid_rendering_pipeline.h</title>
<!-- Node1 -->
<g id="node1" class="node">
<title>Node1</title>
<g id="a_node1"><a xlink:title=" ">
<polygon fill="#999999" stroke="#666666" points="444.66,-256 349.16,-256 349.16,-224 444.66,-224 444.66,-256"/>
<text xml:space="preserve" text-anchor="start" x="357.16" y="-242.5" font-family="Helvetica,sans-Serif" font-size="10.00">app/grid_rendering</text>
<text xml:space="preserve" text-anchor="middle" x="396.91" y="-230.5" font-family="Helvetica,sans-Serif" font-size="10.00">_pipeline.h</text>
</a>
</g>
</g>
<!-- Node2 -->
<g id="node2" class="node">
<title>Node2</title>
<g id="a_node2"><a xlink:href="grid_8h.html" target="_top" xlink:title=" ">
<polygon fill="white" stroke="#666666" points="239.54,-188 164.29,-188 164.29,-168 239.54,-168 239.54,-188"/>
<text xml:space="preserve" text-anchor="middle" x="201.91" y="-174.5" font-family="Helvetica,sans-Serif" font-size="10.00">spectre/grid.h</text>
</a>
</g>
</g>
<!-- Node1&#45;&gt;Node2 -->
<g id="edge1" class="edge">
<title>Node1&#45;&gt;Node2</title>
<path fill="none" stroke="#63b8ff" d="M348.71,-224.17C316.37,-214.22 274.2,-201.24 243.36,-191.75"/>
<polygon fill="#63b8ff" stroke="#63b8ff" points="244.59,-188.47 234,-188.87 242.53,-195.16 244.59,-188.47"/>
</g>
<!-- Node11 -->
<g id="node11" class="node">
<title>Node11</title>
<g id="a_node11"><a xlink:title=" ">
<polygon fill="#e0e0e0" stroke="#999999" points="367.41,-132 324.41,-132 324.41,-112 367.41,-112 367.41,-132"/>
<text xml:space="preserve" text-anchor="middle" x="345.91" y="-118.5" font-family="Helvetica,sans-Serif" font-size="10.00">vector</text>
</a>
</g>
</g>
<!-- Node1&#45;&gt;Node11 -->
<g id="edge28" class="edge">
<title>Node1&#45;&gt;Node11</title>
<path fill="none" stroke="#63b8ff" d="M388.52,-223.58C383.2,-213.57 376.33,-200.16 370.91,-188 364.28,-173.12 357.7,-155.89 352.96,-142.92"/>
<polygon fill="#63b8ff" stroke="#63b8ff" points="356.36,-142.03 349.68,-133.81 349.77,-144.4 356.36,-142.03"/>
</g>
<!-- Node12 -->
<g id="node12" class="node">
<title>Node12</title>
<g id="a_node12"><a xlink:href="renderer_8h.html" target="_top" xlink:title=" ">
<polygon fill="white" stroke="#666666" points="682.29,-188 587.54,-188 587.54,-168 682.29,-168 682.29,-188"/>
<text xml:space="preserve" text-anchor="middle" x="634.91" y="-174.5" font-family="Helvetica,sans-Serif" font-size="10.00">spectre/renderer.h</text>
</a>
</g>
</g>
<!-- Node1&#45;&gt;Node12 -->
<g id="edge15" class="edge">
<title>Node1&#45;&gt;Node12</title>
<path fill="none" stroke="#63b8ff" d="M445.08,-226.86C486.17,-216.5 544.99,-201.67 586.23,-191.27"/>
<polygon fill="#63b8ff" stroke="#63b8ff" points="587.06,-194.67 595.9,-188.83 585.35,-187.89 587.06,-194.67"/>
</g>
<!-- Node16 -->
<g id="node16" class="node">
<title>Node16</title>
<g id="a_node16"><a xlink:href="text__service_8h.html" target="_top" xlink:title=" ">
<polygon fill="white" stroke="#666666" points="492.29,-188 379.54,-188 379.54,-168 492.29,-168 492.29,-188"/>
<text xml:space="preserve" text-anchor="middle" x="435.91" y="-174.5" font-family="Helvetica,sans-Serif" font-size="10.00">spectre/text_service.h</text>
</a>
</g>
</g>
<!-- Node1&#45;&gt;Node16 -->
<g id="edge22" class="edge">
<title>Node1&#45;&gt;Node16</title>
<path fill="none" stroke="#63b8ff" d="M406.96,-223.55C412.03,-215.74 418.24,-206.19 423.6,-197.94"/>
<polygon fill="#63b8ff" stroke="#63b8ff" points="426.46,-199.97 428.97,-189.68 420.59,-196.15 426.46,-199.97"/>
</g>
<!-- Node3 -->
<g id="node3" class="node">
<title>Node3</title>
<g id="a_node3"><a xlink:title=" ">
<polygon fill="#e0e0e0" stroke="#999999" points="202.54,-20 157.29,-20 157.29,0 202.54,0 202.54,-20"/>
<text xml:space="preserve" text-anchor="middle" x="179.91" y="-6.5" font-family="Helvetica,sans-Serif" font-size="10.00">cstdint</text>
</a>
</g>
</g>
<!-- Node2&#45;&gt;Node3 -->
<g id="edge2" class="edge">
<title>Node2&#45;&gt;Node3</title>
<path fill="none" stroke="#63b8ff" d="M164.15,-173.62C113.79,-168.24 28.79,-155.81 9.91,-132 -33.43,-77.33 84.65,-36.43 145.81,-19.53"/>
<polygon fill="#63b8ff" stroke="#63b8ff" points="146.65,-22.93 155.4,-16.96 144.84,-16.17 146.65,-22.93"/>
</g>
<!-- Node4 -->
<g id="node4" class="node">
<title>Node4</title>
<g id="a_node4"><a xlink:href="grid__sink_8h.html" target="_top" xlink:title=" ">
<polygon fill="white" stroke="#666666" points="117.16,-132 18.66,-132 18.66,-112 117.16,-112 117.16,-132"/>
<text xml:space="preserve" text-anchor="middle" x="67.91" y="-118.5" font-family="Helvetica,sans-Serif" font-size="10.00">spectre/grid_sink.h</text>
</a>
</g>
</g>
<!-- Node2&#45;&gt;Node4 -->
<g id="edge3" class="edge">
<title>Node2&#45;&gt;Node4</title>
<path fill="none" stroke="#63b8ff" d="M178.57,-167.59C157.37,-159.05 125.85,-146.35 101.86,-136.68"/>
<polygon fill="#63b8ff" stroke="#63b8ff" points="103.42,-133.54 92.84,-133.05 100.81,-140.03 103.42,-133.54"/>
</g>
<!-- Node5 -->
<g id="node5" class="node">
<title>Node5</title>
<g id="a_node5"><a xlink:title=" ">
<polygon fill="#e0e0e0" stroke="#999999" points="156.91,-76 116.91,-76 116.91,-56 156.91,-56 156.91,-76"/>
<text xml:space="preserve" text-anchor="middle" x="136.91" y="-62.5" font-family="Helvetica,sans-Serif" font-size="10.00">string</text>
</a>
</g>
</g>
<!-- Node2&#45;&gt;Node5 -->
<g id="edge13" class="edge">
<title>Node2&#45;&gt;Node5</title>
<path fill="none" stroke="#63b8ff" d="M194.33,-167.68C187.29,-158.81 176.75,-144.92 168.91,-132 159.93,-117.19 151.36,-99.51 145.35,-86.33"/>
<polygon fill="#63b8ff" stroke="#63b8ff" points="148.67,-85.18 141.4,-77.48 142.27,-88.03 148.67,-85.18"/>
</g>
<!-- Node6 -->
<g id="node6" class="node">
<title>Node6</title>
<g id="a_node6"><a xlink:href="highlight_8h.html" target="_top" xlink:title=" ">
<polygon fill="white" stroke="#666666" points="306.66,-132 211.16,-132 211.16,-112 306.66,-112 306.66,-132"/>
<text xml:space="preserve" text-anchor="middle" x="258.91" y="-118.5" font-family="Helvetica,sans-Serif" font-size="10.00">spectre/highlight.h</text>
</a>
</g>
</g>
<!-- Node2&#45;&gt;Node6 -->
<g id="edge6" class="edge">
<title>Node2&#45;&gt;Node6</title>
<path fill="none" stroke="#63b8ff" d="M211.84,-167.59C219.85,-160.01 231.33,-149.13 240.94,-140.02"/>
<polygon fill="#63b8ff" stroke="#63b8ff" points="243.15,-142.76 248,-133.34 238.33,-137.68 243.15,-142.76"/>
</g>
<!-- Node2&#45;&gt;Node11 -->
<g id="edge14" class="edge">
<title>Node2&#45;&gt;Node11</title>
<path fill="none" stroke="#63b8ff" d="M227,-167.59C250.97,-158.6 287.23,-145.01 313.41,-135.19"/>
<polygon fill="#63b8ff" stroke="#63b8ff" points="314.39,-138.56 322.53,-131.77 311.93,-132 314.39,-138.56"/>
</g>
<!-- Node4&#45;&gt;Node3 -->
<g id="edge4" class="edge">
<title>Node4&#45;&gt;Node3</title>
<path fill="none" stroke="#63b8ff" d="M71.95,-111.69C78.16,-98.18 91.11,-72.92 107.91,-56 119.91,-43.91 135.75,-33.57 149.51,-25.86"/>
<polygon fill="#63b8ff" stroke="#63b8ff" points="151.04,-29.01 158.2,-21.2 147.73,-22.84 151.04,-29.01"/>
</g>
<!-- Node4&#45;&gt;Node5 -->
<g id="edge5" class="edge">
<title>Node4&#45;&gt;Node5</title>
<path fill="none" stroke="#63b8ff" d="M79.93,-111.59C89.92,-103.77 104.37,-92.46 116.22,-83.19"/>
<polygon fill="#63b8ff" stroke="#63b8ff" points="118.12,-86.15 123.84,-77.23 113.81,-80.64 118.12,-86.15"/>
</g>
<!-- Node6&#45;&gt;Node3 -->
<g id="edge7" class="edge">
<title>Node6&#45;&gt;Node3</title>
<path fill="none" stroke="#63b8ff" d="M263.19,-111.84C268.73,-98.51 276.49,-73.48 265.91,-56 254.59,-37.29 232.64,-25.98 213.75,-19.38"/>
<polygon fill="#63b8ff" stroke="#63b8ff" points="214.83,-16.06 204.24,-16.39 212.73,-22.73 214.83,-16.06"/>
</g>
<!-- Node7 -->
<g id="node7" class="node">
<title>Node7</title>
<g id="a_node7"><a xlink:href="types_8h.html" target="_top" xlink:title=" ">
<polygon fill="white" stroke="#666666" points="544.66,-76 461.16,-76 461.16,-56 544.66,-56 544.66,-76"/>
<text xml:space="preserve" text-anchor="middle" x="502.91" y="-62.5" font-family="Helvetica,sans-Serif" font-size="10.00">spectre/types.h</text>
</a>
</g>
</g>
<!-- Node6&#45;&gt;Node7 -->
<g id="edge8" class="edge">
<title>Node6&#45;&gt;Node7</title>
<path fill="none" stroke="#63b8ff" d="M301.69,-111.53C342.93,-102.41 405.45,-88.57 449.84,-78.74"/>
<polygon fill="#63b8ff" stroke="#63b8ff" points="450.51,-82.18 459.52,-76.6 449,-75.35 450.51,-82.18"/>
</g>
<!-- Node9 -->
<g id="node9" class="node">
<title>Node9</title>
<g id="a_node9"><a xlink:title=" ">
<polygon fill="#e0e0e0" stroke="#999999" points="257.29,-76 174.54,-76 174.54,-56 257.29,-56 257.29,-76"/>
<text xml:space="preserve" text-anchor="middle" x="215.91" y="-62.5" font-family="Helvetica,sans-Serif" font-size="10.00">unordered_map</text>
</a>
</g>
</g>
<!-- Node6&#45;&gt;Node9 -->
<g id="edge11" class="edge">
<title>Node6&#45;&gt;Node9</title>
<path fill="none" stroke="#63b8ff" d="M251.42,-111.59C245.63,-104.32 237.42,-94.02 230.36,-85.15"/>
<polygon fill="#63b8ff" stroke="#63b8ff" points="233.23,-83.12 224.26,-77.48 227.75,-87.49 233.23,-83.12"/>
</g>
<!-- Node10 -->
<g id="node10" class="node">
<title>Node10</title>
<g id="a_node10"><a xlink:title=" ">
<polygon fill="#e0e0e0" stroke="#999999" points="413.54,-76 374.29,-76 374.29,-56 413.54,-56 413.54,-76"/>
<text xml:space="preserve" text-anchor="middle" x="393.91" y="-62.5" font-family="Helvetica,sans-Serif" font-size="10.00">utility</text>
</a>
</g>
</g>
<!-- Node6&#45;&gt;Node10 -->
<g id="edge12" class="edge">
<title>Node6&#45;&gt;Node10</title>
<path fill="none" stroke="#63b8ff" d="M282.43,-111.59C304.96,-102.58 339.08,-88.93 363.64,-79.11"/>
<polygon fill="#63b8ff" stroke="#63b8ff" points="364.78,-82.42 372.77,-75.46 362.18,-75.92 364.78,-82.42"/>
</g>
<!-- Node7&#45;&gt;Node3 -->
<g id="edge10" class="edge">
<title>Node7&#45;&gt;Node3</title>
<path fill="none" stroke="#63b8ff" d="M460.69,-57.94C395.92,-47.11 273.33,-26.62 213.91,-16.68"/>
<polygon fill="#63b8ff" stroke="#63b8ff" points="214.83,-13.29 204.39,-15.09 213.68,-20.19 214.83,-13.29"/>
</g>
<!-- Node8 -->
<g id="node8" class="node">
<title>Node8</title>
<g id="a_node8"><a xlink:title=" ">
<polygon fill="#e0e0e0" stroke="#999999" points="521.79,-20 484.04,-20 484.04,0 521.79,0 521.79,-20"/>
<text xml:space="preserve" text-anchor="middle" x="502.91" y="-6.5" font-family="Helvetica,sans-Serif" font-size="10.00">array</text>
</a>
</g>
</g>
<!-- Node7&#45;&gt;Node8 -->
<g id="edge9" class="edge">
<title>Node7&#45;&gt;Node8</title>
<path fill="none" stroke="#63b8ff" d="M502.91,-55.59C502.91,-49.01 502.91,-39.96 502.91,-31.73"/>
<polygon fill="#63b8ff" stroke="#63b8ff" points="506.41,-31.81 502.91,-21.81 499.41,-31.81 506.41,-31.81"/>
</g>
<!-- Node12&#45;&gt;Node7 -->
<g id="edge19" class="edge">
<title>Node12&#45;&gt;Node7</title>
<path fill="none" stroke="#63b8ff" d="M641.14,-167.64C649.32,-154.06 661.25,-128.72 648.91,-112 627.78,-83.37 588.69,-72.39 556.27,-68.42"/>
<polygon fill="#63b8ff" stroke="#63b8ff" points="556.93,-64.97 546.63,-67.45 556.23,-71.93 556.93,-64.97"/>
</g>
<!-- Node12&#45;&gt;Node10 -->
<g id="edge20" class="edge">
<title>Node12&#45;&gt;Node10</title>
<path fill="none" stroke="#63b8ff" d="M635.03,-167.94C634.69,-153.81 631.84,-126.64 615.91,-112 608.89,-105.54 484.86,-83 425.32,-72.48"/>
<polygon fill="#63b8ff" stroke="#63b8ff" points="425.93,-69.04 415.48,-70.75 424.72,-75.93 425.93,-69.04"/>
</g>
<!-- Node12&#45;&gt;Node11 -->
<g id="edge21" class="edge">
<title>Node12&#45;&gt;Node11</title>
<path fill="none" stroke="#63b8ff" d="M587.31,-170.47C537.43,-163.25 456.65,-150.46 378.75,-132.46"/>
<polygon fill="#63b8ff" stroke="#63b8ff" points="379.79,-129.11 369.26,-130.24 378.2,-135.93 379.79,-129.11"/>
</g>
<!-- Node13 -->
<g id="node13" class="node">
<title>Node13</title>
<g id="a_node13"><a xlink:title=" ">
<polygon fill="#e0e0e0" stroke="#999999" points="606.54,-132 555.29,-132 555.29,-112 606.54,-112 606.54,-132"/>
<text xml:space="preserve" text-anchor="middle" x="580.91" y="-118.5" font-family="Helvetica,sans-Serif" font-size="10.00">memory</text>
</a>
</g>
</g>
<!-- Node12&#45;&gt;Node13 -->
<g id="edge16" class="edge">
<title>Node12&#45;&gt;Node13</title>
<path fill="none" stroke="#63b8ff" d="M625.51,-167.59C618,-160.08 607.27,-149.35 598.22,-140.3"/>
<polygon fill="#63b8ff" stroke="#63b8ff" points="600.83,-137.96 591.28,-133.37 595.88,-142.91 600.83,-137.96"/>
</g>
<!-- Node14 -->
<g id="node14" class="node">
<title>Node14</title>
<g id="a_node14"><a xlink:title=" ">
<polygon fill="#e0e0e0" stroke="#999999" points="750.79,-132 701.04,-132 701.04,-112 750.79,-112 750.79,-132"/>
<text xml:space="preserve" text-anchor="middle" x="725.91" y="-118.5" font-family="Helvetica,sans-Serif" font-size="10.00">optional</text>
</a>
</g>
</g>
<!-- Node12&#45;&gt;Node14 -->
<g id="edge17" class="edge">
<title>Node12&#45;&gt;Node14</title>
<path fill="none" stroke="#63b8ff" d="M650.76,-167.59C664.38,-159.51 684.27,-147.71 700.17,-138.27"/>
<polygon fill="#63b8ff" stroke="#63b8ff" points="701.82,-141.37 708.64,-133.25 698.25,-135.35 701.82,-141.37"/>
</g>
<!-- Node15 -->
<g id="node15" class="node">
<title>Node15</title>
<g id="a_node15"><a xlink:title=" ">
<polygon fill="#e0e0e0" stroke="#999999" points="805.41,-132 768.41,-132 768.41,-112 805.41,-112 805.41,-132"/>
<text xml:space="preserve" text-anchor="middle" x="786.91" y="-118.5" font-family="Helvetica,sans-Serif" font-size="10.00">span</text>
</a>
</g>
</g>
<!-- Node12&#45;&gt;Node15 -->
<g id="edge18" class="edge">
<title>Node12&#45;&gt;Node15</title>
<path fill="none" stroke="#63b8ff" d="M661.39,-167.59C688.15,-158.09 729.43,-143.42 757.27,-133.53"/>
<polygon fill="#63b8ff" stroke="#63b8ff" points="758.26,-136.89 766.51,-130.25 755.92,-130.3 758.26,-136.89"/>
</g>
<!-- Node16&#45;&gt;Node5 -->
<g id="edge26" class="edge">
<title>Node16&#45;&gt;Node5</title>
<path fill="none" stroke="#63b8ff" d="M379.42,-175.38C330.02,-171.87 257.65,-161.56 201.91,-132 180.63,-120.71 161.85,-100.14 150.02,-85.15"/>
<polygon fill="#63b8ff" stroke="#63b8ff" points="153.03,-83.33 144.2,-77.47 147.45,-87.56 153.03,-83.33"/>
</g>
<!-- Node16&#45;&gt;Node7 -->
<g id="edge25" class="edge">
<title>Node16&#45;&gt;Node7</title>
<path fill="none" stroke="#63b8ff" d="M463.59,-167.53C479.63,-160.45 498.48,-149.02 507.91,-132 515.47,-118.36 513.44,-100.57 509.96,-87.05"/>
<polygon fill="#63b8ff" stroke="#63b8ff" points="513.31,-86.05 507.03,-77.52 506.62,-88.11 513.31,-86.05"/>
</g>
<!-- Node16&#45;&gt;Node11 -->
<g id="edge27" class="edge">
<title>Node16&#45;&gt;Node11</title>
<path fill="none" stroke="#63b8ff" d="M420.24,-167.59C406.77,-159.51 387.09,-147.71 371.37,-138.27"/>
<polygon fill="#63b8ff" stroke="#63b8ff" points="373.38,-135.4 363.01,-133.26 369.78,-141.4 373.38,-135.4"/>
</g>
<!-- Node16&#45;&gt;Node13 -->
<g id="edge23" class="edge">
<title>Node16&#45;&gt;Node13</title>
<path fill="none" stroke="#63b8ff" d="M461.17,-167.59C484.31,-158.97 518.84,-146.12 544.88,-136.42"/>
<polygon fill="#63b8ff" stroke="#63b8ff" points="545.89,-139.78 554.04,-133.01 543.45,-133.22 545.89,-139.78"/>
</g>
<!-- Node17 -->
<g id="node17" class="node">
<title>Node17</title>
<g id="a_node17"><a xlink:href="font__metrics_8h.html" target="_top" xlink:title=" ">
<polygon fill="white" stroke="#666666" points="498.66,-132 385.16,-132 385.16,-112 498.66,-112 498.66,-132"/>
<text xml:space="preserve" text-anchor="middle" x="441.91" y="-118.5" font-family="Helvetica,sans-Serif" font-size="10.00">spectre/font_metrics.h</text>
</a>
</g>
</g>
<!-- Node16&#45;&gt;Node17 -->
<g id="edge24" class="edge">
<title>Node16&#45;&gt;Node17</title>
<path fill="none" stroke="#63b8ff" d="M436.96,-167.59C437.69,-161.01 438.69,-151.96 439.61,-143.73"/>
<polygon fill="#63b8ff" stroke="#63b8ff" points="443.09,-144.13 440.71,-133.8 436.13,-143.35 443.09,-144.13"/>
</g>
</g>
</svg>
        <g id="navigator" transform="translate(0 0)" fill="#404254">
                <rect fill="#f2f5e9" fill-opacity="0.5" stroke="#606060" stroke-width=".5" x="0" y="0" width="60" height="60"/>
                <use id="zoomplus" xlink:href="#zoomPlus" x="17" y="9" onmousedown="handleZoom(evt,'in')"/>
                <use id="zoomminus" xlink:href="#zoomMin" x="42" y="9" onmousedown="handleZoom(evt,'out')"/>
                <use id="reset" xlink:href="#resetDef" x="30" y="36" onmousedown="handleReset()"/>
                <g id="arrowUp" xlink:href="#dirArrow" transform="translate(30 24)" onmousedown="handlePan(0,-1)">
                  <use xlink:href="#rim" fill="#404040">
                        <set attributeName="fill" to="#808080" begin="arrowUp.mouseover" end="arrowUp.mouseout"/>
                  </use>
                  <path fill="none" stroke="white" stroke-width="1.5" d="M0,-3.0v7 M-2.5,-0.5L0,-3.0L2.5,-0.5"/>
                </g>
                <g id="arrowRight" xlink:href="#dirArrow" transform="rotate(90) translate(36 -43)" onmousedown="handlePan(1,0)">
                  <use xlink:href="#rim" fill="#404040">
                        <set attributeName="fill" to="#808080" begin="arrowRight.mouseover" end="arrowRight.mouseout"/>
                  </use>
                  <path fill="none" stroke="white" stroke-width="1.5" d="M0,-3.0v7 M-2.5,-0.5L0,-3.0L2.5,-0.5"/>
                </g>
                <g id="arrowDown" xlink:href="#dirArrow" transform="rotate(180) translate(-30 -48)" onmousedown="handlePan(0,1)">
                  <use xlink:href="#rim" fill="#404040">
                        <set attributeName="fill" to="#808080" begin="arrowDown.mouseover" end="arrowDown.mouseout"/>
                  </use>
                  <path fill="none" stroke="white" stroke-width="1.5" d="M0,-3.0v7 M-2.5,-0.5L0,-3.0L2.5,-0.5"/>
                </g>
                <g id="arrowLeft" xlink:href="#dirArrow" transform="rotate(270) translate(-36 17)" onmousedown="handlePan(-1,0)">
                  <use xlink:href="#rim" fill="#404040">
                        <set attributeName="fill" to="#808080" begin="arrowLeft.mouseover" end="arrowLeft.mouseout"/>
                  </use>
                  <path fill="none" stroke="white" stroke-width="1.5" d="M0,-3.0v7 M-2.5,-0.5L0,-3.0L2.5,-0.5"/>
                </g>
        </g>
        <svg viewBox="0 0 15 15" width="100%" height="30px" preserveAspectRatio="xMaxYMin meet">
         <g id="arrow_out" transform="scale(0.3 0.3)">
          <a xlink:href="grid__rendering__pipeline_8h__incl_org.svg" target="_base">
           <rect id="button" ry="5" rx="5" y="6" x="6" height="38" width="38"
                fill="#f2f5e9" fill-opacity="0.5" stroke="#606060" stroke-width="1.0"/>
           <path id="arrow"
             d="M 11.500037,31.436501 C 11.940474,20.09759 22.043105,11.32322 32.158766,21.979434 L 37.068811,17.246167 C 37.068811,17.246167 37.088388,32 37.088388,32 L 22.160133,31.978069 C 22.160133,31.978069 26.997745,27.140456 26.997745,27.140456 C 18.528582,18.264221 13.291696,25.230495 11.500037,31.436501 z"
             style="fill:#404040;"/>
          </a>
         </g>
        </svg>
</svg>
