<?xml version="1.0" encoding="UTF-8" standalone="no"?>
<!DOCTYPE svg PUBLIC "-//W3C//DTD SVG 1.1//EN"
 "http://www.w3.org/Graphics/SVG/1.1/DTD/svg11.dtd">
<!-- Generated by graphviz version 14.1.3 (20260303.0454)
 -->
<!-- Title: libs/spectre&#45;grid/include/spectre/grid.h Pages: 1 -->
<svg width="413pt" height="208pt"
 viewBox="0.00 0.00 413.00 208.00" xmlns="http://www.w3.org/2000/svg" xmlns:xlink="http://www.w3.org/1999/xlink">
<g id="graph0" class="graph" transform="scale(1 1) rotate(0) translate(4 204)">
<title>libs/spectre&#45;grid/include/spectre/grid.h</title>
<!-- Node1 -->
<g id="node1" class="node">
<title>Node1</title>
<g id="a_node1"><a xlink:title=" ">
<polygon fill="#999999" stroke="#666666" points="201.74,-200 82.99,-200 82.99,-168 201.74,-168 201.74,-200"/>
<text xml:space="preserve" text-anchor="start" x="90.99" y="-186.5" font-family="Helvetica,sans-Serif" font-size="10.00">libs/spectre&#45;grid/include</text>
<text xml:space="preserve" text-anchor="middle" x="142.37" y="-174.5" font-family="Helvetica,sans-Serif" font-size="10.00">/spectre/grid.h</text>
</a>
</g>
</g>
<!-- Node2 -->
<g id="node2" class="node">
<title>Node2</title>
<g id="a_node2"><a xlink:title=" ">
<polygon fill="#e0e0e0" stroke="#999999" points="109.99,-20 64.74,-20 64.74,0 109.99,0 109.99,-20"/>
<text xml:space="preserve" text-anchor="middle" x="87.37" y="-6.5" font-family="Helvetica,sans-Serif" font-size="10.00">cstdint</text>
</a>
</g>
</g>
<!-- Node1&#45;&gt;Node2 -->
<g id="edge1" class="edge">
<title>Node1&#45;&gt;Node2</title>
<path fill="none" stroke="#63b8ff" d="M82.67,-175.97C54.94,-169.38 24.39,-156.63 7.37,-132 -18.46,-94.64 31.8,-49.87 63.77,-26.67"/>
<polygon fill="#63b8ff" stroke="#63b8ff" points="65.58,-29.67 71.76,-21.06 61.56,-23.94 65.58,-29.67"/>
</g>
<!-- Node3 -->
<g id="node3" class="node">
<title>Node3</title>
<g id="a_node3"><a xlink:href="grid__sink_8h.html" target="_top" xlink:title=" ">
<polygon fill="white" stroke="#666666" points="114.62,-132 16.12,-132 16.12,-112 114.62,-112 114.62,-132"/>
<text xml:space="preserve" text-anchor="middle" x="65.37" y="-118.5" font-family="Helvetica,sans-Serif" font-size="10.00">spectre/grid_sink.h</text>
</a>
</g>
</g>
<!-- Node1&#45;&gt;Node3 -->
<g id="edge2" class="edge">
<title>Node1&#45;&gt;Node3</title>
<path fill="none" stroke="#63b8ff" d="M122.54,-167.55C111.4,-158.87 97.51,-148.04 86.21,-139.24"/>
<polygon fill="#63b8ff" stroke="#63b8ff" points="88.67,-136.72 78.63,-133.34 84.37,-142.25 88.67,-136.72"/>
</g>
<!-- Node4 -->
<g id="node4" class="node">
<title>Node4</title>
<g id="a_node4"><a xlink:title=" ">
<polygon fill="#e0e0e0" stroke="#999999" points="107.37,-76 67.37,-76 67.37,-56 107.37,-56 107.37,-76"/>
<text xml:space="preserve" text-anchor="middle" x="87.37" y="-62.5" font-family="Helvetica,sans-Serif" font-size="10.00">string</text>
</a>
</g>
</g>
<!-- Node1&#45;&gt;Node4 -->
<g id="edge12" class="edge">
<title>Node1&#45;&gt;Node4</title>
<path fill="none" stroke="#63b8ff" d="M140.14,-167.66C137.57,-152.82 132.46,-129.99 123.37,-112 118.37,-102.12 110.96,-92.37 104.17,-84.48"/>
<polygon fill="#63b8ff" stroke="#63b8ff" points="106.97,-82.37 97.66,-77.31 101.79,-87.07 106.97,-82.37"/>
</g>
<!-- Node5 -->
<g id="node5" class="node">
<title>Node5</title>
<g id="a_node5"><a xlink:href="highlight_8h.html" target="_top" xlink:title=" ">
<polygon fill="white" stroke="#666666" points="266.12,-132 170.62,-132 170.62,-112 266.12,-112 266.12,-132"/>
<text xml:space="preserve" text-anchor="middle" x="218.37" y="-118.5" font-family="Helvetica,sans-Serif" font-size="10.00">spectre/highlight.h</text>
</a>
</g>
</g>
<!-- Node1&#45;&gt;Node5 -->
<g id="edge5" class="edge">
<title>Node1&#45;&gt;Node5</title>
<path fill="none" stroke="#63b8ff" d="M161.94,-167.55C172.82,-158.95 186.37,-148.26 197.46,-139.5"/>
<polygon fill="#63b8ff" stroke="#63b8ff" points="199.58,-142.29 205.26,-133.35 195.24,-136.8 199.58,-142.29"/>
</g>
<!-- Node10 -->
<g id="node10" class="node">
<title>Node10</title>
<g id="a_node10"><a xlink:title=" ">
<polygon fill="#e0e0e0" stroke="#999999" points="326.87,-132 283.87,-132 283.87,-112 326.87,-112 326.87,-132"/>
<text xml:space="preserve" text-anchor="middle" x="305.37" y="-118.5" font-family="Helvetica,sans-Serif" font-size="10.00">vector</text>
</a>
</g>
</g>
<!-- Node1&#45;&gt;Node10 -->
<g id="edge13" class="edge">
<title>Node1&#45;&gt;Node10</title>
<path fill="none" stroke="#63b8ff" d="M184.34,-167.55C211.95,-157.39 247.54,-144.28 272.97,-134.92"/>
<polygon fill="#63b8ff" stroke="#63b8ff" points="273.94,-138.3 282.11,-131.56 271.52,-131.73 273.94,-138.3"/>
</g>
<!-- Node3&#45;&gt;Node2 -->
<g id="edge3" class="edge">
<title>Node3&#45;&gt;Node2</title>
<path fill="none" stroke="#63b8ff" d="M62.09,-111.54C58.15,-98.7 52.73,-75.16 58.37,-56 61.18,-46.45 66.71,-37.02 72.2,-29.27"/>
<polygon fill="#63b8ff" stroke="#63b8ff" points="74.92,-31.47 78.23,-21.4 69.37,-27.21 74.92,-31.47"/>
</g>
<!-- Node3&#45;&gt;Node4 -->
<g id="edge4" class="edge">
<title>Node3&#45;&gt;Node4</title>
<path fill="none" stroke="#63b8ff" d="M69.2,-111.59C71.97,-104.78 75.83,-95.32 79.27,-86.86"/>
<polygon fill="#63b8ff" stroke="#63b8ff" points="82.48,-88.28 83.01,-77.7 75.99,-85.64 82.48,-88.28"/>
</g>
<!-- Node5&#45;&gt;Node2 -->
<g id="edge6" class="edge">
<title>Node5&#45;&gt;Node2</title>
<path fill="none" stroke="#63b8ff" d="M203.66,-111.61C190.37,-102.91 170.48,-89.34 154.37,-76 136.14,-60.91 116.91,-41.89 103.75,-28.33"/>
<polygon fill="#63b8ff" stroke="#63b8ff" points="106.54,-26.19 97.1,-21.39 101.49,-31.03 106.54,-26.19"/>
</g>
<!-- Node6 -->
<g id="node6" class="node">
<title>Node6</title>
<g id="a_node6"><a xlink:href="types_8h.html" target="_top" xlink:title=" ">
<polygon fill="white" stroke="#666666" points="247.12,-76 163.62,-76 163.62,-56 247.12,-56 247.12,-76"/>
<text xml:space="preserve" text-anchor="middle" x="205.37" y="-62.5" font-family="Helvetica,sans-Serif" font-size="10.00">spectre/types.h</text>
</a>
</g>
</g>
<!-- Node5&#45;&gt;Node6 -->
<g id="edge7" class="edge">
<title>Node5&#45;&gt;Node6</title>
<path fill="none" stroke="#63b8ff" d="M216.1,-111.59C214.5,-104.93 212.29,-95.75 210.29,-87.44"/>
<polygon fill="#63b8ff" stroke="#63b8ff" points="213.7,-86.67 207.96,-77.77 206.9,-88.31 213.7,-86.67"/>
</g>
<!-- Node8 -->
<g id="node8" class="node">
<title>Node8</title>
<g id="a_node8"><a xlink:title=" ">
<polygon fill="#e0e0e0" stroke="#999999" points="347.74,-76 264.99,-76 264.99,-56 347.74,-56 347.74,-76"/>
<text xml:space="preserve" text-anchor="middle" x="306.37" y="-62.5" font-family="Helvetica,sans-Serif" font-size="10.00">unordered_map</text>
</a>
</g>
</g>
<!-- Node5&#45;&gt;Node8 -->
<g id="edge10" class="edge">
<title>Node5&#45;&gt;Node8</title>
<path fill="none" stroke="#63b8ff" d="M233.69,-111.59C246.86,-103.51 266.1,-91.71 281.48,-82.27"/>
<polygon fill="#63b8ff" stroke="#63b8ff" points="282.94,-85.48 289.63,-77.27 279.27,-79.52 282.94,-85.48"/>
</g>
<!-- Node9 -->
<g id="node9" class="node">
<title>Node9</title>
<g id="a_node9"><a xlink:title=" ">
<polygon fill="#e0e0e0" stroke="#999999" points="404.99,-76 365.74,-76 365.74,-56 404.99,-56 404.99,-76"/>
<text xml:space="preserve" text-anchor="middle" x="385.37" y="-62.5" font-family="Helvetica,sans-Serif" font-size="10.00">utility</text>
</a>
</g>
</g>
<!-- Node5&#45;&gt;Node9 -->
<g id="edge11" class="edge">
<title>Node5&#45;&gt;Node9</title>
<path fill="none" stroke="#63b8ff" d="M247.46,-111.59C277.45,-101.89 324.04,-86.83 354.63,-76.94"/>
<polygon fill="#63b8ff" stroke="#63b8ff" points="355.62,-80.3 364.06,-73.89 353.47,-73.64 355.62,-80.3"/>
</g>
<!-- Node6&#45;&gt;Node2 -->
<g id="edge9" class="edge">
<title>Node6&#45;&gt;Node2</title>
<path fill="none" stroke="#63b8ff" d="M184.81,-55.59C166.48,-47.21 139.38,-34.8 118.41,-25.21"/>
<polygon fill="#63b8ff" stroke="#63b8ff" points="120.01,-22.09 109.46,-21.11 117.09,-28.45 120.01,-22.09"/>
</g>
<!-- Node7 -->
<g id="node7" class="node">
<title>Node7</title>
<g id="a_node7"><a xlink:title=" ">
<polygon fill="#e0e0e0" stroke="#999999" points="224.24,-20 186.49,-20 186.49,0 224.24,0 224.24,-20"/>
<text xml:space="preserve" text-anchor="middle" x="205.37" y="-6.5" font-family="Helvetica,sans-Serif" font-size="10.00">array</text>
</a>
</g>
</g>
<!-- Node6&#45;&gt;Node7 -->
<g id="edge8" class="edge">
<title>Node6&#45;&gt;Node7</title>
<path fill="none" stroke="#63b8ff" d="M205.37,-55.59C205.37,-49.01 205.37,-39.96 205.37,-31.73"/>
<polygon fill="#63b8ff" stroke="#63b8ff" points="208.87,-31.81 205.37,-21.81 201.87,-31.81 208.87,-31.81"/>
</g>
</g>
</svg>
