<?xml version="1.0" encoding="UTF-8" standalone="no"?>
<!DOCTYPE svg PUBLIC "-//W3C//DTD SVG 1.1//EN"
 "http://www.w3.org/Graphics/SVG/1.1/DTD/svg11.dtd">
<!-- Generated by graphviz version 14.1.3 (20260303.0454)
 -->
<!-- Title: libs/spectre&#45;types/include/spectre/highlight.h Pages: 1 -->
<svg width="295pt" height="152pt"
 viewBox="0.00 0.00 295.00 152.00" xmlns="http://www.w3.org/2000/svg" xmlns:xlink="http://www.w3.org/1999/xlink">
<g id="graph0" class="graph" transform="scale(1 1) rotate(0) translate(4 148)">
<title>libs/spectre&#45;types/include/spectre/highlight.h</title>
<!-- Node1 -->
<g id="node1" class="node">
<title>Node1</title>
<g id="a_node1"><a xlink:title=" ">
<polygon fill="#999999" stroke="#666666" points="203.75,-144 71.5,-144 71.5,-112 203.75,-112 203.75,-144"/>
<text xml:space="preserve" text-anchor="start" x="79.5" y="-130.5" font-family="Helvetica,sans-Serif" font-size="10.00">libs/spectre&#45;types</text>
<text xml:space="preserve" text-anchor="middle" x="137.62" y="-118.5" font-family="Helvetica,sans-Serif" font-size="10.00">/include/spectre/highlight.h</text>
</a>
</g>
</g>
<!-- Node2 -->
<g id="node2" class="node">
<title>Node2</title>
<g id="a_node2"><a xlink:title=" ">
<polygon fill="#e0e0e0" stroke="#999999" points="45.25,-20 0,-20 0,0 45.25,0 45.25,-20"/>
<text xml:space="preserve" text-anchor="middle" x="22.62" y="-6.5" font-family="Helvetica,sans-Serif" font-size="10.00">cstdint</text>
</a>
</g>
</g>
<!-- Node1&#45;&gt;Node2 -->
<g id="edge1" class="edge">
<title>Node1&#45;&gt;Node2</title>
<path fill="none" stroke="#63b8ff" d="M86.3,-111.51C68.12,-103.62 49.11,-92.17 36.62,-76 26.9,-63.41 23.59,-45.54 22.6,-31.72"/>
<polygon fill="#63b8ff" stroke="#63b8ff" points="26.11,-31.83 22.29,-21.95 19.11,-32.06 26.11,-31.83"/>
</g>
<!-- Node3 -->
<g id="node3" class="node">
<title>Node3</title>
<g id="a_node3"><a xlink:href="types_8h.html" target="_top" xlink:title=" ">
<polygon fill="white" stroke="#666666" points="129.38,-76 45.88,-76 45.88,-56 129.38,-56 129.38,-76"/>
<text xml:space="preserve" text-anchor="middle" x="87.62" y="-62.5" font-family="Helvetica,sans-Serif" font-size="10.00">spectre/types.h</text>
</a>
</g>
</g>
<!-- Node1&#45;&gt;Node3 -->
<g id="edge2" class="edge">
<title>Node1&#45;&gt;Node3</title>
<path fill="none" stroke="#63b8ff" d="M124.75,-111.55C118.02,-103.48 109.75,-93.55 102.72,-85.12"/>
<polygon fill="#63b8ff" stroke="#63b8ff" points="105.52,-83.01 96.43,-77.57 100.15,-87.49 105.52,-83.01"/>
</g>
<!-- Node5 -->
<g id="node5" class="node">
<title>Node5</title>
<g id="a_node5"><a xlink:title=" ">
<polygon fill="#e0e0e0" stroke="#999999" points="230,-76 147.25,-76 147.25,-56 230,-56 230,-76"/>
<text xml:space="preserve" text-anchor="middle" x="188.62" y="-62.5" font-family="Helvetica,sans-Serif" font-size="10.00">unordered_map</text>
</a>
</g>
</g>
<!-- Node1&#45;&gt;Node5 -->
<g id="edge5" class="edge">
<title>Node1&#45;&gt;Node5</title>
<path fill="none" stroke="#63b8ff" d="M150.76,-111.55C157.62,-103.48 166.06,-93.55 173.23,-85.12"/>
<polygon fill="#63b8ff" stroke="#63b8ff" points="175.84,-87.45 179.65,-77.56 170.5,-82.91 175.84,-87.45"/>
</g>
<!-- Node6 -->
<g id="node6" class="node">
<title>Node6</title>
<g id="a_node6"><a xlink:title=" ">
<polygon fill="#e0e0e0" stroke="#999999" points="287.25,-76 248,-76 248,-56 287.25,-56 287.25,-76"/>
<text xml:space="preserve" text-anchor="middle" x="267.62" y="-62.5" font-family="Helvetica,sans-Serif" font-size="10.00">utility</text>
</a>
</g>
</g>
<!-- Node1&#45;&gt;Node6 -->
<g id="edge6" class="edge">
<title>Node1&#45;&gt;Node6</title>
<path fill="none" stroke="#63b8ff" d="M171.1,-111.55C191.54,-102.12 217.47,-90.15 237.3,-80.99"/>
<polygon fill="#63b8ff" stroke="#63b8ff" points="238.63,-84.24 246.25,-76.87 235.7,-77.88 238.63,-84.24"/>
</g>
<!-- Node3&#45;&gt;Node2 -->
<g id="edge4" class="edge">
<title>Node3&#45;&gt;Node2</title>
<path fill="none" stroke="#63b8ff" d="M76.3,-55.59C66.98,-47.85 53.55,-36.69 42.45,-27.47"/>
<polygon fill="#63b8ff" stroke="#63b8ff" points="44.91,-24.96 34.98,-21.27 40.44,-30.35 44.91,-24.96"/>
</g>
<!-- Node4 -->
<g id="node4" class="node">
<title>Node4</title>
<g id="a_node4"><a xlink:title=" ">
<polygon fill="#e0e0e0" stroke="#999999" points="106.5,-20 68.75,-20 68.75,0 106.5,0 106.5,-20"/>
<text xml:space="preserve" text-anchor="middle" x="87.62" y="-6.5" font-family="Helvetica,sans-Serif" font-size="10.00">array</text>
</a>
</g>
</g>
<!-- Node3&#45;&gt;Node4 -->
<g id="edge3" class="edge">
<title>Node3&#45;&gt;Node4</title>
<path fill="none" stroke="#63b8ff" d="M87.62,-55.59C87.62,-49.01 87.62,-39.96 87.62,-31.73"/>
<polygon fill="#63b8ff" stroke="#63b8ff" points="91.13,-31.81 87.63,-21.81 84.13,-31.81 91.13,-31.81"/>
</g>
</g>
</svg>
