<?xml version="1.0" encoding="UTF-8" standalone="no"?>
<!DOCTYPE svg PUBLIC "-//W3C//DTD SVG 1.1//EN"
 "http://www.w3.org/Graphics/SVG/1.1/DTD/svg11.dtd">
<!-- Generated by graphviz version 14.1.3 (20260303.0454)
 -->
<!-- Title: libs/spectre&#45;types/include/spectre/highlight.h Pages: 1 -->
<svg width="422pt" height="288pt"
 viewBox="0.00 0.00 422.00 288.00" xmlns="http://www.w3.org/2000/svg" xmlns:xlink="http://www.w3.org/1999/xlink">
<g id="graph0" class="graph" transform="scale(1 1) rotate(0) translate(4 284)">
<title>libs/spectre&#45;types/include/spectre/highlight.h</title>
<!-- Node1 -->
<g id="node1" class="node">
<title>Node1</title>
<g id="a_node1"><a xlink:title=" ">
<polygon fill="#999999" stroke="#666666" points="197.38,-280 65.13,-280 65.13,-248 197.38,-248 197.38,-280"/>
<text xml:space="preserve" text-anchor="start" x="73.13" y="-266.5" font-family="Helvetica,sans-Serif" font-size="10.00">libs/spectre&#45;types</text>
<text xml:space="preserve" text-anchor="middle" x="131.25" y="-254.5" font-family="Helvetica,sans-Serif" font-size="10.00">/include/spectre/highlight.h</text>
</a>
</g>
</g>
<!-- Node2 -->
<g id="node2" class="node">
<title>Node2</title>
<g id="a_node2"><a xlink:href="grid_8h.html" target="_top" xlink:title=" ">
<polygon fill="white" stroke="#666666" points="121.63,-212 2.88,-212 2.88,-180 121.63,-180 121.63,-212"/>
<text xml:space="preserve" text-anchor="start" x="10.88" y="-198.5" font-family="Helvetica,sans-Serif" font-size="10.00">libs/spectre&#45;grid/include</text>
<text xml:space="preserve" text-anchor="middle" x="62.25" y="-186.5" font-family="Helvetica,sans-Serif" font-size="10.00">/spectre/grid.h</text>
</a>
</g>
</g>
<!-- Node1&#45;&gt;Node2 -->
<g id="edge1" class="edge">
<title>Node1&#45;&gt;Node2</title>
<path fill="none" stroke="#63b8ff" d="M107.2,-239.99C97.58,-230.79 86.78,-220.46 78.17,-212.22"/>
<polygon fill="#63b8ff" stroke="#63b8ff" points="104.51,-242.26 114.16,-246.65 109.35,-237.2 104.51,-242.26"/>
</g>
<!-- Node6 -->
<g id="node6" class="node">
<title>Node6</title>
<g id="a_node6"><a xlink:href="nvim_8h.html" target="_top" xlink:title=" ">
<polygon fill="white" stroke="#666666" points="276.25,-212 152.25,-212 152.25,-180 276.25,-180 276.25,-212"/>
<text xml:space="preserve" text-anchor="start" x="160.25" y="-198.5" font-family="Helvetica,sans-Serif" font-size="10.00">libs/spectre&#45;nvim/include</text>
<text xml:space="preserve" text-anchor="middle" x="214.25" y="-186.5" font-family="Helvetica,sans-Serif" font-size="10.00">/spectre/nvim.h</text>
</a>
</g>
</g>
<!-- Node1&#45;&gt;Node6 -->
<g id="edge6" class="edge">
<title>Node1&#45;&gt;Node6</title>
<path fill="none" stroke="#63b8ff" d="M159.43,-240.6C171.07,-231.34 184.28,-220.83 194.82,-212.45"/>
<polygon fill="#63b8ff" stroke="#63b8ff" points="157.34,-237.79 151.69,-246.75 161.69,-243.27 157.34,-237.79"/>
</g>
<!-- Node3 -->
<g id="node3" class="node">
<title>Node3</title>
<g id="a_node3"><a xlink:href="app_8h.html" target="_top" xlink:title=" ">
<polygon fill="white" stroke="#666666" points="129.63,-76 70.88,-76 70.88,-56 129.63,-56 129.63,-76"/>
<text xml:space="preserve" text-anchor="middle" x="100.25" y="-62.5" font-family="Helvetica,sans-Serif" font-size="10.00">app/app.h</text>
</a>
</g>
</g>
<!-- Node2&#45;&gt;Node3 -->
<g id="edge2" class="edge">
<title>Node2&#45;&gt;Node3</title>
<path fill="none" stroke="#63b8ff" d="M28.1,-172.68C18.95,-164.81 10.22,-155.12 5.25,-144 -0.55,-131.02 -2.35,-124.02 5.25,-112 19.5,-89.48 48.4,-78.01 70.6,-72.31"/>
<polygon fill="#63b8ff" stroke="#63b8ff" points="25.69,-175.24 35.7,-178.71 30.04,-169.75 25.69,-175.24"/>
</g>
<!-- Node5 -->
<g id="node5" class="node">
<title>Node5</title>
<g id="a_node5"><a xlink:href="grid__rendering__pipeline_8h.html" target="_top" xlink:title=" ">
<polygon fill="white" stroke="#666666" points="110,-144 14.5,-144 14.5,-112 110,-112 110,-144"/>
<text xml:space="preserve" text-anchor="start" x="22.5" y="-130.5" font-family="Helvetica,sans-Serif" font-size="10.00">app/grid_rendering</text>
<text xml:space="preserve" text-anchor="middle" x="62.25" y="-118.5" font-family="Helvetica,sans-Serif" font-size="10.00">_pipeline.h</text>
</a>
</g>
</g>
<!-- Node2&#45;&gt;Node5 -->
<g id="edge4" class="edge">
<title>Node2&#45;&gt;Node5</title>
<path fill="none" stroke="#63b8ff" d="M62.25,-168.31C62.25,-160.12 62.25,-151.38 62.25,-144.22"/>
<polygon fill="#63b8ff" stroke="#63b8ff" points="58.75,-168.18 62.25,-178.18 65.75,-168.18 58.75,-168.18"/>
</g>
<!-- Node4 -->
<g id="node4" class="node">
<title>Node4</title>
<g id="a_node4"><a xlink:href="render__test_8h.html" target="_top" xlink:title=" ">
<polygon fill="white" stroke="#666666" points="146.13,-20 54.38,-20 54.38,0 146.13,0 146.13,-20"/>
<text xml:space="preserve" text-anchor="middle" x="100.25" y="-6.5" font-family="Helvetica,sans-Serif" font-size="10.00">app/render_test.h</text>
</a>
</g>
</g>
<!-- Node3&#45;&gt;Node4 -->
<g id="edge3" class="edge">
<title>Node3&#45;&gt;Node4</title>
<path fill="none" stroke="#63b8ff" d="M100.25,-44.13C100.25,-35.9 100.25,-26.85 100.25,-20.3"/>
<polygon fill="#63b8ff" stroke="#63b8ff" points="96.75,-44.08 100.25,-54.08 103.75,-44.08 96.75,-44.08"/>
</g>
<!-- Node5&#45;&gt;Node3 -->
<g id="edge5" class="edge">
<title>Node5&#45;&gt;Node3</title>
<path fill="none" stroke="#63b8ff" d="M78.2,-101.82C83.89,-92.83 89.97,-83.24 94.3,-76.41"/>
<polygon fill="#63b8ff" stroke="#63b8ff" points="75.24,-99.95 72.85,-110.27 81.16,-103.69 75.24,-99.95"/>
</g>
<!-- Node6&#45;&gt;Node3 -->
<g id="edge7" class="edge">
<title>Node6&#45;&gt;Node3</title>
<path fill="none" stroke="#63b8ff" d="M186.6,-172.27C176.92,-163.8 166.23,-153.84 157.25,-144 136.64,-121.38 116.21,-91.5 106.35,-76.48"/>
<polygon fill="#63b8ff" stroke="#63b8ff" points="184.12,-174.76 193.99,-178.61 188.67,-169.44 184.12,-174.76"/>
</g>
<!-- Node7 -->
<g id="node7" class="node">
<title>Node7</title>
<g id="a_node7"><a xlink:href="ui__request__worker_8h.html" target="_top" xlink:title=" ">
<polygon fill="white" stroke="#666666" points="288.5,-138 166,-138 166,-118 288.5,-118 288.5,-138"/>
<text xml:space="preserve" text-anchor="middle" x="227.25" y="-124.5" font-family="Helvetica,sans-Serif" font-size="10.00">app/ui_request_worker.h</text>
</a>
</g>
</g>
<!-- Node6&#45;&gt;Node7 -->
<g id="edge8" class="edge">
<title>Node6&#45;&gt;Node7</title>
<path fill="none" stroke="#63b8ff" d="M219.44,-168.66C221.56,-157.92 223.86,-146.21 225.42,-138.32"/>
<polygon fill="#63b8ff" stroke="#63b8ff" points="216.06,-167.72 217.56,-178.21 222.93,-169.07 216.06,-167.72"/>
</g>
<!-- Node8 -->
<g id="node8" class="node">
<title>Node8</title>
<g id="a_node8"><a xlink:href="mpack__codec_8h.html" target="_top" xlink:title=" ">
<polygon fill="white" stroke="#666666" points="413.63,-144 306.88,-144 306.88,-112 413.63,-112 413.63,-144"/>
<text xml:space="preserve" text-anchor="start" x="314.88" y="-130.5" font-family="Helvetica,sans-Serif" font-size="10.00">libs/spectre&#45;nvim/src</text>
<text xml:space="preserve" text-anchor="middle" x="360.25" y="-118.5" font-family="Helvetica,sans-Serif" font-size="10.00">/mpack_codec.h</text>
</a>
</g>
</g>
<!-- Node6&#45;&gt;Node8 -->
<g id="edge10" class="edge">
<title>Node6&#45;&gt;Node8</title>
<path fill="none" stroke="#63b8ff" d="M258.73,-174.89C280.35,-165.12 305.91,-153.56 325.99,-144.49"/>
<polygon fill="#63b8ff" stroke="#63b8ff" points="257.53,-171.59 249.86,-178.9 260.42,-177.97 257.53,-171.59"/>
</g>
<!-- Node7&#45;&gt;Node3 -->
<g id="edge9" class="edge">
<title>Node7&#45;&gt;Node3</title>
<path fill="none" stroke="#63b8ff" d="M197.14,-112.77C173.26,-101.49 140.59,-86.06 119.96,-76.31"/>
<polygon fill="#63b8ff" stroke="#63b8ff" points="195.5,-115.87 206.04,-116.98 198.5,-109.54 195.5,-115.87"/>
</g>
</g>
</svg>
