<?xml version="1.0" encoding="UTF-8" standalone="no"?>
<!DOCTYPE svg PUBLIC "-//W3C//DTD SVG 1.1//EN"
 "http://www.w3.org/Graphics/SVG/1.1/DTD/svg11.dtd">
<!-- Generated by graphviz version 14.1.3 (20260303.0454)
 -->
<!-- Title: Graphical Class Hierarchy Pages: 1 -->
<svg width="259pt" height="66pt"
 viewBox="0.00 0.00 259.00 66.00" xmlns="http://www.w3.org/2000/svg" xmlns:xlink="http://www.w3.org/1999/xlink">
<g id="graph0" class="graph" transform="scale(1 1) rotate(0) translate(4 62)">
<title>Graphical Class Hierarchy</title>
<!-- Node0 -->
<g id="node1" class="node">
<title>Node0</title>
<g id="a_node1"><a xlink:href="classspectre_1_1_i_renderer.html" target="_top" xlink:title=" ">
<polygon fill="white" stroke="#666666" points="97,-39 0,-39 0,-19 97,-19 97,-39"/>
<text xml:space="preserve" text-anchor="middle" x="48.5" y="-25.5" font-family="Helvetica,sans-Serif" font-size="10.00">spectre::IRenderer</text>
</a>
</g>
</g>
<!-- Node1 -->
<g id="node2" class="node">
<title>Node1</title>
<g id="a_node2"><a xlink:href="classspectre_1_1_metal_renderer.html" target="_top" xlink:title=" ">
<polygon fill="white" stroke="#666666" points="251,-58 133,-58 133,-38 251,-38 251,-58"/>
<text xml:space="preserve" text-anchor="middle" x="192" y="-44.5" font-family="Helvetica,sans-Serif" font-size="10.00">spectre::MetalRenderer</text>
</a>
</g>
</g>
<!-- Node0&#45;&gt;Node1 -->
<g id="edge1" class="edge">
<title>Node0&#45;&gt;Node1</title>
<path fill="none" stroke="#63b8ff" d="M108.57,-36.93C116.6,-38.01 124.84,-39.12 132.85,-40.19"/>
<polygon fill="#63b8ff" stroke="#63b8ff" points="109.28,-33.5 98.91,-35.63 108.35,-40.43 109.28,-33.5"/>
</g>
<!-- Node2 -->
<g id="node3" class="node">
<title>Node2</title>
<g id="a_node3"><a xlink:href="classspectre_1_1_vk_renderer.html" target="_top" xlink:title=" ">
<polygon fill="white" stroke="#666666" points="245,-20 139,-20 139,0 245,0 245,-20"/>
<text xml:space="preserve" text-anchor="middle" x="192" y="-6.5" font-family="Helvetica,sans-Serif" font-size="10.00">spectre::VkRenderer</text>
</a>
</g>
</g>
<!-- Node0&#45;&gt;Node2 -->
<g id="edge2" class="edge">
<title>Node0&#45;&gt;Node2</title>
<path fill="none" stroke="#63b8ff" d="M108.55,-21.07C118.58,-19.72 128.94,-18.33 138.78,-17.01"/>
<polygon fill="#63b8ff" stroke="#63b8ff" points="108.35,-17.57 98.91,-22.37 109.28,-24.5 108.35,-17.57"/>
</g>
</g>
</svg>
