<?xml version="1.0" encoding="UTF-8" standalone="no"?>
<!DOCTYPE svg PUBLIC "-//W3C//DTD SVG 1.1//EN"
 "http://www.w3.org/Graphics/SVG/1.1/DTD/svg11.dtd">
<!-- Generated by graphviz version 14.1.3 (20260303.0454)
 -->
<!-- Title: libs/spectre&#45;types/include/spectre/log.h Pages: 1 -->
<svg width="269pt" height="96pt"
 viewBox="0.00 0.00 269.00 96.00" xmlns="http://www.w3.org/2000/svg" xmlns:xlink="http://www.w3.org/1999/xlink">
<g id="graph0" class="graph" transform="scale(1 1) rotate(0) translate(4 92)">
<title>libs/spectre&#45;types/include/spectre/log.h</title>
<!-- Node1 -->
<g id="node1" class="node">
<title>Node1</title>
<g id="a_node1"><a xlink:title=" ">
<polygon fill="#999999" stroke="#666666" points="185.5,-88 76.5,-88 76.5,-56 185.5,-56 185.5,-88"/>
<text xml:space="preserve" text-anchor="start" x="84.5" y="-74.5" font-family="Helvetica,sans-Serif" font-size="10.00">libs/spectre&#45;types</text>
<text xml:space="preserve" text-anchor="middle" x="131" y="-62.5" font-family="Helvetica,sans-Serif" font-size="10.00">/include/spectre/log.h</text>
</a>
</g>
</g>
<!-- Node2 -->
<g id="node2" class="node">
<title>Node2</title>
<g id="a_node2"><a xlink:title=" ">
<polygon fill="#e0e0e0" stroke="#999999" points="58,-20 0,-20 0,0 58,0 58,-20"/>
<text xml:space="preserve" text-anchor="middle" x="29" y="-6.5" font-family="Helvetica,sans-Serif" font-size="10.00">functional</text>
</a>
</g>
</g>
<!-- Node1&#45;&gt;Node2 -->
<g id="edge1" class="edge">
<title>Node1&#45;&gt;Node2</title>
<path fill="none" stroke="#63b8ff" d="M104.73,-55.55C89.39,-46.52 70.1,-35.17 54.83,-26.19"/>
<polygon fill="#63b8ff" stroke="#63b8ff" points="56.69,-23.23 46.3,-21.18 53.14,-29.26 56.69,-23.23"/>
</g>
<!-- Node3 -->
<g id="node3" class="node">
<title>Node3</title>
<g id="a_node3"><a xlink:title=" ">
<polygon fill="#e0e0e0" stroke="#999999" points="116,-20 76,-20 76,0 116,0 116,-20"/>
<text xml:space="preserve" text-anchor="middle" x="96" y="-6.5" font-family="Helvetica,sans-Serif" font-size="10.00">string</text>
</a>
</g>
</g>
<!-- Node1&#45;&gt;Node3 -->
<g id="edge2" class="edge">
<title>Node1&#45;&gt;Node3</title>
<path fill="none" stroke="#63b8ff" d="M121.99,-55.55C117.48,-47.82 111.98,-38.4 107.21,-30.21"/>
<polygon fill="#63b8ff" stroke="#63b8ff" points="110.31,-28.59 102.25,-21.72 104.27,-32.12 110.31,-28.59"/>
</g>
<!-- Node4 -->
<g id="node4" class="node">
<title>Node4</title>
<g id="a_node4"><a xlink:title=" ">
<polygon fill="#e0e0e0" stroke="#999999" points="199.75,-20 134.25,-20 134.25,0 199.75,0 199.75,-20"/>
<text xml:space="preserve" text-anchor="middle" x="167" y="-6.5" font-family="Helvetica,sans-Serif" font-size="10.00">string_view</text>
</a>
</g>
</g>
<!-- Node1&#45;&gt;Node4 -->
<g id="edge3" class="edge">
<title>Node1&#45;&gt;Node4</title>
<path fill="none" stroke="#63b8ff" d="M140.27,-55.55C144.91,-47.82 150.56,-38.4 155.47,-30.21"/>
<polygon fill="#63b8ff" stroke="#63b8ff" points="158.43,-32.08 160.58,-21.71 152.43,-28.48 158.43,-32.08"/>
</g>
<!-- Node5 -->
<g id="node5" class="node">
<title>Node5</title>
<g id="a_node5"><a xlink:title=" ">
<polygon fill="#e0e0e0" stroke="#999999" points="260.5,-20 217.5,-20 217.5,0 260.5,0 260.5,-20"/>
<text xml:space="preserve" text-anchor="middle" x="239" y="-6.5" font-family="Helvetica,sans-Serif" font-size="10.00">vector</text>
</a>
</g>
</g>
<!-- Node1&#45;&gt;Node5 -->
<g id="edge4" class="edge">
<title>Node1&#45;&gt;Node5</title>
<path fill="none" stroke="#63b8ff" d="M158.81,-55.55C175.22,-46.43 195.88,-34.96 212.12,-25.93"/>
<polygon fill="#63b8ff" stroke="#63b8ff" points="213.7,-29.06 220.74,-21.14 210.3,-22.94 213.7,-29.06"/>
</g>
</g>
</svg>
