<?xml version="1.0" encoding="UTF-8" standalone="no"?>
<!DOCTYPE svg PUBLIC "-//W3C//DTD SVG 1.1//EN"
 "http://www.w3.org/Graphics/SVG/1.1/DTD/svg11.dtd">
<!-- Generated by graphviz version 14.1.3 (20260303.0454)
 -->
<!-- Title: libs/spectre&#45;renderer/src/metal/metal_renderer.h Pages: 1 -->
<svg width="401pt" height="264pt"
 viewBox="0.00 0.00 401.00 264.00" xmlns="http://www.w3.org/2000/svg" xmlns:xlink="http://www.w3.org/1999/xlink">
<g id="graph0" class="graph" transform="scale(1 1) rotate(0) translate(4 260)">
<title>libs/spectre&#45;renderer/src/metal/metal_renderer.h</title>
<!-- Node1 -->
<g id="node1" class="node">
<title>Node1</title>
<g id="a_node1"><a xlink:title=" ">
<polygon fill="#999999" stroke="#666666" points="213.5,-256 78.25,-256 78.25,-224 213.5,-224 213.5,-256"/>
<text xml:space="preserve" text-anchor="start" x="86.25" y="-242.5" font-family="Helvetica,sans-Serif" font-size="10.00">libs/spectre&#45;renderer</text>
<text xml:space="preserve" text-anchor="middle" x="145.88" y="-230.5" font-family="Helvetica,sans-Serif" font-size="10.00">/src/metal/metal_renderer.h</text>
</a>
</g>
</g>
<!-- Node2 -->
<g id="node2" class="node">
<title>Node2</title>
<g id="a_node2"><a xlink:href="renderer__state_8h.html" target="_top" xlink:title=" ">
<polygon fill="white" stroke="#666666" points="260.12,-188 173.62,-188 173.62,-168 260.12,-168 260.12,-188"/>
<text xml:space="preserve" text-anchor="middle" x="216.88" y="-174.5" font-family="Helvetica,sans-Serif" font-size="10.00">renderer_state.h</text>
</a>
</g>
</g>
<!-- Node1&#45;&gt;Node2 -->
<g id="edge1" class="edge">
<title>Node1&#45;&gt;Node2</title>
<path fill="none" stroke="#63b8ff" d="M164.16,-223.55C174.23,-215.04 186.73,-204.48 197.03,-195.77"/>
<polygon fill="#63b8ff" stroke="#63b8ff" points="199.21,-198.51 204.59,-189.38 194.69,-193.17 199.21,-198.51"/>
</g>
<!-- Node3 -->
<g id="node3" class="node">
<title>Node3</title>
<g id="a_node3"><a xlink:href="renderer_8h.html" target="_top" xlink:title=" ">
<polygon fill="white" stroke="#666666" points="238.25,-132 143.5,-132 143.5,-112 238.25,-112 238.25,-132"/>
<text xml:space="preserve" text-anchor="middle" x="190.88" y="-118.5" font-family="Helvetica,sans-Serif" font-size="10.00">spectre/renderer.h</text>
</a>
</g>
</g>
<!-- Node1&#45;&gt;Node3 -->
<g id="edge13" class="edge">
<title>Node1&#45;&gt;Node3</title>
<path fill="none" stroke="#63b8ff" d="M148.76,-223.66C151.8,-209.02 157.21,-186.51 164.88,-168 168.58,-159.06 173.74,-149.71 178.49,-141.87"/>
<polygon fill="#63b8ff" stroke="#63b8ff" points="181.36,-143.89 183.73,-133.56 175.44,-140.15 181.36,-143.89"/>
</g>
<!-- Node5 -->
<g id="node5" class="node">
<title>Node5</title>
<g id="a_node5"><a xlink:title=" ">
<polygon fill="#e0e0e0" stroke="#999999" points="49.75,-76 0,-76 0,-56 49.75,-56 49.75,-76"/>
<text xml:space="preserve" text-anchor="middle" x="24.88" y="-62.5" font-family="Helvetica,sans-Serif" font-size="10.00">optional</text>
</a>
</g>
</g>
<!-- Node1&#45;&gt;Node5 -->
<g id="edge12" class="edge">
<title>Node1&#45;&gt;Node5</title>
<path fill="none" stroke="#63b8ff" d="M135.14,-223.74C112.91,-192.14 61.94,-119.69 37.89,-85.5"/>
<polygon fill="#63b8ff" stroke="#63b8ff" points="40.84,-83.61 32.22,-77.45 35.12,-87.64 40.84,-83.61"/>
</g>
<!-- Node2&#45;&gt;Node3 -->
<g id="edge2" class="edge">
<title>Node2&#45;&gt;Node3</title>
<path fill="none" stroke="#63b8ff" d="M212.35,-167.59C209.03,-160.7 204.41,-151.1 200.3,-142.57"/>
<polygon fill="#63b8ff" stroke="#63b8ff" points="203.5,-141.15 196.01,-133.66 197.19,-144.19 203.5,-141.15"/>
</g>
<!-- Node11 -->
<g id="node11" class="node">
<title>Node11</title>
<g id="a_node11"><a xlink:title=" ">
<polygon fill="#e0e0e0" stroke="#999999" points="393.38,-76 350.38,-76 350.38,-56 393.38,-56 393.38,-76"/>
<text xml:space="preserve" text-anchor="middle" x="371.88" y="-62.5" font-family="Helvetica,sans-Serif" font-size="10.00">vector</text>
</a>
</g>
</g>
<!-- Node2&#45;&gt;Node11 -->
<g id="edge11" class="edge">
<title>Node2&#45;&gt;Node11</title>
<path fill="none" stroke="#63b8ff" d="M230.09,-167.62C256.63,-148.79 316.66,-106.18 349.46,-82.91"/>
<polygon fill="#63b8ff" stroke="#63b8ff" points="351.33,-85.87 357.46,-77.23 347.28,-80.16 351.33,-85.87"/>
</g>
<!-- Node4 -->
<g id="node4" class="node">
<title>Node4</title>
<g id="a_node4"><a xlink:title=" ">
<polygon fill="#e0e0e0" stroke="#999999" points="119.5,-76 68.25,-76 68.25,-56 119.5,-56 119.5,-76"/>
<text xml:space="preserve" text-anchor="middle" x="93.88" y="-62.5" font-family="Helvetica,sans-Serif" font-size="10.00">memory</text>
</a>
</g>
</g>
<!-- Node3&#45;&gt;Node4 -->
<g id="edge3" class="edge">
<title>Node3&#45;&gt;Node4</title>
<path fill="none" stroke="#63b8ff" d="M173.98,-111.59C159.33,-103.44 137.85,-91.48 120.83,-82"/>
<polygon fill="#63b8ff" stroke="#63b8ff" points="122.67,-79.02 112.23,-77.22 119.26,-85.14 122.67,-79.02"/>
</g>
<!-- Node3&#45;&gt;Node5 -->
<g id="edge4" class="edge">
<title>Node3&#45;&gt;Node5</title>
<path fill="none" stroke="#63b8ff" d="M161.96,-111.59C133.95,-102.48 91.4,-88.64 61.14,-78.8"/>
<polygon fill="#63b8ff" stroke="#63b8ff" points="62.23,-75.47 51.64,-75.71 60.07,-82.13 62.23,-75.47"/>
</g>
<!-- Node6 -->
<g id="node6" class="node">
<title>Node6</title>
<g id="a_node6"><a xlink:title=" ">
<polygon fill="#e0e0e0" stroke="#999999" points="174.38,-76 137.38,-76 137.38,-56 174.38,-56 174.38,-76"/>
<text xml:space="preserve" text-anchor="middle" x="155.88" y="-62.5" font-family="Helvetica,sans-Serif" font-size="10.00">span</text>
</a>
</g>
</g>
<!-- Node3&#45;&gt;Node6 -->
<g id="edge5" class="edge">
<title>Node3&#45;&gt;Node6</title>
<path fill="none" stroke="#63b8ff" d="M184.78,-111.59C180.16,-104.47 173.67,-94.45 168.01,-85.72"/>
<polygon fill="#63b8ff" stroke="#63b8ff" points="171.1,-84.06 162.72,-77.57 165.23,-87.86 171.1,-84.06"/>
</g>
<!-- Node7 -->
<g id="node7" class="node">
<title>Node7</title>
<g id="a_node7"><a xlink:href="types_8h.html" target="_top" xlink:title=" ">
<polygon fill="white" stroke="#666666" points="275.62,-76 192.12,-76 192.12,-56 275.62,-56 275.62,-76"/>
<text xml:space="preserve" text-anchor="middle" x="233.88" y="-62.5" font-family="Helvetica,sans-Serif" font-size="10.00">spectre/types.h</text>
</a>
</g>
</g>
<!-- Node3&#45;&gt;Node7 -->
<g id="edge6" class="edge">
<title>Node3&#45;&gt;Node7</title>
<path fill="none" stroke="#63b8ff" d="M198.37,-111.59C204.16,-104.32 212.36,-94.02 219.42,-85.15"/>
<polygon fill="#63b8ff" stroke="#63b8ff" points="222.04,-87.49 225.53,-77.48 216.56,-83.12 222.04,-87.49"/>
</g>
<!-- Node10 -->
<g id="node10" class="node">
<title>Node10</title>
<g id="a_node10"><a xlink:title=" ">
<polygon fill="#e0e0e0" stroke="#999999" points="332.5,-76 293.25,-76 293.25,-56 332.5,-56 332.5,-76"/>
<text xml:space="preserve" text-anchor="middle" x="312.88" y="-62.5" font-family="Helvetica,sans-Serif" font-size="10.00">utility</text>
</a>
</g>
</g>
<!-- Node3&#45;&gt;Node10 -->
<g id="edge9" class="edge">
<title>Node3&#45;&gt;Node10</title>
<path fill="none" stroke="#63b8ff" d="M212.13,-111.59C231.63,-102.96 260.74,-90.07 282.66,-80.37"/>
<polygon fill="#63b8ff" stroke="#63b8ff" points="283.97,-83.62 291.69,-76.37 281.13,-77.22 283.97,-83.62"/>
</g>
<!-- Node3&#45;&gt;Node11 -->
<g id="edge10" class="edge">
<title>Node3&#45;&gt;Node11</title>
<path fill="none" stroke="#63b8ff" d="M222.7,-111.54C250.99,-103.12 293.77,-90.37 339,-76.86"/>
<polygon fill="#63b8ff" stroke="#63b8ff" points="339.89,-80.24 348.47,-74.02 337.89,-73.54 339.89,-80.24"/>
</g>
<!-- Node8 -->
<g id="node8" class="node">
<title>Node8</title>
<g id="a_node8"><a xlink:title=" ">
<polygon fill="#e0e0e0" stroke="#999999" points="222.75,-20 185,-20 185,0 222.75,0 222.75,-20"/>
<text xml:space="preserve" text-anchor="middle" x="203.88" y="-6.5" font-family="Helvetica,sans-Serif" font-size="10.00">array</text>
</a>
</g>
</g>
<!-- Node7&#45;&gt;Node8 -->
<g id="edge7" class="edge">
<title>Node7&#45;&gt;Node8</title>
<path fill="none" stroke="#63b8ff" d="M228.65,-55.59C224.78,-48.63 219.37,-38.89 214.59,-30.29"/>
<polygon fill="#63b8ff" stroke="#63b8ff" points="217.69,-28.66 209.78,-21.62 211.57,-32.06 217.69,-28.66"/>
</g>
<!-- Node9 -->
<g id="node9" class="node">
<title>Node9</title>
<g id="a_node9"><a xlink:title=" ">
<polygon fill="#e0e0e0" stroke="#999999" points="286.5,-20 241.25,-20 241.25,0 286.5,0 286.5,-20"/>
<text xml:space="preserve" text-anchor="middle" x="263.88" y="-6.5" font-family="Helvetica,sans-Serif" font-size="10.00">cstdint</text>
</a>
</g>
</g>
<!-- Node7&#45;&gt;Node9 -->
<g id="edge8" class="edge">
<title>Node7&#45;&gt;Node9</title>
<path fill="none" stroke="#63b8ff" d="M239.1,-55.59C242.97,-48.63 248.38,-38.89 253.16,-30.29"/>
<polygon fill="#63b8ff" stroke="#63b8ff" points="256.18,-32.06 257.97,-21.62 250.06,-28.66 256.18,-32.06"/>
</g>
</g>
</svg>
