<?xml version="1.0" encoding="UTF-8" standalone="no"?>
<!DOCTYPE svg PUBLIC "-//W3C//DTD SVG 1.1//EN"
 "http://www.w3.org/Graphics/SVG/1.1/DTD/svg11.dtd">
<!-- Generated by graphviz version 14.1.3 (20260303.0454)
 -->
<!-- Title: libs/spectre&#45;nvim/src/mpack_codec.h Pages: 1 -->
<svg width="1325pt" height="264pt"
 viewBox="0.00 0.00 1325.00 264.00" xmlns="http://www.w3.org/2000/svg" xmlns:xlink="http://www.w3.org/1999/xlink">
<g id="graph0" class="graph" transform="scale(1 1) rotate(0) translate(4 260)">
<title>libs/spectre&#45;nvim/src/mpack_codec.h</title>
<!-- Node1 -->
<g id="node1" class="node">
<title>Node1</title>
<g id="a_node1"><a xlink:title=" ">
<polygon fill="#999999" stroke="#666666" points="1018.88,-256 912.12,-256 912.12,-224 1018.88,-224 1018.88,-256"/>
<text xml:space="preserve" text-anchor="start" x="920.12" y="-242.5" font-family="Helvetica,sans-Serif" font-size="10.00">libs/spectre&#45;nvim/src</text>
<text xml:space="preserve" text-anchor="middle" x="965.5" y="-230.5" font-family="Helvetica,sans-Serif" font-size="10.00">/mpack_codec.h</text>
</a>
</g>
</g>
<!-- Node2 -->
<g id="node2" class="node">
<title>Node2</title>
<g id="a_node2"><a xlink:title=" ">
<polygon fill="#e0e0e0" stroke="#999999" points="596.62,-188 548.38,-188 548.38,-168 596.62,-168 596.62,-188"/>
<text xml:space="preserve" text-anchor="middle" x="572.5" y="-174.5" font-family="Helvetica,sans-Serif" font-size="10.00">cstddef</text>
</a>
</g>
</g>
<!-- Node1&#45;&gt;Node2 -->
<g id="edge1" class="edge">
<title>Node1&#45;&gt;Node2</title>
<path fill="none" stroke="#63b8ff" d="M911.72,-232.8C841.97,-224.41 716.63,-208.15 610.5,-188 609.68,-187.84 608.84,-187.68 608,-187.51"/>
<polygon fill="#63b8ff" stroke="#63b8ff" points="608.95,-184.14 598.44,-185.45 607.48,-190.98 608.95,-184.14"/>
</g>
<!-- Node3 -->
<g id="node3" class="node">
<title>Node3</title>
<g id="a_node3"><a xlink:title=" ">
<polygon fill="#e0e0e0" stroke="#999999" points="1031.12,-20 985.88,-20 985.88,0 1031.12,0 1031.12,-20"/>
<text xml:space="preserve" text-anchor="middle" x="1008.5" y="-6.5" font-family="Helvetica,sans-Serif" font-size="10.00">cstdint</text>
</a>
</g>
</g>
<!-- Node1&#45;&gt;Node3 -->
<g id="edge2" class="edge">
<title>Node1&#45;&gt;Node3</title>
<path fill="none" stroke="#63b8ff" d="M1019.34,-225.39C1084.88,-205.4 1191.39,-160.91 1228.5,-76 1232.06,-67.85 1234.12,-62.89 1228.5,-56 1205.48,-27.79 1098.92,-16.79 1042.99,-12.9"/>
<polygon fill="#63b8ff" stroke="#63b8ff" points="1043.27,-9.41 1033.06,-12.26 1042.81,-16.4 1043.27,-9.41"/>
</g>
<!-- Node4 -->
<g id="node4" class="node">
<title>Node4</title>
<g id="a_node4"><a xlink:title=" ">
<polygon fill="#e0e0e0" stroke="#999999" points="1317,-188 1280,-188 1280,-168 1317,-168 1317,-188"/>
<text xml:space="preserve" text-anchor="middle" x="1298.5" y="-174.5" font-family="Helvetica,sans-Serif" font-size="10.00">span</text>
</a>
</g>
</g>
<!-- Node1&#45;&gt;Node4 -->
<g id="edge3" class="edge">
<title>Node1&#45;&gt;Node4</title>
<path fill="none" stroke="#63b8ff" d="M1019.19,-231.49C1079.45,-222.69 1179.99,-206.88 1265.5,-188 1266.51,-187.78 1267.55,-187.54 1268.58,-187.3"/>
<polygon fill="#63b8ff" stroke="#63b8ff" points="1269.44,-190.69 1278.26,-184.83 1267.71,-183.91 1269.44,-190.69"/>
</g>
<!-- Node5 -->
<g id="node5" class="node">
<title>Node5</title>
<g id="a_node5"><a xlink:title=" ">
<polygon fill="#e0e0e0" stroke="#999999" points="1113.5,-76 1073.5,-76 1073.5,-56 1113.5,-56 1113.5,-76"/>
<text xml:space="preserve" text-anchor="middle" x="1093.5" y="-62.5" font-family="Helvetica,sans-Serif" font-size="10.00">string</text>
</a>
</g>
</g>
<!-- Node1&#45;&gt;Node5 -->
<g id="edge4" class="edge">
<title>Node1&#45;&gt;Node5</title>
<path fill="none" stroke="#63b8ff" d="M1013.79,-223.5C1054.39,-207.62 1109.79,-178.56 1135.5,-132 1144.86,-115.05 1130.38,-96.59 1115.92,-83.69"/>
<polygon fill="#63b8ff" stroke="#63b8ff" points="1118.25,-81.07 1108.31,-77.4 1113.79,-86.47 1118.25,-81.07"/>
</g>
<!-- Node6 -->
<g id="node6" class="node">
<title>Node6</title>
<g id="a_node6"><a xlink:title=" ">
<polygon fill="#e0e0e0" stroke="#999999" points="43,-132 0,-132 0,-112 43,-112 43,-132"/>
<text xml:space="preserve" text-anchor="middle" x="21.5" y="-118.5" font-family="Helvetica,sans-Serif" font-size="10.00">vector</text>
</a>
</g>
</g>
<!-- Node1&#45;&gt;Node6 -->
<g id="edge5" class="edge">
<title>Node1&#45;&gt;Node6</title>
<path fill="none" stroke="#63b8ff" d="M911.81,-235.87C846.84,-230.87 734.81,-218.34 643.5,-188 625.39,-181.98 623.86,-173.21 605.5,-168 380.5,-104.16 312.97,-157.66 80.5,-132 72.1,-131.07 63.06,-129.82 54.65,-128.55"/>
<polygon fill="#63b8ff" stroke="#63b8ff" points="55.22,-125.1 44.79,-127 54.13,-132.01 55.22,-125.1"/>
</g>
<!-- Node7 -->
<g id="node7" class="node">
<title>Node7</title>
<g id="a_node7"><a xlink:href="nvim_8h.html" target="_top" xlink:title=" ">
<polygon fill="white" stroke="#666666" points="732.75,-188 652.25,-188 652.25,-168 732.75,-168 732.75,-188"/>
<text xml:space="preserve" text-anchor="middle" x="692.5" y="-174.5" font-family="Helvetica,sans-Serif" font-size="10.00">spectre/nvim.h</text>
</a>
</g>
</g>
<!-- Node1&#45;&gt;Node7 -->
<g id="edge6" class="edge">
<title>Node1&#45;&gt;Node7</title>
<path fill="none" stroke="#63b8ff" d="M911.89,-227.22C863.3,-216.54 792.16,-200.9 744.18,-190.36"/>
<polygon fill="#63b8ff" stroke="#63b8ff" points="745.1,-186.98 734.59,-188.25 743.6,-193.81 745.1,-186.98"/>
</g>
<!-- Node7&#45;&gt;Node3 -->
<g id="edge9" class="edge">
<title>Node7&#45;&gt;Node3</title>
<path fill="none" stroke="#63b8ff" d="M733.09,-175.22C800.11,-171.48 929.98,-160.67 964.5,-132 994.79,-106.85 1004.23,-59.04 1007.17,-31.65"/>
<polygon fill="#63b8ff" stroke="#63b8ff" points="1010.64,-32.11 1008,-21.85 1003.67,-31.52 1010.64,-32.11"/>
</g>
<!-- Node7&#45;&gt;Node5 -->
<g id="edge27" class="edge">
<title>Node7&#45;&gt;Node5</title>
<path fill="none" stroke="#63b8ff" d="M733.08,-175.74C834.54,-172.17 1092.97,-160.37 1118.5,-132 1130.46,-118.71 1120.26,-99.09 1109.51,-84.88"/>
<polygon fill="#63b8ff" stroke="#63b8ff" points="1112.27,-82.72 1103.21,-77.22 1106.86,-87.17 1112.27,-82.72"/>
</g>
<!-- Node7&#45;&gt;Node6 -->
<g id="edge31" class="edge">
<title>Node7&#45;&gt;Node6</title>
<path fill="none" stroke="#63b8ff" d="M651.87,-169.77C647.37,-169.1 642.84,-168.5 638.5,-168 381.45,-138.69 313.18,-171.54 57.5,-132 56.5,-131.84 55.48,-131.67 54.46,-131.49"/>
<polygon fill="#63b8ff" stroke="#63b8ff" points="55.44,-128.12 44.94,-129.48 54,-134.97 55.44,-128.12"/>
</g>
<!-- Node8 -->
<g id="node8" class="node">
<title>Node8</title>
<g id="a_node8"><a xlink:title=" ">
<polygon fill="#e0e0e0" stroke="#999999" points="258.12,-132 212.88,-132 212.88,-112 258.12,-112 258.12,-132"/>
<text xml:space="preserve" text-anchor="middle" x="235.5" y="-118.5" font-family="Helvetica,sans-Serif" font-size="10.00">atomic</text>
</a>
</g>
</g>
<!-- Node7&#45;&gt;Node8 -->
<g id="edge7" class="edge">
<title>Node7&#45;&gt;Node8</title>
<path fill="none" stroke="#63b8ff" d="M651.85,-169.92C647.35,-169.23 642.83,-168.57 638.5,-168 477.78,-146.83 432.27,-161.87 269.36,-132.01"/>
<polygon fill="#63b8ff" stroke="#63b8ff" points="270.42,-128.65 259.94,-130.26 269.13,-135.53 270.42,-128.65"/>
</g>
<!-- Node9 -->
<g id="node9" class="node">
<title>Node9</title>
<g id="a_node9"><a xlink:title=" ">
<polygon fill="#e0e0e0" stroke="#999999" points="370.5,-132 276.5,-132 276.5,-112 370.5,-112 370.5,-132"/>
<text xml:space="preserve" text-anchor="middle" x="323.5" y="-118.5" font-family="Helvetica,sans-Serif" font-size="10.00">condition_variable</text>
</a>
</g>
</g>
<!-- Node7&#45;&gt;Node9 -->
<g id="edge8" class="edge">
<title>Node7&#45;&gt;Node9</title>
<path fill="none" stroke="#63b8ff" d="M651.83,-170.1C647.33,-169.37 642.82,-168.66 638.5,-168 527.21,-150.99 496.34,-149.31 382.16,-132.37"/>
<polygon fill="#63b8ff" stroke="#63b8ff" points="382.75,-128.92 372.34,-130.9 381.72,-135.84 382.75,-128.92"/>
</g>
<!-- Node10 -->
<g id="node10" class="node">
<title>Node10</title>
<g id="a_node10"><a xlink:title=" ">
<polygon fill="#e0e0e0" stroke="#999999" points="446.5,-132 388.5,-132 388.5,-112 446.5,-112 446.5,-132"/>
<text xml:space="preserve" text-anchor="middle" x="417.5" y="-118.5" font-family="Helvetica,sans-Serif" font-size="10.00">functional</text>
</a>
</g>
</g>
<!-- Node7&#45;&gt;Node10 -->
<g id="edge10" class="edge">
<title>Node7&#45;&gt;Node10</title>
<path fill="none" stroke="#63b8ff" d="M652.13,-169.91C607.09,-161.86 531.79,-148.05 457.83,-132.43"/>
<polygon fill="#63b8ff" stroke="#63b8ff" points="458.92,-129.08 448.41,-130.42 457.46,-135.93 458.92,-129.08"/>
</g>
<!-- Node11 -->
<g id="node11" class="node">
<title>Node11</title>
<g id="a_node11"><a xlink:title=" ">
<polygon fill="#e0e0e0" stroke="#999999" points="518.25,-132 464.75,-132 464.75,-112 518.25,-112 518.25,-132"/>
<text xml:space="preserve" text-anchor="middle" x="491.5" y="-118.5" font-family="Helvetica,sans-Serif" font-size="10.00">mpack.h</text>
</a>
</g>
</g>
<!-- Node7&#45;&gt;Node11 -->
<g id="edge11" class="edge">
<title>Node7&#45;&gt;Node11</title>
<path fill="none" stroke="#63b8ff" d="M657.49,-167.59C621.71,-157.98 566.32,-143.1 529.5,-133.21"/>
<polygon fill="#63b8ff" stroke="#63b8ff" points="530.73,-129.92 520.17,-130.7 528.92,-136.68 530.73,-129.92"/>
</g>
<!-- Node12 -->
<g id="node12" class="node">
<title>Node12</title>
<g id="a_node12"><a xlink:title=" ">
<polygon fill="#e0e0e0" stroke="#999999" points="579,-132 536,-132 536,-112 579,-112 579,-132"/>
<text xml:space="preserve" text-anchor="middle" x="557.5" y="-118.5" font-family="Helvetica,sans-Serif" font-size="10.00">mutex</text>
</a>
</g>
</g>
<!-- Node7&#45;&gt;Node12 -->
<g id="edge12" class="edge">
<title>Node7&#45;&gt;Node12</title>
<path fill="none" stroke="#63b8ff" d="M668.98,-167.59C647.1,-158.84 614.3,-145.72 589.94,-135.97"/>
<polygon fill="#63b8ff" stroke="#63b8ff" points="591.4,-132.79 580.81,-132.32 588.8,-139.29 591.4,-132.79"/>
</g>
<!-- Node13 -->
<g id="node13" class="node">
<title>Node13</title>
<g id="a_node13"><a xlink:title=" ">
<polygon fill="#e0e0e0" stroke="#999999" points="639.62,-132 597.38,-132 597.38,-112 639.62,-112 639.62,-132"/>
<text xml:space="preserve" text-anchor="middle" x="618.5" y="-118.5" font-family="Helvetica,sans-Serif" font-size="10.00">queue</text>
</a>
</g>
</g>
<!-- Node7&#45;&gt;Node13 -->
<g id="edge13" class="edge">
<title>Node7&#45;&gt;Node13</title>
<path fill="none" stroke="#63b8ff" d="M679.61,-167.59C668.79,-159.7 653.09,-148.24 640.31,-138.92"/>
<polygon fill="#63b8ff" stroke="#63b8ff" points="642.61,-136.26 632.46,-133.19 638.48,-141.91 642.61,-136.26"/>
</g>
<!-- Node14 -->
<g id="node14" class="node">
<title>Node14</title>
<g id="a_node14"><a xlink:href="events_8h.html" target="_top" xlink:title=" ">
<polygon fill="white" stroke="#666666" points="1219.88,-76 1131.12,-76 1131.12,-56 1219.88,-56 1219.88,-76"/>
<text xml:space="preserve" text-anchor="middle" x="1175.5" y="-62.5" font-family="Helvetica,sans-Serif" font-size="10.00">spectre/events.h</text>
</a>
</g>
</g>
<!-- Node7&#45;&gt;Node14 -->
<g id="edge14" class="edge">
<title>Node7&#45;&gt;Node14</title>
<path fill="none" stroke="#63b8ff" d="M733.05,-177.37C829.42,-177.56 1069.03,-173.69 1135.5,-132 1151.96,-121.68 1162.69,-101.86 1168.85,-86.8"/>
<polygon fill="#63b8ff" stroke="#63b8ff" points="1171.96,-88.47 1172.16,-77.88 1165.4,-86.03 1171.96,-88.47"/>
</g>
<!-- Node15 -->
<g id="node15" class="node">
<title>Node15</title>
<g id="a_node15"><a xlink:href="grid__sink_8h.html" target="_top" xlink:title=" ">
<polygon fill="white" stroke="#666666" points="1109.75,-132 1011.25,-132 1011.25,-112 1109.75,-112 1109.75,-132"/>
<text xml:space="preserve" text-anchor="middle" x="1060.5" y="-118.5" font-family="Helvetica,sans-Serif" font-size="10.00">spectre/grid_sink.h</text>
</a>
</g>
</g>
<!-- Node7&#45;&gt;Node15 -->
<g id="edge16" class="edge">
<title>Node7&#45;&gt;Node15</title>
<path fill="none" stroke="#63b8ff" d="M732.94,-171.07C797.49,-161.59 924.24,-143 999.74,-131.92"/>
<polygon fill="#63b8ff" stroke="#63b8ff" points="1000.06,-135.41 1009.45,-130.49 999.05,-128.48 1000.06,-135.41"/>
</g>
<!-- Node16 -->
<g id="node16" class="node">
<title>Node16</title>
<g id="a_node16"><a xlink:href="highlight_8h.html" target="_top" xlink:title=" ">
<polygon fill="white" stroke="#666666" points="195.25,-132 99.75,-132 99.75,-112 195.25,-112 195.25,-132"/>
<text xml:space="preserve" text-anchor="middle" x="147.5" y="-118.5" font-family="Helvetica,sans-Serif" font-size="10.00">spectre/highlight.h</text>
</a>
</g>
</g>
<!-- Node7&#45;&gt;Node16 -->
<g id="edge19" class="edge">
<title>Node7&#45;&gt;Node16</title>
<path fill="none" stroke="#63b8ff" d="M651.86,-169.86C647.36,-169.18 642.84,-168.54 638.5,-168 449.66,-144.49 398.03,-154.99 207.01,-132.35"/>
<polygon fill="#63b8ff" stroke="#63b8ff" points="207.58,-128.89 197.23,-131.17 206.74,-135.84 207.58,-128.89"/>
</g>
<!-- Node17 -->
<g id="node17" class="node">
<title>Node17</title>
<g id="a_node17"><a xlink:href="types_8h.html" target="_top" xlink:title=" ">
<polygon fill="white" stroke="#666666" points="151.25,-76 67.75,-76 67.75,-56 151.25,-56 151.25,-76"/>
<text xml:space="preserve" text-anchor="middle" x="109.5" y="-62.5" font-family="Helvetica,sans-Serif" font-size="10.00">spectre/types.h</text>
</a>
</g>
</g>
<!-- Node7&#45;&gt;Node17 -->
<g id="edge26" class="edge">
<title>Node7&#45;&gt;Node17</title>
<path fill="none" stroke="#63b8ff" d="M651.87,-169.78C647.37,-169.12 642.84,-168.5 638.5,-168 577.89,-160.98 132.21,-176.54 90.5,-132 78.73,-119.43 86.65,-99.97 95.57,-85.62"/>
<polygon fill="#63b8ff" stroke="#63b8ff" points="98.38,-87.72 101.13,-77.49 92.6,-83.77 98.38,-87.72"/>
</g>
<!-- Node19 -->
<g id="node19" class="node">
<title>Node19</title>
<g id="a_node19"><a xlink:title=" ">
<polygon fill="#e0e0e0" stroke="#999999" points="527.88,-76 445.12,-76 445.12,-56 527.88,-56 527.88,-76"/>
<text xml:space="preserve" text-anchor="middle" x="486.5" y="-62.5" font-family="Helvetica,sans-Serif" font-size="10.00">unordered_map</text>
</a>
</g>
</g>
<!-- Node7&#45;&gt;Node19 -->
<g id="edge29" class="edge">
<title>Node7&#45;&gt;Node19</title>
<path fill="none" stroke="#63b8ff" d="M688.85,-167.94C682.68,-153.81 668.86,-126.64 648.5,-112 616.45,-88.96 573.07,-77.7 539.26,-72.21"/>
<polygon fill="#63b8ff" stroke="#63b8ff" points="540.09,-68.8 529.69,-70.79 539.06,-75.72 540.09,-68.8"/>
</g>
<!-- Node21 -->
<g id="node21" class="node">
<title>Node21</title>
<g id="a_node21"><a xlink:title=" ">
<polygon fill="#e0e0e0" stroke="#999999" points="739,-132 696,-132 696,-112 739,-112 739,-132"/>
<text xml:space="preserve" text-anchor="middle" x="717.5" y="-118.5" font-family="Helvetica,sans-Serif" font-size="10.00">thread</text>
</a>
</g>
</g>
<!-- Node7&#45;&gt;Node21 -->
<g id="edge28" class="edge">
<title>Node7&#45;&gt;Node21</title>
<path fill="none" stroke="#63b8ff" d="M696.85,-167.59C700.05,-160.7 704.49,-151.1 708.44,-142.57"/>
<polygon fill="#63b8ff" stroke="#63b8ff" points="711.53,-144.22 712.56,-133.67 705.18,-141.28 711.53,-144.22"/>
</g>
<!-- Node22 -->
<g id="node22" class="node">
<title>Node22</title>
<g id="a_node22"><a xlink:title=" ">
<polygon fill="#e0e0e0" stroke="#999999" points="802.12,-132 756.88,-132 756.88,-112 802.12,-112 802.12,-132"/>
<text xml:space="preserve" text-anchor="middle" x="779.5" y="-118.5" font-family="Helvetica,sans-Serif" font-size="10.00">variant</text>
</a>
</g>
</g>
<!-- Node7&#45;&gt;Node22 -->
<g id="edge30" class="edge">
<title>Node7&#45;&gt;Node22</title>
<path fill="none" stroke="#63b8ff" d="M707.65,-167.59C720.55,-159.59 739.33,-147.93 754.46,-138.54"/>
<polygon fill="#63b8ff" stroke="#63b8ff" points="756.29,-141.53 762.94,-133.28 752.6,-135.58 756.29,-141.53"/>
</g>
<!-- Node23 -->
<g id="node23" class="node">
<title>Node23</title>
<g id="a_node23"><a xlink:title=" ">
<polygon fill="#e0e0e0" stroke="#999999" points="870.38,-132 820.62,-132 820.62,-112 870.38,-112 870.38,-132"/>
<text xml:space="preserve" text-anchor="middle" x="845.5" y="-118.5" font-family="Helvetica,sans-Serif" font-size="10.00">signal.h</text>
</a>
</g>
</g>
<!-- Node7&#45;&gt;Node23 -->
<g id="edge32" class="edge">
<title>Node7&#45;&gt;Node23</title>
<path fill="none" stroke="#63b8ff" d="M719.15,-167.59C744.13,-158.78 781.68,-145.53 809.35,-135.76"/>
<polygon fill="#63b8ff" stroke="#63b8ff" points="810.48,-139.07 818.74,-132.44 808.15,-132.47 810.48,-139.07"/>
</g>
<!-- Node24 -->
<g id="node24" class="node">
<title>Node24</title>
<g id="a_node24"><a xlink:title=" ">
<polygon fill="#e0e0e0" stroke="#999999" points="955,-132 888,-132 888,-112 955,-112 955,-132"/>
<text xml:space="preserve" text-anchor="middle" x="921.5" y="-118.5" font-family="Helvetica,sans-Serif" font-size="10.00">sys/types.h</text>
</a>
</g>
</g>
<!-- Node7&#45;&gt;Node24 -->
<g id="edge33" class="edge">
<title>Node7&#45;&gt;Node24</title>
<path fill="none" stroke="#63b8ff" d="M732.65,-167.53C772.95,-158.03 834.91,-143.42 876.76,-133.55"/>
<polygon fill="#63b8ff" stroke="#63b8ff" points="877.33,-137.01 886.26,-131.31 875.73,-130.2 877.33,-137.01"/>
</g>
<!-- Node14&#45;&gt;Node3 -->
<g id="edge15" class="edge">
<title>Node14&#45;&gt;Node3</title>
<path fill="none" stroke="#63b8ff" d="M1146.41,-55.59C1117.36,-46.2 1072.76,-31.78 1042.19,-21.89"/>
<polygon fill="#63b8ff" stroke="#63b8ff" points="1043.65,-18.69 1033.06,-18.94 1041.49,-25.35 1043.65,-18.69"/>
</g>
<!-- Node15&#45;&gt;Node3 -->
<g id="edge17" class="edge">
<title>Node15&#45;&gt;Node3</title>
<path fill="none" stroke="#63b8ff" d="M1056.07,-111.62C1047.62,-93.76 1029.08,-54.53 1017.8,-30.67"/>
<polygon fill="#63b8ff" stroke="#63b8ff" points="1021.01,-29.27 1013.57,-21.72 1014.68,-32.26 1021.01,-29.27"/>
</g>
<!-- Node15&#45;&gt;Node5 -->
<g id="edge18" class="edge">
<title>Node15&#45;&gt;Node5</title>
<path fill="none" stroke="#63b8ff" d="M1066.25,-111.59C1070.55,-104.55 1076.59,-94.67 1081.89,-86"/>
<polygon fill="#63b8ff" stroke="#63b8ff" points="1084.8,-87.95 1087.03,-77.59 1078.83,-84.3 1084.8,-87.95"/>
</g>
<!-- Node16&#45;&gt;Node3 -->
<g id="edge20" class="edge">
<title>Node16&#45;&gt;Node3</title>
<path fill="none" stroke="#63b8ff" d="M181.9,-111.59C235.75,-97.23 343.44,-70.05 436.5,-56 638.96,-25.43 885.07,-14.94 974.2,-11.99"/>
<polygon fill="#63b8ff" stroke="#63b8ff" points="974.08,-15.5 983.97,-11.68 973.86,-8.5 974.08,-15.5"/>
</g>
<!-- Node16&#45;&gt;Node17 -->
<g id="edge21" class="edge">
<title>Node16&#45;&gt;Node17</title>
<path fill="none" stroke="#63b8ff" d="M140.88,-111.59C135.81,-104.39 128.66,-94.23 122.47,-85.43"/>
<polygon fill="#63b8ff" stroke="#63b8ff" points="125.53,-83.7 116.91,-77.54 119.81,-87.73 125.53,-83.7"/>
</g>
<!-- Node16&#45;&gt;Node19 -->
<g id="edge24" class="edge">
<title>Node16&#45;&gt;Node19</title>
<path fill="none" stroke="#63b8ff" d="M195.46,-113.29C198.18,-112.85 200.87,-112.42 203.5,-112 283.7,-99.18 376.7,-84.41 433.56,-75.39"/>
<polygon fill="#63b8ff" stroke="#63b8ff" points="433.96,-78.87 443.28,-73.85 432.86,-71.96 433.96,-78.87"/>
</g>
<!-- Node20 -->
<g id="node20" class="node">
<title>Node20</title>
<g id="a_node20"><a xlink:title=" ">
<polygon fill="#e0e0e0" stroke="#999999" points="208.12,-76 168.88,-76 168.88,-56 208.12,-56 208.12,-76"/>
<text xml:space="preserve" text-anchor="middle" x="188.5" y="-62.5" font-family="Helvetica,sans-Serif" font-size="10.00">utility</text>
</a>
</g>
</g>
<!-- Node16&#45;&gt;Node20 -->
<g id="edge25" class="edge">
<title>Node16&#45;&gt;Node20</title>
<path fill="none" stroke="#63b8ff" d="M154.64,-111.59C160.11,-104.39 167.82,-94.23 174.51,-85.43"/>
<polygon fill="#63b8ff" stroke="#63b8ff" points="177.27,-87.58 180.52,-77.5 171.69,-83.35 177.27,-87.58"/>
</g>
<!-- Node17&#45;&gt;Node3 -->
<g id="edge23" class="edge">
<title>Node17&#45;&gt;Node3</title>
<path fill="none" stroke="#63b8ff" d="M151.73,-57.02C154.35,-56.64 156.96,-56.29 159.5,-56 474.58,-19.44 858.93,-12.55 974.23,-11.28"/>
<polygon fill="#63b8ff" stroke="#63b8ff" points="973.97,-14.78 983.94,-11.18 973.9,-7.78 973.97,-14.78"/>
</g>
<!-- Node18 -->
<g id="node18" class="node">
<title>Node18</title>
<g id="a_node18"><a xlink:title=" ">
<polygon fill="#e0e0e0" stroke="#999999" points="128.38,-20 90.62,-20 90.62,0 128.38,0 128.38,-20"/>
<text xml:space="preserve" text-anchor="middle" x="109.5" y="-6.5" font-family="Helvetica,sans-Serif" font-size="10.00">array</text>
</a>
</g>
</g>
<!-- Node17&#45;&gt;Node18 -->
<g id="edge22" class="edge">
<title>Node17&#45;&gt;Node18</title>
<path fill="none" stroke="#63b8ff" d="M109.5,-55.59C109.5,-49.01 109.5,-39.96 109.5,-31.73"/>
<polygon fill="#63b8ff" stroke="#63b8ff" points="113,-31.81 109.5,-21.81 106,-31.81 113,-31.81"/>
</g>
</g>
</svg>
