<?xml version="1.0" encoding="UTF-8" standalone="no"?>
<!DOCTYPE svg PUBLIC "-//W3C//DTD SVG 1.1//EN"
 "http://www.w3.org/Graphics/SVG/1.1/DTD/svg11.dtd">
<!-- Generated by graphviz version 14.1.3 (20260303.0454)
 -->
<!-- Title: spectre::in_ranges Pages: 1 -->
<svg width="275pt" height="178pt"
 viewBox="0.00 0.00 275.00 178.00" xmlns="http://www.w3.org/2000/svg" xmlns:xlink="http://www.w3.org/1999/xlink">
<g id="graph0" class="graph" transform="scale(1 1) rotate(0) translate(4 174)">
<title>spectre::in_ranges</title>
<!-- Node1 -->
<g id="node1" class="node">
<title>Node1</title>
<g id="a_node1"><a xlink:title=" ">
<polygon fill="#999999" stroke="#666666" points="266.75,-89 170.5,-89 170.5,-69 266.75,-69 266.75,-89"/>
<text xml:space="preserve" text-anchor="middle" x="218.62" y="-75.5" font-family="Helvetica,sans-Serif" font-size="10.00">spectre::in_ranges</text>
</a>
</g>
</g>
<!-- Node2 -->
<g id="node2" class="node">
<title>Node2</title>
<g id="a_node2"><a xlink:href="namespacespectre.html#aacba2514079d1721fb001a5a56dcfd99" target="_top" xlink:title=" ">
<polygon fill="white" stroke="#666666" points="118.75,-170 15.75,-170 15.75,-138 118.75,-138 118.75,-170"/>
<text xml:space="preserve" text-anchor="start" x="23.75" y="-156.5" font-family="Helvetica,sans-Serif" font-size="10.00">spectre::is_default</text>
<text xml:space="preserve" text-anchor="middle" x="67.25" y="-144.5" font-family="Helvetica,sans-Serif" font-size="10.00">_emoji_presentation</text>
</a>
</g>
</g>
<!-- Node1&#45;&gt;Node2 -->
<g id="edge1" class="edge">
<title>Node1&#45;&gt;Node2</title>
<path fill="none" stroke="#63b8ff" d="M192.88,-95.5C176.68,-105.89 154.83,-119.15 134.5,-129 128.3,-132 121.65,-134.89 115.03,-137.56"/>
<polygon fill="#63b8ff" stroke="#63b8ff" points="194.42,-98.67 200.9,-90.29 190.6,-92.81 194.42,-98.67"/>
</g>
<!-- Node3 -->
<g id="node3" class="node">
<title>Node3</title>
<g id="a_node3"><a xlink:href="namespacespectre.html#a183df0a2fd17974fec95ba1db214e4b8" target="_top" xlink:title=" ">
<polygon fill="white" stroke="#666666" points="124.38,-120 10.12,-120 10.12,-88 124.38,-88 124.38,-120"/>
<text xml:space="preserve" text-anchor="start" x="18.12" y="-106.5" font-family="Helvetica,sans-Serif" font-size="10.00">spectre::is_east_asian</text>
<text xml:space="preserve" text-anchor="middle" x="67.25" y="-94.5" font-family="Helvetica,sans-Serif" font-size="10.00">_ambiguous</text>
</a>
</g>
</g>
<!-- Node1&#45;&gt;Node3 -->
<g id="edge2" class="edge">
<title>Node1&#45;&gt;Node3</title>
<path fill="none" stroke="#63b8ff" d="M159.2,-88.78C147.83,-90.68 135.92,-92.67 124.62,-94.57"/>
<polygon fill="#63b8ff" stroke="#63b8ff" points="159.58,-92.26 168.87,-87.16 158.43,-85.36 159.58,-92.26"/>
</g>
<!-- Node4 -->
<g id="node4" class="node">
<title>Node4</title>
<g id="a_node4"><a xlink:href="namespacespectre.html#ad0f10c51c9b250757f2aaf74c2cf0670" target="_top" xlink:title=" ">
<polygon fill="white" stroke="#666666" points="128.12,-70 6.37,-70 6.37,-38 128.12,-38 128.12,-70"/>
<text xml:space="preserve" text-anchor="start" x="14.38" y="-56.5" font-family="Helvetica,sans-Serif" font-size="10.00">spectre::is_emoji_text</text>
<text xml:space="preserve" text-anchor="middle" x="67.25" y="-44.5" font-family="Helvetica,sans-Serif" font-size="10.00">_presentation_candidate</text>
</a>
</g>
</g>
<!-- Node1&#45;&gt;Node4 -->
<g id="edge3" class="edge">
<title>Node1&#45;&gt;Node4</title>
<path fill="none" stroke="#63b8ff" d="M159.16,-69.22C149.05,-67.52 138.52,-65.76 128.36,-64.06"/>
<polygon fill="#63b8ff" stroke="#63b8ff" points="158.43,-72.64 168.87,-70.84 159.58,-65.74 158.43,-72.64"/>
</g>
<!-- Node5 -->
<g id="node5" class="node">
<title>Node5</title>
<g id="a_node5"><a xlink:href="namespacespectre.html#aad8bd502111248ccbc0fcca0ab5b6caf" target="_top" xlink:title=" ">
<polygon fill="white" stroke="#666666" points="134.5,-20 0,-20 0,0 134.5,0 134.5,-20"/>
<text xml:space="preserve" text-anchor="middle" x="67.25" y="-6.5" font-family="Helvetica,sans-Serif" font-size="10.00">spectre::is_width_ignorable</text>
</a>
</g>
</g>
<!-- Node1&#45;&gt;Node5 -->
<g id="edge4" class="edge">
<title>Node1&#45;&gt;Node5</title>
<path fill="none" stroke="#63b8ff" d="M193.73,-62.32C177.59,-51.64 155.47,-38.13 134.5,-29 127.04,-25.75 118.87,-22.89 110.89,-20.44"/>
<polygon fill="#63b8ff" stroke="#63b8ff" points="191.44,-65 201.69,-67.69 195.36,-59.2 191.44,-65"/>
</g>
</g>
</svg>
