<?xml version="1.0" encoding="UTF-8" standalone="no"?>
<!DOCTYPE svg PUBLIC "-//W3C//DTD SVG 1.1//EN"
 "http://www.w3.org/Graphics/SVG/1.1/DTD/svg11.dtd">
<!-- Generated by graphviz version 14.1.3 (20260303.0454)
 -->
<!-- Title: libs/spectre&#45;nvim/include/spectre/nvim.h Pages: 1 -->
<!--zoomable 208 -->
<svg id="main" version="1.1" xmlns="http://www.w3.org/2000/svg" xmlns:xlink="http://www.w3.org/1999/xlink" xml:space="preserve" onload="init(evt)">
<style type="text/css"><![CDATA[
.edge:hover path { stroke: red; }
.edge:hover polygon { stroke: red; fill: red; }
]]></style>
<script type="text/javascript"><![CDATA[
var edges = document.getElementsByTagName('g');
if (edges && edges.length) {
  for (var i=0;i<edges.length;i++) {
    if (edges[i].id.substr(0,4)=='edge') {
      edges[i].setAttribute('class','edge');
    }
  }
}
]]></script>
        <defs>
                <circle id="rim" cx="0" cy="0" r="7"/>
                <circle id="rim2" cx="0" cy="0" r="3.5"/>
                <g id="zoomPlus">
                        <use xlink:href="#rim" fill="#404040">
                                <set attributeName="fill" to="#808080" begin="zoomplus.mouseover" end="zoomplus.mouseout"/>
                        </use>
                        <path d="M-4,0h8M0,-4v8" fill="none" stroke="white" stroke-width="1.5" pointer-events="none"/>
                </g>
                <g id="zoomMin">
                        <use xlink:href="#rim" fill="#404040">
                                <set attributeName="fill" to="#808080" begin="zoomminus.mouseover" end="zoomminus.mouseout"/>
                        </use>
                        <path d="M-4,0h8" fill="none" stroke="white" stroke-width="1.5" pointer-events="none"/>
                </g>
                <g id="dirArrow">
                        <path fill="none" stroke="white" stroke-width="1.5" d="M0,-3.0v7 M-2.5,-0.5L0,-3.0L2.5,-0.5"/>
                </g>
               <g id="resetDef">
                       <use xlink:href="#rim2" fill="#404040">
                               <set attributeName="fill" to="#808080" begin="reset.mouseover" end="reset.mouseout"/>
                       </use>
               </g>
        </defs>

<script type="text/javascript">
var viewWidth = 1192;
var viewHeight = 208;
var sectionId = 'dynsection-0';
</script>
<script xlink:href="svgpan.js"/>
<svg id="graph" class="graph">
<g id="viewport">
<title>libs/spectre&#45;nvim/include/spectre/nvim.h</title>
<!-- Node1 -->
<g id="node1" class="node">
<title>Node1</title>
<g id="a_node1"><a xlink:title=" ">
<polygon fill="#999999" stroke="#666666" points="657.62,-200 533.62,-200 533.62,-168 657.62,-168 657.62,-200"/>
<text xml:space="preserve" text-anchor="start" x="541.62" y="-186.5" font-family="Helvetica,sans-Serif" font-size="10.00">libs/spectre&#45;nvim/include</text>
<text xml:space="preserve" text-anchor="middle" x="595.62" y="-174.5" font-family="Helvetica,sans-Serif" font-size="10.00">/spectre/nvim.h</text>
</a>
</g>
</g>
<!-- Node2 -->
<g id="node2" class="node">
<title>Node2</title>
<g id="a_node2"><a xlink:title=" ">
<polygon fill="#e0e0e0" stroke="#999999" points="45.25,-132 0,-132 0,-112 45.25,-112 45.25,-132"/>
<text xml:space="preserve" text-anchor="middle" x="22.62" y="-118.5" font-family="Helvetica,sans-Serif" font-size="10.00">atomic</text>
</a>
</g>
</g>
<!-- Node1&#45;&gt;Node2 -->
<g id="edge1" class="edge">
<title>Node1&#45;&gt;Node2</title>
<path fill="none" stroke="#63b8ff" d="M533.46,-180.78C434.4,-176.44 234.62,-164.45 56.72,-132.05"/>
<polygon fill="#63b8ff" stroke="#63b8ff" points="57.54,-128.64 47.07,-130.27 56.26,-135.53 57.54,-128.64"/>
</g>
<!-- Node3 -->
<g id="node3" class="node">
<title>Node3</title>
<g id="a_node3"><a xlink:title=" ">
<polygon fill="#e0e0e0" stroke="#999999" points="157.62,-132 63.62,-132 63.62,-112 157.62,-112 157.62,-132"/>
<text xml:space="preserve" text-anchor="middle" x="110.62" y="-118.5" font-family="Helvetica,sans-Serif" font-size="10.00">condition_variable</text>
</a>
</g>
</g>
<!-- Node1&#45;&gt;Node3 -->
<g id="edge2" class="edge">
<title>Node1&#45;&gt;Node3</title>
<path fill="none" stroke="#63b8ff" d="M533.41,-176.04C450.71,-166.68 300.04,-149.19 171.62,-132 170.79,-131.89 169.95,-131.77 169.1,-131.66"/>
<polygon fill="#63b8ff" stroke="#63b8ff" points="169.78,-128.22 159.4,-130.31 168.82,-135.15 169.78,-128.22"/>
</g>
<!-- Node4 -->
<g id="node4" class="node">
<title>Node4</title>
<g id="a_node4"><a xlink:title=" ">
<polygon fill="#e0e0e0" stroke="#999999" points="398.25,-20 353,-20 353,0 398.25,0 398.25,-20"/>
<text xml:space="preserve" text-anchor="middle" x="375.62" y="-6.5" font-family="Helvetica,sans-Serif" font-size="10.00">cstdint</text>
</a>
</g>
</g>
<!-- Node1&#45;&gt;Node4 -->
<g id="edge3" class="edge">
<title>Node1&#45;&gt;Node4</title>
<path fill="none" stroke="#63b8ff" d="M533.35,-180.59C465.47,-174.06 361.38,-151.53 322.62,-76 313.03,-57.31 331.09,-39.04 348.67,-26.65"/>
<polygon fill="#63b8ff" stroke="#63b8ff" points="350.5,-29.64 356.95,-21.24 346.67,-23.79 350.5,-29.64"/>
</g>
<!-- Node5 -->
<g id="node5" class="node">
<title>Node5</title>
<g id="a_node5"><a xlink:title=" ">
<polygon fill="#e0e0e0" stroke="#999999" points="653.62,-132 595.62,-132 595.62,-112 653.62,-112 653.62,-132"/>
<text xml:space="preserve" text-anchor="middle" x="624.62" y="-118.5" font-family="Helvetica,sans-Serif" font-size="10.00">functional</text>
</a>
</g>
</g>
<!-- Node1&#45;&gt;Node5 -->
<g id="edge4" class="edge">
<title>Node1&#45;&gt;Node5</title>
<path fill="none" stroke="#63b8ff" d="M603.09,-167.55C606.74,-160 611.18,-150.82 615.07,-142.77"/>
<polygon fill="#63b8ff" stroke="#63b8ff" points="618.22,-144.3 619.42,-133.77 611.92,-141.25 618.22,-144.3"/>
</g>
<!-- Node6 -->
<g id="node6" class="node">
<title>Node6</title>
<g id="a_node6"><a xlink:title=" ">
<polygon fill="#e0e0e0" stroke="#999999" points="725.38,-132 671.88,-132 671.88,-112 725.38,-112 725.38,-132"/>
<text xml:space="preserve" text-anchor="middle" x="698.62" y="-118.5" font-family="Helvetica,sans-Serif" font-size="10.00">mpack.h</text>
</a>
</g>
</g>
<!-- Node1&#45;&gt;Node6 -->
<g id="edge5" class="edge">
<title>Node1&#45;&gt;Node6</title>
<path fill="none" stroke="#63b8ff" d="M622.15,-167.55C637.65,-158.52 657.13,-147.17 672.55,-138.19"/>
<polygon fill="#63b8ff" stroke="#63b8ff" points="674.29,-141.23 681.17,-133.17 670.76,-135.18 674.29,-141.23"/>
</g>
<!-- Node7 -->
<g id="node7" class="node">
<title>Node7</title>
<g id="a_node7"><a xlink:title=" ">
<polygon fill="#e0e0e0" stroke="#999999" points="786.12,-132 743.12,-132 743.12,-112 786.12,-112 786.12,-132"/>
<text xml:space="preserve" text-anchor="middle" x="764.62" y="-118.5" font-family="Helvetica,sans-Serif" font-size="10.00">mutex</text>
</a>
</g>
</g>
<!-- Node1&#45;&gt;Node7 -->
<g id="edge6" class="edge">
<title>Node1&#45;&gt;Node7</title>
<path fill="none" stroke="#63b8ff" d="M639.15,-167.55C668.24,-157.22 705.89,-143.85 732.33,-134.47"/>
<polygon fill="#63b8ff" stroke="#63b8ff" points="733.24,-137.86 741.49,-131.21 730.89,-131.26 733.24,-137.86"/>
</g>
<!-- Node8 -->
<g id="node8" class="node">
<title>Node8</title>
<g id="a_node8"><a xlink:title=" ">
<polygon fill="#e0e0e0" stroke="#999999" points="846.75,-132 804.5,-132 804.5,-112 846.75,-112 846.75,-132"/>
<text xml:space="preserve" text-anchor="middle" x="825.62" y="-118.5" font-family="Helvetica,sans-Serif" font-size="10.00">queue</text>
</a>
</g>
</g>
<!-- Node1&#45;&gt;Node8 -->
<g id="edge7" class="edge">
<title>Node1&#45;&gt;Node8</title>
<path fill="none" stroke="#63b8ff" d="M657.96,-167.82C694.89,-158.66 742.82,-146.48 793.23,-132.59"/>
<polygon fill="#63b8ff" stroke="#63b8ff" points="793.87,-136.05 802.57,-130 792,-129.3 793.87,-136.05"/>
</g>
<!-- Node9 -->
<g id="node9" class="node">
<title>Node9</title>
<g id="a_node9"><a xlink:href="events_8h.html" target="_top" xlink:title=" ">
<polygon fill="white" stroke="#666666" points="420,-76 331.25,-76 331.25,-56 420,-56 420,-76"/>
<text xml:space="preserve" text-anchor="middle" x="375.62" y="-62.5" font-family="Helvetica,sans-Serif" font-size="10.00">spectre/events.h</text>
</a>
</g>
</g>
<!-- Node1&#45;&gt;Node9 -->
<g id="edge8" class="edge">
<title>Node1&#45;&gt;Node9</title>
<path fill="none" stroke="#63b8ff" d="M533.41,-173.67C499.62,-166.38 458.38,-153.7 426.62,-132 409.28,-120.15 395.09,-100.59 386.12,-86.01"/>
<polygon fill="#63b8ff" stroke="#63b8ff" points="389.37,-84.64 381.31,-77.77 383.33,-88.17 389.37,-84.64"/>
</g>
<!-- Node10 -->
<g id="node10" class="node">
<title>Node10</title>
<g id="a_node10"><a xlink:href="grid__sink_8h.html" target="_top" xlink:title=" ">
<polygon fill="white" stroke="#666666" points="311.88,-132 213.38,-132 213.38,-112 311.88,-112 311.88,-132"/>
<text xml:space="preserve" text-anchor="middle" x="262.62" y="-118.5" font-family="Helvetica,sans-Serif" font-size="10.00">spectre/grid_sink.h</text>
</a>
</g>
</g>
<!-- Node1&#45;&gt;Node10 -->
<g id="edge10" class="edge">
<title>Node1&#45;&gt;Node10</title>
<path fill="none" stroke="#63b8ff" d="M533.38,-171.78C473.34,-160.97 383.04,-144.7 323.47,-133.96"/>
<polygon fill="#63b8ff" stroke="#63b8ff" points="324.31,-130.56 313.84,-132.23 323.06,-137.45 324.31,-130.56"/>
</g>
<!-- Node11 -->
<g id="node11" class="node">
<title>Node11</title>
<g id="a_node11"><a xlink:title=" ">
<polygon fill="#e0e0e0" stroke="#999999" points="221.62,-76 181.62,-76 181.62,-56 221.62,-56 221.62,-76"/>
<text xml:space="preserve" text-anchor="middle" x="201.62" y="-62.5" font-family="Helvetica,sans-Serif" font-size="10.00">string</text>
</a>
</g>
</g>
<!-- Node1&#45;&gt;Node11 -->
<g id="edge21" class="edge">
<title>Node1&#45;&gt;Node11</title>
<path fill="none" stroke="#63b8ff" d="M533.38,-179.21C428.67,-172.22 226.49,-155.78 204.62,-132 193.86,-120.3 194.03,-101.81 196.36,-87.54"/>
<polygon fill="#63b8ff" stroke="#63b8ff" points="199.76,-88.35 198.43,-77.84 192.92,-86.89 199.76,-88.35"/>
</g>
<!-- Node12 -->
<g id="node12" class="node">
<title>Node12</title>
<g id="a_node12"><a xlink:href="highlight_8h.html" target="_top" xlink:title=" ">
<polygon fill="white" stroke="#666666" points="539.38,-132 443.88,-132 443.88,-112 539.38,-112 539.38,-132"/>
<text xml:space="preserve" text-anchor="middle" x="491.62" y="-118.5" font-family="Helvetica,sans-Serif" font-size="10.00">spectre/highlight.h</text>
</a>
</g>
</g>
<!-- Node1&#45;&gt;Node12 -->
<g id="edge13" class="edge">
<title>Node1&#45;&gt;Node12</title>
<path fill="none" stroke="#63b8ff" d="M568.84,-167.55C553.04,-158.43 533.15,-146.96 517.51,-137.93"/>
<polygon fill="#63b8ff" stroke="#63b8ff" points="519.65,-135.13 509.24,-133.16 516.16,-141.19 519.65,-135.13"/>
</g>
<!-- Node13 -->
<g id="node13" class="node">
<title>Node13</title>
<g id="a_node13"><a xlink:href="types_8h.html" target="_top" xlink:title=" ">
<polygon fill="white" stroke="#666666" points="521.38,-76 437.88,-76 437.88,-56 521.38,-56 521.38,-76"/>
<text xml:space="preserve" text-anchor="middle" x="479.62" y="-62.5" font-family="Helvetica,sans-Serif" font-size="10.00">spectre/types.h</text>
</a>
</g>
</g>
<!-- Node1&#45;&gt;Node13 -->
<g id="edge20" class="edge">
<title>Node1&#45;&gt;Node13</title>
<path fill="none" stroke="#63b8ff" d="M533.38,-180.45C498.31,-175.42 457.14,-162.75 434.62,-132 422.58,-115.56 439.65,-96.32 456.11,-83.06"/>
<polygon fill="#63b8ff" stroke="#63b8ff" points="457.91,-86.09 463.8,-77.28 453.7,-80.49 457.91,-86.09"/>
</g>
<!-- Node15 -->
<g id="node15" class="node">
<title>Node15</title>
<g id="a_node15"><a xlink:title=" ">
<polygon fill="#e0e0e0" stroke="#999999" points="718,-76 635.25,-76 635.25,-56 718,-56 718,-76"/>
<text xml:space="preserve" text-anchor="middle" x="676.62" y="-62.5" font-family="Helvetica,sans-Serif" font-size="10.00">unordered_map</text>
</a>
</g>
</g>
<!-- Node1&#45;&gt;Node15 -->
<g id="edge23" class="edge">
<title>Node1&#45;&gt;Node15</title>
<path fill="none" stroke="#63b8ff" d="M588.37,-167.67C582.3,-152.42 576.17,-128.91 586.62,-112 595.65,-97.39 611.02,-87.37 626.53,-80.56"/>
<polygon fill="#63b8ff" stroke="#63b8ff" points="627.78,-83.83 635.8,-76.9 625.21,-77.31 627.78,-83.83"/>
</g>
<!-- Node17 -->
<g id="node17" class="node">
<title>Node17</title>
<g id="a_node17"><a xlink:title=" ">
<polygon fill="#e0e0e0" stroke="#999999" points="908.12,-132 865.12,-132 865.12,-112 908.12,-112 908.12,-132"/>
<text xml:space="preserve" text-anchor="middle" x="886.62" y="-118.5" font-family="Helvetica,sans-Serif" font-size="10.00">thread</text>
</a>
</g>
</g>
<!-- Node1&#45;&gt;Node17 -->
<g id="edge22" class="edge">
<title>Node1&#45;&gt;Node17</title>
<path fill="none" stroke="#63b8ff" d="M657.95,-172.38C708.25,-163.45 781.04,-149.7 853.52,-132.34"/>
<polygon fill="#63b8ff" stroke="#63b8ff" points="854.31,-135.75 863.2,-129.99 852.66,-128.94 854.31,-135.75"/>
</g>
<!-- Node18 -->
<g id="node18" class="node">
<title>Node18</title>
<g id="a_node18"><a xlink:title=" ">
<polygon fill="#e0e0e0" stroke="#999999" points="971.25,-132 926,-132 926,-112 971.25,-112 971.25,-132"/>
<text xml:space="preserve" text-anchor="middle" x="948.62" y="-118.5" font-family="Helvetica,sans-Serif" font-size="10.00">variant</text>
</a>
</g>
</g>
<!-- Node1&#45;&gt;Node18 -->
<g id="edge24" class="edge">
<title>Node1&#45;&gt;Node18</title>
<path fill="none" stroke="#63b8ff" d="M658.09,-175.47C720.81,-167.38 820.34,-153.1 914.53,-132.49"/>
<polygon fill="#63b8ff" stroke="#63b8ff" points="915.2,-135.92 924.21,-130.34 913.69,-129.09 915.2,-135.92"/>
</g>
<!-- Node19 -->
<g id="node19" class="node">
<title>Node19</title>
<g id="a_node19"><a xlink:title=" ">
<polygon fill="#e0e0e0" stroke="#999999" points="1032.12,-132 989.12,-132 989.12,-112 1032.12,-112 1032.12,-132"/>
<text xml:space="preserve" text-anchor="middle" x="1010.62" y="-118.5" font-family="Helvetica,sans-Serif" font-size="10.00">vector</text>
</a>
</g>
</g>
<!-- Node1&#45;&gt;Node19 -->
<g id="edge25" class="edge">
<title>Node1&#45;&gt;Node19</title>
<path fill="none" stroke="#63b8ff" d="M657.83,-177.84C732.06,-171 860.02,-157.05 977.78,-132.34"/>
<polygon fill="#63b8ff" stroke="#63b8ff" points="978.25,-135.82 987.29,-130.31 976.78,-128.97 978.25,-135.82"/>
</g>
<!-- Node20 -->
<g id="node20" class="node">
<title>Node20</title>
<g id="a_node20"><a xlink:title=" ">
<polygon fill="#e0e0e0" stroke="#999999" points="1099.5,-132 1049.75,-132 1049.75,-112 1099.5,-112 1099.5,-132"/>
<text xml:space="preserve" text-anchor="middle" x="1074.62" y="-118.5" font-family="Helvetica,sans-Serif" font-size="10.00">signal.h</text>
</a>
</g>
</g>
<!-- Node1&#45;&gt;Node20 -->
<g id="edge26" class="edge">
<title>Node1&#45;&gt;Node20</title>
<path fill="none" stroke="#63b8ff" d="M657.76,-178.9C742.16,-172.67 897.81,-158.82 1038.53,-132.37"/>
<polygon fill="#63b8ff" stroke="#63b8ff" points="1038.84,-135.87 1048.01,-130.56 1037.53,-129 1038.84,-135.87"/>
</g>
<!-- Node21 -->
<g id="node21" class="node">
<title>Node21</title>
<g id="a_node21"><a xlink:title=" ">
<polygon fill="#e0e0e0" stroke="#999999" points="1184.12,-132 1117.12,-132 1117.12,-112 1184.12,-112 1184.12,-132"/>
<text xml:space="preserve" text-anchor="middle" x="1150.62" y="-118.5" font-family="Helvetica,sans-Serif" font-size="10.00">sys/types.h</text>
</a>
</g>
</g>
<!-- Node1&#45;&gt;Node21 -->
<g id="edge27" class="edge">
<title>Node1&#45;&gt;Node21</title>
<path fill="none" stroke="#63b8ff" d="M657.9,-179.07C752.59,-172.59 938.62,-157.93 1105.54,-132.34"/>
<polygon fill="#63b8ff" stroke="#63b8ff" points="1105.92,-135.82 1115.26,-130.83 1104.85,-128.9 1105.92,-135.82"/>
</g>
<!-- Node9&#45;&gt;Node4 -->
<g id="edge9" class="edge">
<title>Node9&#45;&gt;Node4</title>
<path fill="none" stroke="#63b8ff" d="M375.62,-55.59C375.62,-49.01 375.62,-39.96 375.62,-31.73"/>
<polygon fill="#63b8ff" stroke="#63b8ff" points="379.13,-31.81 375.63,-21.81 372.13,-31.81 379.13,-31.81"/>
</g>
<!-- Node10&#45;&gt;Node4 -->
<g id="edge11" class="edge">
<title>Node10&#45;&gt;Node4</title>
<path fill="none" stroke="#63b8ff" d="M264.42,-111.51C267.46,-97.77 274.77,-72.22 289.62,-56 303.85,-40.46 324.7,-29.36 342.31,-22.08"/>
<polygon fill="#63b8ff" stroke="#63b8ff" points="343.29,-25.45 351.35,-18.57 340.76,-18.92 343.29,-25.45"/>
</g>
<!-- Node10&#45;&gt;Node11 -->
<g id="edge12" class="edge">
<title>Node10&#45;&gt;Node11</title>
<path fill="none" stroke="#63b8ff" d="M252,-111.59C243.34,-103.93 230.89,-92.91 220.54,-83.75"/>
<polygon fill="#63b8ff" stroke="#63b8ff" points="223.07,-81.31 213.26,-77.3 218.43,-86.55 223.07,-81.31"/>
</g>
<!-- Node12&#45;&gt;Node4 -->
<g id="edge14" class="edge">
<title>Node12&#45;&gt;Node4</title>
<path fill="none" stroke="#63b8ff" d="M504.47,-111.57C520.61,-98.57 544.61,-74.63 530.62,-56 516.12,-36.69 450.87,-22.98 409.79,-16.08"/>
<polygon fill="#63b8ff" stroke="#63b8ff" points="410.58,-12.67 400.15,-14.52 409.46,-19.58 410.58,-12.67"/>
</g>
<!-- Node12&#45;&gt;Node13 -->
<g id="edge15" class="edge">
<title>Node12&#45;&gt;Node13</title>
<path fill="none" stroke="#63b8ff" d="M489.53,-111.59C488.05,-104.93 486.01,-95.75 484.17,-87.44"/>
<polygon fill="#63b8ff" stroke="#63b8ff" points="487.61,-86.78 482.02,-77.78 480.77,-88.3 487.61,-86.78"/>
</g>
<!-- Node12&#45;&gt;Node15 -->
<g id="edge18" class="edge">
<title>Node12&#45;&gt;Node15</title>
<path fill="none" stroke="#63b8ff" d="M523.85,-111.59C554.17,-102.74 599.8,-89.43 633.29,-79.65"/>
<polygon fill="#63b8ff" stroke="#63b8ff" points="634.08,-83.07 642.7,-76.9 632.12,-76.35 634.08,-83.07"/>
</g>
<!-- Node16 -->
<g id="node16" class="node">
<title>Node16</title>
<g id="a_node16"><a xlink:title=" ">
<polygon fill="#e0e0e0" stroke="#999999" points="617.25,-76 578,-76 578,-56 617.25,-56 617.25,-76"/>
<text xml:space="preserve" text-anchor="middle" x="597.62" y="-62.5" font-family="Helvetica,sans-Serif" font-size="10.00">utility</text>
</a>
</g>
</g>
<!-- Node12&#45;&gt;Node16 -->
<g id="edge19" class="edge">
<title>Node12&#45;&gt;Node16</title>
<path fill="none" stroke="#63b8ff" d="M510.09,-111.59C526.33,-103.32 550.23,-91.14 568.96,-81.6"/>
<polygon fill="#63b8ff" stroke="#63b8ff" points="570.35,-84.82 577.67,-77.17 567.17,-78.59 570.35,-84.82"/>
</g>
<!-- Node13&#45;&gt;Node4 -->
<g id="edge17" class="edge">
<title>Node13&#45;&gt;Node4</title>
<path fill="none" stroke="#63b8ff" d="M461.51,-55.59C445.65,-47.36 422.34,-35.26 404.01,-25.74"/>
<polygon fill="#63b8ff" stroke="#63b8ff" points="405.71,-22.68 395.23,-21.18 402.49,-28.89 405.71,-22.68"/>
</g>
<!-- Node14 -->
<g id="node14" class="node">
<title>Node14</title>
<g id="a_node14"><a xlink:title=" ">
<polygon fill="#e0e0e0" stroke="#999999" points="498.5,-20 460.75,-20 460.75,0 498.5,0 498.5,-20"/>
<text xml:space="preserve" text-anchor="middle" x="479.62" y="-6.5" font-family="Helvetica,sans-Serif" font-size="10.00">array</text>
</a>
</g>
</g>
<!-- Node13&#45;&gt;Node14 -->
<g id="edge16" class="edge">
<title>Node13&#45;&gt;Node14</title>
<path fill="none" stroke="#63b8ff" d="M479.62,-55.59C479.62,-49.01 479.62,-39.96 479.62,-31.73"/>
<polygon fill="#63b8ff" stroke="#63b8ff" points="483.13,-31.81 479.63,-21.81 476.13,-31.81 483.13,-31.81"/>
</g>
</g>
</svg>
        <g id="navigator" transform="translate(0 0)" fill="#404254">
                <rect fill="#f2f5e9" fill-opacity="0.5" stroke="#606060" stroke-width=".5" x="0" y="0" width="60" height="60"/>
                <use id="zoomplus" xlink:href="#zoomPlus" x="17" y="9" onmousedown="handleZoom(evt,'in')"/>
                <use id="zoomminus" xlink:href="#zoomMin" x="42" y="9" onmousedown="handleZoom(evt,'out')"/>
                <use id="reset" xlink:href="#resetDef" x="30" y="36" onmousedown="handleReset()"/>
                <g id="arrowUp" xlink:href="#dirArrow" transform="translate(30 24)" onmousedown="handlePan(0,-1)">
                  <use xlink:href="#rim" fill="#404040">
                        <set attributeName="fill" to="#808080" begin="arrowUp.mouseover" end="arrowUp.mouseout"/>
                  </use>
                  <path fill="none" stroke="white" stroke-width="1.5" d="M0,-3.0v7 M-2.5,-0.5L0,-3.0L2.5,-0.5"/>
                </g>
                <g id="arrowRight" xlink:href="#dirArrow" transform="rotate(90) translate(36 -43)" onmousedown="handlePan(1,0)">
                  <use xlink:href="#rim" fill="#404040">
                        <set attributeName="fill" to="#808080" begin="arrowRight.mouseover" end="arrowRight.mouseout"/>
                  </use>
                  <path fill="none" stroke="white" stroke-width="1.5" d="M0,-3.0v7 M-2.5,-0.5L0,-3.0L2.5,-0.5"/>
                </g>
                <g id="arrowDown" xlink:href="#dirArrow" transform="rotate(180) translate(-30 -48)" onmousedown="handlePan(0,1)">
                  <use xlink:href="#rim" fill="#404040">
                        <set attributeName="fill" to="#808080" begin="arrowDown.mouseover" end="arrowDown.mouseout"/>
                  </use>
                  <path fill="none" stroke="white" stroke-width="1.5" d="M0,-3.0v7 M-2.5,-0.5L0,-3.0L2.5,-0.5"/>
                </g>
                <g id="arrowLeft" xlink:href="#dirArrow" transform="rotate(270) translate(-36 17)" onmousedown="handlePan(-1,0)">
                  <use xlink:href="#rim" fill="#404040">
                        <set attributeName="fill" to="#808080" begin="arrowLeft.mouseover" end="arrowLeft.mouseout"/>
                  </use>
                  <path fill="none" stroke="white" stroke-width="1.5" d="M0,-3.0v7 M-2.5,-0.5L0,-3.0L2.5,-0.5"/>
                </g>
        </g>
        <svg viewBox="0 0 15 15" width="100%" height="30px" preserveAspectRatio="xMaxYMin meet">
         <g id="arrow_out" transform="scale(0.3 0.3)">
          <a xlink:href="nvim_8h__incl_org.svg" target="_base">
           <rect id="button" ry="5" rx="5" y="6" x="6" height="38" width="38"
                fill="#f2f5e9" fill-opacity="0.5" stroke="#606060" stroke-width="1.0"/>
           <path id="arrow"
             d="M 11.500037,31.436501 C 11.940474,20.09759 22.043105,11.32322 32.158766,21.979434 L 37.068811,17.246167 C 37.068811,17.246167 37.088388,32 37.088388,32 L 22.160133,31.978069 C 22.160133,31.978069 26.997745,27.140456 26.997745,27.140456 C 18.528582,18.264221 13.291696,25.230495 11.500037,31.436501 z"
             style="fill:#404040;"/>
          </a>
         </g>
        </svg>
</svg>
