<?xml version="1.0" encoding="UTF-8" standalone="no"?>
<!DOCTYPE svg PUBLIC "-//W3C//DTD SVG 1.1//EN"
 "http://www.w3.org/Graphics/SVG/1.1/DTD/svg11.dtd">
<!-- Generated by graphviz version 14.1.3 (20260303.0454)
 -->
<!-- Title: libs/spectre&#45;nvim/include/spectre/nvim.h Pages: 1 -->
<svg width="285pt" height="220pt"
 viewBox="0.00 0.00 285.00 220.00" xmlns="http://www.w3.org/2000/svg" xmlns:xlink="http://www.w3.org/1999/xlink">
<g id="graph0" class="graph" transform="scale(1 1) rotate(0) translate(4 216)">
<title>libs/spectre&#45;nvim/include/spectre/nvim.h</title>
<!-- Node1 -->
<g id="node1" class="node">
<title>Node1</title>
<g id="a_node1"><a xlink:title=" ">
<polygon fill="#999999" stroke="#666666" points="152.88,-212 28.88,-212 28.88,-180 152.88,-180 152.88,-212"/>
<text xml:space="preserve" text-anchor="start" x="36.88" y="-198.5" font-family="Helvetica,sans-Serif" font-size="10.00">libs/spectre&#45;nvim/include</text>
<text xml:space="preserve" text-anchor="middle" x="90.88" y="-186.5" font-family="Helvetica,sans-Serif" font-size="10.00">/spectre/nvim.h</text>
</a>
</g>
</g>
<!-- Node2 -->
<g id="node2" class="node">
<title>Node2</title>
<g id="a_node2"><a xlink:href="app_8h.html" target="_top" xlink:title=" ">
<polygon fill="white" stroke="#666666" points="75.25,-76 16.5,-76 16.5,-56 75.25,-56 75.25,-76"/>
<text xml:space="preserve" text-anchor="middle" x="45.88" y="-62.5" font-family="Helvetica,sans-Serif" font-size="10.00">app/app.h</text>
</a>
</g>
</g>
<!-- Node1&#45;&gt;Node2 -->
<g id="edge1" class="edge">
<title>Node1&#45;&gt;Node2</title>
<path fill="none" stroke="#63b8ff" d="M48.1,-173.42C37.24,-165.71 26.94,-155.92 20.88,-144 9.15,-120.95 27.19,-91.26 38.27,-76.38"/>
<polygon fill="#63b8ff" stroke="#63b8ff" points="46.13,-176.32 56.43,-178.83 49.95,-170.45 46.13,-176.32"/>
</g>
<!-- Node4 -->
<g id="node4" class="node">
<title>Node4</title>
<g id="a_node4"><a xlink:href="ui__request__worker_8h.html" target="_top" xlink:title=" ">
<polygon fill="white" stroke="#666666" points="152.12,-138 29.62,-138 29.62,-118 152.12,-118 152.12,-138"/>
<text xml:space="preserve" text-anchor="middle" x="90.88" y="-124.5" font-family="Helvetica,sans-Serif" font-size="10.00">app/ui_request_worker.h</text>
</a>
</g>
</g>
<!-- Node1&#45;&gt;Node4 -->
<g id="edge3" class="edge">
<title>Node1&#45;&gt;Node4</title>
<path fill="none" stroke="#63b8ff" d="M90.88,-168.31C90.88,-157.67 90.88,-146.13 90.88,-138.32"/>
<polygon fill="#63b8ff" stroke="#63b8ff" points="87.38,-168.18 90.88,-178.18 94.38,-168.18 87.38,-168.18"/>
</g>
<!-- Node5 -->
<g id="node5" class="node">
<title>Node5</title>
<g id="a_node5"><a xlink:href="mpack__codec_8h.html" target="_top" xlink:title=" ">
<polygon fill="white" stroke="#666666" points="277.25,-144 170.5,-144 170.5,-112 277.25,-112 277.25,-144"/>
<text xml:space="preserve" text-anchor="start" x="178.5" y="-130.5" font-family="Helvetica,sans-Serif" font-size="10.00">libs/spectre&#45;nvim/src</text>
<text xml:space="preserve" text-anchor="middle" x="223.88" y="-118.5" font-family="Helvetica,sans-Serif" font-size="10.00">/mpack_codec.h</text>
</a>
</g>
</g>
<!-- Node1&#45;&gt;Node5 -->
<g id="edge5" class="edge">
<title>Node1&#45;&gt;Node5</title>
<path fill="none" stroke="#63b8ff" d="M132.24,-174.47C151.83,-164.75 174.83,-153.34 192.89,-144.38"/>
<polygon fill="#63b8ff" stroke="#63b8ff" points="130.82,-171.27 123.41,-178.85 133.93,-177.54 130.82,-171.27"/>
</g>
<!-- Node3 -->
<g id="node3" class="node">
<title>Node3</title>
<g id="a_node3"><a xlink:href="render__test_8h.html" target="_top" xlink:title=" ">
<polygon fill="white" stroke="#666666" points="91.75,-20 0,-20 0,0 91.75,0 91.75,-20"/>
<text xml:space="preserve" text-anchor="middle" x="45.88" y="-6.5" font-family="Helvetica,sans-Serif" font-size="10.00">app/render_test.h</text>
</a>
</g>
</g>
<!-- Node2&#45;&gt;Node3 -->
<g id="edge2" class="edge">
<title>Node2&#45;&gt;Node3</title>
<path fill="none" stroke="#63b8ff" d="M45.88,-44.13C45.88,-35.9 45.88,-26.85 45.88,-20.3"/>
<polygon fill="#63b8ff" stroke="#63b8ff" points="42.38,-44.08 45.88,-54.08 49.38,-44.08 42.38,-44.08"/>
</g>
<!-- Node4&#45;&gt;Node2 -->
<g id="edge4" class="edge">
<title>Node4&#45;&gt;Node2</title>
<path fill="none" stroke="#63b8ff" d="M77.07,-108.6C69,-97.83 59.15,-84.7 52.71,-76.11"/>
<polygon fill="#63b8ff" stroke="#63b8ff" points="74.14,-110.51 82.94,-116.41 79.74,-106.31 74.14,-110.51"/>
</g>
</g>
</svg>
