<?xml version="1.0" encoding="UTF-8" standalone="no"?>
<!DOCTYPE svg PUBLIC "-//W3C//DTD SVG 1.1//EN"
 "http://www.w3.org/Graphics/SVG/1.1/DTD/svg11.dtd">
<!-- Generated by graphviz version 14.1.3 (20260303.0454)
 -->
<!-- Title: libs/spectre&#45;renderer/include/spectre/renderer.h Pages: 1 -->
<svg width="401pt" height="152pt"
 viewBox="0.00 0.00 401.00 152.00" xmlns="http://www.w3.org/2000/svg" xmlns:xlink="http://www.w3.org/1999/xlink">
<g id="graph0" class="graph" transform="scale(1 1) rotate(0) translate(4 148)">
<title>libs/spectre&#45;renderer/include/spectre/renderer.h</title>
<!-- Node1 -->
<g id="node1" class="node">
<title>Node1</title>
<g id="a_node1"><a xlink:title=" ">
<polygon fill="#999999" stroke="#666666" points="260.38,-144 128.88,-144 128.88,-112 260.38,-112 260.38,-144"/>
<text xml:space="preserve" text-anchor="start" x="136.88" y="-130.5" font-family="Helvetica,sans-Serif" font-size="10.00">libs/spectre&#45;renderer</text>
<text xml:space="preserve" text-anchor="middle" x="194.62" y="-118.5" font-family="Helvetica,sans-Serif" font-size="10.00">/include/spectre/renderer.h</text>
</a>
</g>
</g>
<!-- Node2 -->
<g id="node2" class="node">
<title>Node2</title>
<g id="a_node2"><a xlink:title=" ">
<polygon fill="#e0e0e0" stroke="#999999" points="51.25,-76 0,-76 0,-56 51.25,-56 51.25,-76"/>
<text xml:space="preserve" text-anchor="middle" x="25.62" y="-62.5" font-family="Helvetica,sans-Serif" font-size="10.00">memory</text>
</a>
</g>
</g>
<!-- Node1&#45;&gt;Node2 -->
<g id="edge1" class="edge">
<title>Node1&#45;&gt;Node2</title>
<path fill="none" stroke="#63b8ff" d="M151.1,-111.55C123.55,-101.77 88.32,-89.26 62.21,-79.99"/>
<polygon fill="#63b8ff" stroke="#63b8ff" points="63.65,-76.79 53.06,-76.74 61.31,-83.38 63.65,-76.79"/>
</g>
<!-- Node3 -->
<g id="node3" class="node">
<title>Node3</title>
<g id="a_node3"><a xlink:title=" ">
<polygon fill="#e0e0e0" stroke="#999999" points="119.5,-76 69.75,-76 69.75,-56 119.5,-56 119.5,-76"/>
<text xml:space="preserve" text-anchor="middle" x="94.62" y="-62.5" font-family="Helvetica,sans-Serif" font-size="10.00">optional</text>
</a>
</g>
</g>
<!-- Node1&#45;&gt;Node3 -->
<g id="edge2" class="edge">
<title>Node1&#45;&gt;Node3</title>
<path fill="none" stroke="#63b8ff" d="M168.87,-111.55C153.83,-102.52 134.92,-91.17 119.94,-82.19"/>
<polygon fill="#63b8ff" stroke="#63b8ff" points="121.98,-79.33 111.6,-77.19 118.38,-85.33 121.98,-79.33"/>
</g>
<!-- Node4 -->
<g id="node4" class="node">
<title>Node4</title>
<g id="a_node4"><a xlink:title=" ">
<polygon fill="#e0e0e0" stroke="#999999" points="174.12,-76 137.12,-76 137.12,-56 174.12,-56 174.12,-76"/>
<text xml:space="preserve" text-anchor="middle" x="155.62" y="-62.5" font-family="Helvetica,sans-Serif" font-size="10.00">span</text>
</a>
</g>
</g>
<!-- Node1&#45;&gt;Node4 -->
<g id="edge3" class="edge">
<title>Node1&#45;&gt;Node4</title>
<path fill="none" stroke="#63b8ff" d="M184.58,-111.55C179.5,-103.74 173.3,-94.19 167.93,-85.94"/>
<polygon fill="#63b8ff" stroke="#63b8ff" points="170.95,-84.15 162.57,-77.68 165.08,-87.97 170.95,-84.15"/>
</g>
<!-- Node5 -->
<g id="node5" class="node">
<title>Node5</title>
<g id="a_node5"><a xlink:href="types_8h.html" target="_top" xlink:title=" ">
<polygon fill="white" stroke="#666666" points="275.38,-76 191.88,-76 191.88,-56 275.38,-56 275.38,-76"/>
<text xml:space="preserve" text-anchor="middle" x="233.62" y="-62.5" font-family="Helvetica,sans-Serif" font-size="10.00">spectre/types.h</text>
</a>
</g>
</g>
<!-- Node1&#45;&gt;Node5 -->
<g id="edge4" class="edge">
<title>Node1&#45;&gt;Node5</title>
<path fill="none" stroke="#63b8ff" d="M204.67,-111.55C209.75,-103.74 215.95,-94.19 221.32,-85.94"/>
<polygon fill="#63b8ff" stroke="#63b8ff" points="224.17,-87.97 226.68,-77.68 218.3,-84.15 224.17,-87.97"/>
</g>
<!-- Node8 -->
<g id="node8" class="node">
<title>Node8</title>
<g id="a_node8"><a xlink:title=" ">
<polygon fill="#e0e0e0" stroke="#999999" points="332.25,-76 293,-76 293,-56 332.25,-56 332.25,-76"/>
<text xml:space="preserve" text-anchor="middle" x="312.62" y="-62.5" font-family="Helvetica,sans-Serif" font-size="10.00">utility</text>
</a>
</g>
</g>
<!-- Node1&#45;&gt;Node8 -->
<g id="edge7" class="edge">
<title>Node1&#45;&gt;Node8</title>
<path fill="none" stroke="#63b8ff" d="M225.01,-111.55C243.19,-102.3 266.16,-90.63 284.01,-81.55"/>
<polygon fill="#63b8ff" stroke="#63b8ff" points="285.45,-84.75 292.77,-77.09 282.27,-78.51 285.45,-84.75"/>
</g>
<!-- Node9 -->
<g id="node9" class="node">
<title>Node9</title>
<g id="a_node9"><a xlink:title=" ">
<polygon fill="#e0e0e0" stroke="#999999" points="393.12,-76 350.12,-76 350.12,-56 393.12,-56 393.12,-76"/>
<text xml:space="preserve" text-anchor="middle" x="371.62" y="-62.5" font-family="Helvetica,sans-Serif" font-size="10.00">vector</text>
</a>
</g>
</g>
<!-- Node1&#45;&gt;Node9 -->
<g id="edge8" class="edge">
<title>Node1&#45;&gt;Node9</title>
<path fill="none" stroke="#63b8ff" d="M240.21,-111.55C271.18,-101.05 311.4,-87.42 339.14,-78.01"/>
<polygon fill="#63b8ff" stroke="#63b8ff" points="340.06,-81.39 348.41,-74.87 337.82,-74.77 340.06,-81.39"/>
</g>
<!-- Node6 -->
<g id="node6" class="node">
<title>Node6</title>
<g id="a_node6"><a xlink:title=" ">
<polygon fill="#e0e0e0" stroke="#999999" points="222.5,-20 184.75,-20 184.75,0 222.5,0 222.5,-20"/>
<text xml:space="preserve" text-anchor="middle" x="203.62" y="-6.5" font-family="Helvetica,sans-Serif" font-size="10.00">array</text>
</a>
</g>
</g>
<!-- Node5&#45;&gt;Node6 -->
<g id="edge5" class="edge">
<title>Node5&#45;&gt;Node6</title>
<path fill="none" stroke="#63b8ff" d="M228.4,-55.59C224.53,-48.63 219.12,-38.89 214.34,-30.29"/>
<polygon fill="#63b8ff" stroke="#63b8ff" points="217.44,-28.66 209.53,-21.62 211.32,-32.06 217.44,-28.66"/>
</g>
<!-- Node7 -->
<g id="node7" class="node">
<title>Node7</title>
<g id="a_node7"><a xlink:title=" ">
<polygon fill="#e0e0e0" stroke="#999999" points="286.25,-20 241,-20 241,0 286.25,0 286.25,-20"/>
<text xml:space="preserve" text-anchor="middle" x="263.62" y="-6.5" font-family="Helvetica,sans-Serif" font-size="10.00">cstdint</text>
</a>
</g>
</g>
<!-- Node5&#45;&gt;Node7 -->
<g id="edge6" class="edge">
<title>Node5&#45;&gt;Node7</title>
<path fill="none" stroke="#63b8ff" d="M238.85,-55.59C242.72,-48.63 248.13,-38.89 252.91,-30.29"/>
<polygon fill="#63b8ff" stroke="#63b8ff" points="255.93,-32.06 257.72,-21.62 249.81,-28.66 255.93,-32.06"/>
</g>
</g>
</svg>
