<?xml version="1.0" encoding="UTF-8" standalone="no"?>
<!DOCTYPE svg PUBLIC "-//W3C//DTD SVG 1.1//EN"
 "http://www.w3.org/Graphics/SVG/1.1/DTD/svg11.dtd">
<!-- Generated by graphviz version 14.1.3 (20260303.0454)
 -->
<!-- Title: libs/spectre&#45;renderer/include/spectre/renderer.h Pages: 1 -->
<svg width="405pt" height="232pt"
 viewBox="0.00 0.00 405.00 232.00" xmlns="http://www.w3.org/2000/svg" xmlns:xlink="http://www.w3.org/1999/xlink">
<g id="graph0" class="graph" transform="scale(1 1) rotate(0) translate(4 228)">
<title>libs/spectre&#45;renderer/include/spectre/renderer.h</title>
<!-- Node1 -->
<g id="node1" class="node">
<title>Node1</title>
<g id="a_node1"><a xlink:title=" ">
<polygon fill="#999999" stroke="#666666" points="241.62,-224 110.12,-224 110.12,-192 241.62,-192 241.62,-224"/>
<text xml:space="preserve" text-anchor="start" x="118.12" y="-210.5" font-family="Helvetica,sans-Serif" font-size="10.00">libs/spectre&#45;renderer</text>
<text xml:space="preserve" text-anchor="middle" x="175.88" y="-198.5" font-family="Helvetica,sans-Serif" font-size="10.00">/include/spectre/renderer.h</text>
</a>
</g>
</g>
<!-- Node2 -->
<g id="node2" class="node">
<title>Node2</title>
<g id="a_node2"><a xlink:href="app_8h.html" target="_top" xlink:title=" ">
<polygon fill="white" stroke="#666666" points="75.25,-82 16.5,-82 16.5,-62 75.25,-62 75.25,-82"/>
<text xml:space="preserve" text-anchor="middle" x="45.88" y="-68.5" font-family="Helvetica,sans-Serif" font-size="10.00">app/app.h</text>
</a>
</g>
</g>
<!-- Node1&#45;&gt;Node2 -->
<g id="edge1" class="edge">
<title>Node1&#45;&gt;Node2</title>
<path fill="none" stroke="#63b8ff" d="M98.8,-194.41C77.13,-186.93 55.94,-175 42.88,-156 27.44,-133.54 36.43,-99.01 42.19,-82.47"/>
<polygon fill="#63b8ff" stroke="#63b8ff" points="97.75,-197.75 108.34,-197.39 99.83,-191.07 97.75,-197.75"/>
</g>
<!-- Node4 -->
<g id="node4" class="node">
<title>Node4</title>
<g id="a_node4"><a xlink:href="grid__rendering__pipeline_8h.html" target="_top" xlink:title=" ">
<polygon fill="white" stroke="#666666" points="147.62,-156 52.12,-156 52.12,-124 147.62,-124 147.62,-156"/>
<text xml:space="preserve" text-anchor="start" x="60.12" y="-142.5" font-family="Helvetica,sans-Serif" font-size="10.00">app/grid_rendering</text>
<text xml:space="preserve" text-anchor="middle" x="99.88" y="-130.5" font-family="Helvetica,sans-Serif" font-size="10.00">_pipeline.h</text>
</a>
</g>
</g>
<!-- Node1&#45;&gt;Node4 -->
<g id="edge3" class="edge">
<title>Node1&#45;&gt;Node4</title>
<path fill="none" stroke="#63b8ff" d="M149.76,-184.32C139.18,-175.13 127.22,-164.75 117.67,-156.45"/>
<polygon fill="#63b8ff" stroke="#63b8ff" points="147.26,-186.79 157.11,-190.7 151.85,-181.5 147.26,-186.79"/>
</g>
<!-- Node5 -->
<g id="node5" class="node">
<title>Node5</title>
<g id="a_node5"><a xlink:href="metal__renderer_8h.html" target="_top" xlink:title=" ">
<polygon fill="white" stroke="#666666" points="246.5,-88 111.25,-88 111.25,-56 246.5,-56 246.5,-88"/>
<text xml:space="preserve" text-anchor="start" x="119.25" y="-74.5" font-family="Helvetica,sans-Serif" font-size="10.00">libs/spectre&#45;renderer</text>
<text xml:space="preserve" text-anchor="middle" x="178.88" y="-62.5" font-family="Helvetica,sans-Serif" font-size="10.00">/src/metal/metal_renderer.h</text>
</a>
</g>
</g>
<!-- Node1&#45;&gt;Node5 -->
<g id="edge5" class="edge">
<title>Node1&#45;&gt;Node5</title>
<path fill="none" stroke="#63b8ff" d="M176.47,-180.45C177.09,-152.84 178.03,-110.6 178.53,-88.19"/>
<polygon fill="#63b8ff" stroke="#63b8ff" points="172.98,-180.04 176.25,-190.12 179.98,-180.2 172.98,-180.04"/>
</g>
<!-- Node6 -->
<g id="node6" class="node">
<title>Node6</title>
<g id="a_node6"><a xlink:href="renderer__state_8h.html" target="_top" xlink:title=" ">
<polygon fill="white" stroke="#666666" points="309.88,-156 203.88,-156 203.88,-124 309.88,-124 309.88,-156"/>
<text xml:space="preserve" text-anchor="start" x="211.88" y="-142.5" font-family="Helvetica,sans-Serif" font-size="10.00">libs/spectre&#45;renderer</text>
<text xml:space="preserve" text-anchor="middle" x="256.88" y="-130.5" font-family="Helvetica,sans-Serif" font-size="10.00">/src/renderer_state.h</text>
</a>
</g>
</g>
<!-- Node1&#45;&gt;Node6 -->
<g id="edge6" class="edge">
<title>Node1&#45;&gt;Node6</title>
<path fill="none" stroke="#63b8ff" d="M203.37,-184.6C214.73,-175.34 227.63,-164.83 237.91,-156.45"/>
<polygon fill="#63b8ff" stroke="#63b8ff" points="201.38,-181.71 195.83,-190.74 205.8,-187.13 201.38,-181.71"/>
</g>
<!-- Node7 -->
<g id="node7" class="node">
<title>Node7</title>
<g id="a_node7"><a xlink:href="vk__renderer_8h.html" target="_top" xlink:title=" ">
<polygon fill="white" stroke="#666666" points="397,-88 270.75,-88 270.75,-56 397,-56 397,-88"/>
<text xml:space="preserve" text-anchor="start" x="278.75" y="-74.5" font-family="Helvetica,sans-Serif" font-size="10.00">libs/spectre&#45;renderer</text>
<text xml:space="preserve" text-anchor="middle" x="333.88" y="-62.5" font-family="Helvetica,sans-Serif" font-size="10.00">/src/vulkan/vk_renderer.h</text>
</a>
</g>
</g>
<!-- Node1&#45;&gt;Node7 -->
<g id="edge9" class="edge">
<title>Node1&#45;&gt;Node7</title>
<path fill="none" stroke="#63b8ff" d="M252.63,-195.31C277.07,-187.9 302.09,-175.79 318.88,-156 334.98,-137.02 336.31,-106.64 335.39,-88.38"/>
<polygon fill="#63b8ff" stroke="#63b8ff" points="252.01,-191.85 243.31,-197.89 253.88,-198.59 252.01,-191.85"/>
</g>
<!-- Node3 -->
<g id="node3" class="node">
<title>Node3</title>
<g id="a_node3"><a xlink:href="render__test_8h.html" target="_top" xlink:title=" ">
<polygon fill="white" stroke="#666666" points="91.75,-20 0,-20 0,0 91.75,0 91.75,-20"/>
<text xml:space="preserve" text-anchor="middle" x="45.88" y="-6.5" font-family="Helvetica,sans-Serif" font-size="10.00">app/render_test.h</text>
</a>
</g>
</g>
<!-- Node2&#45;&gt;Node3 -->
<g id="edge2" class="edge">
<title>Node2&#45;&gt;Node3</title>
<path fill="none" stroke="#63b8ff" d="M45.88,-50.25C45.88,-39.97 45.88,-28.09 45.88,-20.11"/>
<polygon fill="#63b8ff" stroke="#63b8ff" points="42.38,-50.11 45.88,-60.11 49.38,-50.11 42.38,-50.11"/>
</g>
<!-- Node4&#45;&gt;Node2 -->
<g id="edge4" class="edge">
<title>Node4&#45;&gt;Node2</title>
<path fill="none" stroke="#63b8ff" d="M80.27,-115.04C70.98,-103.69 60.44,-90.8 53.5,-82.32"/>
<polygon fill="#63b8ff" stroke="#63b8ff" points="77.35,-117 86.39,-122.52 82.77,-112.57 77.35,-117"/>
</g>
<!-- Node6&#45;&gt;Node5 -->
<g id="edge7" class="edge">
<title>Node6&#45;&gt;Node5</title>
<path fill="none" stroke="#63b8ff" d="M230.07,-116.32C219.21,-107.13 206.94,-96.75 197.14,-88.45"/>
<polygon fill="#63b8ff" stroke="#63b8ff" points="227.73,-118.93 237.63,-122.71 232.26,-113.58 227.73,-118.93"/>
</g>
<!-- Node6&#45;&gt;Node7 -->
<g id="edge8" class="edge">
<title>Node6&#45;&gt;Node7</title>
<path fill="none" stroke="#63b8ff" d="M283.33,-116.32C294.06,-107.13 306.17,-96.75 315.85,-88.45"/>
<polygon fill="#63b8ff" stroke="#63b8ff" points="281.2,-113.54 275.88,-122.71 285.75,-118.86 281.2,-113.54"/>
</g>
</g>
</svg>
