<?xml version="1.0" encoding="UTF-8" standalone="no"?>
<!DOCTYPE svg PUBLIC "-//W3C//DTD SVG 1.1//EN"
 "http://www.w3.org/Graphics/SVG/1.1/DTD/svg11.dtd">
<!-- Generated by graphviz version 14.1.3 (20260303.0454)
 -->
<!-- Title: libs/spectre&#45;renderer/src/renderer_state.h Pages: 1 -->
<svg width="288pt" height="108pt"
 viewBox="0.00 0.00 288.00 108.00" xmlns="http://www.w3.org/2000/svg" xmlns:xlink="http://www.w3.org/1999/xlink">
<g id="graph0" class="graph" transform="scale(1 1) rotate(0) translate(4 104)">
<title>libs/spectre&#45;renderer/src/renderer_state.h</title>
<!-- Node1 -->
<g id="node1" class="node">
<title>Node1</title>
<g id="a_node1"><a xlink:title=" ">
<polygon fill="#999999" stroke="#666666" points="194.62,-100 88.62,-100 88.62,-68 194.62,-68 194.62,-100"/>
<text xml:space="preserve" text-anchor="start" x="96.62" y="-86.5" font-family="Helvetica,sans-Serif" font-size="10.00">libs/spectre&#45;renderer</text>
<text xml:space="preserve" text-anchor="middle" x="141.62" y="-74.5" font-family="Helvetica,sans-Serif" font-size="10.00">/src/renderer_state.h</text>
</a>
</g>
</g>
<!-- Node2 -->
<g id="node2" class="node">
<title>Node2</title>
<g id="a_node2"><a xlink:href="metal__renderer_8h.html" target="_top" xlink:title=" ">
<polygon fill="white" stroke="#666666" points="135.25,-32 0,-32 0,0 135.25,0 135.25,-32"/>
<text xml:space="preserve" text-anchor="start" x="8" y="-18.5" font-family="Helvetica,sans-Serif" font-size="10.00">libs/spectre&#45;renderer</text>
<text xml:space="preserve" text-anchor="middle" x="67.62" y="-6.5" font-family="Helvetica,sans-Serif" font-size="10.00">/src/metal/metal_renderer.h</text>
</a>
</g>
</g>
<!-- Node1&#45;&gt;Node2 -->
<g id="edge1" class="edge">
<title>Node1&#45;&gt;Node2</title>
<path fill="none" stroke="#63b8ff" d="M115.89,-60.05C105.66,-50.92 94.16,-40.67 84.95,-32.45"/>
<polygon fill="#63b8ff" stroke="#63b8ff" points="113.54,-62.64 123.33,-66.68 118.2,-57.42 113.54,-62.64"/>
</g>
<!-- Node3 -->
<g id="node3" class="node">
<title>Node3</title>
<g id="a_node3"><a xlink:href="vk__renderer_8h.html" target="_top" xlink:title=" ">
<polygon fill="white" stroke="#666666" points="279.75,-32 153.5,-32 153.5,0 279.75,0 279.75,-32"/>
<text xml:space="preserve" text-anchor="start" x="161.5" y="-18.5" font-family="Helvetica,sans-Serif" font-size="10.00">libs/spectre&#45;renderer</text>
<text xml:space="preserve" text-anchor="middle" x="216.62" y="-6.5" font-family="Helvetica,sans-Serif" font-size="10.00">/src/vulkan/vk_renderer.h</text>
</a>
</g>
</g>
<!-- Node1&#45;&gt;Node3 -->
<g id="edge2" class="edge">
<title>Node1&#45;&gt;Node3</title>
<path fill="none" stroke="#63b8ff" d="M167.4,-60.32C177.84,-51.13 189.64,-40.75 199.06,-32.45"/>
<polygon fill="#63b8ff" stroke="#63b8ff" points="165.35,-57.46 160.16,-66.69 169.98,-62.71 165.35,-57.46"/>
</g>
</g>
</svg>
