<?xml version="1.0" encoding="UTF-8" standalone="no"?>
<!DOCTYPE svg PUBLIC "-//W3C//DTD SVG 1.1//EN"
 "http://www.w3.org/Graphics/SVG/1.1/DTD/svg11.dtd">
<!-- Generated by graphviz version 14.1.3 (20260303.0454)
 -->
<!-- Title: libs/spectre&#45;renderer/src/renderer_state.h Pages: 1 -->
<svg width="401pt" height="208pt"
 viewBox="0.00 0.00 401.00 208.00" xmlns="http://www.w3.org/2000/svg" xmlns:xlink="http://www.w3.org/1999/xlink">
<g id="graph0" class="graph" transform="scale(1 1) rotate(0) translate(4 204)">
<title>libs/spectre&#45;renderer/src/renderer_state.h</title>
<!-- Node1 -->
<g id="node1" class="node">
<title>Node1</title>
<g id="a_node1"><a xlink:title=" ">
<polygon fill="#999999" stroke="#666666" points="323.62,-200 217.62,-200 217.62,-168 323.62,-168 323.62,-200"/>
<text xml:space="preserve" text-anchor="start" x="225.62" y="-186.5" font-family="Helvetica,sans-Serif" font-size="10.00">libs/spectre&#45;renderer</text>
<text xml:space="preserve" text-anchor="middle" x="270.62" y="-174.5" font-family="Helvetica,sans-Serif" font-size="10.00">/src/renderer_state.h</text>
</a>
</g>
</g>
<!-- Node2 -->
<g id="node2" class="node">
<title>Node2</title>
<g id="a_node2"><a xlink:href="renderer_8h.html" target="_top" xlink:title=" ">
<polygon fill="white" stroke="#666666" points="281,-132 186.25,-132 186.25,-112 281,-112 281,-132"/>
<text xml:space="preserve" text-anchor="middle" x="233.62" y="-118.5" font-family="Helvetica,sans-Serif" font-size="10.00">spectre/renderer.h</text>
</a>
</g>
</g>
<!-- Node1&#45;&gt;Node2 -->
<g id="edge1" class="edge">
<title>Node1&#45;&gt;Node2</title>
<path fill="none" stroke="#63b8ff" d="M261.1,-167.55C256.28,-159.74 250.39,-150.19 245.3,-141.94"/>
<polygon fill="#63b8ff" stroke="#63b8ff" points="248.45,-140.37 240.22,-133.7 242.49,-144.05 248.45,-140.37"/>
</g>
<!-- Node10 -->
<g id="node10" class="node">
<title>Node10</title>
<g id="a_node10"><a xlink:title=" ">
<polygon fill="#e0e0e0" stroke="#999999" points="393.12,-76 350.12,-76 350.12,-56 393.12,-56 393.12,-76"/>
<text xml:space="preserve" text-anchor="middle" x="371.62" y="-62.5" font-family="Helvetica,sans-Serif" font-size="10.00">vector</text>
</a>
</g>
</g>
<!-- Node1&#45;&gt;Node10 -->
<g id="edge10" class="edge">
<title>Node1&#45;&gt;Node10</title>
<path fill="none" stroke="#63b8ff" d="M283.83,-167.84C302.44,-146.46 336.32,-107.55 356.11,-84.82"/>
<polygon fill="#63b8ff" stroke="#63b8ff" points="358.49,-87.42 362.41,-77.58 353.21,-82.82 358.49,-87.42"/>
</g>
<!-- Node3 -->
<g id="node3" class="node">
<title>Node3</title>
<g id="a_node3"><a xlink:title=" ">
<polygon fill="#e0e0e0" stroke="#999999" points="51.25,-76 0,-76 0,-56 51.25,-56 51.25,-76"/>
<text xml:space="preserve" text-anchor="middle" x="25.62" y="-62.5" font-family="Helvetica,sans-Serif" font-size="10.00">memory</text>
</a>
</g>
</g>
<!-- Node2&#45;&gt;Node3 -->
<g id="edge2" class="edge">
<title>Node2&#45;&gt;Node3</title>
<path fill="none" stroke="#63b8ff" d="M197.39,-111.59C159.63,-101.79 100.76,-86.51 62.69,-76.62"/>
<polygon fill="#63b8ff" stroke="#63b8ff" points="63.61,-73.25 53.05,-74.12 61.85,-80.02 63.61,-73.25"/>
</g>
<!-- Node4 -->
<g id="node4" class="node">
<title>Node4</title>
<g id="a_node4"><a xlink:title=" ">
<polygon fill="#e0e0e0" stroke="#999999" points="119.5,-76 69.75,-76 69.75,-56 119.5,-56 119.5,-76"/>
<text xml:space="preserve" text-anchor="middle" x="94.62" y="-62.5" font-family="Helvetica,sans-Serif" font-size="10.00">optional</text>
</a>
</g>
</g>
<!-- Node2&#45;&gt;Node4 -->
<g id="edge3" class="edge">
<title>Node2&#45;&gt;Node4</title>
<path fill="none" stroke="#63b8ff" d="M209.41,-111.59C187.32,-103.01 154.43,-90.23 129.5,-80.55"/>
<polygon fill="#63b8ff" stroke="#63b8ff" points="131.03,-77.39 120.44,-77.03 128.49,-83.91 131.03,-77.39"/>
</g>
<!-- Node5 -->
<g id="node5" class="node">
<title>Node5</title>
<g id="a_node5"><a xlink:title=" ">
<polygon fill="#e0e0e0" stroke="#999999" points="174.12,-76 137.12,-76 137.12,-56 174.12,-56 174.12,-76"/>
<text xml:space="preserve" text-anchor="middle" x="155.62" y="-62.5" font-family="Helvetica,sans-Serif" font-size="10.00">span</text>
</a>
</g>
</g>
<!-- Node2&#45;&gt;Node5 -->
<g id="edge4" class="edge">
<title>Node2&#45;&gt;Node5</title>
<path fill="none" stroke="#63b8ff" d="M220.04,-111.59C208.59,-103.67 191.96,-92.16 178.47,-82.82"/>
<polygon fill="#63b8ff" stroke="#63b8ff" points="180.78,-80.16 170.56,-77.34 176.79,-85.91 180.78,-80.16"/>
</g>
<!-- Node6 -->
<g id="node6" class="node">
<title>Node6</title>
<g id="a_node6"><a xlink:href="types_8h.html" target="_top" xlink:title=" ">
<polygon fill="white" stroke="#666666" points="275.38,-76 191.88,-76 191.88,-56 275.38,-56 275.38,-76"/>
<text xml:space="preserve" text-anchor="middle" x="233.62" y="-62.5" font-family="Helvetica,sans-Serif" font-size="10.00">spectre/types.h</text>
</a>
</g>
</g>
<!-- Node2&#45;&gt;Node6 -->
<g id="edge5" class="edge">
<title>Node2&#45;&gt;Node6</title>
<path fill="none" stroke="#63b8ff" d="M233.62,-111.59C233.62,-105.01 233.62,-95.96 233.62,-87.73"/>
<polygon fill="#63b8ff" stroke="#63b8ff" points="237.13,-87.81 233.63,-77.81 230.13,-87.81 237.13,-87.81"/>
</g>
<!-- Node9 -->
<g id="node9" class="node">
<title>Node9</title>
<g id="a_node9"><a xlink:title=" ">
<polygon fill="#e0e0e0" stroke="#999999" points="332.25,-76 293,-76 293,-56 332.25,-56 332.25,-76"/>
<text xml:space="preserve" text-anchor="middle" x="312.62" y="-62.5" font-family="Helvetica,sans-Serif" font-size="10.00">utility</text>
</a>
</g>
</g>
<!-- Node2&#45;&gt;Node9 -->
<g id="edge8" class="edge">
<title>Node2&#45;&gt;Node9</title>
<path fill="none" stroke="#63b8ff" d="M247.39,-111.59C258.98,-103.67 275.82,-92.16 289.49,-82.82"/>
<polygon fill="#63b8ff" stroke="#63b8ff" points="291.23,-85.87 297.51,-77.33 287.28,-80.09 291.23,-85.87"/>
</g>
<!-- Node2&#45;&gt;Node10 -->
<g id="edge9" class="edge">
<title>Node2&#45;&gt;Node10</title>
<path fill="none" stroke="#63b8ff" d="M257.66,-111.59C280.26,-102.75 314.27,-89.44 339.25,-79.67"/>
<polygon fill="#63b8ff" stroke="#63b8ff" points="340.24,-83.04 348.27,-76.14 337.68,-76.52 340.24,-83.04"/>
</g>
<!-- Node7 -->
<g id="node7" class="node">
<title>Node7</title>
<g id="a_node7"><a xlink:title=" ">
<polygon fill="#e0e0e0" stroke="#999999" points="222.5,-20 184.75,-20 184.75,0 222.5,0 222.5,-20"/>
<text xml:space="preserve" text-anchor="middle" x="203.62" y="-6.5" font-family="Helvetica,sans-Serif" font-size="10.00">array</text>
</a>
</g>
</g>
<!-- Node6&#45;&gt;Node7 -->
<g id="edge6" class="edge">
<title>Node6&#45;&gt;Node7</title>
<path fill="none" stroke="#63b8ff" d="M228.4,-55.59C224.53,-48.63 219.12,-38.89 214.34,-30.29"/>
<polygon fill="#63b8ff" stroke="#63b8ff" points="217.44,-28.66 209.53,-21.62 211.32,-32.06 217.44,-28.66"/>
</g>
<!-- Node8 -->
<g id="node8" class="node">
<title>Node8</title>
<g id="a_node8"><a xlink:title=" ">
<polygon fill="#e0e0e0" stroke="#999999" points="286.25,-20 241,-20 241,0 286.25,0 286.25,-20"/>
<text xml:space="preserve" text-anchor="middle" x="263.62" y="-6.5" font-family="Helvetica,sans-Serif" font-size="10.00">cstdint</text>
</a>
</g>
</g>
<!-- Node6&#45;&gt;Node8 -->
<g id="edge7" class="edge">
<title>Node6&#45;&gt;Node8</title>
<path fill="none" stroke="#63b8ff" d="M238.85,-55.59C242.72,-48.63 248.13,-38.89 252.91,-30.29"/>
<polygon fill="#63b8ff" stroke="#63b8ff" points="255.93,-32.06 257.72,-21.62 249.81,-28.66 255.93,-32.06"/>
</g>
</g>
</svg>
