<?xml version="1.0" encoding="UTF-8" standalone="no"?>
<!DOCTYPE svg PUBLIC "-//W3C//DTD SVG 1.1//EN"
 "http://www.w3.org/Graphics/SVG/1.1/DTD/svg11.dtd">
<!-- Generated by graphviz version 14.1.3 (20260303.0454)
 -->
<!-- Title: libs/spectre&#45;window/include/spectre/sdl_window.h Pages: 1 -->
<svg width="288pt" height="220pt"
 viewBox="0.00 0.00 288.00 220.00" xmlns="http://www.w3.org/2000/svg" xmlns:xlink="http://www.w3.org/1999/xlink">
<g id="graph0" class="graph" transform="scale(1 1) rotate(0) translate(4 216)">
<title>libs/spectre&#45;window/include/spectre/sdl_window.h</title>
<!-- Node1 -->
<g id="node1" class="node">
<title>Node1</title>
<g id="a_node1"><a xlink:title=" ">
<polygon fill="#999999" stroke="#666666" points="162.12,-212 59.88,-212 59.88,-168 162.12,-168 162.12,-212"/>
<text xml:space="preserve" text-anchor="start" x="67.88" y="-198.5" font-family="Helvetica,sans-Serif" font-size="10.00">libs/spectre&#45;window</text>
<text xml:space="preserve" text-anchor="start" x="67.88" y="-186.5" font-family="Helvetica,sans-Serif" font-size="10.00">/include/spectre/sdl</text>
<text xml:space="preserve" text-anchor="middle" x="111" y="-174.5" font-family="Helvetica,sans-Serif" font-size="10.00">_window.h</text>
</a>
</g>
</g>
<!-- Node2 -->
<g id="node2" class="node">
<title>Node2</title>
<g id="a_node2"><a xlink:title=" ">
<polygon fill="#e0e0e0" stroke="#999999" points="96.75,-132 25.25,-132 25.25,-112 96.75,-112 96.75,-132"/>
<text xml:space="preserve" text-anchor="middle" x="61" y="-118.5" font-family="Helvetica,sans-Serif" font-size="10.00">SDL3/SDL.h</text>
</a>
</g>
</g>
<!-- Node1&#45;&gt;Node2 -->
<g id="edge1" class="edge">
<title>Node1&#45;&gt;Node2</title>
<path fill="none" stroke="#63b8ff" d="M94.9,-167.75C88.49,-159.29 81.18,-149.64 74.99,-141.47"/>
<polygon fill="#63b8ff" stroke="#63b8ff" points="77.88,-139.48 69.05,-133.63 72.3,-143.71 77.88,-139.48"/>
</g>
<!-- Node3 -->
<g id="node3" class="node">
<title>Node3</title>
<g id="a_node3"><a xlink:href="window_8h.html" target="_top" xlink:title=" ">
<polygon fill="white" stroke="#666666" points="206.88,-132 115.12,-132 115.12,-112 206.88,-112 206.88,-132"/>
<text xml:space="preserve" text-anchor="middle" x="161" y="-118.5" font-family="Helvetica,sans-Serif" font-size="10.00">spectre/window.h</text>
</a>
</g>
</g>
<!-- Node1&#45;&gt;Node3 -->
<g id="edge2" class="edge">
<title>Node1&#45;&gt;Node3</title>
<path fill="none" stroke="#63b8ff" d="M127.1,-167.75C133.51,-159.29 140.82,-149.64 147.01,-141.47"/>
<polygon fill="#63b8ff" stroke="#63b8ff" points="149.7,-143.71 152.95,-133.63 144.12,-139.48 149.7,-143.71"/>
</g>
<!-- Node4 -->
<g id="node4" class="node">
<title>Node4</title>
<g id="a_node4"><a xlink:title=" ">
<polygon fill="#e0e0e0" stroke="#999999" points="58,-76 0,-76 0,-56 58,-56 58,-76"/>
<text xml:space="preserve" text-anchor="middle" x="29" y="-62.5" font-family="Helvetica,sans-Serif" font-size="10.00">functional</text>
</a>
</g>
</g>
<!-- Node3&#45;&gt;Node4 -->
<g id="edge3" class="edge">
<title>Node3&#45;&gt;Node4</title>
<path fill="none" stroke="#63b8ff" d="M138.01,-111.59C117.22,-103.09 86.35,-90.46 62.76,-80.81"/>
<polygon fill="#63b8ff" stroke="#63b8ff" points="64.15,-77.6 53.57,-77.05 61.5,-84.08 64.15,-77.6"/>
</g>
<!-- Node5 -->
<g id="node5" class="node">
<title>Node5</title>
<g id="a_node5"><a xlink:href="events_8h.html" target="_top" xlink:title=" ">
<polygon fill="white" stroke="#666666" points="164.38,-76 75.62,-76 75.62,-56 164.38,-56 164.38,-76"/>
<text xml:space="preserve" text-anchor="middle" x="120" y="-62.5" font-family="Helvetica,sans-Serif" font-size="10.00">spectre/events.h</text>
</a>
</g>
</g>
<!-- Node3&#45;&gt;Node5 -->
<g id="edge4" class="edge">
<title>Node3&#45;&gt;Node5</title>
<path fill="none" stroke="#63b8ff" d="M153.86,-111.59C148.39,-104.39 140.68,-94.23 133.99,-85.43"/>
<polygon fill="#63b8ff" stroke="#63b8ff" points="136.81,-83.35 127.98,-77.5 131.23,-87.58 136.81,-83.35"/>
</g>
<!-- Node7 -->
<g id="node7" class="node">
<title>Node7</title>
<g id="a_node7"><a xlink:title=" ">
<polygon fill="#e0e0e0" stroke="#999999" points="222,-76 182,-76 182,-56 222,-56 222,-76"/>
<text xml:space="preserve" text-anchor="middle" x="202" y="-62.5" font-family="Helvetica,sans-Serif" font-size="10.00">string</text>
</a>
</g>
</g>
<!-- Node3&#45;&gt;Node7 -->
<g id="edge6" class="edge">
<title>Node3&#45;&gt;Node7</title>
<path fill="none" stroke="#63b8ff" d="M168.14,-111.59C173.61,-104.39 181.32,-94.23 188.01,-85.43"/>
<polygon fill="#63b8ff" stroke="#63b8ff" points="190.77,-87.58 194.02,-77.5 185.19,-83.35 190.77,-87.58"/>
</g>
<!-- Node8 -->
<g id="node8" class="node">
<title>Node8</title>
<g id="a_node8"><a xlink:title=" ">
<polygon fill="#e0e0e0" stroke="#999999" points="279.62,-76 240.38,-76 240.38,-56 279.62,-56 279.62,-76"/>
<text xml:space="preserve" text-anchor="middle" x="260" y="-62.5" font-family="Helvetica,sans-Serif" font-size="10.00">utility</text>
</a>
</g>
</g>
<!-- Node3&#45;&gt;Node8 -->
<g id="edge7" class="edge">
<title>Node3&#45;&gt;Node8</title>
<path fill="none" stroke="#63b8ff" d="M178.24,-111.59C193.34,-103.36 215.53,-91.26 232.98,-81.74"/>
<polygon fill="#63b8ff" stroke="#63b8ff" points="234.19,-85.07 241.29,-77.2 230.84,-78.92 234.19,-85.07"/>
</g>
<!-- Node6 -->
<g id="node6" class="node">
<title>Node6</title>
<g id="a_node6"><a xlink:title=" ">
<polygon fill="#e0e0e0" stroke="#999999" points="142.62,-20 97.38,-20 97.38,0 142.62,0 142.62,-20"/>
<text xml:space="preserve" text-anchor="middle" x="120" y="-6.5" font-family="Helvetica,sans-Serif" font-size="10.00">cstdint</text>
</a>
</g>
</g>
<!-- Node5&#45;&gt;Node6 -->
<g id="edge5" class="edge">
<title>Node5&#45;&gt;Node6</title>
<path fill="none" stroke="#63b8ff" d="M120,-55.59C120,-49.01 120,-39.96 120,-31.73"/>
<polygon fill="#63b8ff" stroke="#63b8ff" points="123.5,-31.81 120,-21.81 116.5,-31.81 123.5,-31.81"/>
</g>
</g>
</svg>
