<?xml version="1.0" encoding="UTF-8" standalone="no"?>
<!DOCTYPE svg PUBLIC "-//W3C//DTD SVG 1.1//EN"
 "http://www.w3.org/Graphics/SVG/1.1/DTD/svg11.dtd">
<!-- Generated by graphviz version 14.1.3 (20260303.0454)
 -->
<!-- Title: libs/spectre&#45;window/include/spectre/sdl_window.h Pages: 1 -->
<svg width="110pt" height="164pt"
 viewBox="0.00 0.00 110.00 164.00" xmlns="http://www.w3.org/2000/svg" xmlns:xlink="http://www.w3.org/1999/xlink">
<g id="graph0" class="graph" transform="scale(1 1) rotate(0) translate(4 160)">
<title>libs/spectre&#45;window/include/spectre/sdl_window.h</title>
<!-- Node1 -->
<g id="node1" class="node">
<title>Node1</title>
<g id="a_node1"><a xlink:title=" ">
<polygon fill="#999999" stroke="#666666" points="102.25,-156 0,-156 0,-112 102.25,-112 102.25,-156"/>
<text xml:space="preserve" text-anchor="start" x="8" y="-142.5" font-family="Helvetica,sans-Serif" font-size="10.00">libs/spectre&#45;window</text>
<text xml:space="preserve" text-anchor="start" x="8" y="-130.5" font-family="Helvetica,sans-Serif" font-size="10.00">/include/spectre/sdl</text>
<text xml:space="preserve" text-anchor="middle" x="51.12" y="-118.5" font-family="Helvetica,sans-Serif" font-size="10.00">_window.h</text>
</a>
</g>
</g>
<!-- Node2 -->
<g id="node2" class="node">
<title>Node2</title>
<g id="a_node2"><a xlink:href="app_8h.html" target="_top" xlink:title=" ">
<polygon fill="white" stroke="#666666" points="80.5,-76 21.75,-76 21.75,-56 80.5,-56 80.5,-76"/>
<text xml:space="preserve" text-anchor="middle" x="51.12" y="-62.5" font-family="Helvetica,sans-Serif" font-size="10.00">app/app.h</text>
</a>
</g>
</g>
<!-- Node1&#45;&gt;Node2 -->
<g id="edge1" class="edge">
<title>Node1&#45;&gt;Node2</title>
<path fill="none" stroke="#63b8ff" d="M51.12,-100.43C51.12,-91.63 51.12,-82.8 51.12,-76.42"/>
<polygon fill="#63b8ff" stroke="#63b8ff" points="47.63,-100.24 51.13,-110.24 54.63,-100.24 47.63,-100.24"/>
</g>
<!-- Node3 -->
<g id="node3" class="node">
<title>Node3</title>
<g id="a_node3"><a xlink:href="render__test_8h.html" target="_top" xlink:title=" ">
<polygon fill="white" stroke="#666666" points="97,-20 5.25,-20 5.25,0 97,0 97,-20"/>
<text xml:space="preserve" text-anchor="middle" x="51.12" y="-6.5" font-family="Helvetica,sans-Serif" font-size="10.00">app/render_test.h</text>
</a>
</g>
</g>
<!-- Node2&#45;&gt;Node3 -->
<g id="edge2" class="edge">
<title>Node2&#45;&gt;Node3</title>
<path fill="none" stroke="#63b8ff" d="M51.12,-44.13C51.12,-35.9 51.12,-26.85 51.12,-20.3"/>
<polygon fill="#63b8ff" stroke="#63b8ff" points="47.63,-44.08 51.13,-54.08 54.63,-44.08 47.63,-44.08"/>
</g>
</g>
</svg>
