<?xml version="1.0" encoding="UTF-8" standalone="no"?>
<!DOCTYPE svg PUBLIC "-//W3C//DTD SVG 1.1//EN"
 "http://www.w3.org/Graphics/SVG/1.1/DTD/svg11.dtd">
<!-- Generated by graphviz version 14.1.3 (20260303.0454)
 -->
<!-- Title: spectre::RpcResult::ok Pages: 1 -->
<svg width="406pt" height="40pt"
 viewBox="0.00 0.00 406.00 40.00" xmlns="http://www.w3.org/2000/svg" xmlns:xlink="http://www.w3.org/1999/xlink">
<g id="graph0" class="graph" transform="scale(1 1) rotate(0) translate(4 36)">
<title>spectre::RpcResult::ok</title>
<!-- Node1 -->
<g id="node1" class="node">
<title>Node1</title>
<g id="a_node1"><a xlink:title=" ">
<polygon fill="#999999" stroke="#666666" points="117.25,-26 0,-26 0,-6 117.25,-6 117.25,-26"/>
<text xml:space="preserve" text-anchor="middle" x="58.62" y="-12.5" font-family="Helvetica,sans-Serif" font-size="10.00">spectre::RpcResult::ok</text>
</a>
</g>
</g>
<!-- Node2 -->
<g id="node2" class="node">
<title>Node2</title>
<g id="a_node2"><a xlink:href="structspectre_1_1_rpc_result.html#a58d2fb8e30b7a0f80cd95bb5ace59d3f" target="_top" xlink:title=" ">
<polygon fill="white" stroke="#666666" points="254,-32 153.25,-32 153.25,0 254,0 254,-32"/>
<text xml:space="preserve" text-anchor="start" x="161.25" y="-18.5" font-family="Helvetica,sans-Serif" font-size="10.00">spectre::RpcResult</text>
<text xml:space="preserve" text-anchor="middle" x="203.62" y="-6.5" font-family="Helvetica,sans-Serif" font-size="10.00">::is_error</text>
</a>
</g>
</g>
<!-- Node1&#45;&gt;Node2 -->
<g id="edge1" class="edge">
<title>Node1&#45;&gt;Node2</title>
<path fill="none" stroke="#63b8ff" d="M117.38,-16C125.29,-16 133.44,-16 141.42,-16"/>
<polygon fill="#63b8ff" stroke="#63b8ff" points="141.42,-19.5 151.42,-16 141.42,-12.5 141.42,-19.5"/>
</g>
<!-- Node3 -->
<g id="node3" class="node">
<title>Node3</title>
<g id="a_node3"><a xlink:href="structspectre_1_1_mpack_value.html#a1621f3b0341921716addbcd477211a4a" target="_top" xlink:title=" ">
<polygon fill="white" stroke="#666666" points="397.5,-32 290,-32 290,0 397.5,0 397.5,-32"/>
<text xml:space="preserve" text-anchor="start" x="298" y="-18.5" font-family="Helvetica,sans-Serif" font-size="10.00">spectre::MpackValue</text>
<text xml:space="preserve" text-anchor="middle" x="343.75" y="-6.5" font-family="Helvetica,sans-Serif" font-size="10.00">::is_nil</text>
</a>
</g>
</g>
<!-- Node2&#45;&gt;Node3 -->
<g id="edge2" class="edge">
<title>Node2&#45;&gt;Node3</title>
<path fill="none" stroke="#63b8ff" d="M254.49,-16C262.26,-16 270.39,-16 278.43,-16"/>
<polygon fill="#63b8ff" stroke="#63b8ff" points="278.18,-19.5 288.18,-16 278.18,-12.5 278.18,-19.5"/>
</g>
</g>
</svg>
