<?xml version="1.0" encoding="UTF-8" standalone="no"?>
<!DOCTYPE svg PUBLIC "-//W3C//DTD SVG 1.1//EN"
 "http://www.w3.org/Graphics/SVG/1.1/DTD/svg11.dtd">
<!-- Generated by graphviz version 14.1.3 (20260303.0454)
 -->
<!-- Title: libs/spectre&#45;font/include/spectre/text_service.h Pages: 1 -->
<svg width="364pt" height="220pt"
 viewBox="0.00 0.00 364.00 220.00" xmlns="http://www.w3.org/2000/svg" xmlns:xlink="http://www.w3.org/1999/xlink">
<g id="graph0" class="graph" transform="scale(1 1) rotate(0) translate(4 216)">
<title>libs/spectre&#45;font/include/spectre/text_service.h</title>
<!-- Node1 -->
<g id="node1" class="node">
<title>Node1</title>
<g id="a_node1"><a xlink:title=" ">
<polygon fill="#999999" stroke="#666666" points="174.08,-212 54.58,-212 54.58,-180 174.08,-180 174.08,-212"/>
<text xml:space="preserve" text-anchor="start" x="62.58" y="-198.5" font-family="Helvetica,sans-Serif" font-size="10.00">libs/spectre&#45;font/include</text>
<text xml:space="preserve" text-anchor="middle" x="114.33" y="-186.5" font-family="Helvetica,sans-Serif" font-size="10.00">/spectre/text_service.h</text>
</a>
</g>
</g>
<!-- Node2 -->
<g id="node2" class="node">
<title>Node2</title>
<g id="a_node2"><a xlink:href="app_8h.html" target="_top" xlink:title=" ">
<polygon fill="white" stroke="#666666" points="88.7,-76 29.95,-76 29.95,-56 88.7,-56 88.7,-76"/>
<text xml:space="preserve" text-anchor="middle" x="59.33" y="-62.5" font-family="Helvetica,sans-Serif" font-size="10.00">app/app.h</text>
</a>
</g>
</g>
<!-- Node1&#45;&gt;Node2 -->
<g id="edge1" class="edge">
<title>Node1&#45;&gt;Node2</title>
<path fill="none" stroke="#63b8ff" d="M44.01,-176.16C28.73,-168.68 14.43,-158.32 5.33,-144 -2.31,-132 -0.71,-124.88 5.33,-112 12.68,-96.31 28.49,-84.18 41.11,-76.49"/>
<polygon fill="#63b8ff" stroke="#63b8ff" points="42.21,-179.19 52.76,-180.06 45.05,-172.79 42.21,-179.19"/>
</g>
<!-- Node4 -->
<g id="node4" class="node">
<title>Node4</title>
<g id="a_node4"><a xlink:href="app__config_8h.html" target="_top" xlink:title=" ">
<polygon fill="white" stroke="#666666" points="104.45,-138 14.2,-138 14.2,-118 104.45,-118 104.45,-138"/>
<text xml:space="preserve" text-anchor="middle" x="59.33" y="-124.5" font-family="Helvetica,sans-Serif" font-size="10.00">app/app_config.h</text>
</a>
</g>
</g>
<!-- Node1&#45;&gt;Node4 -->
<g id="edge3" class="edge">
<title>Node1&#45;&gt;Node4</title>
<path fill="none" stroke="#63b8ff" d="M94.36,-171.04C84.9,-159.69 74.16,-146.8 67.09,-138.32"/>
<polygon fill="#63b8ff" stroke="#63b8ff" points="91.51,-173.09 100.6,-178.53 96.89,-168.61 91.51,-173.09"/>
</g>
<!-- Node5 -->
<g id="node5" class="node">
<title>Node5</title>
<g id="a_node5"><a xlink:href="grid__rendering__pipeline_8h.html" target="_top" xlink:title=" ">
<polygon fill="white" stroke="#666666" points="218.08,-144 122.58,-144 122.58,-112 218.08,-112 218.08,-144"/>
<text xml:space="preserve" text-anchor="start" x="130.58" y="-130.5" font-family="Helvetica,sans-Serif" font-size="10.00">app/grid_rendering</text>
<text xml:space="preserve" text-anchor="middle" x="170.33" y="-118.5" font-family="Helvetica,sans-Serif" font-size="10.00">_pipeline.h</text>
</a>
</g>
</g>
<!-- Node1&#45;&gt;Node5 -->
<g id="edge5" class="edge">
<title>Node1&#45;&gt;Node5</title>
<path fill="none" stroke="#63b8ff" d="M134.56,-171.15C142.18,-162.17 150.63,-152.21 157.41,-144.22"/>
<polygon fill="#63b8ff" stroke="#63b8ff" points="132.09,-168.65 128.29,-178.54 137.43,-173.18 132.09,-168.65"/>
</g>
<!-- Node6 -->
<g id="node6" class="node">
<title>Node6</title>
<g id="a_node6"><a xlink:href="font_8h.html" target="_top" xlink:title=" ">
<polygon fill="white" stroke="#666666" points="356.08,-144 236.58,-144 236.58,-112 356.08,-112 356.08,-144"/>
<text xml:space="preserve" text-anchor="start" x="244.58" y="-130.5" font-family="Helvetica,sans-Serif" font-size="10.00">libs/spectre&#45;font/include</text>
<text xml:space="preserve" text-anchor="middle" x="296.33" y="-118.5" font-family="Helvetica,sans-Serif" font-size="10.00">/spectre/font.h</text>
</a>
</g>
</g>
<!-- Node1&#45;&gt;Node6 -->
<g id="edge7" class="edge">
<title>Node1&#45;&gt;Node6</title>
<path fill="none" stroke="#63b8ff" d="M167.58,-175.69C194.97,-165.76 227.9,-153.81 253.61,-144.49"/>
<polygon fill="#63b8ff" stroke="#63b8ff" points="166.63,-172.31 158.42,-179.01 169.01,-178.89 166.63,-172.31"/>
</g>
<!-- Node3 -->
<g id="node3" class="node">
<title>Node3</title>
<g id="a_node3"><a xlink:href="render__test_8h.html" target="_top" xlink:title=" ">
<polygon fill="white" stroke="#666666" points="105.2,-20 13.45,-20 13.45,0 105.2,0 105.2,-20"/>
<text xml:space="preserve" text-anchor="middle" x="59.33" y="-6.5" font-family="Helvetica,sans-Serif" font-size="10.00">app/render_test.h</text>
</a>
</g>
</g>
<!-- Node2&#45;&gt;Node3 -->
<g id="edge2" class="edge">
<title>Node2&#45;&gt;Node3</title>
<path fill="none" stroke="#63b8ff" d="M59.33,-44.13C59.33,-35.9 59.33,-26.85 59.33,-20.3"/>
<polygon fill="#63b8ff" stroke="#63b8ff" points="55.83,-44.08 59.33,-54.08 62.83,-44.08 55.83,-44.08"/>
</g>
<!-- Node4&#45;&gt;Node2 -->
<g id="edge4" class="edge">
<title>Node4&#45;&gt;Node2</title>
<path fill="none" stroke="#63b8ff" d="M59.33,-106.25C59.33,-95.97 59.33,-84.09 59.33,-76.11"/>
<polygon fill="#63b8ff" stroke="#63b8ff" points="55.83,-106.11 59.33,-116.11 62.83,-106.11 55.83,-106.11"/>
</g>
<!-- Node5&#45;&gt;Node2 -->
<g id="edge6" class="edge">
<title>Node5&#45;&gt;Node2</title>
<path fill="none" stroke="#63b8ff" d="M131.69,-106.12C112.97,-95.99 91.41,-84.34 76.73,-76.41"/>
<polygon fill="#63b8ff" stroke="#63b8ff" points="129.95,-109.15 140.41,-110.83 133.28,-102.99 129.95,-109.15"/>
</g>
</g>
</svg>
