<?xml version="1.0" encoding="UTF-8" standalone="no"?>
<!DOCTYPE svg PUBLIC "-//W3C//DTD SVG 1.1//EN"
 "http://www.w3.org/Graphics/SVG/1.1/DTD/svg11.dtd">
<!-- Generated by graphviz version 14.1.3 (20260303.0454)
 -->
<!-- Title: libs/spectre&#45;font/include/spectre/text_service.h Pages: 1 -->
<svg width="412pt" height="152pt"
 viewBox="0.00 0.00 412.00 152.00" xmlns="http://www.w3.org/2000/svg" xmlns:xlink="http://www.w3.org/1999/xlink">
<g id="graph0" class="graph" transform="scale(1 1) rotate(0) translate(4 148)">
<title>libs/spectre&#45;font/include/spectre/text_service.h</title>
<!-- Node1 -->
<g id="node1" class="node">
<title>Node1</title>
<g id="a_node1"><a xlink:title=" ">
<polygon fill="#999999" stroke="#666666" points="302.38,-144 182.88,-144 182.88,-112 302.38,-112 302.38,-144"/>
<text xml:space="preserve" text-anchor="start" x="190.88" y="-130.5" font-family="Helvetica,sans-Serif" font-size="10.00">libs/spectre&#45;font/include</text>
<text xml:space="preserve" text-anchor="middle" x="242.62" y="-118.5" font-family="Helvetica,sans-Serif" font-size="10.00">/spectre/text_service.h</text>
</a>
</g>
</g>
<!-- Node2 -->
<g id="node2" class="node">
<title>Node2</title>
<g id="a_node2"><a xlink:title=" ">
<polygon fill="#e0e0e0" stroke="#999999" points="51.25,-76 0,-76 0,-56 51.25,-56 51.25,-76"/>
<text xml:space="preserve" text-anchor="middle" x="25.62" y="-62.5" font-family="Helvetica,sans-Serif" font-size="10.00">memory</text>
</a>
</g>
</g>
<!-- Node1&#45;&gt;Node2 -->
<g id="edge1" class="edge">
<title>Node1&#45;&gt;Node2</title>
<path fill="none" stroke="#63b8ff" d="M186.74,-111.55C147.71,-100.75 96.68,-86.65 62.61,-77.23"/>
<polygon fill="#63b8ff" stroke="#63b8ff" points="63.78,-73.92 53.21,-74.63 61.91,-80.67 63.78,-73.92"/>
</g>
<!-- Node3 -->
<g id="node3" class="node">
<title>Node3</title>
<g id="a_node3"><a xlink:href="font__metrics_8h.html" target="_top" xlink:title=" ">
<polygon fill="white" stroke="#666666" points="182.38,-76 68.88,-76 68.88,-56 182.38,-56 182.38,-76"/>
<text xml:space="preserve" text-anchor="middle" x="125.62" y="-62.5" font-family="Helvetica,sans-Serif" font-size="10.00">spectre/font_metrics.h</text>
</a>
</g>
</g>
<!-- Node1&#45;&gt;Node3 -->
<g id="edge2" class="edge">
<title>Node1&#45;&gt;Node3</title>
<path fill="none" stroke="#63b8ff" d="M212.49,-111.55C194.38,-102.26 171.48,-90.52 153.74,-81.42"/>
<polygon fill="#63b8ff" stroke="#63b8ff" points="155.81,-78.55 145.32,-77.1 152.62,-84.78 155.81,-78.55"/>
</g>
<!-- Node4 -->
<g id="node4" class="node">
<title>Node4</title>
<g id="a_node4"><a xlink:href="types_8h.html" target="_top" xlink:title=" ">
<polygon fill="white" stroke="#666666" points="284.38,-76 200.88,-76 200.88,-56 284.38,-56 284.38,-76"/>
<text xml:space="preserve" text-anchor="middle" x="242.62" y="-62.5" font-family="Helvetica,sans-Serif" font-size="10.00">spectre/types.h</text>
</a>
</g>
</g>
<!-- Node1&#45;&gt;Node4 -->
<g id="edge3" class="edge">
<title>Node1&#45;&gt;Node4</title>
<path fill="none" stroke="#63b8ff" d="M242.62,-111.55C242.62,-104.34 242.62,-95.66 242.62,-87.88"/>
<polygon fill="#63b8ff" stroke="#63b8ff" points="246.13,-87.92 242.63,-77.92 239.13,-87.92 246.13,-87.92"/>
</g>
<!-- Node7 -->
<g id="node7" class="node">
<title>Node7</title>
<g id="a_node7"><a xlink:title=" ">
<polygon fill="#e0e0e0" stroke="#999999" points="342.62,-76 302.62,-76 302.62,-56 342.62,-56 342.62,-76"/>
<text xml:space="preserve" text-anchor="middle" x="322.62" y="-62.5" font-family="Helvetica,sans-Serif" font-size="10.00">string</text>
</a>
</g>
</g>
<!-- Node1&#45;&gt;Node7 -->
<g id="edge6" class="edge">
<title>Node1&#45;&gt;Node7</title>
<path fill="none" stroke="#63b8ff" d="M263.23,-111.55C274.8,-102.87 289.23,-92.04 300.97,-83.24"/>
<polygon fill="#63b8ff" stroke="#63b8ff" points="302.97,-86.12 308.87,-77.32 298.77,-80.52 302.97,-86.12"/>
</g>
<!-- Node8 -->
<g id="node8" class="node">
<title>Node8</title>
<g id="a_node8"><a xlink:title=" ">
<polygon fill="#e0e0e0" stroke="#999999" points="404.12,-76 361.12,-76 361.12,-56 404.12,-56 404.12,-76"/>
<text xml:space="preserve" text-anchor="middle" x="382.62" y="-62.5" font-family="Helvetica,sans-Serif" font-size="10.00">vector</text>
</a>
</g>
</g>
<!-- Node1&#45;&gt;Node8 -->
<g id="edge7" class="edge">
<title>Node1&#45;&gt;Node8</title>
<path fill="none" stroke="#63b8ff" d="M278.68,-111.55C300.76,-102.09 328.78,-90.08 350.16,-80.91"/>
<polygon fill="#63b8ff" stroke="#63b8ff" points="351.47,-84.16 359.28,-77 348.71,-77.73 351.47,-84.16"/>
</g>
<!-- Node5 -->
<g id="node5" class="node">
<title>Node5</title>
<g id="a_node5"><a xlink:title=" ">
<polygon fill="#e0e0e0" stroke="#999999" points="231.5,-20 193.75,-20 193.75,0 231.5,0 231.5,-20"/>
<text xml:space="preserve" text-anchor="middle" x="212.62" y="-6.5" font-family="Helvetica,sans-Serif" font-size="10.00">array</text>
</a>
</g>
</g>
<!-- Node4&#45;&gt;Node5 -->
<g id="edge4" class="edge">
<title>Node4&#45;&gt;Node5</title>
<path fill="none" stroke="#63b8ff" d="M237.4,-55.59C233.53,-48.63 228.12,-38.89 223.34,-30.29"/>
<polygon fill="#63b8ff" stroke="#63b8ff" points="226.44,-28.66 218.53,-21.62 220.32,-32.06 226.44,-28.66"/>
</g>
<!-- Node6 -->
<g id="node6" class="node">
<title>Node6</title>
<g id="a_node6"><a xlink:title=" ">
<polygon fill="#e0e0e0" stroke="#999999" points="295.25,-20 250,-20 250,0 295.25,0 295.25,-20"/>
<text xml:space="preserve" text-anchor="middle" x="272.62" y="-6.5" font-family="Helvetica,sans-Serif" font-size="10.00">cstdint</text>
</a>
</g>
</g>
<!-- Node4&#45;&gt;Node6 -->
<g id="edge5" class="edge">
<title>Node4&#45;&gt;Node6</title>
<path fill="none" stroke="#63b8ff" d="M247.85,-55.59C251.72,-48.63 257.13,-38.89 261.91,-30.29"/>
<polygon fill="#63b8ff" stroke="#63b8ff" points="264.93,-32.06 266.72,-21.62 258.81,-28.66 264.93,-32.06"/>
</g>
</g>
</svg>
