<?xml version="1.0" encoding="UTF-8" standalone="no"?>
<!DOCTYPE svg PUBLIC "-//W3C//DTD SVG 1.1//EN"
 "http://www.w3.org/Graphics/SVG/1.1/DTD/svg11.dtd">
<!-- Generated by graphviz version 14.1.3 (20260303.0454)
 -->
<!-- Title: libs/spectre&#45;types/include/spectre/types.h Pages: 1 -->
<!--zoomable 356 -->
<svg id="main" version="1.1" xmlns="http://www.w3.org/2000/svg" xmlns:xlink="http://www.w3.org/1999/xlink" xml:space="preserve" onload="init(evt)">
<style type="text/css"><![CDATA[
.edge:hover path { stroke: red; }
.edge:hover polygon { stroke: red; fill: red; }
]]></style>
<script type="text/javascript"><![CDATA[
var edges = document.getElementsByTagName('g');
if (edges && edges.length) {
  for (var i=0;i<edges.length;i++) {
    if (edges[i].id.substr(0,4)=='edge') {
      edges[i].setAttribute('class','edge');
    }
  }
}
]]></script>
        <defs>
                <circle id="rim" cx="0" cy="0" r="7"/>
                <circle id="rim2" cx="0" cy="0" r="3.5"/>
                <g id="zoomPlus">
                        <use xlink:href="#rim" fill="#404040">
                                <set attributeName="fill" to="#808080" begin="zoomplus.mouseover" end="zoomplus.mouseout"/>
                        </use>
                        <path d="M-4,0h8M0,-4v8" fill="none" stroke="white" stroke-width="1.5" pointer-events="none"/>
                </g>
                <g id="zoomMin">
                        <use xlink:href="#rim" fill="#404040">
                                <set attributeName="fill" to="#808080" begin="zoomminus.mouseover" end="zoomminus.mouseout"/>
                        </use>
                        <path d="M-4,0h8" fill="none" stroke="white" stroke-width="1.5" pointer-events="none"/>
                </g>
                <g id="dirArrow">
                        <path fill="none" stroke="white" stroke-width="1.5" d="M0,-3.0v7 M-2.5,-0.5L0,-3.0L2.5,-0.5"/>
                </g>
               <g id="resetDef">
                       <use xlink:href="#rim2" fill="#404040">
                               <set attributeName="fill" to="#808080" begin="reset.mouseover" end="reset.mouseout"/>
                       </use>
               </g>
        </defs>

<script type="text/javascript">
var viewWidth = 1128;
var viewHeight = 356;
var sectionId = 'dynsection-1';
</script>
<script xlink:href="svgpan.js"/>
<svg id="graph" class="graph">
<g id="viewport">
<title>libs/spectre&#45;types/include/spectre/types.h</title>
<!-- Node1 -->
<g id="node1" class="node">
<title>Node1</title>
<g id="a_node1"><a xlink:title=" ">
<polygon fill="#999999" stroke="#666666" points="808.38,-348 688.12,-348 688.12,-316 808.38,-316 808.38,-348"/>
<text xml:space="preserve" text-anchor="start" x="696.12" y="-334.5" font-family="Helvetica,sans-Serif" font-size="10.00">libs/spectre&#45;types</text>
<text xml:space="preserve" text-anchor="middle" x="748.25" y="-322.5" font-family="Helvetica,sans-Serif" font-size="10.00">/include/spectre/types.h</text>
</a>
</g>
</g>
<!-- Node2 -->
<g id="node2" class="node">
<title>Node2</title>
<g id="a_node2"><a xlink:href="text__service_8h.html" target="_top" xlink:title=" ">
<polygon fill="white" stroke="#666666" points="697,-212 577.5,-212 577.5,-180 697,-180 697,-212"/>
<text xml:space="preserve" text-anchor="start" x="585.5" y="-198.5" font-family="Helvetica,sans-Serif" font-size="10.00">libs/spectre&#45;font/include</text>
<text xml:space="preserve" text-anchor="middle" x="637.25" y="-186.5" font-family="Helvetica,sans-Serif" font-size="10.00">/spectre/text_service.h</text>
</a>
</g>
</g>
<!-- Node1&#45;&gt;Node2 -->
<g id="edge1" class="edge">
<title>Node1&#45;&gt;Node2</title>
<path fill="none" stroke="#63b8ff" d="M708.07,-309.65C695.7,-301.62 682.84,-291.58 673.25,-280 656.42,-259.67 646.18,-230.28 641.12,-212.47"/>
<polygon fill="#63b8ff" stroke="#63b8ff" points="706.17,-312.59 716.52,-314.86 709.85,-306.63 706.17,-312.59"/>
</g>
<!-- Node8 -->
<g id="node8" class="node">
<title>Node8</title>
<g id="a_node8"><a xlink:href="font__engine_8h.html" target="_top" xlink:title=" ">
<polygon fill="white" stroke="#666666" points="972.38,-280 870.12,-280 870.12,-248 972.38,-248 972.38,-280"/>
<text xml:space="preserve" text-anchor="start" x="878.12" y="-266.5" font-family="Helvetica,sans-Serif" font-size="10.00">libs/spectre&#45;font/src</text>
<text xml:space="preserve" text-anchor="middle" x="921.25" y="-254.5" font-family="Helvetica,sans-Serif" font-size="10.00">/font_engine.h</text>
</a>
</g>
</g>
<!-- Node1&#45;&gt;Node8 -->
<g id="edge9" class="edge">
<title>Node1&#45;&gt;Node8</title>
<path fill="none" stroke="#63b8ff" d="M799.56,-311.42C825.46,-301.54 856.43,-289.73 880.64,-280.49"/>
<polygon fill="#63b8ff" stroke="#63b8ff" points="798.32,-308.15 790.22,-314.99 800.82,-314.69 798.32,-308.15"/>
</g>
<!-- Node9 -->
<g id="node9" class="node">
<title>Node9</title>
<g id="a_node9"><a xlink:href="nvim_8h.html" target="_top" xlink:title=" ">
<polygon fill="white" stroke="#666666" points="293.25,-212 169.25,-212 169.25,-180 293.25,-180 293.25,-212"/>
<text xml:space="preserve" text-anchor="start" x="177.25" y="-198.5" font-family="Helvetica,sans-Serif" font-size="10.00">libs/spectre&#45;nvim/include</text>
<text xml:space="preserve" text-anchor="middle" x="231.25" y="-186.5" font-family="Helvetica,sans-Serif" font-size="10.00">/spectre/nvim.h</text>
</a>
</g>
</g>
<!-- Node1&#45;&gt;Node9 -->
<g id="edge10" class="edge">
<title>Node1&#45;&gt;Node9</title>
<path fill="none" stroke="#63b8ff" d="M676.78,-328.98C568.12,-324.89 367.33,-312.99 304.25,-280 274.66,-264.52 251.57,-231.74 239.81,-212.33"/>
<polygon fill="#63b8ff" stroke="#63b8ff" points="676.32,-332.47 686.44,-329.34 676.58,-325.47 676.32,-332.47"/>
</g>
<!-- Node12 -->
<g id="node12" class="node">
<title>Node12</title>
<g id="a_node12"><a xlink:href="renderer_8h.html" target="_top" xlink:title=" ">
<polygon fill="white" stroke="#666666" points="814,-280 682.5,-280 682.5,-248 814,-248 814,-280"/>
<text xml:space="preserve" text-anchor="start" x="690.5" y="-266.5" font-family="Helvetica,sans-Serif" font-size="10.00">libs/spectre&#45;renderer</text>
<text xml:space="preserve" text-anchor="middle" x="748.25" y="-254.5" font-family="Helvetica,sans-Serif" font-size="10.00">/include/spectre/renderer.h</text>
</a>
</g>
</g>
<!-- Node1&#45;&gt;Node12 -->
<g id="edge15" class="edge">
<title>Node1&#45;&gt;Node12</title>
<path fill="none" stroke="#63b8ff" d="M748.25,-304.31C748.25,-296.12 748.25,-287.38 748.25,-280.22"/>
<polygon fill="#63b8ff" stroke="#63b8ff" points="744.75,-304.18 748.25,-314.18 751.75,-304.18 744.75,-304.18"/>
</g>
<!-- Node16 -->
<g id="node16" class="node">
<title>Node16</title>
<g id="a_node16"><a xlink:href="vk__atlas_8h.html" target="_top" xlink:title=" ">
<polygon fill="white" stroke="#666666" points="1088.25,-212 976.25,-212 976.25,-180 1088.25,-180 1088.25,-212"/>
<text xml:space="preserve" text-anchor="start" x="984.25" y="-198.5" font-family="Helvetica,sans-Serif" font-size="10.00">libs/spectre&#45;renderer</text>
<text xml:space="preserve" text-anchor="middle" x="1032.25" y="-186.5" font-family="Helvetica,sans-Serif" font-size="10.00">/src/vulkan/vk_atlas.h</text>
</a>
</g>
</g>
<!-- Node1&#45;&gt;Node16 -->
<g id="edge23" class="edge">
<title>Node1&#45;&gt;Node16</title>
<path fill="none" stroke="#63b8ff" d="M781.93,-309.17C795.04,-300.4 810.05,-290 823.25,-280 840.85,-266.66 841.82,-258.49 861.25,-248 881.22,-237.22 934.33,-222.08 976.12,-211.09"/>
<polygon fill="#63b8ff" stroke="#63b8ff" points="779.99,-306.25 773.59,-314.7 783.86,-312.09 779.99,-306.25"/>
</g>
<!-- Node17 -->
<g id="node17" class="node">
<title>Node17</title>
<g id="a_node17"><a xlink:href="highlight_8h.html" target="_top" xlink:title=" ">
<polygon fill="white" stroke="#666666" points="445.38,-280 313.12,-280 313.12,-248 445.38,-248 445.38,-280"/>
<text xml:space="preserve" text-anchor="start" x="321.12" y="-266.5" font-family="Helvetica,sans-Serif" font-size="10.00">libs/spectre&#45;types</text>
<text xml:space="preserve" text-anchor="middle" x="379.25" y="-254.5" font-family="Helvetica,sans-Serif" font-size="10.00">/include/spectre/highlight.h</text>
</a>
</g>
</g>
<!-- Node1&#45;&gt;Node17 -->
<g id="edge25" class="edge">
<title>Node1&#45;&gt;Node17</title>
<path fill="none" stroke="#63b8ff" d="M676.46,-318.16C609.63,-306.21 510.8,-288.53 445.73,-276.89"/>
<polygon fill="#63b8ff" stroke="#63b8ff" points="675.78,-321.59 686.24,-319.91 677.01,-314.7 675.78,-321.59"/>
</g>
<!-- Node19 -->
<g id="node19" class="node">
<title>Node19</title>
<g id="a_node19"><a xlink:href="unicode_8h.html" target="_top" xlink:title=" ">
<polygon fill="white" stroke="#666666" points="1120.25,-280 990.25,-280 990.25,-248 1120.25,-248 1120.25,-280"/>
<text xml:space="preserve" text-anchor="start" x="998.25" y="-266.5" font-family="Helvetica,sans-Serif" font-size="10.00">libs/spectre&#45;types</text>
<text xml:space="preserve" text-anchor="middle" x="1055.25" y="-254.5" font-family="Helvetica,sans-Serif" font-size="10.00">/include/spectre/unicode.h</text>
</a>
</g>
</g>
<!-- Node1&#45;&gt;Node19 -->
<g id="edge30" class="edge">
<title>Node1&#45;&gt;Node19</title>
<path fill="none" stroke="#63b8ff" d="M819.55,-315.67C870.95,-304.62 939.79,-289.82 989.79,-279.07"/>
<polygon fill="#63b8ff" stroke="#63b8ff" points="819.06,-312.2 810.02,-317.72 820.53,-319.04 819.06,-312.2"/>
</g>
<!-- Node3 -->
<g id="node3" class="node">
<title>Node3</title>
<g id="a_node3"><a xlink:href="app_8h.html" target="_top" xlink:title=" ">
<polygon fill="white" stroke="#666666" points="417.62,-76 358.88,-76 358.88,-56 417.62,-56 417.62,-76"/>
<text xml:space="preserve" text-anchor="middle" x="388.25" y="-62.5" font-family="Helvetica,sans-Serif" font-size="10.00">app/app.h</text>
</a>
</g>
</g>
<!-- Node2&#45;&gt;Node3 -->
<g id="edge2" class="edge">
<title>Node2&#45;&gt;Node3</title>
<path fill="none" stroke="#63b8ff" d="M667.89,-172.54C687.92,-155.15 707.58,-130.94 691.25,-112 656.13,-71.27 487.38,-66.81 418.07,-66.73"/>
<polygon fill="#63b8ff" stroke="#63b8ff" points="665.77,-169.75 660.26,-178.8 670.21,-175.16 665.77,-169.75"/>
</g>
<!-- Node5 -->
<g id="node5" class="node">
<title>Node5</title>
<g id="a_node5"><a xlink:href="app__config_8h.html" target="_top" xlink:title=" ">
<polygon fill="white" stroke="#666666" points="682.38,-138 592.12,-138 592.12,-118 682.38,-118 682.38,-138"/>
<text xml:space="preserve" text-anchor="middle" x="637.25" y="-124.5" font-family="Helvetica,sans-Serif" font-size="10.00">app/app_config.h</text>
</a>
</g>
</g>
<!-- Node2&#45;&gt;Node5 -->
<g id="edge4" class="edge">
<title>Node2&#45;&gt;Node5</title>
<path fill="none" stroke="#63b8ff" d="M637.25,-168.31C637.25,-157.67 637.25,-146.13 637.25,-138.32"/>
<polygon fill="#63b8ff" stroke="#63b8ff" points="633.75,-168.18 637.25,-178.18 640.75,-168.18 633.75,-168.18"/>
</g>
<!-- Node6 -->
<g id="node6" class="node">
<title>Node6</title>
<g id="a_node6"><a xlink:href="grid__rendering__pipeline_8h.html" target="_top" xlink:title=" ">
<polygon fill="white" stroke="#666666" points="436,-144 340.5,-144 340.5,-112 436,-112 436,-144"/>
<text xml:space="preserve" text-anchor="start" x="348.5" y="-130.5" font-family="Helvetica,sans-Serif" font-size="10.00">app/grid_rendering</text>
<text xml:space="preserve" text-anchor="middle" x="388.25" y="-118.5" font-family="Helvetica,sans-Serif" font-size="10.00">_pipeline.h</text>
</a>
</g>
</g>
<!-- Node2&#45;&gt;Node6 -->
<g id="edge6" class="edge">
<title>Node2&#45;&gt;Node6</title>
<path fill="none" stroke="#63b8ff" d="M567.9,-176.62C525.98,-165.51 473.6,-151.62 436.24,-141.72"/>
<polygon fill="#63b8ff" stroke="#63b8ff" points="566.84,-179.96 577.41,-179.14 568.64,-173.19 566.84,-179.96"/>
</g>
<!-- Node7 -->
<g id="node7" class="node">
<title>Node7</title>
<g id="a_node7"><a xlink:href="font_8h.html" target="_top" xlink:title=" ">
<polygon fill="white" stroke="#666666" points="574,-144 454.5,-144 454.5,-112 574,-112 574,-144"/>
<text xml:space="preserve" text-anchor="start" x="462.5" y="-130.5" font-family="Helvetica,sans-Serif" font-size="10.00">libs/spectre&#45;font/include</text>
<text xml:space="preserve" text-anchor="middle" x="514.25" y="-118.5" font-family="Helvetica,sans-Serif" font-size="10.00">/spectre/font.h</text>
</a>
</g>
</g>
<!-- Node2&#45;&gt;Node7 -->
<g id="edge8" class="edge">
<title>Node2&#45;&gt;Node7</title>
<path fill="none" stroke="#63b8ff" d="M598.49,-174.2C580.49,-164.54 559.45,-153.26 542.91,-144.38"/>
<polygon fill="#63b8ff" stroke="#63b8ff" points="596.61,-177.17 607.08,-178.81 599.92,-171 596.61,-177.17"/>
</g>
<!-- Node4 -->
<g id="node4" class="node">
<title>Node4</title>
<g id="a_node4"><a xlink:href="render__test_8h.html" target="_top" xlink:title=" ">
<polygon fill="white" stroke="#666666" points="434.12,-20 342.38,-20 342.38,0 434.12,0 434.12,-20"/>
<text xml:space="preserve" text-anchor="middle" x="388.25" y="-6.5" font-family="Helvetica,sans-Serif" font-size="10.00">app/render_test.h</text>
</a>
</g>
</g>
<!-- Node3&#45;&gt;Node4 -->
<g id="edge3" class="edge">
<title>Node3&#45;&gt;Node4</title>
<path fill="none" stroke="#63b8ff" d="M388.25,-44.13C388.25,-35.9 388.25,-26.85 388.25,-20.3"/>
<polygon fill="#63b8ff" stroke="#63b8ff" points="384.75,-44.08 388.25,-54.08 391.75,-44.08 384.75,-44.08"/>
</g>
<!-- Node5&#45;&gt;Node3 -->
<g id="edge5" class="edge">
<title>Node5&#45;&gt;Node3</title>
<path fill="none" stroke="#63b8ff" d="M593.34,-114.63C589.93,-113.72 586.54,-112.84 583.25,-112 524.99,-97.19 456.42,-81.85 418.08,-73.45"/>
<polygon fill="#63b8ff" stroke="#63b8ff" points="592.16,-117.93 602.72,-117.17 593.99,-111.18 592.16,-117.93"/>
</g>
<!-- Node6&#45;&gt;Node3 -->
<g id="edge7" class="edge">
<title>Node6&#45;&gt;Node3</title>
<path fill="none" stroke="#63b8ff" d="M388.25,-100.08C388.25,-91.6 388.25,-82.8 388.25,-76.41"/>
<polygon fill="#63b8ff" stroke="#63b8ff" points="384.75,-100.03 388.25,-110.03 391.75,-100.03 384.75,-100.03"/>
</g>
<!-- Node9&#45;&gt;Node3 -->
<g id="edge11" class="edge">
<title>Node9&#45;&gt;Node3</title>
<path fill="none" stroke="#63b8ff" d="M197.1,-173.13C174.85,-156.16 152.77,-132.21 169.25,-112 192.8,-83.12 304.21,-72.25 358.45,-68.62"/>
<polygon fill="#63b8ff" stroke="#63b8ff" points="194.83,-175.8 204.98,-178.82 198.93,-170.13 194.83,-175.8"/>
</g>
<!-- Node10 -->
<g id="node10" class="node">
<title>Node10</title>
<g id="a_node10"><a xlink:href="ui__request__worker_8h.html" target="_top" xlink:title=" ">
<polygon fill="white" stroke="#666666" points="122.5,-138 0,-138 0,-118 122.5,-118 122.5,-138"/>
<text xml:space="preserve" text-anchor="middle" x="61.25" y="-124.5" font-family="Helvetica,sans-Serif" font-size="10.00">app/ui_request_worker.h</text>
</a>
</g>
</g>
<!-- Node9&#45;&gt;Node10 -->
<g id="edge12" class="edge">
<title>Node9&#45;&gt;Node10</title>
<path fill="none" stroke="#63b8ff" d="M181.05,-175.51C149.58,-163.29 110.42,-148.09 85.62,-138.46"/>
<polygon fill="#63b8ff" stroke="#63b8ff" points="179.39,-178.62 189.98,-178.98 181.93,-172.1 179.39,-178.62"/>
</g>
<!-- Node11 -->
<g id="node11" class="node">
<title>Node11</title>
<g id="a_node11"><a xlink:href="mpack__codec_8h.html" target="_top" xlink:title=" ">
<polygon fill="white" stroke="#666666" points="284.62,-144 177.88,-144 177.88,-112 284.62,-112 284.62,-144"/>
<text xml:space="preserve" text-anchor="start" x="185.88" y="-130.5" font-family="Helvetica,sans-Serif" font-size="10.00">libs/spectre&#45;nvim/src</text>
<text xml:space="preserve" text-anchor="middle" x="231.25" y="-118.5" font-family="Helvetica,sans-Serif" font-size="10.00">/mpack_codec.h</text>
</a>
</g>
</g>
<!-- Node9&#45;&gt;Node11 -->
<g id="edge14" class="edge">
<title>Node9&#45;&gt;Node11</title>
<path fill="none" stroke="#63b8ff" d="M231.25,-168.31C231.25,-160.12 231.25,-151.38 231.25,-144.22"/>
<polygon fill="#63b8ff" stroke="#63b8ff" points="227.75,-168.18 231.25,-178.18 234.75,-168.18 227.75,-168.18"/>
</g>
<!-- Node10&#45;&gt;Node3 -->
<g id="edge13" class="edge">
<title>Node10&#45;&gt;Node3</title>
<path fill="none" stroke="#63b8ff" d="M118.85,-115.35C124.73,-114.2 130.61,-113.07 136.25,-112 216.6,-96.79 311.63,-80.2 358.73,-72.07"/>
<polygon fill="#63b8ff" stroke="#63b8ff" points="118.25,-111.91 109.12,-117.28 119.6,-118.77 118.25,-111.91"/>
</g>
<!-- Node12&#45;&gt;Node3 -->
<g id="edge16" class="edge">
<title>Node12&#45;&gt;Node3</title>
<path fill="none" stroke="#63b8ff" d="M749.43,-236.42C749.38,-202.2 743.66,-143.42 708.25,-112 665.6,-74.16 488.96,-68.04 417.98,-67.12"/>
<polygon fill="#63b8ff" stroke="#63b8ff" points="745.93,-236.25 749.27,-246.3 752.93,-236.36 745.93,-236.25"/>
</g>
<!-- Node12&#45;&gt;Node6 -->
<g id="edge17" class="edge">
<title>Node12&#45;&gt;Node6</title>
<path fill="none" stroke="#63b8ff" d="M673.72,-244.68C640.99,-235.92 602.33,-224.6 568.25,-212 513.86,-191.9 453.09,-162.3 417.9,-144.41"/>
<polygon fill="#63b8ff" stroke="#63b8ff" points="672.56,-247.99 683.12,-247.17 674.35,-241.23 672.56,-247.99"/>
</g>
<!-- Node13 -->
<g id="node13" class="node">
<title>Node13</title>
<g id="a_node13"><a xlink:href="metal__renderer_8h.html" target="_top" xlink:title=" ">
<polygon fill="white" stroke="#666666" points="911.88,-144 776.62,-144 776.62,-112 911.88,-112 911.88,-144"/>
<text xml:space="preserve" text-anchor="start" x="784.62" y="-130.5" font-family="Helvetica,sans-Serif" font-size="10.00">libs/spectre&#45;renderer</text>
<text xml:space="preserve" text-anchor="middle" x="844.25" y="-118.5" font-family="Helvetica,sans-Serif" font-size="10.00">/src/metal/metal_renderer.h</text>
</a>
</g>
</g>
<!-- Node12&#45;&gt;Node13 -->
<g id="edge18" class="edge">
<title>Node12&#45;&gt;Node13</title>
<path fill="none" stroke="#63b8ff" d="M764.93,-238C776.12,-221.41 791.31,-199.22 805.25,-180 814.02,-167.91 824.29,-154.5 832.09,-144.47"/>
<polygon fill="#63b8ff" stroke="#63b8ff" points="762.04,-236.03 759.37,-246.28 767.85,-239.93 762.04,-236.03"/>
</g>
<!-- Node14 -->
<g id="node14" class="node">
<title>Node14</title>
<g id="a_node14"><a xlink:href="renderer__state_8h.html" target="_top" xlink:title=" ">
<polygon fill="white" stroke="#666666" points="920.25,-212 814.25,-212 814.25,-180 920.25,-180 920.25,-212"/>
<text xml:space="preserve" text-anchor="start" x="822.25" y="-198.5" font-family="Helvetica,sans-Serif" font-size="10.00">libs/spectre&#45;renderer</text>
<text xml:space="preserve" text-anchor="middle" x="867.25" y="-186.5" font-family="Helvetica,sans-Serif" font-size="10.00">/src/renderer_state.h</text>
</a>
</g>
</g>
<!-- Node12&#45;&gt;Node14 -->
<g id="edge19" class="edge">
<title>Node12&#45;&gt;Node14</title>
<path fill="none" stroke="#63b8ff" d="M785.99,-242.07C803.36,-232.44 823.59,-221.21 839.52,-212.38"/>
<polygon fill="#63b8ff" stroke="#63b8ff" points="784.52,-238.88 777.47,-246.79 787.92,-245 784.52,-238.88"/>
</g>
<!-- Node15 -->
<g id="node15" class="node">
<title>Node15</title>
<g id="a_node15"><a xlink:href="vk__renderer_8h.html" target="_top" xlink:title=" ">
<polygon fill="white" stroke="#666666" points="1056.38,-144 930.12,-144 930.12,-112 1056.38,-112 1056.38,-144"/>
<text xml:space="preserve" text-anchor="start" x="938.12" y="-130.5" font-family="Helvetica,sans-Serif" font-size="10.00">libs/spectre&#45;renderer</text>
<text xml:space="preserve" text-anchor="middle" x="993.25" y="-118.5" font-family="Helvetica,sans-Serif" font-size="10.00">/src/vulkan/vk_renderer.h</text>
</a>
</g>
</g>
<!-- Node12&#45;&gt;Node15 -->
<g id="edge22" class="edge">
<title>Node12&#45;&gt;Node15</title>
<path fill="none" stroke="#63b8ff" d="M825.53,-246.33C866.52,-236.5 911.91,-223.72 929.25,-212 955.18,-194.48 975.16,-163.03 985.48,-144.28"/>
<polygon fill="#63b8ff" stroke="#63b8ff" points="824.8,-242.91 815.87,-248.61 826.41,-249.72 824.8,-242.91"/>
</g>
<!-- Node14&#45;&gt;Node13 -->
<g id="edge20" class="edge">
<title>Node14&#45;&gt;Node13</title>
<path fill="none" stroke="#63b8ff" d="M858.15,-168.89C855.24,-160.52 852.11,-151.54 849.56,-144.22"/>
<polygon fill="#63b8ff" stroke="#63b8ff" points="854.82,-169.97 861.42,-178.26 861.43,-167.67 854.82,-169.97"/>
</g>
<!-- Node14&#45;&gt;Node15 -->
<g id="edge21" class="edge">
<title>Node14&#45;&gt;Node15</title>
<path fill="none" stroke="#63b8ff" d="M906.95,-174.2C925.4,-164.54 946.94,-153.26 963.89,-144.38"/>
<polygon fill="#63b8ff" stroke="#63b8ff" points="905.37,-171.08 898.13,-178.82 908.61,-177.28 905.37,-171.08"/>
</g>
<!-- Node16&#45;&gt;Node15 -->
<g id="edge24" class="edge">
<title>Node16&#45;&gt;Node15</title>
<path fill="none" stroke="#63b8ff" d="M1017.49,-170.02C1012.36,-161.34 1006.77,-151.88 1002.25,-144.22"/>
<polygon fill="#63b8ff" stroke="#63b8ff" points="1014.33,-171.56 1022.43,-178.39 1020.36,-168 1014.33,-171.56"/>
</g>
<!-- Node17&#45;&gt;Node9 -->
<g id="edge29" class="edge">
<title>Node17&#45;&gt;Node9</title>
<path fill="none" stroke="#63b8ff" d="M334.16,-242.89C312.25,-233.12 286.33,-221.56 265.99,-212.49"/>
<polygon fill="#63b8ff" stroke="#63b8ff" points="332.61,-246.03 343.17,-246.91 335.46,-239.64 332.61,-246.03"/>
</g>
<!-- Node18 -->
<g id="node18" class="node">
<title>Node18</title>
<g id="a_node18"><a xlink:href="grid_8h.html" target="_top" xlink:title=" ">
<polygon fill="white" stroke="#666666" points="438.62,-212 319.88,-212 319.88,-180 438.62,-180 438.62,-212"/>
<text xml:space="preserve" text-anchor="start" x="327.88" y="-198.5" font-family="Helvetica,sans-Serif" font-size="10.00">libs/spectre&#45;grid/include</text>
<text xml:space="preserve" text-anchor="middle" x="379.25" y="-186.5" font-family="Helvetica,sans-Serif" font-size="10.00">/spectre/grid.h</text>
</a>
</g>
</g>
<!-- Node17&#45;&gt;Node18 -->
<g id="edge26" class="edge">
<title>Node17&#45;&gt;Node18</title>
<path fill="none" stroke="#63b8ff" d="M379.25,-236.31C379.25,-228.12 379.25,-219.38 379.25,-212.22"/>
<polygon fill="#63b8ff" stroke="#63b8ff" points="375.75,-236.18 379.25,-246.18 382.75,-236.18 375.75,-236.18"/>
</g>
<!-- Node18&#45;&gt;Node3 -->
<g id="edge27" class="edge">
<title>Node18&#45;&gt;Node3</title>
<path fill="none" stroke="#63b8ff" d="M350.85,-172.22C342.98,-164.22 335.44,-154.57 331.25,-144 326.01,-130.78 325.05,-124.8 331.25,-112 339,-96 355.51,-83.98 368.77,-76.4"/>
<polygon fill="#63b8ff" stroke="#63b8ff" points="348.27,-174.59 357.95,-178.88 353.06,-169.49 348.27,-174.59"/>
</g>
<!-- Node18&#45;&gt;Node6 -->
<g id="edge28" class="edge">
<title>Node18&#45;&gt;Node6</title>
<path fill="none" stroke="#63b8ff" d="M382.89,-168.31C384.01,-160.12 385.2,-151.38 386.17,-144.22"/>
<polygon fill="#63b8ff" stroke="#63b8ff" points="379.43,-167.81 381.54,-178.19 386.36,-168.76 379.43,-167.81"/>
</g>
</g>
</svg>
        <g id="navigator" transform="translate(0 0)" fill="#404254">
                <rect fill="#f2f5e9" fill-opacity="0.5" stroke="#606060" stroke-width=".5" x="0" y="0" width="60" height="60"/>
                <use id="zoomplus" xlink:href="#zoomPlus" x="17" y="9" onmousedown="handleZoom(evt,'in')"/>
                <use id="zoomminus" xlink:href="#zoomMin" x="42" y="9" onmousedown="handleZoom(evt,'out')"/>
                <use id="reset" xlink:href="#resetDef" x="30" y="36" onmousedown="handleReset()"/>
                <g id="arrowUp" xlink:href="#dirArrow" transform="translate(30 24)" onmousedown="handlePan(0,-1)">
                  <use xlink:href="#rim" fill="#404040">
                        <set attributeName="fill" to="#808080" begin="arrowUp.mouseover" end="arrowUp.mouseout"/>
                  </use>
                  <path fill="none" stroke="white" stroke-width="1.5" d="M0,-3.0v7 M-2.5,-0.5L0,-3.0L2.5,-0.5"/>
                </g>
                <g id="arrowRight" xlink:href="#dirArrow" transform="rotate(90) translate(36 -43)" onmousedown="handlePan(1,0)">
                  <use xlink:href="#rim" fill="#404040">
                        <set attributeName="fill" to="#808080" begin="arrowRight.mouseover" end="arrowRight.mouseout"/>
                  </use>
                  <path fill="none" stroke="white" stroke-width="1.5" d="M0,-3.0v7 M-2.5,-0.5L0,-3.0L2.5,-0.5"/>
                </g>
                <g id="arrowDown" xlink:href="#dirArrow" transform="rotate(180) translate(-30 -48)" onmousedown="handlePan(0,1)">
                  <use xlink:href="#rim" fill="#404040">
                        <set attributeName="fill" to="#808080" begin="arrowDown.mouseover" end="arrowDown.mouseout"/>
                  </use>
                  <path fill="none" stroke="white" stroke-width="1.5" d="M0,-3.0v7 M-2.5,-0.5L0,-3.0L2.5,-0.5"/>
                </g>
                <g id="arrowLeft" xlink:href="#dirArrow" transform="rotate(270) translate(-36 17)" onmousedown="handlePan(-1,0)">
                  <use xlink:href="#rim" fill="#404040">
                        <set attributeName="fill" to="#808080" begin="arrowLeft.mouseover" end="arrowLeft.mouseout"/>
                  </use>
                  <path fill="none" stroke="white" stroke-width="1.5" d="M0,-3.0v7 M-2.5,-0.5L0,-3.0L2.5,-0.5"/>
                </g>
        </g>
        <svg viewBox="0 0 15 15" width="100%" height="30px" preserveAspectRatio="xMaxYMin meet">
         <g id="arrow_out" transform="scale(0.3 0.3)">
          <a xlink:href="types_8h__dep__incl_org.svg" target="_base">
           <rect id="button" ry="5" rx="5" y="6" x="6" height="38" width="38"
                fill="#f2f5e9" fill-opacity="0.5" stroke="#606060" stroke-width="1.0"/>
           <path id="arrow"
             d="M 11.500037,31.436501 C 11.940474,20.09759 22.043105,11.32322 32.158766,21.979434 L 37.068811,17.246167 C 37.068811,17.246167 37.088388,32 37.088388,32 L 22.160133,31.978069 C 22.160133,31.978069 26.997745,27.140456 26.997745,27.140456 C 18.528582,18.264221 13.291696,25.230495 11.500037,31.436501 z"
             style="fill:#404040;"/>
          </a>
         </g>
        </svg>
</svg>
