<?xml version="1.0" encoding="UTF-8" standalone="no"?>
<!DOCTYPE svg PUBLIC "-//W3C//DTD SVG 1.1//EN"
 "http://www.w3.org/Graphics/SVG/1.1/DTD/svg11.dtd">
<!-- Generated by graphviz version 14.1.3 (20260303.0454)
 -->
<!-- Title: libs/spectre&#45;types/include/spectre/types.h Pages: 1 -->
<svg width="128pt" height="96pt"
 viewBox="0.00 0.00 128.00 96.00" xmlns="http://www.w3.org/2000/svg" xmlns:xlink="http://www.w3.org/1999/xlink">
<g id="graph0" class="graph" transform="scale(1 1) rotate(0) translate(4 92)">
<title>libs/spectre&#45;types/include/spectre/types.h</title>
<!-- Node1 -->
<g id="node1" class="node">
<title>Node1</title>
<g id="a_node1"><a xlink:title=" ">
<polygon fill="#999999" stroke="#666666" points="120.25,-88 0,-88 0,-56 120.25,-56 120.25,-88"/>
<text xml:space="preserve" text-anchor="start" x="8" y="-74.5" font-family="Helvetica,sans-Serif" font-size="10.00">libs/spectre&#45;types</text>
<text xml:space="preserve" text-anchor="middle" x="60.12" y="-62.5" font-family="Helvetica,sans-Serif" font-size="10.00">/include/spectre/types.h</text>
</a>
</g>
</g>
<!-- Node2 -->
<g id="node2" class="node">
<title>Node2</title>
<g id="a_node2"><a xlink:title=" ">
<polygon fill="#e0e0e0" stroke="#999999" points="49,-20 11.25,-20 11.25,0 49,0 49,-20"/>
<text xml:space="preserve" text-anchor="middle" x="30.12" y="-6.5" font-family="Helvetica,sans-Serif" font-size="10.00">array</text>
</a>
</g>
</g>
<!-- Node1&#45;&gt;Node2 -->
<g id="edge1" class="edge">
<title>Node1&#45;&gt;Node2</title>
<path fill="none" stroke="#63b8ff" d="M52.4,-55.55C48.58,-47.91 43.93,-38.61 39.87,-30.49"/>
<polygon fill="#63b8ff" stroke="#63b8ff" points="43.11,-29.14 35.51,-21.76 36.85,-32.27 43.11,-29.14"/>
</g>
<!-- Node3 -->
<g id="node3" class="node">
<title>Node3</title>
<g id="a_node3"><a xlink:title=" ">
<polygon fill="#e0e0e0" stroke="#999999" points="112.75,-20 67.5,-20 67.5,0 112.75,0 112.75,-20"/>
<text xml:space="preserve" text-anchor="middle" x="90.12" y="-6.5" font-family="Helvetica,sans-Serif" font-size="10.00">cstdint</text>
</a>
</g>
</g>
<!-- Node1&#45;&gt;Node3 -->
<g id="edge2" class="edge">
<title>Node1&#45;&gt;Node3</title>
<path fill="none" stroke="#63b8ff" d="M67.85,-55.55C71.67,-47.91 76.32,-38.61 80.38,-30.49"/>
<polygon fill="#63b8ff" stroke="#63b8ff" points="83.4,-32.27 84.74,-21.76 77.14,-29.14 83.4,-32.27"/>
</g>
</g>
</svg>
