<?xml version="1.0" encoding="UTF-8" standalone="no"?>
<!DOCTYPE svg PUBLIC "-//W3C//DTD SVG 1.1//EN"
 "http://www.w3.org/Graphics/SVG/1.1/DTD/svg11.dtd">
<!-- Generated by graphviz version 14.1.3 (20260303.0454)
 -->
<!-- Title: app/ui_request_worker.h Pages: 1 -->
<svg width="1231pt" height="252pt"
 viewBox="0.00 0.00 1231.00 252.00" xmlns="http://www.w3.org/2000/svg" xmlns:xlink="http://www.w3.org/1999/xlink">
<g id="graph0" class="graph" transform="scale(1 1) rotate(0) translate(4 248)">
<title>app/ui_request_worker.h</title>
<!-- Node1 -->
<g id="node1" class="node">
<title>Node1</title>
<g id="a_node1"><a xlink:title=" ">
<polygon fill="#999999" stroke="#666666" points="245.25,-244 122.75,-244 122.75,-224 245.25,-224 245.25,-244"/>
<text xml:space="preserve" text-anchor="middle" x="184" y="-230.5" font-family="Helvetica,sans-Serif" font-size="10.00">app/ui_request_worker.h</text>
</a>
</g>
</g>
<!-- Node2 -->
<g id="node2" class="node">
<title>Node2</title>
<g id="a_node2"><a xlink:title=" ">
<polygon fill="#e0e0e0" stroke="#999999" points="94,-132 0,-132 0,-112 94,-112 94,-132"/>
<text xml:space="preserve" text-anchor="middle" x="47" y="-118.5" font-family="Helvetica,sans-Serif" font-size="10.00">condition_variable</text>
</a>
</g>
</g>
<!-- Node1&#45;&gt;Node2 -->
<g id="edge1" class="edge">
<title>Node1&#45;&gt;Node2</title>
<path fill="none" stroke="#63b8ff" d="M172.32,-223.62C149.07,-204.95 96.71,-162.92 67.57,-139.52"/>
<polygon fill="#63b8ff" stroke="#63b8ff" points="69.82,-136.83 59.83,-133.3 65.44,-142.29 69.82,-136.83"/>
</g>
<!-- Node3 -->
<g id="node3" class="node">
<title>Node3</title>
<g id="a_node3"><a xlink:title=" ">
<polygon fill="#e0e0e0" stroke="#999999" points="155.5,-132 112.5,-132 112.5,-112 155.5,-112 155.5,-132"/>
<text xml:space="preserve" text-anchor="middle" x="134" y="-118.5" font-family="Helvetica,sans-Serif" font-size="10.00">mutex</text>
</a>
</g>
</g>
<!-- Node1&#45;&gt;Node3 -->
<g id="edge2" class="edge">
<title>Node1&#45;&gt;Node3</title>
<path fill="none" stroke="#63b8ff" d="M179.74,-223.62C171.62,-205.76 153.79,-166.53 142.94,-142.67"/>
<polygon fill="#63b8ff" stroke="#63b8ff" points="146.2,-141.39 138.88,-133.73 139.83,-144.28 146.2,-141.39"/>
</g>
<!-- Node4 -->
<g id="node4" class="node">
<title>Node4</title>
<g id="a_node4"><a xlink:href="nvim_8h.html" target="_top" xlink:title=" ">
<polygon fill="white" stroke="#666666" points="678.25,-188 597.75,-188 597.75,-168 678.25,-168 678.25,-188"/>
<text xml:space="preserve" text-anchor="middle" x="638" y="-174.5" font-family="Helvetica,sans-Serif" font-size="10.00">spectre/nvim.h</text>
</a>
</g>
</g>
<!-- Node1&#45;&gt;Node4 -->
<g id="edge3" class="edge">
<title>Node1&#45;&gt;Node4</title>
<path fill="none" stroke="#63b8ff" d="M245.7,-225.66C335.78,-214.95 501.69,-195.21 585.95,-185.19"/>
<polygon fill="#63b8ff" stroke="#63b8ff" points="586.27,-188.68 595.78,-184.02 585.44,-181.73 586.27,-188.68"/>
</g>
<!-- Node12 -->
<g id="node12" class="node">
<title>Node12</title>
<g id="a_node12"><a xlink:title=" ">
<polygon fill="#e0e0e0" stroke="#999999" points="340,-76 300,-76 300,-56 340,-56 340,-76"/>
<text xml:space="preserve" text-anchor="middle" x="320" y="-62.5" font-family="Helvetica,sans-Serif" font-size="10.00">string</text>
</a>
</g>
</g>
<!-- Node1&#45;&gt;Node12 -->
<g id="edge31" class="edge">
<title>Node1&#45;&gt;Node12</title>
<path fill="none" stroke="#63b8ff" d="M186.29,-223.72C192.07,-201.86 209.14,-146.43 241,-112 254.24,-97.69 273.09,-86.72 289.06,-79.19"/>
<polygon fill="#63b8ff" stroke="#63b8ff" points="290.45,-82.4 298.16,-75.14 287.6,-76 290.45,-82.4"/>
</g>
<!-- Node18 -->
<g id="node18" class="node">
<title>Node18</title>
<g id="a_node18"><a xlink:title=" ">
<polygon fill="#e0e0e0" stroke="#999999" points="1222.5,-132 1179.5,-132 1179.5,-112 1222.5,-112 1222.5,-132"/>
<text xml:space="preserve" text-anchor="middle" x="1201" y="-118.5" font-family="Helvetica,sans-Serif" font-size="10.00">thread</text>
</a>
</g>
</g>
<!-- Node1&#45;&gt;Node18 -->
<g id="edge32" class="edge">
<title>Node1&#45;&gt;Node18</title>
<path fill="none" stroke="#63b8ff" d="M245.47,-228.36C398.6,-216.4 809.23,-181.96 1149,-132 1155.18,-131.09 1161.75,-130.03 1168.07,-128.96"/>
<polygon fill="#63b8ff" stroke="#63b8ff" points="1168.28,-132.47 1177.54,-127.32 1167.08,-125.58 1168.28,-132.47"/>
</g>
<!-- Node4&#45;&gt;Node2 -->
<g id="edge5" class="edge">
<title>Node4&#45;&gt;Node2</title>
<path fill="none" stroke="#63b8ff" d="M597.29,-174.63C509.46,-169.28 295.46,-155.05 105.64,-132.24"/>
<polygon fill="#63b8ff" stroke="#63b8ff" points="106.17,-128.78 95.82,-131.04 105.33,-135.72 106.17,-128.78"/>
</g>
<!-- Node4&#45;&gt;Node3 -->
<g id="edge9" class="edge">
<title>Node4&#45;&gt;Node3</title>
<path fill="none" stroke="#63b8ff" d="M597.36,-172.98C521.03,-165.37 351.02,-148.18 208,-132 194.51,-130.47 179.65,-128.69 166.81,-127.11"/>
<polygon fill="#63b8ff" stroke="#63b8ff" points="167.54,-123.67 157.19,-125.92 166.68,-130.62 167.54,-123.67"/>
</g>
<!-- Node5 -->
<g id="node5" class="node">
<title>Node5</title>
<g id="a_node5"><a xlink:title=" ">
<polygon fill="#e0e0e0" stroke="#999999" points="936.62,-132 891.38,-132 891.38,-112 936.62,-112 936.62,-132"/>
<text xml:space="preserve" text-anchor="middle" x="914" y="-118.5" font-family="Helvetica,sans-Serif" font-size="10.00">atomic</text>
</a>
</g>
</g>
<!-- Node4&#45;&gt;Node5 -->
<g id="edge4" class="edge">
<title>Node4&#45;&gt;Node5</title>
<path fill="none" stroke="#63b8ff" d="M678.58,-170.83C725.1,-163.48 803.84,-150.18 879.85,-132.57"/>
<polygon fill="#63b8ff" stroke="#63b8ff" points="880.64,-135.98 889.57,-130.29 879.04,-129.17 880.64,-135.98"/>
</g>
<!-- Node6 -->
<g id="node6" class="node">
<title>Node6</title>
<g id="a_node6"><a xlink:title=" ">
<polygon fill="#e0e0e0" stroke="#999999" points="490.62,-20 445.38,-20 445.38,0 490.62,0 490.62,-20"/>
<text xml:space="preserve" text-anchor="middle" x="468" y="-6.5" font-family="Helvetica,sans-Serif" font-size="10.00">cstdint</text>
</a>
</g>
</g>
<!-- Node4&#45;&gt;Node6 -->
<g id="edge6" class="edge">
<title>Node4&#45;&gt;Node6</title>
<path fill="none" stroke="#63b8ff" d="M597.37,-175.4C500.92,-171.2 264.48,-158.29 241,-132 180.87,-64.67 357.2,-28.23 434.08,-15.88"/>
<polygon fill="#63b8ff" stroke="#63b8ff" points="434.25,-19.39 443.59,-14.4 433.17,-12.48 434.25,-19.39"/>
</g>
<!-- Node7 -->
<g id="node7" class="node">
<title>Node7</title>
<g id="a_node7"><a xlink:title=" ">
<polygon fill="#e0e0e0" stroke="#999999" points="1051,-132 993,-132 993,-112 1051,-112 1051,-132"/>
<text xml:space="preserve" text-anchor="middle" x="1022" y="-118.5" font-family="Helvetica,sans-Serif" font-size="10.00">functional</text>
</a>
</g>
</g>
<!-- Node4&#45;&gt;Node7 -->
<g id="edge7" class="edge">
<title>Node4&#45;&gt;Node7</title>
<path fill="none" stroke="#63b8ff" d="M678.57,-172.65C742.61,-165.55 870.98,-150.41 979,-132 979.99,-131.83 980.99,-131.66 981.99,-131.48"/>
<polygon fill="#63b8ff" stroke="#63b8ff" points="982.26,-134.99 991.43,-129.68 980.95,-128.11 982.26,-134.99"/>
</g>
<!-- Node8 -->
<g id="node8" class="node">
<title>Node8</title>
<g id="a_node8"><a xlink:title=" ">
<polygon fill="#e0e0e0" stroke="#999999" points="1122.75,-132 1069.25,-132 1069.25,-112 1122.75,-112 1122.75,-132"/>
<text xml:space="preserve" text-anchor="middle" x="1096" y="-118.5" font-family="Helvetica,sans-Serif" font-size="10.00">mpack.h</text>
</a>
</g>
</g>
<!-- Node4&#45;&gt;Node8 -->
<g id="edge8" class="edge">
<title>Node4&#45;&gt;Node8</title>
<path fill="none" stroke="#63b8ff" d="M678.71,-174.54C752.37,-169.69 912.84,-157.27 1057.67,-132.17"/>
<polygon fill="#63b8ff" stroke="#63b8ff" points="1058.23,-135.63 1067.47,-130.45 1057.01,-128.74 1058.23,-135.63"/>
</g>
<!-- Node9 -->
<g id="node9" class="node">
<title>Node9</title>
<g id="a_node9"><a xlink:title=" ">
<polygon fill="#e0e0e0" stroke="#999999" points="292.12,-132 249.88,-132 249.88,-112 292.12,-112 292.12,-132"/>
<text xml:space="preserve" text-anchor="middle" x="271" y="-118.5" font-family="Helvetica,sans-Serif" font-size="10.00">queue</text>
</a>
</g>
</g>
<!-- Node4&#45;&gt;Node9 -->
<g id="edge10" class="edge">
<title>Node4&#45;&gt;Node9</title>
<path fill="none" stroke="#63b8ff" d="M597.38,-173.04C534.55,-166.57 410.18,-152.38 306,-132 305.17,-131.84 304.33,-131.67 303.48,-131.49"/>
<polygon fill="#63b8ff" stroke="#63b8ff" points="304.39,-128.11 293.86,-129.26 302.81,-134.93 304.39,-128.11"/>
</g>
<!-- Node10 -->
<g id="node10" class="node">
<title>Node10</title>
<g id="a_node10"><a xlink:href="events_8h.html" target="_top" xlink:title=" ">
<polygon fill="white" stroke="#666666" points="512.38,-76 423.62,-76 423.62,-56 512.38,-56 512.38,-76"/>
<text xml:space="preserve" text-anchor="middle" x="468" y="-62.5" font-family="Helvetica,sans-Serif" font-size="10.00">spectre/events.h</text>
</a>
</g>
</g>
<!-- Node4&#45;&gt;Node10 -->
<g id="edge11" class="edge">
<title>Node4&#45;&gt;Node10</title>
<path fill="none" stroke="#63b8ff" d="M597.56,-173.96C565.5,-169.53 521.48,-158.66 493,-132 480.57,-120.37 474.25,-101.88 471.08,-87.59"/>
<polygon fill="#63b8ff" stroke="#63b8ff" points="474.55,-87.08 469.3,-77.87 467.66,-88.34 474.55,-87.08"/>
</g>
<!-- Node11 -->
<g id="node11" class="node">
<title>Node11</title>
<g id="a_node11"><a xlink:href="grid__sink_8h.html" target="_top" xlink:title=" ">
<polygon fill="white" stroke="#666666" points="446.25,-132 347.75,-132 347.75,-112 446.25,-112 446.25,-132"/>
<text xml:space="preserve" text-anchor="middle" x="397" y="-118.5" font-family="Helvetica,sans-Serif" font-size="10.00">spectre/grid_sink.h</text>
</a>
</g>
</g>
<!-- Node4&#45;&gt;Node11 -->
<g id="edge13" class="edge">
<title>Node4&#45;&gt;Node11</title>
<path fill="none" stroke="#63b8ff" d="M597.39,-167.9C556.91,-158.83 494.55,-144.86 450.15,-134.91"/>
<polygon fill="#63b8ff" stroke="#63b8ff" points="450.99,-131.51 440.47,-132.74 449.46,-138.34 450.99,-131.51"/>
</g>
<!-- Node4&#45;&gt;Node12 -->
<g id="edge24" class="edge">
<title>Node4&#45;&gt;Node12</title>
<path fill="none" stroke="#63b8ff" d="M597.26,-176.15C524.61,-173.8 376.76,-164.98 339,-132 326.4,-120.99 321.94,-102.14 320.46,-87.56"/>
<polygon fill="#63b8ff" stroke="#63b8ff" points="323.96,-87.45 319.88,-77.67 316.97,-87.85 323.96,-87.45"/>
</g>
<!-- Node13 -->
<g id="node13" class="node">
<title>Node13</title>
<g id="a_node13"><a xlink:href="highlight_8h.html" target="_top" xlink:title=" ">
<polygon fill="white" stroke="#666666" points="597.75,-132 502.25,-132 502.25,-112 597.75,-112 597.75,-132"/>
<text xml:space="preserve" text-anchor="middle" x="550" y="-118.5" font-family="Helvetica,sans-Serif" font-size="10.00">spectre/highlight.h</text>
</a>
</g>
</g>
<!-- Node4&#45;&gt;Node13 -->
<g id="edge16" class="edge">
<title>Node4&#45;&gt;Node13</title>
<path fill="none" stroke="#63b8ff" d="M622.67,-167.59C609.5,-159.51 590.27,-147.71 574.89,-138.27"/>
<polygon fill="#63b8ff" stroke="#63b8ff" points="577.09,-135.52 566.74,-133.27 573.43,-141.48 577.09,-135.52"/>
</g>
<!-- Node14 -->
<g id="node14" class="node">
<title>Node14</title>
<g id="a_node14"><a xlink:href="types_8h.html" target="_top" xlink:title=" ">
<polygon fill="white" stroke="#666666" points="809.75,-76 726.25,-76 726.25,-56 809.75,-56 809.75,-76"/>
<text xml:space="preserve" text-anchor="middle" x="768" y="-62.5" font-family="Helvetica,sans-Serif" font-size="10.00">spectre/types.h</text>
</a>
</g>
</g>
<!-- Node4&#45;&gt;Node14 -->
<g id="edge23" class="edge">
<title>Node4&#45;&gt;Node14</title>
<path fill="none" stroke="#63b8ff" d="M678.37,-176.37C790.86,-174.22 1101.62,-165.27 1132,-132 1174.95,-84.95 932.51,-71.79 821.38,-68.24"/>
<polygon fill="#63b8ff" stroke="#63b8ff" points="821.71,-64.75 811.61,-67.95 821.5,-71.75 821.71,-64.75"/>
</g>
<!-- Node16 -->
<g id="node16" class="node">
<title>Node16</title>
<g id="a_node16"><a xlink:title=" ">
<polygon fill="#e0e0e0" stroke="#999999" points="708.38,-76 625.62,-76 625.62,-56 708.38,-56 708.38,-76"/>
<text xml:space="preserve" text-anchor="middle" x="667" y="-62.5" font-family="Helvetica,sans-Serif" font-size="10.00">unordered_map</text>
</a>
</g>
</g>
<!-- Node4&#45;&gt;Node16 -->
<g id="edge26" class="edge">
<title>Node4&#45;&gt;Node16</title>
<path fill="none" stroke="#63b8ff" d="M678.58,-177.33C754.15,-176.99 911.89,-171.45 946,-132 994.6,-75.78 1126.02,-144.1 719.97,-76.47"/>
<polygon fill="#63b8ff" stroke="#63b8ff" points="720.66,-73.03 710.22,-74.83 719.51,-79.94 720.66,-73.03"/>
</g>
<!-- Node4&#45;&gt;Node18 -->
<g id="edge25" class="edge">
<title>Node4&#45;&gt;Node18</title>
<path fill="none" stroke="#63b8ff" d="M678.61,-175.74C767.38,-172.51 985.2,-161.95 1165,-132 1166,-131.83 1167.01,-131.65 1168.04,-131.46"/>
<polygon fill="#63b8ff" stroke="#63b8ff" points="1168.52,-134.94 1177.55,-129.4 1167.04,-128.1 1168.52,-134.94"/>
</g>
<!-- Node19 -->
<g id="node19" class="node">
<title>Node19</title>
<g id="a_node19"><a xlink:title=" ">
<polygon fill="#e0e0e0" stroke="#999999" points="660.62,-132 615.38,-132 615.38,-112 660.62,-112 660.62,-132"/>
<text xml:space="preserve" text-anchor="middle" x="638" y="-118.5" font-family="Helvetica,sans-Serif" font-size="10.00">variant</text>
</a>
</g>
</g>
<!-- Node4&#45;&gt;Node19 -->
<g id="edge27" class="edge">
<title>Node4&#45;&gt;Node19</title>
<path fill="none" stroke="#63b8ff" d="M638,-167.59C638,-161.01 638,-151.96 638,-143.73"/>
<polygon fill="#63b8ff" stroke="#63b8ff" points="641.5,-143.81 638,-133.81 634.5,-143.81 641.5,-143.81"/>
</g>
<!-- Node20 -->
<g id="node20" class="node">
<title>Node20</title>
<g id="a_node20"><a xlink:title=" ">
<polygon fill="#e0e0e0" stroke="#999999" points="721.5,-132 678.5,-132 678.5,-112 721.5,-112 721.5,-132"/>
<text xml:space="preserve" text-anchor="middle" x="700" y="-118.5" font-family="Helvetica,sans-Serif" font-size="10.00">vector</text>
</a>
</g>
</g>
<!-- Node4&#45;&gt;Node20 -->
<g id="edge28" class="edge">
<title>Node4&#45;&gt;Node20</title>
<path fill="none" stroke="#63b8ff" d="M648.8,-167.59C657.6,-159.93 670.25,-148.91 680.77,-139.75"/>
<polygon fill="#63b8ff" stroke="#63b8ff" points="682.94,-142.5 688.18,-133.29 678.34,-137.22 682.94,-142.5"/>
</g>
<!-- Node21 -->
<g id="node21" class="node">
<title>Node21</title>
<g id="a_node21"><a xlink:title=" ">
<polygon fill="#e0e0e0" stroke="#999999" points="788.88,-132 739.12,-132 739.12,-112 788.88,-112 788.88,-132"/>
<text xml:space="preserve" text-anchor="middle" x="764" y="-118.5" font-family="Helvetica,sans-Serif" font-size="10.00">signal.h</text>
</a>
</g>
</g>
<!-- Node4&#45;&gt;Node21 -->
<g id="edge29" class="edge">
<title>Node4&#45;&gt;Node21</title>
<path fill="none" stroke="#63b8ff" d="M659.95,-167.59C679.7,-159.13 708.99,-146.58 731.47,-136.94"/>
<polygon fill="#63b8ff" stroke="#63b8ff" points="732.68,-140.23 740.49,-133.08 729.92,-133.8 732.68,-140.23"/>
</g>
<!-- Node22 -->
<g id="node22" class="node">
<title>Node22</title>
<g id="a_node22"><a xlink:title=" ">
<polygon fill="#e0e0e0" stroke="#999999" points="873.5,-132 806.5,-132 806.5,-112 873.5,-112 873.5,-132"/>
<text xml:space="preserve" text-anchor="middle" x="840" y="-118.5" font-family="Helvetica,sans-Serif" font-size="10.00">sys/types.h</text>
</a>
</g>
</g>
<!-- Node4&#45;&gt;Node22 -->
<g id="edge30" class="edge">
<title>Node4&#45;&gt;Node22</title>
<path fill="none" stroke="#63b8ff" d="M673.19,-167.59C707.09,-158.53 758.53,-144.78 795.31,-134.95"/>
<polygon fill="#63b8ff" stroke="#63b8ff" points="796.01,-138.38 804.76,-132.42 794.2,-131.62 796.01,-138.38"/>
</g>
<!-- Node10&#45;&gt;Node6 -->
<g id="edge12" class="edge">
<title>Node10&#45;&gt;Node6</title>
<path fill="none" stroke="#63b8ff" d="M468,-55.59C468,-49.01 468,-39.96 468,-31.73"/>
<polygon fill="#63b8ff" stroke="#63b8ff" points="471.5,-31.81 468,-21.81 464.5,-31.81 471.5,-31.81"/>
</g>
<!-- Node11&#45;&gt;Node6 -->
<g id="edge14" class="edge">
<title>Node11&#45;&gt;Node6</title>
<path fill="none" stroke="#63b8ff" d="M397.82,-111.91C399.36,-98.68 403.65,-73.76 415,-56 422.29,-44.59 433.36,-34.54 443.51,-26.85"/>
<polygon fill="#63b8ff" stroke="#63b8ff" points="445.45,-29.76 451.56,-21.11 441.39,-24.06 445.45,-29.76"/>
</g>
<!-- Node11&#45;&gt;Node12 -->
<g id="edge15" class="edge">
<title>Node11&#45;&gt;Node12</title>
<path fill="none" stroke="#63b8ff" d="M383.59,-111.59C372.39,-103.74 356.19,-92.38 342.94,-83.09"/>
<polygon fill="#63b8ff" stroke="#63b8ff" points="344.95,-80.22 334.76,-77.35 340.93,-85.96 344.95,-80.22"/>
</g>
<!-- Node13&#45;&gt;Node6 -->
<g id="edge17" class="edge">
<title>Node13&#45;&gt;Node6</title>
<path fill="none" stroke="#63b8ff" d="M559.86,-111.65C572.47,-98.54 591.29,-74.24 579,-56 561.97,-30.73 528.06,-19.64 502.18,-14.78"/>
<polygon fill="#63b8ff" stroke="#63b8ff" points="502.87,-11.35 492.44,-13.2 501.75,-18.26 502.87,-11.35"/>
</g>
<!-- Node13&#45;&gt;Node14 -->
<g id="edge18" class="edge">
<title>Node13&#45;&gt;Node14</title>
<path fill="none" stroke="#63b8ff" d="M588.22,-111.53C624.53,-102.54 679.3,-88.97 718.85,-79.18"/>
<polygon fill="#63b8ff" stroke="#63b8ff" points="719.49,-82.62 728.35,-76.82 717.8,-75.83 719.49,-82.62"/>
</g>
<!-- Node13&#45;&gt;Node16 -->
<g id="edge21" class="edge">
<title>Node13&#45;&gt;Node16</title>
<path fill="none" stroke="#63b8ff" d="M570.38,-111.59C588.56,-103.21 615.43,-90.8 636.22,-81.21"/>
<polygon fill="#63b8ff" stroke="#63b8ff" points="637.47,-84.48 645.09,-77.11 634.54,-78.13 637.47,-84.48"/>
</g>
<!-- Node17 -->
<g id="node17" class="node">
<title>Node17</title>
<g id="a_node17"><a xlink:title=" ">
<polygon fill="#e0e0e0" stroke="#999999" points="569.62,-76 530.38,-76 530.38,-56 569.62,-56 569.62,-76"/>
<text xml:space="preserve" text-anchor="middle" x="550" y="-62.5" font-family="Helvetica,sans-Serif" font-size="10.00">utility</text>
</a>
</g>
</g>
<!-- Node13&#45;&gt;Node17 -->
<g id="edge22" class="edge">
<title>Node13&#45;&gt;Node17</title>
<path fill="none" stroke="#63b8ff" d="M550,-111.59C550,-105.01 550,-95.96 550,-87.73"/>
<polygon fill="#63b8ff" stroke="#63b8ff" points="553.5,-87.81 550,-77.81 546.5,-87.81 553.5,-87.81"/>
</g>
<!-- Node14&#45;&gt;Node6 -->
<g id="edge20" class="edge">
<title>Node14&#45;&gt;Node6</title>
<path fill="none" stroke="#63b8ff" d="M725.97,-57.43C666.03,-46.64 557.14,-27.05 501.98,-17.12"/>
<polygon fill="#63b8ff" stroke="#63b8ff" points="502.7,-13.69 492.24,-15.36 501.46,-20.58 502.7,-13.69"/>
</g>
<!-- Node15 -->
<g id="node15" class="node">
<title>Node15</title>
<g id="a_node15"><a xlink:title=" ">
<polygon fill="#e0e0e0" stroke="#999999" points="786.88,-20 749.12,-20 749.12,0 786.88,0 786.88,-20"/>
<text xml:space="preserve" text-anchor="middle" x="768" y="-6.5" font-family="Helvetica,sans-Serif" font-size="10.00">array</text>
</a>
</g>
</g>
<!-- Node14&#45;&gt;Node15 -->
<g id="edge19" class="edge">
<title>Node14&#45;&gt;Node15</title>
<path fill="none" stroke="#63b8ff" d="M768,-55.59C768,-49.01 768,-39.96 768,-31.73"/>
<polygon fill="#63b8ff" stroke="#63b8ff" points="771.5,-31.81 768,-21.81 764.5,-31.81 771.5,-31.81"/>
</g>
</g>
</svg>
