<?xml version="1.0" encoding="UTF-8" standalone="no"?>
<!DOCTYPE svg PUBLIC "-//W3C//DTD SVG 1.1//EN"
 "http://www.w3.org/Graphics/SVG/1.1/DTD/svg11.dtd">
<!-- Generated by graphviz version 14.1.3 (20260303.0454)
 -->
<!-- Title: libs/spectre&#45;types/include/spectre/unicode.h Pages: 1 -->
<svg width="293pt" height="152pt"
 viewBox="0.00 0.00 293.00 152.00" xmlns="http://www.w3.org/2000/svg" xmlns:xlink="http://www.w3.org/1999/xlink">
<g id="graph0" class="graph" transform="scale(1 1) rotate(0) translate(4 148)">
<title>libs/spectre&#45;types/include/spectre/unicode.h</title>
<!-- Node1 -->
<g id="node1" class="node">
<title>Node1</title>
<g id="a_node1"><a xlink:title=" ">
<polygon fill="#999999" stroke="#666666" points="185.95,-144 55.95,-144 55.95,-112 185.95,-112 185.95,-144"/>
<text xml:space="preserve" text-anchor="start" x="63.95" y="-130.5" font-family="Helvetica,sans-Serif" font-size="10.00">libs/spectre&#45;types</text>
<text xml:space="preserve" text-anchor="middle" x="120.95" y="-118.5" font-family="Helvetica,sans-Serif" font-size="10.00">/include/spectre/unicode.h</text>
</a>
</g>
</g>
<!-- Node2 -->
<g id="node2" class="node">
<title>Node2</title>
<g id="a_node2"><a xlink:title=" ">
<polygon fill="#e0e0e0" stroke="#999999" points="76.83,-20 39.08,-20 39.08,0 76.83,0 76.83,-20"/>
<text xml:space="preserve" text-anchor="middle" x="57.95" y="-6.5" font-family="Helvetica,sans-Serif" font-size="10.00">array</text>
</a>
</g>
</g>
<!-- Node1&#45;&gt;Node2 -->
<g id="edge1" class="edge">
<title>Node1&#45;&gt;Node2</title>
<path fill="none" stroke="#63b8ff" d="M55.55,-113.34C35.58,-105.78 15.79,-94.07 3.95,-76 -7.89,-57.92 11.78,-39.12 30.62,-26.42"/>
<polygon fill="#63b8ff" stroke="#63b8ff" points="32.34,-29.47 38.94,-21.18 28.61,-23.55 32.34,-29.47"/>
</g>
<!-- Node3 -->
<g id="node3" class="node">
<title>Node3</title>
<g id="a_node3"><a xlink:title=" ">
<polygon fill="#e0e0e0" stroke="#999999" points="61.08,-76 12.83,-76 12.83,-56 61.08,-56 61.08,-76"/>
<text xml:space="preserve" text-anchor="middle" x="36.95" y="-62.5" font-family="Helvetica,sans-Serif" font-size="10.00">cstddef</text>
</a>
</g>
</g>
<!-- Node1&#45;&gt;Node3 -->
<g id="edge2" class="edge">
<title>Node1&#45;&gt;Node3</title>
<path fill="none" stroke="#63b8ff" d="M99.32,-111.55C87.05,-102.78 71.71,-91.83 59.32,-82.97"/>
<polygon fill="#63b8ff" stroke="#63b8ff" points="61.53,-80.25 51.35,-77.29 57.46,-85.95 61.53,-80.25"/>
</g>
<!-- Node4 -->
<g id="node4" class="node">
<title>Node4</title>
<g id="a_node4"><a xlink:title=" ">
<polygon fill="#e0e0e0" stroke="#999999" points="178.58,-20 133.33,-20 133.33,0 178.58,0 178.58,-20"/>
<text xml:space="preserve" text-anchor="middle" x="155.95" y="-6.5" font-family="Helvetica,sans-Serif" font-size="10.00">cstdint</text>
</a>
</g>
</g>
<!-- Node1&#45;&gt;Node4 -->
<g id="edge3" class="edge">
<title>Node1&#45;&gt;Node4</title>
<path fill="none" stroke="#63b8ff" d="M143.17,-111.53C154.05,-102.56 166.06,-90.23 171.95,-76 178.14,-61.07 172.88,-43.18 166.79,-29.95"/>
<polygon fill="#63b8ff" stroke="#63b8ff" points="170.1,-28.73 162.4,-21.45 163.88,-31.94 170.1,-28.73"/>
</g>
<!-- Node5 -->
<g id="node5" class="node">
<title>Node5</title>
<g id="a_node5"><a xlink:href="types_8h.html" target="_top" xlink:title=" ">
<polygon fill="white" stroke="#666666" points="162.7,-76 79.2,-76 79.2,-56 162.7,-56 162.7,-76"/>
<text xml:space="preserve" text-anchor="middle" x="120.95" y="-62.5" font-family="Helvetica,sans-Serif" font-size="10.00">spectre/types.h</text>
</a>
</g>
</g>
<!-- Node1&#45;&gt;Node5 -->
<g id="edge4" class="edge">
<title>Node1&#45;&gt;Node5</title>
<path fill="none" stroke="#63b8ff" d="M120.95,-111.55C120.95,-104.34 120.95,-95.66 120.95,-87.88"/>
<polygon fill="#63b8ff" stroke="#63b8ff" points="124.45,-87.92 120.95,-77.92 117.45,-87.92 124.45,-87.92"/>
</g>
<!-- Node6 -->
<g id="node6" class="node">
<title>Node6</title>
<g id="a_node6"><a xlink:title=" ">
<polygon fill="#e0e0e0" stroke="#999999" points="284.7,-76 219.2,-76 219.2,-56 284.7,-56 284.7,-76"/>
<text xml:space="preserve" text-anchor="middle" x="251.95" y="-62.5" font-family="Helvetica,sans-Serif" font-size="10.00">string_view</text>
</a>
</g>
</g>
<!-- Node1&#45;&gt;Node6 -->
<g id="edge7" class="edge">
<title>Node1&#45;&gt;Node6</title>
<path fill="none" stroke="#63b8ff" d="M154.69,-111.55C175.16,-102.17 201.08,-90.3 221.02,-81.17"/>
<polygon fill="#63b8ff" stroke="#63b8ff" points="222.4,-84.38 230.03,-77.04 219.49,-78.02 222.4,-84.38"/>
</g>
<!-- Node5&#45;&gt;Node2 -->
<g id="edge5" class="edge">
<title>Node5&#45;&gt;Node2</title>
<path fill="none" stroke="#63b8ff" d="M109.98,-55.59C101.03,-47.93 88.18,-36.91 77.49,-27.75"/>
<polygon fill="#63b8ff" stroke="#63b8ff" points="79.82,-25.13 69.95,-21.28 75.26,-30.45 79.82,-25.13"/>
</g>
<!-- Node5&#45;&gt;Node4 -->
<g id="edge6" class="edge">
<title>Node5&#45;&gt;Node4</title>
<path fill="none" stroke="#63b8ff" d="M127.05,-55.59C131.67,-48.47 138.16,-38.45 143.82,-29.72"/>
<polygon fill="#63b8ff" stroke="#63b8ff" points="146.6,-31.86 149.1,-21.57 140.73,-28.06 146.6,-31.86"/>
</g>
</g>
</svg>
