<?xml version="1.0" encoding="UTF-8" standalone="no"?>
<!DOCTYPE svg PUBLIC "-//W3C//DTD SVG 1.1//EN"
 "http://www.w3.org/Graphics/SVG/1.1/DTD/svg11.dtd">
<!-- Generated by graphviz version 14.1.3 (20260303.0454)
 -->
<!-- Title: libs/spectre&#45;renderer/src/vulkan/vk_renderer.h Pages: 1 -->
<!--zoomable 264 -->
<svg id="main" version="1.1" xmlns="http://www.w3.org/2000/svg" xmlns:xlink="http://www.w3.org/1999/xlink" xml:space="preserve" onload="init(evt)">
<style type="text/css"><![CDATA[
.edge:hover path { stroke: red; }
.edge:hover polygon { stroke: red; fill: red; }
]]></style>
<script type="text/javascript"><![CDATA[
var edges = document.getElementsByTagName('g');
if (edges && edges.length) {
  for (var i=0;i<edges.length;i++) {
    if (edges[i].id.substr(0,4)=='edge') {
      edges[i].setAttribute('class','edge');
    }
  }
}
]]></script>
        <defs>
                <circle id="rim" cx="0" cy="0" r="7"/>
                <circle id="rim2" cx="0" cy="0" r="3.5"/>
                <g id="zoomPlus">
                        <use xlink:href="#rim" fill="#404040">
                                <set attributeName="fill" to="#808080" begin="zoomplus.mouseover" end="zoomplus.mouseout"/>
                        </use>
                        <path d="M-4,0h8M0,-4v8" fill="none" stroke="white" stroke-width="1.5" pointer-events="none"/>
                </g>
                <g id="zoomMin">
                        <use xlink:href="#rim" fill="#404040">
                                <set attributeName="fill" to="#808080" begin="zoomminus.mouseover" end="zoomminus.mouseout"/>
                        </use>
                        <path d="M-4,0h8" fill="none" stroke="white" stroke-width="1.5" pointer-events="none"/>
                </g>
                <g id="dirArrow">
                        <path fill="none" stroke="white" stroke-width="1.5" d="M0,-3.0v7 M-2.5,-0.5L0,-3.0L2.5,-0.5"/>
                </g>
               <g id="resetDef">
                       <use xlink:href="#rim2" fill="#404040">
                               <set attributeName="fill" to="#808080" begin="reset.mouseover" end="reset.mouseout"/>
                       </use>
               </g>
        </defs>

<script type="text/javascript">
var viewWidth = 651;
var viewHeight = 264;
var sectionId = 'dynsection-0';
</script>
<script xlink:href="svgpan.js"/>
<svg id="graph" class="graph">
<g id="viewport">
<title>libs/spectre&#45;renderer/src/vulkan/vk_renderer.h</title>
<!-- Node1 -->
<g id="node1" class="node">
<title>Node1</title>
<g id="a_node1"><a xlink:title=" ">
<polygon fill="#999999" stroke="#666666" points="394,-256 267.75,-256 267.75,-224 394,-224 394,-256"/>
<text xml:space="preserve" text-anchor="start" x="275.75" y="-242.5" font-family="Helvetica,sans-Serif" font-size="10.00">libs/spectre&#45;renderer</text>
<text xml:space="preserve" text-anchor="middle" x="330.88" y="-230.5" font-family="Helvetica,sans-Serif" font-size="10.00">/src/vulkan/vk_renderer.h</text>
</a>
</g>
</g>
<!-- Node2 -->
<g id="node2" class="node">
<title>Node2</title>
<g id="a_node2"><a xlink:href="renderer__state_8h.html" target="_top" xlink:title=" ">
<polygon fill="white" stroke="#666666" points="282.12,-188 195.62,-188 195.62,-168 282.12,-168 282.12,-188"/>
<text xml:space="preserve" text-anchor="middle" x="238.88" y="-174.5" font-family="Helvetica,sans-Serif" font-size="10.00">renderer_state.h</text>
</a>
</g>
</g>
<!-- Node1&#45;&gt;Node2 -->
<g id="edge1" class="edge">
<title>Node1&#45;&gt;Node2</title>
<path fill="none" stroke="#63b8ff" d="M307.18,-223.55C293.47,-214.61 276.28,-203.39 262.57,-194.45"/>
<polygon fill="#63b8ff" stroke="#63b8ff" points="264.86,-191.77 254.57,-189.23 261.03,-197.63 264.86,-191.77"/>
</g>
<!-- Node3 -->
<g id="node3" class="node">
<title>Node3</title>
<g id="a_node3"><a xlink:href="renderer_8h.html" target="_top" xlink:title=" ">
<polygon fill="white" stroke="#666666" points="217.25,-132 122.5,-132 122.5,-112 217.25,-112 217.25,-132"/>
<text xml:space="preserve" text-anchor="middle" x="169.88" y="-118.5" font-family="Helvetica,sans-Serif" font-size="10.00">spectre/renderer.h</text>
</a>
</g>
</g>
<!-- Node1&#45;&gt;Node3 -->
<g id="edge28" class="edge">
<title>Node1&#45;&gt;Node3</title>
<path fill="none" stroke="#63b8ff" d="M267.46,-230.25C239.21,-223.25 207.69,-210.65 186.88,-188 175.77,-175.91 171.73,-157.46 170.35,-143.3"/>
<polygon fill="#63b8ff" stroke="#63b8ff" points="173.87,-143.53 169.8,-133.75 166.89,-143.93 173.87,-143.53"/>
</g>
<!-- Node5 -->
<g id="node5" class="node">
<title>Node5</title>
<g id="a_node5"><a xlink:title=" ">
<polygon fill="#e0e0e0" stroke="#999999" points="49.75,-76 0,-76 0,-56 49.75,-56 49.75,-76"/>
<text xml:space="preserve" text-anchor="middle" x="24.88" y="-62.5" font-family="Helvetica,sans-Serif" font-size="10.00">optional</text>
</a>
</g>
</g>
<!-- Node1&#45;&gt;Node5 -->
<g id="edge27" class="edge">
<title>Node1&#45;&gt;Node5</title>
<path fill="none" stroke="#63b8ff" d="M267.48,-224.59C237.42,-216.3 201.65,-204.25 171.88,-188 119.19,-159.25 67.28,-110.4 41.56,-84.44"/>
<polygon fill="#63b8ff" stroke="#63b8ff" points="44.14,-82.07 34.65,-77.36 39.13,-86.96 44.14,-82.07"/>
</g>
<!-- Node12 -->
<g id="node12" class="node">
<title>Node12</title>
<g id="a_node12"><a xlink:href="vk__atlas_8h.html" target="_top" xlink:title=" ">
<polygon fill="white" stroke="#666666" points="361.38,-188 300.38,-188 300.38,-168 361.38,-168 361.38,-188"/>
<text xml:space="preserve" text-anchor="middle" x="330.88" y="-174.5" font-family="Helvetica,sans-Serif" font-size="10.00">vk_atlas.h</text>
</a>
</g>
</g>
<!-- Node1&#45;&gt;Node12 -->
<g id="edge12" class="edge">
<title>Node1&#45;&gt;Node12</title>
<path fill="none" stroke="#63b8ff" d="M330.88,-223.55C330.88,-216.34 330.88,-207.66 330.88,-199.88"/>
<polygon fill="#63b8ff" stroke="#63b8ff" points="334.38,-199.92 330.88,-189.92 327.38,-199.92 334.38,-199.92"/>
</g>
<!-- Node15 -->
<g id="node15" class="node">
<title>Node15</title>
<g id="a_node15"><a xlink:href="vk__buffers_8h.html" target="_top" xlink:title=" ">
<polygon fill="white" stroke="#666666" points="539.5,-188 470.25,-188 470.25,-168 539.5,-168 539.5,-188"/>
<text xml:space="preserve" text-anchor="middle" x="504.88" y="-174.5" font-family="Helvetica,sans-Serif" font-size="10.00">vk_buffers.h</text>
</a>
</g>
</g>
<!-- Node1&#45;&gt;Node15 -->
<g id="edge16" class="edge">
<title>Node1&#45;&gt;Node15</title>
<path fill="none" stroke="#63b8ff" d="M375.68,-223.55C403.79,-213.86 439.65,-201.49 466.45,-192.25"/>
<polygon fill="#63b8ff" stroke="#63b8ff" points="467.59,-195.56 475.9,-188.99 465.31,-188.94 467.59,-195.56"/>
</g>
<!-- Node16 -->
<g id="node16" class="node">
<title>Node16</title>
<g id="a_node16"><a xlink:href="vk__context_8h.html" target="_top" xlink:title=" ">
<polygon fill="white" stroke="#666666" points="452,-188 379.75,-188 379.75,-168 452,-168 452,-188"/>
<text xml:space="preserve" text-anchor="middle" x="415.88" y="-174.5" font-family="Helvetica,sans-Serif" font-size="10.00">vk_context.h</text>
</a>
</g>
</g>
<!-- Node1&#45;&gt;Node16 -->
<g id="edge20" class="edge">
<title>Node1&#45;&gt;Node16</title>
<path fill="none" stroke="#63b8ff" d="M352.76,-223.55C365.18,-214.78 380.7,-203.83 393.24,-194.97"/>
<polygon fill="#63b8ff" stroke="#63b8ff" points="395.16,-197.91 401.31,-189.28 391.12,-192.19 395.16,-197.91"/>
</g>
<!-- Node17 -->
<g id="node17" class="node">
<title>Node17</title>
<g id="a_node17"><a xlink:href="vk__pipeline_8h.html" target="_top" xlink:title=" ">
<polygon fill="white" stroke="#666666" points="630.38,-188 557.38,-188 557.38,-168 630.38,-168 630.38,-188"/>
<text xml:space="preserve" text-anchor="middle" x="593.88" y="-174.5" font-family="Helvetica,sans-Serif" font-size="10.00">vk_pipeline.h</text>
</a>
</g>
</g>
<!-- Node1&#45;&gt;Node17 -->
<g id="edge24" class="edge">
<title>Node1&#45;&gt;Node17</title>
<path fill="none" stroke="#63b8ff" d="M394.2,-224.55C440.85,-213.91 503.3,-199.66 545.86,-189.95"/>
<polygon fill="#63b8ff" stroke="#63b8ff" points="546.59,-193.38 555.57,-187.74 545.04,-186.55 546.59,-193.38"/>
</g>
<!-- Node2&#45;&gt;Node3 -->
<g id="edge2" class="edge">
<title>Node2&#45;&gt;Node3</title>
<path fill="none" stroke="#63b8ff" d="M226.86,-167.59C216.86,-159.77 202.41,-148.46 190.57,-139.19"/>
<polygon fill="#63b8ff" stroke="#63b8ff" points="192.98,-136.64 182.95,-133.23 188.67,-142.15 192.98,-136.64"/>
</g>
<!-- Node11 -->
<g id="node11" class="node">
<title>Node11</title>
<g id="a_node11"><a xlink:title=" ">
<polygon fill="#e0e0e0" stroke="#999999" points="393.38,-76 350.38,-76 350.38,-56 393.38,-56 393.38,-76"/>
<text xml:space="preserve" text-anchor="middle" x="371.88" y="-62.5" font-family="Helvetica,sans-Serif" font-size="10.00">vector</text>
</a>
</g>
</g>
<!-- Node2&#45;&gt;Node11 -->
<g id="edge11" class="edge">
<title>Node2&#45;&gt;Node11</title>
<path fill="none" stroke="#63b8ff" d="M250.21,-167.62C272.79,-148.95 323.61,-106.92 351.91,-83.52"/>
<polygon fill="#63b8ff" stroke="#63b8ff" points="353.92,-86.39 359.4,-77.32 349.46,-81 353.92,-86.39"/>
</g>
<!-- Node4 -->
<g id="node4" class="node">
<title>Node4</title>
<g id="a_node4"><a xlink:title=" ">
<polygon fill="#e0e0e0" stroke="#999999" points="119.5,-76 68.25,-76 68.25,-56 119.5,-56 119.5,-76"/>
<text xml:space="preserve" text-anchor="middle" x="93.88" y="-62.5" font-family="Helvetica,sans-Serif" font-size="10.00">memory</text>
</a>
</g>
</g>
<!-- Node3&#45;&gt;Node4 -->
<g id="edge3" class="edge">
<title>Node3&#45;&gt;Node4</title>
<path fill="none" stroke="#63b8ff" d="M156.64,-111.59C145.59,-103.74 129.59,-92.38 116.52,-83.09"/>
<polygon fill="#63b8ff" stroke="#63b8ff" points="118.63,-80.3 108.45,-77.36 114.57,-86 118.63,-80.3"/>
</g>
<!-- Node3&#45;&gt;Node5 -->
<g id="edge4" class="edge">
<title>Node3&#45;&gt;Node5</title>
<path fill="none" stroke="#63b8ff" d="M144.62,-111.59C121.33,-102.92 86.53,-89.96 60.43,-80.24"/>
<polygon fill="#63b8ff" stroke="#63b8ff" points="61.85,-77.04 51.26,-76.83 59.41,-83.6 61.85,-77.04"/>
</g>
<!-- Node6 -->
<g id="node6" class="node">
<title>Node6</title>
<g id="a_node6"><a xlink:title=" ">
<polygon fill="#e0e0e0" stroke="#999999" points="174.38,-76 137.38,-76 137.38,-56 174.38,-56 174.38,-76"/>
<text xml:space="preserve" text-anchor="middle" x="155.88" y="-62.5" font-family="Helvetica,sans-Serif" font-size="10.00">span</text>
</a>
</g>
</g>
<!-- Node3&#45;&gt;Node6 -->
<g id="edge5" class="edge">
<title>Node3&#45;&gt;Node6</title>
<path fill="none" stroke="#63b8ff" d="M167.44,-111.59C165.71,-104.93 163.33,-95.75 161.17,-87.44"/>
<polygon fill="#63b8ff" stroke="#63b8ff" points="164.56,-86.56 158.67,-77.76 157.79,-88.32 164.56,-86.56"/>
</g>
<!-- Node7 -->
<g id="node7" class="node">
<title>Node7</title>
<g id="a_node7"><a xlink:href="types_8h.html" target="_top" xlink:title=" ">
<polygon fill="white" stroke="#666666" points="332.62,-76 249.12,-76 249.12,-56 332.62,-56 332.62,-76"/>
<text xml:space="preserve" text-anchor="middle" x="290.88" y="-62.5" font-family="Helvetica,sans-Serif" font-size="10.00">spectre/types.h</text>
</a>
</g>
</g>
<!-- Node3&#45;&gt;Node7 -->
<g id="edge6" class="edge">
<title>Node3&#45;&gt;Node7</title>
<path fill="none" stroke="#63b8ff" d="M190.95,-111.59C209.83,-103.17 237.79,-90.69 259.34,-81.07"/>
<polygon fill="#63b8ff" stroke="#63b8ff" points="260.55,-84.37 268.25,-77.1 257.69,-77.98 260.55,-84.37"/>
</g>
<!-- Node10 -->
<g id="node10" class="node">
<title>Node10</title>
<g id="a_node10"><a xlink:title=" ">
<polygon fill="#e0e0e0" stroke="#999999" points="231.5,-76 192.25,-76 192.25,-56 231.5,-56 231.5,-76"/>
<text xml:space="preserve" text-anchor="middle" x="211.88" y="-62.5" font-family="Helvetica,sans-Serif" font-size="10.00">utility</text>
</a>
</g>
</g>
<!-- Node3&#45;&gt;Node10 -->
<g id="edge9" class="edge">
<title>Node3&#45;&gt;Node10</title>
<path fill="none" stroke="#63b8ff" d="M177.19,-111.59C182.85,-104.32 190.86,-94.02 197.76,-85.15"/>
<polygon fill="#63b8ff" stroke="#63b8ff" points="200.34,-87.54 203.71,-77.49 194.81,-83.24 200.34,-87.54"/>
</g>
<!-- Node3&#45;&gt;Node11 -->
<g id="edge10" class="edge">
<title>Node3&#45;&gt;Node11</title>
<path fill="none" stroke="#63b8ff" d="M207.56,-111.55C240.09,-103.3 288.61,-90.79 338.86,-76.78"/>
<polygon fill="#63b8ff" stroke="#63b8ff" points="339.8,-80.15 348.49,-74.09 337.92,-73.41 339.8,-80.15"/>
</g>
<!-- Node8 -->
<g id="node8" class="node">
<title>Node8</title>
<g id="a_node8"><a xlink:title=" ">
<polygon fill="#e0e0e0" stroke="#999999" points="309.75,-20 272,-20 272,0 309.75,0 309.75,-20"/>
<text xml:space="preserve" text-anchor="middle" x="290.88" y="-6.5" font-family="Helvetica,sans-Serif" font-size="10.00">array</text>
</a>
</g>
</g>
<!-- Node7&#45;&gt;Node8 -->
<g id="edge7" class="edge">
<title>Node7&#45;&gt;Node8</title>
<path fill="none" stroke="#63b8ff" d="M290.88,-55.59C290.88,-49.01 290.88,-39.96 290.88,-31.73"/>
<polygon fill="#63b8ff" stroke="#63b8ff" points="294.38,-31.81 290.88,-21.81 287.38,-31.81 294.38,-31.81"/>
</g>
<!-- Node9 -->
<g id="node9" class="node">
<title>Node9</title>
<g id="a_node9"><a xlink:title=" ">
<polygon fill="#e0e0e0" stroke="#999999" points="485.5,-20 440.25,-20 440.25,0 485.5,0 485.5,-20"/>
<text xml:space="preserve" text-anchor="middle" x="462.88" y="-6.5" font-family="Helvetica,sans-Serif" font-size="10.00">cstdint</text>
</a>
</g>
</g>
<!-- Node7&#45;&gt;Node9 -->
<g id="edge8" class="edge">
<title>Node7&#45;&gt;Node9</title>
<path fill="none" stroke="#63b8ff" d="M320.84,-55.59C351.01,-46.12 397.48,-31.53 428.99,-21.64"/>
<polygon fill="#63b8ff" stroke="#63b8ff" points="429.92,-25.01 438.41,-18.68 427.82,-18.34 429.92,-25.01"/>
</g>
<!-- Node12&#45;&gt;Node7 -->
<g id="edge13" class="edge">
<title>Node12&#45;&gt;Node7</title>
<path fill="none" stroke="#63b8ff" d="M327.46,-167.62C321,-149.84 306.83,-110.88 298.15,-87"/>
<polygon fill="#63b8ff" stroke="#63b8ff" points="301.5,-85.98 294.79,-77.78 294.92,-88.37 301.5,-85.98"/>
</g>
<!-- Node13 -->
<g id="node13" class="node">
<title>Node13</title>
<g id="a_node13"><a xlink:title=" ">
<polygon fill="#e0e0e0" stroke="#999999" points="444.5,-132 357.25,-132 357.25,-112 444.5,-112 444.5,-132"/>
<text xml:space="preserve" text-anchor="middle" x="400.88" y="-118.5" font-family="Helvetica,sans-Serif" font-size="10.00">vk_mem_alloc.h</text>
</a>
</g>
</g>
<!-- Node12&#45;&gt;Node13 -->
<g id="edge14" class="edge">
<title>Node12&#45;&gt;Node13</title>
<path fill="none" stroke="#63b8ff" d="M343.07,-167.59C353.21,-159.77 367.87,-148.46 379.89,-139.19"/>
<polygon fill="#63b8ff" stroke="#63b8ff" points="381.84,-142.1 387.62,-133.22 377.57,-136.56 381.84,-142.1"/>
</g>
<!-- Node14 -->
<g id="node14" class="node">
<title>Node14</title>
<g id="a_node14"><a xlink:title=" ">
<polygon fill="#e0e0e0" stroke="#999999" points="547,-132 462.75,-132 462.75,-112 547,-112 547,-132"/>
<text xml:space="preserve" text-anchor="middle" x="504.88" y="-118.5" font-family="Helvetica,sans-Serif" font-size="10.00">vulkan/vulkan.h</text>
</a>
</g>
</g>
<!-- Node12&#45;&gt;Node14 -->
<g id="edge15" class="edge">
<title>Node12&#45;&gt;Node14</title>
<path fill="none" stroke="#63b8ff" d="M361.18,-167.59C389.58,-158.78 432.24,-145.54 463.71,-135.78"/>
<polygon fill="#63b8ff" stroke="#63b8ff" points="464.37,-139.23 472.88,-132.93 462.3,-132.55 464.37,-139.23"/>
</g>
<!-- Node15&#45;&gt;Node9 -->
<g id="edge17" class="edge">
<title>Node15&#45;&gt;Node9</title>
<path fill="none" stroke="#63b8ff" d="M521.6,-167.6C533.62,-159.8 548.88,-147.5 555.88,-132 559.53,-123.9 559.11,-120.28 555.88,-112 541.77,-75.86 508.01,-44.85 485.29,-27.06"/>
<polygon fill="#63b8ff" stroke="#63b8ff" points="487.61,-24.42 477.52,-21.17 483.38,-30 487.61,-24.42"/>
</g>
<!-- Node15&#45;&gt;Node13 -->
<g id="edge18" class="edge">
<title>Node15&#45;&gt;Node13</title>
<path fill="none" stroke="#63b8ff" d="M486.76,-167.59C470.9,-159.36 447.59,-147.26 429.26,-137.74"/>
<polygon fill="#63b8ff" stroke="#63b8ff" points="430.96,-134.68 420.48,-133.18 427.74,-140.89 430.96,-134.68"/>
</g>
<!-- Node15&#45;&gt;Node14 -->
<g id="edge19" class="edge">
<title>Node15&#45;&gt;Node14</title>
<path fill="none" stroke="#63b8ff" d="M504.88,-167.59C504.88,-161.01 504.88,-151.96 504.88,-143.73"/>
<polygon fill="#63b8ff" stroke="#63b8ff" points="508.38,-143.81 504.88,-133.81 501.38,-143.81 508.38,-143.81"/>
</g>
<!-- Node16&#45;&gt;Node11 -->
<g id="edge21" class="edge">
<title>Node16&#45;&gt;Node11</title>
<path fill="none" stroke="#63b8ff" d="M390.72,-167.63C375.34,-160.43 356.92,-148.83 347.88,-132 339.8,-116.97 348.04,-98.64 357,-85.28"/>
<polygon fill="#63b8ff" stroke="#63b8ff" points="359.7,-87.51 362.83,-77.39 354.07,-83.35 359.7,-87.51"/>
</g>
<!-- Node16&#45;&gt;Node13 -->
<g id="edge22" class="edge">
<title>Node16&#45;&gt;Node13</title>
<path fill="none" stroke="#63b8ff" d="M413.26,-167.59C411.39,-160.86 408.8,-151.53 406.47,-143.15"/>
<polygon fill="#63b8ff" stroke="#63b8ff" points="409.91,-142.46 403.86,-133.76 403.17,-144.33 409.91,-142.46"/>
</g>
<!-- Node16&#45;&gt;Node14 -->
<g id="edge23" class="edge">
<title>Node16&#45;&gt;Node14</title>
<path fill="none" stroke="#63b8ff" d="M431.38,-167.59C444.7,-159.51 464.15,-147.71 479.7,-138.27"/>
<polygon fill="#63b8ff" stroke="#63b8ff" points="481.22,-141.44 487.96,-133.26 477.59,-135.46 481.22,-141.44"/>
</g>
<!-- Node17&#45;&gt;Node14 -->
<g id="edge26" class="edge">
<title>Node17&#45;&gt;Node14</title>
<path fill="none" stroke="#63b8ff" d="M578.37,-167.59C565.05,-159.51 545.6,-147.71 530.05,-138.27"/>
<polygon fill="#63b8ff" stroke="#63b8ff" points="532.16,-135.46 521.79,-133.26 528.53,-141.44 532.16,-135.46"/>
</g>
<!-- Node18 -->
<g id="node18" class="node">
<title>Node18</title>
<g id="a_node18"><a xlink:title=" ">
<polygon fill="#e0e0e0" stroke="#999999" points="642.88,-132 602.88,-132 602.88,-112 642.88,-112 642.88,-132"/>
<text xml:space="preserve" text-anchor="middle" x="622.88" y="-118.5" font-family="Helvetica,sans-Serif" font-size="10.00">string</text>
</a>
</g>
</g>
<!-- Node17&#45;&gt;Node18 -->
<g id="edge25" class="edge">
<title>Node17&#45;&gt;Node18</title>
<path fill="none" stroke="#63b8ff" d="M598.93,-167.59C602.67,-160.63 607.9,-150.89 612.52,-142.29"/>
<polygon fill="#63b8ff" stroke="#63b8ff" points="615.52,-144.1 617.17,-133.63 609.35,-140.79 615.52,-144.1"/>
</g>
</g>
</svg>
        <g id="navigator" transform="translate(0 0)" fill="#404254">
                <rect fill="#f2f5e9" fill-opacity="0.5" stroke="#606060" stroke-width=".5" x="0" y="0" width="60" height="60"/>
                <use id="zoomplus" xlink:href="#zoomPlus" x="17" y="9" onmousedown="handleZoom(evt,'in')"/>
                <use id="zoomminus" xlink:href="#zoomMin" x="42" y="9" onmousedown="handleZoom(evt,'out')"/>
                <use id="reset" xlink:href="#resetDef" x="30" y="36" onmousedown="handleReset()"/>
                <g id="arrowUp" xlink:href="#dirArrow" transform="translate(30 24)" onmousedown="handlePan(0,-1)">
                  <use xlink:href="#rim" fill="#404040">
                        <set attributeName="fill" to="#808080" begin="arrowUp.mouseover" end="arrowUp.mouseout"/>
                  </use>
                  <path fill="none" stroke="white" stroke-width="1.5" d="M0,-3.0v7 M-2.5,-0.5L0,-3.0L2.5,-0.5"/>
                </g>
                <g id="arrowRight" xlink:href="#dirArrow" transform="rotate(90) translate(36 -43)" onmousedown="handlePan(1,0)">
                  <use xlink:href="#rim" fill="#404040">
                        <set attributeName="fill" to="#808080" begin="arrowRight.mouseover" end="arrowRight.mouseout"/>
                  </use>
                  <path fill="none" stroke="white" stroke-width="1.5" d="M0,-3.0v7 M-2.5,-0.5L0,-3.0L2.5,-0.5"/>
                </g>
                <g id="arrowDown" xlink:href="#dirArrow" transform="rotate(180) translate(-30 -48)" onmousedown="handlePan(0,1)">
                  <use xlink:href="#rim" fill="#404040">
                        <set attributeName="fill" to="#808080" begin="arrowDown.mouseover" end="arrowDown.mouseout"/>
                  </use>
                  <path fill="none" stroke="white" stroke-width="1.5" d="M0,-3.0v7 M-2.5,-0.5L0,-3.0L2.5,-0.5"/>
                </g>
                <g id="arrowLeft" xlink:href="#dirArrow" transform="rotate(270) translate(-36 17)" onmousedown="handlePan(-1,0)">
                  <use xlink:href="#rim" fill="#404040">
                        <set attributeName="fill" to="#808080" begin="arrowLeft.mouseover" end="arrowLeft.mouseout"/>
                  </use>
                  <path fill="none" stroke="white" stroke-width="1.5" d="M0,-3.0v7 M-2.5,-0.5L0,-3.0L2.5,-0.5"/>
                </g>
        </g>
        <svg viewBox="0 0 15 15" width="100%" height="30px" preserveAspectRatio="xMaxYMin meet">
         <g id="arrow_out" transform="scale(0.3 0.3)">
          <a xlink:href="vk__renderer_8h__incl_org.svg" target="_base">
           <rect id="button" ry="5" rx="5" y="6" x="6" height="38" width="38"
                fill="#f2f5e9" fill-opacity="0.5" stroke="#606060" stroke-width="1.0"/>
           <path id="arrow"
             d="M 11.500037,31.436501 C 11.940474,20.09759 22.043105,11.32322 32.158766,21.979434 L 37.068811,17.246167 C 37.068811,17.246167 37.088388,32 37.088388,32 L 22.160133,31.978069 C 22.160133,31.978069 26.997745,27.140456 26.997745,27.140456 C 18.528582,18.264221 13.291696,25.230495 11.500037,31.436501 z"
             style="fill:#404040;"/>
          </a>
         </g>
        </svg>
</svg>
