<?xml version="1.0" encoding="UTF-8" standalone="no"?>
<!DOCTYPE svg PUBLIC "-//W3C//DTD SVG 1.1//EN"
 "http://www.w3.org/Graphics/SVG/1.1/DTD/svg11.dtd">
<!-- Generated by graphviz version 14.1.3 (20260303.0454)
 -->
<!-- Title: libs/spectre&#45;renderer/src/vulkan/vk_atlas.h Pages: 1 -->
<svg width="306pt" height="152pt"
 viewBox="0.00 0.00 306.00 152.00" xmlns="http://www.w3.org/2000/svg" xmlns:xlink="http://www.w3.org/1999/xlink">
<g id="graph0" class="graph" transform="scale(1 1) rotate(0) translate(4 148)">
<title>libs/spectre&#45;renderer/src/vulkan/vk_atlas.h</title>
<!-- Node1 -->
<g id="node1" class="node">
<title>Node1</title>
<g id="a_node1"><a xlink:title=" ">
<polygon fill="#999999" stroke="#666666" points="207.88,-144 95.88,-144 95.88,-112 207.88,-112 207.88,-144"/>
<text xml:space="preserve" text-anchor="start" x="103.88" y="-130.5" font-family="Helvetica,sans-Serif" font-size="10.00">libs/spectre&#45;renderer</text>
<text xml:space="preserve" text-anchor="middle" x="151.88" y="-118.5" font-family="Helvetica,sans-Serif" font-size="10.00">/src/vulkan/vk_atlas.h</text>
</a>
</g>
</g>
<!-- Node2 -->
<g id="node2" class="node">
<title>Node2</title>
<g id="a_node2"><a xlink:href="types_8h.html" target="_top" xlink:title=" ">
<polygon fill="white" stroke="#666666" points="90.62,-76 7.12,-76 7.12,-56 90.62,-56 90.62,-76"/>
<text xml:space="preserve" text-anchor="middle" x="48.88" y="-62.5" font-family="Helvetica,sans-Serif" font-size="10.00">spectre/types.h</text>
</a>
</g>
</g>
<!-- Node1&#45;&gt;Node2 -->
<g id="edge1" class="edge">
<title>Node1&#45;&gt;Node2</title>
<path fill="none" stroke="#63b8ff" d="M125.35,-111.55C109.85,-102.52 90.37,-91.17 74.95,-82.19"/>
<polygon fill="#63b8ff" stroke="#63b8ff" points="76.74,-79.18 66.33,-77.17 73.21,-85.23 76.74,-79.18"/>
</g>
<!-- Node5 -->
<g id="node5" class="node">
<title>Node5</title>
<g id="a_node5"><a xlink:title=" ">
<polygon fill="#e0e0e0" stroke="#999999" points="195.5,-76 108.25,-76 108.25,-56 195.5,-56 195.5,-76"/>
<text xml:space="preserve" text-anchor="middle" x="151.88" y="-62.5" font-family="Helvetica,sans-Serif" font-size="10.00">vk_mem_alloc.h</text>
</a>
</g>
</g>
<!-- Node1&#45;&gt;Node5 -->
<g id="edge4" class="edge">
<title>Node1&#45;&gt;Node5</title>
<path fill="none" stroke="#63b8ff" d="M151.88,-111.55C151.88,-104.34 151.88,-95.66 151.88,-87.88"/>
<polygon fill="#63b8ff" stroke="#63b8ff" points="155.38,-87.92 151.88,-77.92 148.38,-87.92 155.38,-87.92"/>
</g>
<!-- Node6 -->
<g id="node6" class="node">
<title>Node6</title>
<g id="a_node6"><a xlink:title=" ">
<polygon fill="#e0e0e0" stroke="#999999" points="298,-76 213.75,-76 213.75,-56 298,-56 298,-76"/>
<text xml:space="preserve" text-anchor="middle" x="255.88" y="-62.5" font-family="Helvetica,sans-Serif" font-size="10.00">vulkan/vulkan.h</text>
</a>
</g>
</g>
<!-- Node1&#45;&gt;Node6 -->
<g id="edge5" class="edge">
<title>Node1&#45;&gt;Node6</title>
<path fill="none" stroke="#63b8ff" d="M178.66,-111.55C194.46,-102.43 214.35,-90.96 229.99,-81.93"/>
<polygon fill="#63b8ff" stroke="#63b8ff" points="231.34,-85.19 238.26,-77.16 227.85,-79.13 231.34,-85.19"/>
</g>
<!-- Node3 -->
<g id="node3" class="node">
<title>Node3</title>
<g id="a_node3"><a xlink:title=" ">
<polygon fill="#e0e0e0" stroke="#999999" points="37.75,-20 0,-20 0,0 37.75,0 37.75,-20"/>
<text xml:space="preserve" text-anchor="middle" x="18.88" y="-6.5" font-family="Helvetica,sans-Serif" font-size="10.00">array</text>
</a>
</g>
</g>
<!-- Node2&#45;&gt;Node3 -->
<g id="edge2" class="edge">
<title>Node2&#45;&gt;Node3</title>
<path fill="none" stroke="#63b8ff" d="M43.65,-55.59C39.78,-48.63 34.37,-38.89 29.59,-30.29"/>
<polygon fill="#63b8ff" stroke="#63b8ff" points="32.69,-28.66 24.78,-21.62 26.57,-32.06 32.69,-28.66"/>
</g>
<!-- Node4 -->
<g id="node4" class="node">
<title>Node4</title>
<g id="a_node4"><a xlink:title=" ">
<polygon fill="#e0e0e0" stroke="#999999" points="101.5,-20 56.25,-20 56.25,0 101.5,0 101.5,-20"/>
<text xml:space="preserve" text-anchor="middle" x="78.88" y="-6.5" font-family="Helvetica,sans-Serif" font-size="10.00">cstdint</text>
</a>
</g>
</g>
<!-- Node2&#45;&gt;Node4 -->
<g id="edge3" class="edge">
<title>Node2&#45;&gt;Node4</title>
<path fill="none" stroke="#63b8ff" d="M54.1,-55.59C57.97,-48.63 63.38,-38.89 68.16,-30.29"/>
<polygon fill="#63b8ff" stroke="#63b8ff" points="71.18,-32.06 72.97,-21.62 65.06,-28.66 71.18,-32.06"/>
</g>
</g>
</svg>
