<?xml version="1.0" encoding="UTF-8" standalone="no"?>
<!DOCTYPE svg PUBLIC "-//W3C//DTD SVG 1.1//EN"
 "http://www.w3.org/Graphics/SVG/1.1/DTD/svg11.dtd">
<!-- Generated by graphviz version 14.1.3 (20260303.0454)
 -->
<!-- Title: libs/spectre&#45;renderer/src/vulkan/vk_buffers.h Pages: 1 -->
<svg width="261pt" height="96pt"
 viewBox="0.00 0.00 261.00 96.00" xmlns="http://www.w3.org/2000/svg" xmlns:xlink="http://www.w3.org/1999/xlink">
<g id="graph0" class="graph" transform="scale(1 1) rotate(0) translate(4 92)">
<title>libs/spectre&#45;renderer/src/vulkan/vk_buffers.h</title>
<!-- Node1 -->
<g id="node1" class="node">
<title>Node1</title>
<g id="a_node1"><a xlink:title=" ">
<polygon fill="#999999" stroke="#666666" points="166.75,-88 46.5,-88 46.5,-56 166.75,-56 166.75,-88"/>
<text xml:space="preserve" text-anchor="start" x="54.5" y="-74.5" font-family="Helvetica,sans-Serif" font-size="10.00">libs/spectre&#45;renderer</text>
<text xml:space="preserve" text-anchor="middle" x="106.62" y="-62.5" font-family="Helvetica,sans-Serif" font-size="10.00">/src/vulkan/vk_buffers.h</text>
</a>
</g>
</g>
<!-- Node2 -->
<g id="node2" class="node">
<title>Node2</title>
<g id="a_node2"><a xlink:title=" ">
<polygon fill="#e0e0e0" stroke="#999999" points="45.25,-20 0,-20 0,0 45.25,0 45.25,-20"/>
<text xml:space="preserve" text-anchor="middle" x="22.62" y="-6.5" font-family="Helvetica,sans-Serif" font-size="10.00">cstdint</text>
</a>
</g>
</g>
<!-- Node1&#45;&gt;Node2 -->
<g id="edge1" class="edge">
<title>Node1&#45;&gt;Node2</title>
<path fill="none" stroke="#63b8ff" d="M84.99,-55.55C72.72,-46.78 57.38,-35.83 44.99,-26.97"/>
<polygon fill="#63b8ff" stroke="#63b8ff" points="47.2,-24.25 37.03,-21.29 43.13,-29.95 47.2,-24.25"/>
</g>
<!-- Node3 -->
<g id="node3" class="node">
<title>Node3</title>
<g id="a_node3"><a xlink:title=" ">
<polygon fill="#e0e0e0" stroke="#999999" points="150.25,-20 63,-20 63,0 150.25,0 150.25,-20"/>
<text xml:space="preserve" text-anchor="middle" x="106.62" y="-6.5" font-family="Helvetica,sans-Serif" font-size="10.00">vk_mem_alloc.h</text>
</a>
</g>
</g>
<!-- Node1&#45;&gt;Node3 -->
<g id="edge2" class="edge">
<title>Node1&#45;&gt;Node3</title>
<path fill="none" stroke="#63b8ff" d="M106.62,-55.55C106.62,-48.34 106.62,-39.66 106.62,-31.88"/>
<polygon fill="#63b8ff" stroke="#63b8ff" points="110.13,-31.92 106.63,-21.92 103.13,-31.92 110.13,-31.92"/>
</g>
<!-- Node4 -->
<g id="node4" class="node">
<title>Node4</title>
<g id="a_node4"><a xlink:title=" ">
<polygon fill="#e0e0e0" stroke="#999999" points="252.75,-20 168.5,-20 168.5,0 252.75,0 252.75,-20"/>
<text xml:space="preserve" text-anchor="middle" x="210.62" y="-6.5" font-family="Helvetica,sans-Serif" font-size="10.00">vulkan/vulkan.h</text>
</a>
</g>
</g>
<!-- Node1&#45;&gt;Node4 -->
<g id="edge3" class="edge">
<title>Node1&#45;&gt;Node4</title>
<path fill="none" stroke="#63b8ff" d="M133.41,-55.55C149.21,-46.43 169.1,-34.96 184.74,-25.93"/>
<polygon fill="#63b8ff" stroke="#63b8ff" points="186.09,-29.19 193.01,-21.16 182.6,-23.13 186.09,-29.19"/>
</g>
</g>
</svg>
