<?xml version="1.0" encoding="UTF-8" standalone="no"?>
<!DOCTYPE svg PUBLIC "-//W3C//DTD SVG 1.1//EN"
 "http://www.w3.org/Graphics/SVG/1.1/DTD/svg11.dtd">
<!-- Generated by graphviz version 14.1.3 (20260303.0454)
 -->
<!-- Title: libs/spectre&#45;renderer/src/vulkan/vk_pipeline.h Pages: 1 -->
<svg width="152pt" height="96pt"
 viewBox="0.00 0.00 152.00 96.00" xmlns="http://www.w3.org/2000/svg" xmlns:xlink="http://www.w3.org/1999/xlink">
<g id="graph0" class="graph" transform="scale(1 1) rotate(0) translate(4 92)">
<title>libs/spectre&#45;renderer/src/vulkan/vk_pipeline.h</title>
<!-- Node1 -->
<g id="node1" class="node">
<title>Node1</title>
<g id="a_node1"><a xlink:title=" ">
<polygon fill="#999999" stroke="#666666" points="124,-88 0,-88 0,-56 124,-56 124,-88"/>
<text xml:space="preserve" text-anchor="start" x="8" y="-74.5" font-family="Helvetica,sans-Serif" font-size="10.00">libs/spectre&#45;renderer</text>
<text xml:space="preserve" text-anchor="middle" x="62" y="-62.5" font-family="Helvetica,sans-Serif" font-size="10.00">/src/vulkan/vk_pipeline.h</text>
</a>
</g>
</g>
<!-- Node2 -->
<g id="node2" class="node">
<title>Node2</title>
<g id="a_node2"><a xlink:title=" ">
<polygon fill="#e0e0e0" stroke="#999999" points="42,-20 2,-20 2,0 42,0 42,-20"/>
<text xml:space="preserve" text-anchor="middle" x="22" y="-6.5" font-family="Helvetica,sans-Serif" font-size="10.00">string</text>
</a>
</g>
</g>
<!-- Node1&#45;&gt;Node2 -->
<g id="edge1" class="edge">
<title>Node1&#45;&gt;Node2</title>
<path fill="none" stroke="#63b8ff" d="M51.7,-55.55C46.49,-47.74 40.12,-38.19 34.62,-29.94"/>
<polygon fill="#63b8ff" stroke="#63b8ff" points="37.57,-28.05 29.11,-21.67 31.75,-31.93 37.57,-28.05"/>
</g>
<!-- Node3 -->
<g id="node3" class="node">
<title>Node3</title>
<g id="a_node3"><a xlink:title=" ">
<polygon fill="#e0e0e0" stroke="#999999" points="144.12,-20 59.88,-20 59.88,0 144.12,0 144.12,-20"/>
<text xml:space="preserve" text-anchor="middle" x="102" y="-6.5" font-family="Helvetica,sans-Serif" font-size="10.00">vulkan/vulkan.h</text>
</a>
</g>
</g>
<!-- Node1&#45;&gt;Node3 -->
<g id="edge2" class="edge">
<title>Node1&#45;&gt;Node3</title>
<path fill="none" stroke="#63b8ff" d="M72.3,-55.55C77.51,-47.74 83.88,-38.19 89.38,-29.94"/>
<polygon fill="#63b8ff" stroke="#63b8ff" points="92.25,-31.93 94.89,-21.67 86.43,-28.05 92.25,-31.93"/>
</g>
</g>
</svg>
