<?xml version="1.0" encoding="UTF-8" standalone="no"?>
<!DOCTYPE svg PUBLIC "-//W3C//DTD SVG 1.1//EN"
 "http://www.w3.org/Graphics/SVG/1.1/DTD/svg11.dtd">
<!-- Generated by graphviz version 14.1.3 (20260303.0454)
 -->
<!-- Title: libs/spectre&#45;renderer/src/vulkan/vk_context.h Pages: 1 -->
<svg width="259pt" height="96pt"
 viewBox="0.00 0.00 259.00 96.00" xmlns="http://www.w3.org/2000/svg" xmlns:xlink="http://www.w3.org/1999/xlink">
<g id="graph0" class="graph" transform="scale(1 1) rotate(0) translate(4 92)">
<title>libs/spectre&#45;renderer/src/vulkan/vk_context.h</title>
<!-- Node1 -->
<g id="node1" class="node">
<title>Node1</title>
<g id="a_node1"><a xlink:title=" ">
<polygon fill="#999999" stroke="#666666" points="166.12,-88 42.88,-88 42.88,-56 166.12,-56 166.12,-88"/>
<text xml:space="preserve" text-anchor="start" x="50.88" y="-74.5" font-family="Helvetica,sans-Serif" font-size="10.00">libs/spectre&#45;renderer</text>
<text xml:space="preserve" text-anchor="middle" x="104.5" y="-62.5" font-family="Helvetica,sans-Serif" font-size="10.00">/src/vulkan/vk_context.h</text>
</a>
</g>
</g>
<!-- Node2 -->
<g id="node2" class="node">
<title>Node2</title>
<g id="a_node2"><a xlink:title=" ">
<polygon fill="#e0e0e0" stroke="#999999" points="43,-20 0,-20 0,0 43,0 43,-20"/>
<text xml:space="preserve" text-anchor="middle" x="21.5" y="-6.5" font-family="Helvetica,sans-Serif" font-size="10.00">vector</text>
</a>
</g>
</g>
<!-- Node1&#45;&gt;Node2 -->
<g id="edge1" class="edge">
<title>Node1&#45;&gt;Node2</title>
<path fill="none" stroke="#63b8ff" d="M83.13,-55.55C71,-46.78 55.84,-35.83 43.6,-26.97"/>
<polygon fill="#63b8ff" stroke="#63b8ff" points="45.9,-24.32 35.74,-21.29 41.79,-29.99 45.9,-24.32"/>
</g>
<!-- Node3 -->
<g id="node3" class="node">
<title>Node3</title>
<g id="a_node3"><a xlink:title=" ">
<polygon fill="#e0e0e0" stroke="#999999" points="148.12,-20 60.88,-20 60.88,0 148.12,0 148.12,-20"/>
<text xml:space="preserve" text-anchor="middle" x="104.5" y="-6.5" font-family="Helvetica,sans-Serif" font-size="10.00">vk_mem_alloc.h</text>
</a>
</g>
</g>
<!-- Node1&#45;&gt;Node3 -->
<g id="edge2" class="edge">
<title>Node1&#45;&gt;Node3</title>
<path fill="none" stroke="#63b8ff" d="M104.5,-55.55C104.5,-48.34 104.5,-39.66 104.5,-31.88"/>
<polygon fill="#63b8ff" stroke="#63b8ff" points="108,-31.92 104.5,-21.92 101,-31.92 108,-31.92"/>
</g>
<!-- Node4 -->
<g id="node4" class="node">
<title>Node4</title>
<g id="a_node4"><a xlink:title=" ">
<polygon fill="#e0e0e0" stroke="#999999" points="250.62,-20 166.38,-20 166.38,0 250.62,0 250.62,-20"/>
<text xml:space="preserve" text-anchor="middle" x="208.5" y="-6.5" font-family="Helvetica,sans-Serif" font-size="10.00">vulkan/vulkan.h</text>
</a>
</g>
</g>
<!-- Node1&#45;&gt;Node4 -->
<g id="edge3" class="edge">
<title>Node1&#45;&gt;Node4</title>
<path fill="none" stroke="#63b8ff" d="M131.28,-55.55C147.08,-46.43 166.98,-34.96 182.62,-25.93"/>
<polygon fill="#63b8ff" stroke="#63b8ff" points="183.97,-29.19 190.88,-21.16 180.47,-23.13 183.97,-29.19"/>
</g>
</g>
</svg>
