<?xml version="1.0" encoding="UTF-8" standalone="no"?>
<!DOCTYPE svg PUBLIC "-//W3C//DTD SVG 1.1//EN"
 "http://www.w3.org/Graphics/SVG/1.1/DTD/svg11.dtd">
<!-- Generated by graphviz version 14.1.3 (20260303.0454)
 -->
<!-- Title: libs/spectre&#45;window/include/spectre/window.h Pages: 1 -->
<svg width="288pt" height="152pt"
 viewBox="0.00 0.00 288.00 152.00" xmlns="http://www.w3.org/2000/svg" xmlns:xlink="http://www.w3.org/1999/xlink">
<g id="graph0" class="graph" transform="scale(1 1) rotate(0) translate(4 148)">
<title>libs/spectre&#45;window/include/spectre/window.h</title>
<!-- Node1 -->
<g id="node1" class="node">
<title>Node1</title>
<g id="a_node1"><a xlink:title=" ">
<polygon fill="#999999" stroke="#666666" points="225.25,-144 96.75,-144 96.75,-112 225.25,-112 225.25,-144"/>
<text xml:space="preserve" text-anchor="start" x="104.75" y="-130.5" font-family="Helvetica,sans-Serif" font-size="10.00">libs/spectre&#45;window</text>
<text xml:space="preserve" text-anchor="middle" x="161" y="-118.5" font-family="Helvetica,sans-Serif" font-size="10.00">/include/spectre/window.h</text>
</a>
</g>
</g>
<!-- Node2 -->
<g id="node2" class="node">
<title>Node2</title>
<g id="a_node2"><a xlink:title=" ">
<polygon fill="#e0e0e0" stroke="#999999" points="58,-76 0,-76 0,-56 58,-56 58,-76"/>
<text xml:space="preserve" text-anchor="middle" x="29" y="-62.5" font-family="Helvetica,sans-Serif" font-size="10.00">functional</text>
</a>
</g>
</g>
<!-- Node1&#45;&gt;Node2 -->
<g id="edge1" class="edge">
<title>Node1&#45;&gt;Node2</title>
<path fill="none" stroke="#63b8ff" d="M127.01,-111.55C106.38,-102.17 80.26,-90.3 60.16,-81.17"/>
<polygon fill="#63b8ff" stroke="#63b8ff" points="61.63,-77.99 51.08,-77.03 58.73,-84.36 61.63,-77.99"/>
</g>
<!-- Node3 -->
<g id="node3" class="node">
<title>Node3</title>
<g id="a_node3"><a xlink:href="events_8h.html" target="_top" xlink:title=" ">
<polygon fill="white" stroke="#666666" points="164.38,-76 75.62,-76 75.62,-56 164.38,-56 164.38,-76"/>
<text xml:space="preserve" text-anchor="middle" x="120" y="-62.5" font-family="Helvetica,sans-Serif" font-size="10.00">spectre/events.h</text>
</a>
</g>
</g>
<!-- Node1&#45;&gt;Node3 -->
<g id="edge2" class="edge">
<title>Node1&#45;&gt;Node3</title>
<path fill="none" stroke="#63b8ff" d="M150.44,-111.55C145.04,-103.65 138.43,-93.97 132.75,-85.66"/>
<polygon fill="#63b8ff" stroke="#63b8ff" points="135.81,-83.94 127.28,-77.66 130.03,-87.89 135.81,-83.94"/>
</g>
<!-- Node5 -->
<g id="node5" class="node">
<title>Node5</title>
<g id="a_node5"><a xlink:title=" ">
<polygon fill="#e0e0e0" stroke="#999999" points="222,-76 182,-76 182,-56 222,-56 222,-76"/>
<text xml:space="preserve" text-anchor="middle" x="202" y="-62.5" font-family="Helvetica,sans-Serif" font-size="10.00">string</text>
</a>
</g>
</g>
<!-- Node1&#45;&gt;Node5 -->
<g id="edge4" class="edge">
<title>Node1&#45;&gt;Node5</title>
<path fill="none" stroke="#63b8ff" d="M171.56,-111.55C176.96,-103.65 183.57,-93.97 189.25,-85.66"/>
<polygon fill="#63b8ff" stroke="#63b8ff" points="191.97,-87.89 194.72,-77.66 186.19,-83.94 191.97,-87.89"/>
</g>
<!-- Node6 -->
<g id="node6" class="node">
<title>Node6</title>
<g id="a_node6"><a xlink:title=" ">
<polygon fill="#e0e0e0" stroke="#999999" points="279.62,-76 240.38,-76 240.38,-56 279.62,-56 279.62,-76"/>
<text xml:space="preserve" text-anchor="middle" x="260" y="-62.5" font-family="Helvetica,sans-Serif" font-size="10.00">utility</text>
</a>
</g>
</g>
<!-- Node1&#45;&gt;Node6 -->
<g id="edge5" class="edge">
<title>Node1&#45;&gt;Node6</title>
<path fill="none" stroke="#63b8ff" d="M186.49,-111.55C201.39,-102.52 220.11,-91.17 234.93,-82.19"/>
<polygon fill="#63b8ff" stroke="#63b8ff" points="236.44,-85.37 243.18,-77.19 232.82,-79.38 236.44,-85.37"/>
</g>
<!-- Node4 -->
<g id="node4" class="node">
<title>Node4</title>
<g id="a_node4"><a xlink:title=" ">
<polygon fill="#e0e0e0" stroke="#999999" points="142.62,-20 97.38,-20 97.38,0 142.62,0 142.62,-20"/>
<text xml:space="preserve" text-anchor="middle" x="120" y="-6.5" font-family="Helvetica,sans-Serif" font-size="10.00">cstdint</text>
</a>
</g>
</g>
<!-- Node3&#45;&gt;Node4 -->
<g id="edge3" class="edge">
<title>Node3&#45;&gt;Node4</title>
<path fill="none" stroke="#63b8ff" d="M120,-55.59C120,-49.01 120,-39.96 120,-31.73"/>
<polygon fill="#63b8ff" stroke="#63b8ff" points="123.5,-31.81 120,-21.81 116.5,-31.81 123.5,-31.81"/>
</g>
</g>
</svg>
