<?xml version="1.0" encoding="UTF-8" standalone="no"?>
<!DOCTYPE svg PUBLIC "-//W3C//DTD SVG 1.1//EN"
 "http://www.w3.org/Graphics/SVG/1.1/DTD/svg11.dtd">
<!-- Generated by graphviz version 14.1.3 (20260303.0454)
 -->
<!-- Title: libs/spectre&#45;window/include/spectre/window.h Pages: 1 -->
<svg width="137pt" height="232pt"
 viewBox="0.00 0.00 137.00 232.00" xmlns="http://www.w3.org/2000/svg" xmlns:xlink="http://www.w3.org/1999/xlink">
<g id="graph0" class="graph" transform="scale(1 1) rotate(0) translate(4 228)">
<title>libs/spectre&#45;window/include/spectre/window.h</title>
<!-- Node1 -->
<g id="node1" class="node">
<title>Node1</title>
<g id="a_node1"><a xlink:title=" ">
<polygon fill="#999999" stroke="#666666" points="128.5,-224 0,-224 0,-192 128.5,-192 128.5,-224"/>
<text xml:space="preserve" text-anchor="start" x="8" y="-210.5" font-family="Helvetica,sans-Serif" font-size="10.00">libs/spectre&#45;window</text>
<text xml:space="preserve" text-anchor="middle" x="64.25" y="-198.5" font-family="Helvetica,sans-Serif" font-size="10.00">/include/spectre/window.h</text>
</a>
</g>
</g>
<!-- Node2 -->
<g id="node2" class="node">
<title>Node2</title>
<g id="a_node2"><a xlink:href="sdl__window_8h.html" target="_top" xlink:title=" ">
<polygon fill="white" stroke="#666666" points="115.38,-156 13.12,-156 13.12,-112 115.38,-112 115.38,-156"/>
<text xml:space="preserve" text-anchor="start" x="21.12" y="-142.5" font-family="Helvetica,sans-Serif" font-size="10.00">libs/spectre&#45;window</text>
<text xml:space="preserve" text-anchor="start" x="21.12" y="-130.5" font-family="Helvetica,sans-Serif" font-size="10.00">/include/spectre/sdl</text>
<text xml:space="preserve" text-anchor="middle" x="64.25" y="-118.5" font-family="Helvetica,sans-Serif" font-size="10.00">_window.h</text>
</a>
</g>
</g>
<!-- Node1&#45;&gt;Node2 -->
<g id="edge1" class="edge">
<title>Node1&#45;&gt;Node2</title>
<path fill="none" stroke="#63b8ff" d="M64.25,-180.38C64.25,-172.43 64.25,-163.82 64.25,-156.26"/>
<polygon fill="#63b8ff" stroke="#63b8ff" points="60.75,-180.22 64.25,-190.22 67.75,-180.22 60.75,-180.22"/>
</g>
<!-- Node3 -->
<g id="node3" class="node">
<title>Node3</title>
<g id="a_node3"><a xlink:href="app_8h.html" target="_top" xlink:title=" ">
<polygon fill="white" stroke="#666666" points="93.62,-76 34.88,-76 34.88,-56 93.62,-56 93.62,-76"/>
<text xml:space="preserve" text-anchor="middle" x="64.25" y="-62.5" font-family="Helvetica,sans-Serif" font-size="10.00">app/app.h</text>
</a>
</g>
</g>
<!-- Node2&#45;&gt;Node3 -->
<g id="edge2" class="edge">
<title>Node2&#45;&gt;Node3</title>
<path fill="none" stroke="#63b8ff" d="M64.25,-100.43C64.25,-91.63 64.25,-82.8 64.25,-76.42"/>
<polygon fill="#63b8ff" stroke="#63b8ff" points="60.75,-100.24 64.25,-110.24 67.75,-100.24 60.75,-100.24"/>
</g>
<!-- Node4 -->
<g id="node4" class="node">
<title>Node4</title>
<g id="a_node4"><a xlink:href="render__test_8h.html" target="_top" xlink:title=" ">
<polygon fill="white" stroke="#666666" points="110.12,-20 18.38,-20 18.38,0 110.12,0 110.12,-20"/>
<text xml:space="preserve" text-anchor="middle" x="64.25" y="-6.5" font-family="Helvetica,sans-Serif" font-size="10.00">app/render_test.h</text>
</a>
</g>
</g>
<!-- Node3&#45;&gt;Node4 -->
<g id="edge3" class="edge">
<title>Node3&#45;&gt;Node4</title>
<path fill="none" stroke="#63b8ff" d="M64.25,-44.13C64.25,-35.9 64.25,-26.85 64.25,-20.3"/>
<polygon fill="#63b8ff" stroke="#63b8ff" points="60.75,-44.08 64.25,-54.08 67.75,-44.08 60.75,-44.08"/>
</g>
</g>
</svg>
